<svg width="289" height="219" viewBox="0 0 289 219" fill="none" xmlns="http://www.w3.org/2000/svg">
<path d="M215.556 187.113C214.198 187.195 213.569 188.006 213.019 189.209C208.558 198.964 200.659 204.627 191.007 208.829C182.857 212.377 174.546 214.14 165.803 214.751C161.279 215.067 156.874 216.419 152.44 217.302C143.772 219.027 135.527 217.668 127.236 215.644C124.751 215.038 122.336 214.148 119.888 213.389C112.058 209.423 106.169 203.47 101.906 195.833C98.7791 183.149 100.493 176.624 108.276 171.385C111.567 169.17 115.005 167.964 118.926 169.576C119.462 170.097 120.261 170.535 119.702 171.5C119.175 172.409 118.187 172.72 117.378 173.272C109.07 178.944 109.012 178.491 113.176 189.306C114.568 192.921 116.649 196.411 118.635 199.839C122.986 204.107 127.881 207.213 134.207 207.447C138.984 207.624 143.455 209.587 148.211 209.906C160.959 209.123 173.077 206.496 183.271 198.115C188.15 194.104 193.415 190.621 198.525 186.925C200.466 185.521 203.748 184.275 202.881 181.239C202.113 178.55 199.525 177.007 196.458 176.952C194.377 177.595 192.215 177.871 190.13 178.477C182.77 180.617 179.833 179.978 175.507 173.702C172.732 169.675 169.852 166.875 164.688 166.975C163.242 167.003 161.433 166.524 161.513 164.29C165.222 160.001 170.464 163.004 174.758 161.494C181.852 164.444 182.395 164.262 185.893 157.787C186.267 157.094 186.823 156.468 187.055 155.734C190.087 146.139 197.629 144.99 206.08 145.502C210.192 147.854 212.139 151.6 212.834 156.804C215.243 154.232 216.876 151.108 220.571 151.475C223.64 151.78 226.242 152.849 228.299 155.405C230.342 157.943 232.559 156.598 233.46 154.404C235.529 149.366 239.346 146.119 243.574 143.132C248.96 138.713 253.862 133.86 257.554 127.888C259.661 124.481 262.036 123.406 265.855 125.979C269.108 128.17 273.014 129.389 275.817 132.332C277.919 134.54 279.901 136.808 278.239 140.186C273.976 141.155 272.26 136.524 268.536 135.797C265.604 135.225 263.199 134.93 261.889 137.687C259.785 142.113 256.064 144.626 252.689 147.863C245.247 155.003 236.588 161.425 232.187 171.343C231.869 172.061 231.289 172.655 230.835 173.31C228.735 176.336 226.293 177.008 224.282 175.156C225.019 175.691 225.278 177.8 226.371 179.402C226.74 179.79 227.087 180.198 227.443 180.598C227.848 180.956 228.234 181.329 228.638 181.687C230.16 183.366 233.303 184.131 231.94 187.457C226.501 186.428 220.938 191.025 215.556 187.113Z" fill="#9BCAD6"/>
<path d="M55.3241 199.05C48.4721 198.879 42.8372 195.635 37.3802 191.941C32.8942 178.198 24.5831 165.505 26.1011 150.11C26.4171 146.906 26.5292 143.775 29.0212 141.369C29.4212 140.926 29.8791 140.533 30.3631 140.182C31.2771 139.542 32.2781 139.017 33.1571 138.319C33.7401 137.766 34.2891 137.18 34.7831 136.542C36.9681 133.257 37.6892 129.685 37.2532 125.765C36.9842 123.351 37.3352 120.858 39.2852 119.172C41.5962 117.174 42.8032 118.485 44.2412 120.726C45.0112 121.926 46.6281 120.068 47.7391 119.432C51.2151 117.444 54.0041 117.681 57.5181 120.151C62.3041 123.516 67.1582 128.32 74.0962 124.863C74.7872 124.519 76.1901 124.354 76.3581 124.783C78.4061 130.01 82.7722 126.731 85.9952 127.516C89.7432 128.429 93.0202 130.021 95.6412 133.016C98.7542 136.573 101.757 140.266 106.519 144.385C106.729 136.131 107.681 129.126 105.084 122.146C104.14 119.608 103.028 119.029 100.805 120.803C98.3472 122.764 96.0451 122.336 94.0611 119.938C91.8291 107.466 93.5272 104.384 105.227 100.475C109.761 98.9599 114.211 97.7069 116.36 92.6779C117.119 90.9029 119.203 89.9939 121.041 89.1769C123.806 88.1389 126.581 87.0879 129.508 86.6529C132.173 86.2569 134.66 86.5789 135.991 89.4249C136.143 90.0169 136.121 90.6139 135.933 91.1969C133.796 93.6379 130.53 93.4269 127.832 94.5609C125.196 95.6689 122.736 96.8779 121.475 99.6039C120.748 101.175 119.409 103.244 122.811 103.204C125.406 103.174 125.832 104.727 125.667 106.676C125.491 108.747 124.503 111.417 122.477 111.023C118.515 110.253 117.786 113.842 115.435 115.11C113.362 116.177 111.542 117.753 112.235 120.18C113.805 125.681 113.219 131.541 115.219 136.923C115.785 138.446 116.472 139.956 115.681 141.459C114.505 143.692 115.645 144.877 117.03 146.534C120.978 151.258 120.14 156.451 115.34 159.186C114.883 159.498 114.408 159.78 113.931 160.061C111.917 161.367 109.59 161.963 108.013 159.921C105.865 157.14 103.807 157.608 101.371 159.13C100.701 159.548 99.9151 160.079 99.1861 160.011C93.4691 159.477 89.0302 160.845 85.2912 165.915C83.2142 168.732 79.5052 167.569 77.5152 164.06C75.2482 160.063 72.9101 156.101 68.0011 154.804C64.6861 152.967 61.6251 150.645 58.7651 148.281C53.8931 144.254 47.5591 144.663 42.3461 141.858C40.4081 140.815 38.5512 142.248 37.0472 143.693C33.2272 147.362 32.2692 152.024 33.2372 156.894C34.4742 163.125 36.8612 169.076 38.6672 175.171C39.5972 178.31 41.9991 181.029 44.7181 183.172C49.9721 187.318 51.9601 193.644 55.3241 199.05Z" fill="#AED8E2"/>
<path d="M55.3241 199.05C53.8671 197.723 52.4411 196.36 50.9451 195.079C49.7251 194.033 48.9301 193.102 48.8641 191.172C48.7751 188.601 46.9831 186.533 44.8341 184.969C40.1081 181.53 36.7821 177.403 35.9871 171.199C35.4961 167.367 33.3301 163.781 32.2911 159.981C30.5361 153.563 30.6771 147.454 36.0181 142.427C39.7941 138.873 41.3341 138.522 45.8661 141.408C47.5291 142.467 48.4801 143.788 50.9651 142.478C52.7631 141.53 54.8981 143.849 56.4811 144.985C60.4841 147.858 64.9221 150.155 68.4801 153.641C71.4821 155.21 72.5141 157.802 72.4521 161.047C72.3881 164.415 73.9301 166.568 77.2151 167.756C81.6621 169.364 84.5671 173.134 87.7301 176.346C93.5791 182.287 93.1451 185.276 86.4691 189.723C77.7761 198.473 67.4541 201.782 55.3241 199.05Z" fill="#A7D2DC"/>
<path d="M226.296 181.142C223.917 178.371 222.348 175.003 219.361 172.645C221.599 170.963 222.628 172.439 223.882 173.33C227.254 175.726 227.346 175.747 229.812 172.225C232.651 168.169 235.257 163.948 238.136 159.921C240.273 156.932 242.207 153.834 246.346 152.786C248.527 152.234 250.113 150.019 250.269 147.297C250.354 145.82 250.946 144.48 252.856 144.886C256.497 145.659 257.724 143.385 258.744 140.541C259.817 137.551 260.977 134.56 264.424 133.355C265.598 132.944 266.686 132.451 267.686 133.521C269.127 135.063 270.826 135.786 272.966 135.778C276.022 135.767 275.053 139.976 277.699 140.488C278.618 140.948 279.458 141.635 279.717 142.575C282.656 153.248 285.272 163.962 282.457 175.124L282.439 175.153C282.049 175.574 281.669 176.003 281.317 176.456C276.378 182.8 270.384 187.927 263.438 191.954C257.072 194.279 250.734 196.961 243.909 193.505C242.025 191.167 238.05 191.873 236.772 188.642C239.454 185.177 244.245 188.16 247.486 184.923C244.066 186.09 241.669 184.296 239.203 183.111C235.751 181.452 232.156 180.442 228.43 179.684C226.957 179.386 226.915 180.538 226.296 181.142Z" fill="#97C7D2"/>
<path d="M84.0111 67.5359C84.0091 64.1599 84.2591 60.7599 83.9591 57.4109C82.9541 46.2169 88.3202 37.1078 93.2942 27.8388C98.7492 17.6758 108.647 12.7109 117.848 7.01785C129.228 -0.0231462 142.222 -1.20914 154.661 1.01586C166.208 3.08186 177.563 7.82185 184.069 19.1719C184.35 19.6619 184.345 20.3168 184.473 20.8948C182.375 22.2458 180.23 20.6079 177.707 21.0169C178.172 23.9929 179.428 26.6138 180.719 29.2158C181.96 31.7178 183.034 34.2768 183.408 37.0628C184.061 41.9308 182.935 46.3238 178.803 49.2058C174.528 52.1878 169.791 51.8908 165.255 49.5938C154.25 44.0198 143.438 42.8278 132.911 50.6818C125.121 53.2608 122.08 61.4249 115.502 65.5109C112.472 67.3929 109.963 70.0679 105.936 69.2109C105.251 69.0649 104.301 68.5518 104.056 69.8258C103.017 75.2278 99.2442 73.4449 96.1722 72.6029C92.5022 71.5979 90.6882 68.9939 91.2662 65.0339C94.4092 63.5659 97.9012 64.2499 101.174 63.3859C105.057 62.3619 108.718 60.6318 109.929 56.8778C112.083 50.1978 117.135 46.0469 121.698 41.3879C125.037 37.9779 128.883 35.0869 131.893 31.3339C135.092 27.3449 139.432 27.6579 143.367 29.2669C151.321 32.5199 157.08 27.2729 163.537 24.7199C165.122 24.0929 165.952 22.3669 165.363 20.7049C163.654 15.8789 162.443 10.7369 156.498 8.87985C148.852 6.49085 141.784 5.47485 133.361 7.59585C120.4 10.8578 111.171 18.6579 102.113 27.2599C96.5851 32.5089 94.2851 39.5598 92.8091 46.8608C91.6251 52.7208 91.3421 58.6548 91.5381 64.6168C89.5001 66.8028 86.1611 65.6359 84.0111 67.5359Z" fill="#D1EBF1"/>
<path d="M205.904 42.3989C223.428 31.4989 245.044 32.7208 259.657 46.5778C262.231 49.0188 265.071 51.2608 266.922 54.3948C261.655 58.3078 259.273 63.2468 260.045 70.0548C260.294 72.2518 257.692 74.9659 255.576 76.0429C248.508 79.6389 241.656 84.7328 232.943 82.3078C228.133 80.9688 223.667 84.2168 218.932 83.0328C217.507 83.1108 216.212 82.6699 214.888 82.1769C211.477 80.9059 207.036 80.9268 206.583 75.9248C206.299 72.7808 212.12 66.5628 216.147 65.3438C221.829 63.6228 227.156 65.4448 232.497 67.0168C233.592 67.3388 234.531 68.2038 236.327 68.0068C233.6 62.1598 228.267 59.5269 223.62 56.5649C219.322 53.8259 219.331 49.6888 218.354 45.7858C217.905 43.9928 219.352 42.9108 221.492 42.2788C216 41.0908 210.949 45.9499 205.904 42.3989Z" fill="#C7E5EC"/>
<path d="M27.7771 186.049C20.3471 183.406 14.8121 178.546 11.0961 171.629C6.08213 162.294 2.39415 152.401 0.801148 141.962C-0.237852 135.152 -0.460854 128.131 1.31815 121.256C3.46415 112.961 5.93315 104.829 10.9131 97.6789C12.2961 95.6929 13.7341 93.8509 15.8211 92.5869C19.1621 93.2769 18.0881 95.7739 17.6091 97.6289C16.3181 102.636 15.2491 107.714 13.5251 112.598C10.8541 120.163 10.7531 127.902 12.5751 135.54C14.2581 142.594 12.9511 150.391 18.1191 156.89C17.8821 150.314 18.6762 144.133 21.7632 138.324C22.9562 136.079 22.0832 133.25 21.9272 130.663C21.4302 122.414 23.1341 114.485 25.6921 106.69C27.1411 102.275 31.1731 100.558 34.4721 98.1179C36.5751 96.5619 38.9661 95.3379 39.2131 92.3849C39.6721 86.9029 43.0372 86.0159 47.6082 86.8809C51.2422 89.0009 55.3031 90.4859 58.0971 93.8739C58.1871 94.5329 57.9891 95.0889 57.5061 95.5469C55.8111 96.6109 54.0171 96.5549 52.1831 96.0239C49.3361 93.8629 47.5042 93.8559 44.6082 96.9869C39.1092 102.933 35.7691 109.118 34.8291 117.403C34.2681 122.346 33.2071 127.728 30.3631 132.487C28.0601 136.341 26.9521 140.956 26.1831 145.513C25.9491 157.23 25.2791 168.958 28.4471 180.448C28.9741 182.355 29.4281 184.355 27.7771 186.049Z" fill="#C0E2EA"/>
<path d="M131.845 49.6009C138.575 43.4849 146.353 42.5349 155.017 44.2689C159.341 45.1349 163.089 46.3319 166.936 48.7909C173.734 53.1349 181.85 47.8538 182.092 39.7188C182.172 37.0328 181.698 34.3389 180.36 32.2889C177.94 28.5819 177.511 24.0828 175.035 20.4838C174.561 19.7948 174.166 19.1019 174.751 18.3659C175.501 17.4219 176.586 17.3959 177.355 18.1559C179.356 20.1359 182.34 19.3798 184.472 20.8948C188.48 25.5348 189.05 31.6969 191.526 37.0239C192.656 39.4559 194.357 41.8569 194.006 44.8209C193.205 46.6949 191.764 47.2329 189.871 46.8149C189.388 46.6379 188.959 46.3559 188.601 46.0019C188.094 45.6109 187.85 44.5029 186.851 45.3619C186.657 45.7209 186.452 46.0458 186.248 46.3828C185.941 46.9488 185.641 47.5069 185.329 48.0669C185.108 48.4769 184.845 48.8478 184.546 49.2028C184.226 49.5608 183.867 49.8679 183.478 50.1479C183.068 50.4209 182.636 50.6459 182.194 50.8579C180.669 51.3579 179.811 52.6989 178.651 53.6719C178.166 53.9779 177.654 54.1998 177.104 54.3568C172.476 54.0708 168.606 55.3108 165.801 59.3388C164.302 61.4918 161.992 62.9319 159.492 63.6159C148.23 66.6959 137.791 72.3838 126.106 74.1128C123.071 74.5618 120.583 76.1818 118.223 78.0508C116.367 79.5198 114.54 81.2319 111.84 80.0019C110.115 73.6949 110.79 69.1108 117.186 64.7598C122.807 60.9368 126.41 54.1839 131.845 49.6009Z" fill="#CAE8F0"/>
<path d="M57.7211 93.8478C54.2711 92.2738 50.4221 91.3378 48.1571 87.8688C42.3581 86.4988 37.1661 85.7929 31.9561 90.7479C26.5291 95.9099 23.9551 94.4748 21.8201 86.6538C30.8641 77.3508 40.7581 69.4869 54.1591 67.5689C55.3811 68.5519 56.8911 68.3809 58.1231 68.0259C61.4391 67.0689 63.3592 68.6029 64.9712 71.1829C66.3412 73.3759 68.1371 75.2329 70.0721 76.9309C74.2901 80.6309 78.3641 83.4378 84.8481 81.7268C91.8741 79.8738 95.2332 83.8368 94.0412 90.9768C92.4972 100.222 92.4971 100.222 83.1211 98.4889C81.9491 98.1239 80.8551 97.5879 79.7951 96.9799C75.8241 94.0939 71.6072 93.4558 66.8152 94.8538C63.8192 95.7268 60.5201 96.2218 57.7211 93.8478Z" fill="#D5ECF1"/>
<path d="M21.8192 86.6529C24.3942 86.8759 24.1381 88.8549 24.3371 90.6159C24.5021 92.0649 25.5871 92.9189 26.8171 92.3019C29.0951 91.1609 32.4241 90.0689 33.1021 88.1679C35.1311 82.4759 39.3671 85.2949 42.3521 85.5479C43.9831 85.6859 46.6942 85.9699 48.1552 87.8679C47.3632 87.9169 46.5641 87.9149 45.7791 88.0219C41.4701 88.6119 41.3491 88.6119 41.0201 93.1169C40.8211 95.8349 39.6882 97.6759 37.1472 98.4879C35.7682 98.9289 34.7912 99.9119 33.6042 100.554C25.9302 104.7 25.9011 112.405 24.1221 119.533C22.6351 125.487 23.9671 131.246 23.9471 137.078C23.9401 139.068 23.5071 140.388 22.3521 141.868C20.3721 144.407 19.4911 147.08 20.1021 150.627C20.9861 155.758 19.7802 158.094 16.2292 161.475C15.9002 157.466 15.5671 153.744 12.8871 150.898C12.6351 150.63 12.4231 150.158 12.4601 149.808C13.2011 142.757 10.5311 136.142 9.83515 129.268C8.71215 118.175 13.6151 108.357 15.8701 97.9799C16.2571 96.1999 18.1201 94.3609 15.8211 92.5889C17.4001 90.1839 19.3932 88.1989 21.8192 86.6529Z" fill="#CCE8EE"/>
<path d="M219.12 81.8899C224.828 81.8769 230.289 78.7549 236.327 81.5819C239.917 83.2629 243.115 79.1829 246.774 78.4959C248.005 78.2649 249.105 77.0439 250.583 77.1209C252.838 77.2389 253.825 75.5378 255.371 74.3128C261.428 69.5118 258.61 63.7578 257.716 57.6858C261.195 57.8428 264.499 57.1938 266.922 54.3928C275.701 65.8568 280.166 78.7588 278.761 93.2058C278.149 99.5008 275.785 105.494 271.731 110.602C270.077 109.351 269.393 107.468 268.528 105.701C268.168 104.54 267.954 103.226 268.523 102.222C273.246 93.8879 268.27 87.8199 264.105 81.3039C261.472 77.1849 259.657 78.3159 257.691 81.4258C256.617 83.1238 255.719 84.8529 253.617 85.4549C249.679 86.3049 245.671 85.5728 241.721 86.0068C241.206 86.1408 240.7 86.3128 240.22 86.5478C239.763 86.8158 239.291 87.0588 238.827 87.3158C238.384 87.6168 237.923 87.8848 237.461 88.1518C235.045 90.7088 232.208 91.5029 228.594 91.7219C222.778 92.0739 217.38 94.8259 211.72 96.2669C210.944 96.6849 210.13 96.9478 209.239 96.9338C206.543 96.0428 204.301 94.7839 204.767 91.3579C206.73 89.5499 207.487 87.4029 207.704 84.6419C207.979 81.1429 211.181 79.7729 213.391 82.3299C216.075 85.4379 217.299 82.7169 219.12 81.8899Z" fill="#C1E2EA"/>
<path d="M82.8271 97.4349C85.5491 97.5999 88.6532 98.6629 90.8982 97.7069C93.8812 96.4369 91.5042 92.7328 92.4402 90.1068C94.2522 85.0238 91.7572 82.4129 86.3232 82.9479C85.7312 83.0059 85.0371 82.8578 84.5591 83.1168C77.3211 87.0358 73.2412 81.5558 68.5842 77.7958C68.2772 77.5478 68.0192 77.2378 67.7382 76.9578C60.7712 70.0158 60.7712 70.0158 54.1592 67.5658C64.1082 65.8198 74.0591 65.8688 84.0121 67.5348C85.4831 63.9588 88.2381 64.2439 91.1971 65.1459C93.2781 67.2049 93.1822 71.2768 97.3952 71.4448C99.0752 71.5118 100.842 73.0638 102.421 71.6148C104.222 69.9628 101.455 68.5418 101.772 66.8908C102.19 66.7408 102.665 66.3988 102.878 66.5198C107.559 69.1828 110.564 67.3559 114.467 63.9949C118.658 60.3859 122.879 57.0159 126.086 52.4629C127.444 50.5359 130.043 50.8008 131.847 49.5998C131.268 53.2438 127.717 54.5889 125.863 57.2729C124.228 59.6399 121.601 61.1619 120.702 64.2649C119.99 66.7229 116.917 66.8178 115.117 68.2729C113.148 69.8659 109.869 70.8439 113.348 74.4159C115.073 76.1869 112.122 77.7528 111.526 79.5008C112.135 82.9218 109.007 83.6689 107.303 85.4389C104.011 87.5879 101.553 90.9398 97.5502 92.0978C96.0752 92.5248 95.5202 93.9309 95.2322 95.3379C94.1352 100.703 90.7962 102.515 85.6212 101.49C85.0982 101.304 84.6052 101.054 84.1322 100.763C83.6762 100.455 83.2772 100.08 82.9242 99.6578C82.7882 99.4248 82.6572 99.1838 82.5232 98.9468C82.3992 98.4018 82.4911 97.8939 82.8271 97.4349Z" fill="#CEE9F0"/>
<path d="M86.4712 189.725C86.6292 189.364 86.6951 188.904 86.9601 188.657C91.6041 184.328 91.9882 182.869 87.5362 178.315C83.8122 174.506 80.4362 170.057 74.7272 168.573C71.6132 167.764 70.7442 164.911 70.8992 161.913C71.0582 158.844 70.6842 155.991 68.4812 153.642C74.0602 154.148 75.9382 158.832 78.6452 162.604C79.5622 163.881 79.1722 166.491 81.9192 165.983C84.3572 165.532 86.3462 164.541 87.4282 162.055C89.3372 157.67 89.5222 157.308 93.5792 158.544C97.5462 159.754 100.474 158.25 103.43 156.256C105.606 154.788 106.975 154.128 108.106 157.551C109.168 160.765 109.776 160.645 113.913 158.424C115.46 164.261 110.929 167.824 107.711 170.501C99.8382 177.053 98.9522 186.366 103.156 196.69C108.384 202.607 113.949 208.187 119.89 213.389C115.646 213.086 111.809 211.408 107.938 209.845C103.935 206.491 99.1602 203.913 97.1192 198.625C96.2902 196.478 93.9402 195.786 92.4052 194.296C92.0102 193.394 91.4182 192.525 91.2562 191.583C90.6712 188.2 88.6382 188.857 86.4712 189.725Z" fill="#A8D5DF"/>
<path d="M282.457 175.125C282.161 163.402 281.226 151.767 277.699 140.489C278.233 133.67 272.802 131.367 268.252 128.969C266.099 127.834 263.533 127.436 262.017 124.132C256.581 132.268 251.897 139.581 244.226 144.077C244.034 143.865 243.842 143.653 243.648 143.442C242.475 139.836 245.257 137.961 247.206 135.939C251.375 131.615 252.9 127.102 249.316 121.708C246.527 117.51 248.92 113.805 250.461 110.028C250.212 106.902 247.341 106.221 245.455 104.624C243.626 103.075 241.707 101.455 242.289 98.7268C242.85 96.0998 245.339 95.8968 247.382 95.3748C253.215 93.8858 255.43 94.8748 258.798 100.31C259.456 101.372 260.586 101.82 261.478 102.574C263.402 105.167 264.814 108.223 268.861 108.363C270.377 108.415 271.838 109.694 270.505 111.741C269.484 112.907 268.463 114.072 267.031 115.706C273.459 119.988 276.91 126.547 280.134 133.265C281.525 139.179 283.194 145.041 284.856 150.862C286.775 157.584 286.769 163.973 284.975 170.546C284.676 172.368 284.029 174 282.457 175.125Z" fill="#9ECFDA"/>
<path d="M219.12 81.8899C218.634 84.9219 215.711 85.3519 213.849 87.4959C213.487 86.4039 213.228 85.9039 213.164 85.3789C212.977 83.8389 213.28 81.7969 210.807 82.1989C208.836 82.5189 208.337 83.9699 209.098 85.8089C209.174 85.9929 209.274 86.1799 209.291 86.3729C209.647 90.2599 209.489 90.4339 204.773 91.4569C204.491 91.3709 204.21 91.2839 203.927 91.2009C203.436 90.8569 203.053 90.4179 202.771 89.8889C202.436 89.0589 202.304 88.1919 202.303 87.3009C202.879 84.6549 201.58 82.4079 200.854 80.0049C199.592 75.8249 199.65 71.9019 204.101 69.4009C205.618 69.0729 208.24 69.6089 206.578 66.6089C205.634 64.9059 205.053 63.0539 204.086 61.3739C203.098 58.8869 204.101 56.8369 205.292 54.6709C208.217 49.3509 207.787 48.6719 201.621 47.9829C201.019 47.9159 200.491 47.6739 200.076 47.2179C201.204 44.6249 203.607 43.5749 205.905 42.3989C209.742 42.9409 213.278 41.1789 217.016 40.9229C217.978 40.8569 219.206 39.9419 219.808 40.2899C221.412 41.2139 224.366 38.9979 224.701 41.8759C224.965 44.1449 222.422 43.3619 221.035 43.7239C219.183 44.2069 218.837 45.5089 219.744 46.8579C220.904 48.5859 221.75 50.1729 221.058 52.3439C220.824 53.0769 221.575 53.7539 222.365 54.0939C227.093 56.1309 230.669 59.8089 234.773 62.7369C236.333 63.8499 237.013 65.4609 238.129 66.8159C239.285 68.2209 238.705 69.4799 237.626 70.4619C236.58 71.4139 235.428 70.9289 234.403 70.1629C229.442 66.4509 223.694 66.0099 217.841 66.4289C214.473 66.6699 208.028 72.4609 207.598 75.4489C207.295 77.5489 209.348 79.5499 210.439 79.4329C213.823 79.0699 215.993 82.0669 219.12 81.8899Z" fill="#C1E2EA"/>
<path d="M195.189 50.7938C195.229 51.1608 195.241 51.5299 195.226 51.8989C199.712 53.3119 200.271 56.0919 198.49 60.1589C196.269 65.2289 196.247 70.5369 195.936 76.0989C195.446 84.8609 198.64 90.1818 205.079 94.7318C204.635 95.6178 203.84 95.9389 202.931 96.0819C202.341 96.1249 201.754 96.0899 201.172 95.9909C199.513 95.5309 197.8 95.2518 196.174 94.6578C189.489 91.0518 186.687 85.2429 187.452 77.9139C187.962 73.0299 186.974 68.3879 186.264 63.6889C185.822 60.7609 184.201 60.5029 182.283 62.7259C180.459 64.8399 178.842 67.0708 177.697 69.6728C176.682 71.9808 175.154 73.8438 172.134 72.5508C169.966 70.3898 170.265 67.9458 171.236 65.3738C175.084 55.1748 182.936 50.3528 193.293 48.8608C194.291 49.1448 194.661 50.0468 195.189 50.7938Z" fill="#B3DAE3"/>
<path d="M204.776 95.0428C203.202 93.5348 201.512 92.2418 199.402 91.5128C194.817 89.9288 193.129 87.1258 194.431 82.5798C195.265 79.6698 196.439 77.0008 193.559 74.5458C192.957 74.0328 193.189 73.1068 193.411 72.3038C194.713 67.5948 194.615 62.5228 197.726 58.2818C199.95 55.2498 196.482 53.8808 195.227 51.8998C197.414 50.9298 198.749 49.0788 200.075 47.2178C200.653 47.1028 201.285 47.1028 201.797 46.8538C204.422 45.5778 206.87 45.6358 208.554 48.2208C210.112 50.6128 208.571 52.9458 207.227 54.6358C205.525 56.7778 204.458 58.8438 204.774 61.5618C204.78 61.8208 204.787 62.0788 204.797 62.3388C204.685 63.4108 204.242 64.3658 203.771 65.3168C202.657 70.3258 198.569 75.0218 201.222 80.3708C202.453 82.8508 202.943 85.3268 203.578 87.8698C203.578 88.6668 203.578 89.4638 203.578 90.2618C204.01 90.6278 204.325 91.1088 204.774 91.4578C205.921 93.4998 207.516 95.0918 209.556 96.2398C210.03 97.7828 208.971 97.9228 207.899 98.0548C207.111 97.9238 206.44 97.5558 205.843 97.0368C205.279 96.4839 204.869 95.8478 204.776 95.0428Z" fill="#BBDEE6"/>
<path d="M27.7771 186.049C26.8041 181.234 25.5952 176.453 24.9082 171.597C23.6572 162.749 24.0422 153.847 24.6982 144.964C24.7212 144.65 25.1831 144.369 25.4411 144.072C26.3871 141.132 26.9311 137.52 31.4191 140.484C28.2221 143.614 27.8312 147.457 27.7062 151.777C27.4362 161.09 29.7272 169.628 33.9252 177.778C36.2192 182.232 37.5452 186.897 37.3812 191.939C33.8412 190.527 30.4261 188.913 27.7771 186.049Z" fill="#B7DAE3"/>
<path d="M244.226 191.912C248.034 193.361 251.859 194.68 255.886 192.687C258.32 191.482 260.905 192.033 263.438 191.954C259.344 196.27 253.884 197.255 248.384 197.821C244.856 198.184 241.262 197.953 237.698 197.922C228.606 197.844 221.49 193.681 215.557 187.112C217.501 187.572 219.547 187.948 221.374 187.099C225.067 185.384 228.641 185.895 232.267 187.13C232.511 187.127 232.755 187.124 233 187.117C233.752 187.217 234.446 187.477 235.099 187.868C235.521 188.175 235.876 188.543 236.166 188.977C238.47 191.014 241.727 190.422 244.226 191.912Z" fill="#A7D4E0"/>
<path d="M284.976 170.544C284.942 166.973 284.933 163.401 284.862 159.83C284.834 158.45 285.033 156.907 284.498 155.723C282.144 150.508 282.519 144.561 279.973 139.428C278.932 137.33 278.72 135.283 280.136 133.263C290.645 142.202 290.54 162.378 284.976 170.544Z" fill="#ADD7E2"/>
<path d="M92.4041 194.296C94.3561 194.332 96.6952 193.892 97.5202 196.259C99.5112 201.972 105.104 204.835 107.937 209.845C99.9902 207.43 94.8101 202.25 92.4041 194.296Z" fill="#B4DCE6"/>
<path d="M270.506 111.739C270.34 110.734 270.032 109.5 268.892 109.608C264.207 110.055 262.543 106.832 260.967 103.413C263.041 100.734 265.165 101.037 267.33 103.295C268.026 104.105 268.504 105.095 269.339 105.8C271.499 106.722 271.833 108.553 271.73 110.602C271.322 110.982 270.914 111.36 270.506 111.739Z" fill="#A9D5DF"/>
<path d="M195.189 50.7938C194.796 50.3978 194.402 50.0009 194.009 49.6049C192.537 48.2479 188.638 50.1158 189.234 46.0098C190.968 46.1898 192.518 45.6309 194.006 44.8209C195.096 46.6739 195.362 48.6898 195.189 50.7938Z" fill="#BFE4EE"/>
<path d="M281.317 176.457C281.691 176.023 282.066 175.589 282.44 175.154C282.066 175.588 281.691 176.022 281.317 176.457Z" fill="#9ECFDA"/>
<path d="M205.969 146.466C202.698 147.803 198.415 145.307 195.806 149.152C190.937 146.144 191.675 151.214 190.527 153.052C188.464 156.355 186.01 159.465 185.21 163.525C184.914 165.028 183.449 167.777 181.488 164.217C181.418 164.09 180.686 164.121 180.47 164.312C177.02 167.364 176.35 163.735 174.888 162.016C173.713 160.789 173.868 158.507 174.894 158.516C181.011 158.57 180.592 151.5 185.01 149.668C186.7 148.967 187.612 147.374 184.566 145.591C179.255 142.481 174.869 141.375 170.642 146.932C169.668 148.212 167.884 148.402 166.437 149.031C163.285 150.633 160.231 152.533 156.477 152.303C148.565 154.578 140.925 153.622 133.448 150.454C131.562 149.655 129.244 148.618 129.17 146.699C128.977 141.694 126.042 138.525 123.11 135.027C121.06 132.582 120.265 129.222 121.067 126.014C122.134 121.751 121.081 117.269 122.664 113.101C125.583 109.934 128.908 107.726 133.501 108.572C134.038 108.845 134.48 109.253 134.663 109.831C135.337 111.959 134.964 115.241 138.482 114.687C141.377 114.231 143.311 112.246 143.706 109.004C143.951 106.993 143.885 105.065 143.423 103.119C143.488 102.719 143.603 102.131 143.88 102.087C150.339 101.06 154.499 95.5389 160.362 93.5849C164.117 92.3339 163.747 89.1939 164.99 86.7369C168.688 86.3049 172.977 87.8709 175.506 83.7019C174.293 79.5979 169.108 82.1159 167.452 78.7469C168.691 76.0199 171.337 75.4889 173.798 74.9029C178.496 73.7839 180.504 75.0798 181.179 79.8668C181.641 83.1428 182.153 86.1679 185.617 87.6209C186.397 88.0819 187.043 88.6868 187.532 89.4508C188.138 94.4308 191.19 95.4509 195.533 94.3769C196.058 94.6019 196.513 94.9288 196.91 95.3388C198.182 98.4758 197.273 100.458 193.782 100.693C190.953 100.883 189.793 102.167 190.366 104.933C191.305 109.463 190.315 113.602 188 117.526C187.396 118.55 187.094 119.736 186.863 120.911C186.556 122.474 186.042 124.281 187.836 125.171C189.857 126.173 191.179 124.616 192.347 123.247C193.661 121.708 194.179 119.733 195.033 117.942C196.738 114.365 199.509 113.647 202.957 115.135C206.021 116.458 206.849 118.549 205.652 121.877C203.706 127.291 205.452 132.916 205.365 138.447C205.328 140.805 206.82 141.959 209.23 142.026C212.014 142.103 214.407 142.796 214.335 146.335C211.583 148.712 208.747 145.723 205.969 146.466Z" fill="#9ECFDB"/>
<path d="M161.736 164.4C163.313 166.481 165.903 165.924 167.778 165.967C171.441 166.051 173.409 167.672 175.056 170.586C176.007 172.269 177.341 173.777 178.689 175.185C181.644 178.271 184.856 179.99 189.072 177.13C191.21 175.68 194.217 176.834 196.401 175.166C198.846 179.023 196.229 181.745 193.861 183.914C188.296 189.01 181.637 192.571 174.991 196.07C171.197 198.067 167.195 195.602 163.317 196.488C158.112 197.678 152.82 198.351 147.518 198.926C146.894 198.948 146.275 198.879 145.665 198.751C139.076 197.536 134.86 192.518 129.973 188.675C127.303 186.576 127.996 183.219 128.942 180.382C130.397 176.015 130.134 171.924 127.834 167.946C128.054 162.154 133.076 163.341 136.391 162.031C138.886 161.39 141.325 160.465 143.956 160.469C148.224 161.105 152.532 161.289 156.827 161.643C158.74 161.8 161.44 161.129 161.736 164.4Z" fill="#99C8D4"/>
<path d="M148.582 211.045C141.855 211.416 135.374 209.335 128.927 208.158C124.844 207.413 119.543 205.427 117.492 200.284C116.018 195.076 115.868 190.169 120.615 186.349C121.445 185.681 121.544 184.664 121.782 183.7C122.151 182.206 122.181 180.168 124.128 180.007C126.241 179.832 127.111 181.722 127.662 183.428C130.577 192.462 138.193 195.409 146.192 197.888V197.889C151.355 198.799 156.222 197.067 161.184 196.199C163.556 195.784 166.206 195.157 167.55 197.724C169.044 200.575 167.02 202.832 164.883 204.172C159.851 207.324 155.2 211.593 148.582 211.045Z" fill="#90BECA"/>
<path d="M148.582 211.045C155.038 210.422 159.142 205.275 164.561 202.642C166.046 201.92 167.546 200.035 166.473 198.249C165.541 196.698 163.484 196.474 161.603 196.925C158.918 197.568 156.26 198.407 153.539 198.787C151.077 199.13 148.412 199.983 146.191 197.889C152.267 196.267 158.669 196.386 164.682 194.424C164.862 194.365 165.101 194.335 165.267 194.403C171.911 197.142 176.956 193.769 182.039 190.177C184.443 188.478 187.263 187.365 189.644 185.641C193.197 183.067 196.497 180.168 196.401 175.166C197.455 174.907 198.897 173.508 199.491 174.981C200.289 176.96 201.928 177.302 203.375 178.239C206.176 180.053 206.393 182.156 204.001 184.634C202.51 186.179 200.834 187.732 198.938 188.663C194.512 190.836 191.436 194.966 186.87 196.803C184.614 197.711 184.385 200.335 182.347 201.336C176.938 203.991 171.967 208.02 165.949 208.793C160.683 209.47 155.686 210.906 150.579 212.061C149.73 212.253 149.096 211.685 148.582 211.045Z" fill="#95C2CF"/>
<path d="M146.191 197.887C138.173 196.823 131.048 194.568 127.461 186.142C126.712 184.382 126.423 181.893 123.947 180.562C123.1 183.775 123.097 187.181 119.542 188.941C117.875 189.767 119.043 192.268 118.54 193.925C117.909 196.006 117.282 198.07 117.491 200.282C113.286 194.275 110.601 187.561 108.346 180.645C108.015 179.631 107.924 178.509 108.854 177.937C112.324 175.802 114.231 171.317 119.024 171.151C119.319 171.141 119.597 170.647 119.883 170.378C120.057 170.16 120.232 169.942 120.402 169.72C122.592 168.412 124.914 167.537 127.515 167.597C127.763 167.725 128.011 167.856 128.259 167.988C132.306 169.579 132.204 172.869 131.647 176.323C131.089 179.778 128.124 183.363 130.169 186.563C131.955 189.357 135.563 190.926 138.108 193.312C140.473 195.531 143.478 196.404 146.191 197.887Z" fill="#96C5D0"/>
<path d="M161.736 164.4C160.61 162.938 158.985 163.257 157.467 163.211C152.888 163.071 148.318 162.841 143.8 162.015C143.583 158.55 146.225 158.463 148.497 158.24C152.264 157.871 155.965 158.551 159.589 159.543C162.584 160.363 165.082 160.311 167.767 158.043C172.828 153.767 173.013 153.984 167.718 150.009C166.932 149.419 166.082 148.871 166.515 147.661C168.284 146.95 169.887 146.27 171.168 144.532C174.549 139.946 178.043 139.621 182.743 143.022C183.836 143.812 184.607 145.181 186.264 144.849C187.511 144.599 189.024 143.302 189.829 145.203C190.369 146.477 188.964 147.302 188.18 148.123C186.657 149.717 186.659 152.42 183.46 152.934C181.329 153.277 181.366 156.434 180.863 158.498C180.362 160.554 179.427 161.276 177.549 159.907C174.116 157.405 175.295 160.71 174.886 162.017C173.668 163.414 172.146 164.612 170.314 163.821C167.266 162.504 164.564 163.837 161.736 164.4Z" fill="#A3D2DE"/>
<path d="M136.633 163.211C135.983 164.046 135.075 164.547 134.079 164.354C130.954 163.747 129.594 165.814 128.259 167.989V167.99C125.179 167.774 122.619 169.379 119.887 170.38L119.884 170.378C116.805 170.726 113.71 169.801 110.655 171.701C102.871 176.543 101.042 181.125 102.288 190.854C102.535 192.786 103.242 194.682 103.155 196.69C100.934 195.443 99.3061 194.066 100.275 191.008C100.64 189.855 99.9861 188.294 99.5661 186.993C97.8851 181.774 100.75 177.559 102.53 173.104C102.672 172.749 102.942 172.274 103.25 172.182C108.544 170.601 108.789 164.36 112.941 161.713C114.077 160.989 113.867 159.608 113.912 158.423C118.907 158.26 123.453 160.764 128.409 160.847C131.028 162.058 134.368 160.779 136.633 163.211Z" fill="#A3D2DE"/>
<path d="M205.969 146.466C208.759 143.716 211.548 146.263 214.338 146.466C214.589 146.45 214.841 146.434 215.093 146.414C216.138 146.414 217.122 146.684 218.08 147.081C221.559 150.86 226.968 148.901 230.878 151.378C231.186 151.715 230.916 152.234 231.236 152.575C231.52 152.296 231.66 151.948 231.65 151.52C232.735 149.047 234.75 147.409 236.762 145.761C237.655 145.136 238.575 144.556 239.509 143.989C241.096 143.132 242.681 142.629 244.225 144.072L244.228 144.076C244.139 144.253 244.095 144.526 243.953 144.593C238.95 146.979 237.088 152.025 234.099 156.131C231.101 160.249 229.435 160.183 226.425 155.777C225.723 154.75 225.198 154.028 223.928 153.608C218.928 151.954 218.56 152.026 215.183 156.64C214.614 157.417 213.899 158.086 212.784 159.325C210.649 154.641 209.921 149.612 205.969 146.466Z" fill="#9ECFDA"/>
<path d="M226.296 181.142C226.036 179.993 225.775 178.844 225.507 177.662C232.101 178.539 238.358 180.355 244.017 183.866C246.366 185.323 247.046 183.043 248.383 182.141C249.316 183.103 249.818 184.657 249.207 185.378C247.968 186.839 246.396 188.25 244.213 188.288C241.826 188.33 239.439 188.316 237.051 188.326C236.253 189.068 235.457 188.984 234.664 188.318C234.024 187.6 232.928 187.807 232.267 187.132C231.439 184.772 228.934 184.086 227.489 182.343C227.058 181.977 226.742 181.497 226.296 181.145V181.142Z" fill="#91C0CB"/>
<path d="M226.296 181.144C226.694 181.543 227.091 181.943 227.489 182.342C227.091 181.943 226.693 181.544 226.296 181.144Z" fill="#97C7D2"/>
<path d="M106.738 84.2808C108.182 82.5368 110.678 81.8478 111.523 79.5028C113.411 79.6398 114.985 79.0849 116.343 77.6819C119.639 74.2769 123.646 72.8269 128.415 72.0939C134.427 71.1699 140.258 69.0019 145.871 66.4819C148.408 65.3429 151.017 64.4849 153.745 63.8699C158.636 62.7669 163.304 61.1338 166.162 56.5328C169.23 51.5948 174.081 53.2559 178.466 53.1849C178.645 53.5759 178.707 54.2049 178.484 54.2509C172.125 55.5579 170.618 62.1509 166.167 65.5679C163.114 67.9119 164.407 72.2429 162.673 75.3069C160.965 77.1829 159.048 78.7288 157.783 81.1578C155.337 85.8538 151.121 89.0749 146.503 91.5339C142.665 93.5769 138.821 93.2999 135.435 90.2499C133.72 87.1239 131.073 87.6469 128.348 88.4269C125.947 89.1139 123.694 90.3949 121.085 90.2599C119.232 91.2269 116.9 91.2498 115.642 93.3818C111.701 100.062 104.802 100.772 98.1341 101.915C97.5821 101.663 97.1771 101.253 96.9001 100.716C101.638 96.1148 102.004 88.8898 106.738 84.2808Z" fill="#BFE4EE"/>
<path d="M51.7431 95.0418C53.7351 95.0428 55.7281 95.0438 57.7211 95.0448C58.8961 93.8778 60.0181 94.8578 61.1571 95.1208C62.0161 95.4898 62.8731 95.8778 63.8401 95.9008C64.3261 95.8448 64.8052 95.8088 65.2912 95.7478C65.8002 95.6448 66.3051 95.5948 66.8221 95.5688C67.0911 95.5738 67.3512 95.5928 67.6192 95.5998C74.1862 97.4618 78.5092 104.138 78.0862 112.218C77.9452 114.922 78.0992 117.239 79.9402 119.446C84.2692 124.636 87.8492 124.88 94.7862 120.154C97.0802 120.746 98.8342 121.087 100.924 118.692C103.618 115.606 104.094 117.114 106.296 120.528C108.574 124.059 107.431 127.23 108.021 130.522C108.68 134.205 107.719 137.929 108.699 141.573C108.875 142.229 108.376 143.087 108.129 143.832C107.162 146.748 106.168 147.045 104.202 144.863C100.768 141.052 97.4162 137.169 94.0362 133.31C91.2272 130.102 87.3811 129.198 83.4331 128.57C80.5291 128.108 80.7612 130.803 79.7442 132.614C77.2242 130.971 77.9481 127.785 76.1291 125.788C74.3641 126.293 72.4922 126.771 70.6592 127.366C67.8422 128.281 65.2161 128.643 63.3871 125.576C62.4591 124.019 60.8432 123.879 59.2672 123.57C58.5302 123.425 57.8322 122.94 57.1862 122.507C55.6162 121.455 55.2531 118.827 52.7041 119.046C50.4161 119.242 48.6531 120.523 46.8991 121.85C46.1121 122.445 45.2061 122.881 44.3761 123.422C43.5521 123.959 42.7511 124.754 41.8081 123.678C41.0141 122.772 41.3052 121.877 41.9532 121.004C42.2942 120.545 42.6391 120.054 42.3171 119.435C38.8541 120.804 37.8311 122.42 38.8131 127.081C39.7861 131.701 37.8781 134.98 35.0071 138.093C31.3681 130.412 34.4732 123.322 37.7842 116.786C41.1302 110.18 46.6251 104.695 47.4061 96.7778C47.6601 94.1748 49.5131 93.6798 51.7431 95.0418Z" fill="#B4DCE6"/>
<path d="M165.32 86.6728C165.334 88.2138 166.092 89.6319 165.559 91.3119C164.9 93.3909 164.09 95.1539 161.666 94.9669C158.232 94.7019 156.024 95.9788 154.804 99.2288C153.927 101.567 152.391 102.564 149.689 101.684C147.531 100.981 145.511 101.968 143.796 103.412C140.961 105.972 136.126 105.329 134.23 109.391C130.038 108.769 127.151 112.057 123.475 112.982C119.858 118.675 121.416 124.868 122.058 130.85C122.358 133.644 122.204 135.101 119.111 135.062C117.697 134.563 116.52 133.573 116.283 132.198C115.254 126.243 113.182 120.331 115.106 114.178C116.294 112.737 118.525 111.67 116.445 109.387C119.019 108.402 121.025 111.158 122.98 109.658C124.392 108.574 124.955 106.749 124.443 104.673C123.066 103.643 121.812 105.796 120.208 104.916C118.732 104.107 117.583 104.152 118.497 101.705C121.504 93.6549 128.115 92.0939 135.43 91.4579C137.326 91.2659 138.859 92.3408 140.477 93.0068C143.906 94.4178 146.531 93.7699 149.765 91.6309C154.514 88.4899 158.001 84.8099 160.964 79.9189C163.302 76.0579 167.016 72.5018 172.51 72.8278C182.71 71.5778 187.668 77.7109 185.643 89.0649C181.024 88.1279 179.377 85.3079 179.578 80.6489C179.782 75.9289 178.495 75.1139 173.932 76.4719C171.73 77.1269 169.254 77.4129 167.712 79.5009C168.757 82.5059 167.535 84.7548 165.32 86.6728Z" fill="#A3D2DD"/>
<path d="M94.7861 120.154C95.0611 121.06 95.6171 121.931 94.4351 122.721C92.8831 123.759 90.3821 123.399 89.8041 125.938C89.6611 126.567 88.9231 126.34 88.3261 126.201C83.3051 125.029 79.5651 122.074 76.5861 117.984C75.6511 116.701 75.7541 115.464 76.2681 114.067C78.6251 107.656 74.3701 103.108 71.4151 98.3889C70.5921 97.0749 67.9151 96.9229 66.0891 96.2379C69.5121 92.7339 73.7521 92.9909 77.7991 97.2649C80.3771 99.9889 82.6771 102.978 85.3231 105.655C87.7311 108.091 89.8031 108.846 91.6391 104.974C92.6921 102.752 94.5561 101.256 97.1741 101.023C99.8621 101.266 102.28 100.576 104.487 99.0159C105.284 98.4519 106.216 97.6139 107.053 97.6509C111.091 97.8309 113.253 95.6229 114.771 92.2609C116.099 89.3199 118.85 90.5219 121.088 90.2609C118.682 92.2629 116.076 94.1209 115.257 97.3949C114.871 98.9369 113.95 99.5039 112.433 99.9089C109.026 100.817 105.759 102.284 102.332 103.077C99.6131 103.707 98.0761 105.805 95.9601 107.166C95.0311 107.763 94.5571 108.839 94.9221 109.721C96.3821 113.256 94.1571 116.678 94.7861 120.154Z" fill="#BBDFE9"/>
<path d="M115.107 114.178C115.687 119.167 117.112 124.02 116.889 129.162C116.808 131.026 117.421 133.558 119.889 134.508C120.578 135.179 120.842 136.009 120.808 136.951C118.564 142.708 119.483 145.029 125.858 148.446C129.727 150.52 133.687 152.389 136.154 156.252C137.209 157.904 138.803 159.716 137.78 161.663C136.805 163.519 134.541 162.473 132.862 162.542C131.337 162.604 129.685 163.072 128.259 162.013C123.054 162.508 118.346 161.014 113.912 158.425C115.383 156.9 118.649 157.21 117.87 153.35C117.284 150.447 117.967 147.494 114.154 146.312C111.425 145.466 111.264 144 113.691 142.214C115.478 140.899 115.44 139.043 113.885 137.598C112.033 135.878 111.95 134.192 112.475 131.772C113.251 128.2 111.267 124.844 110.554 121.376C109.631 116.894 110.274 115.968 115.107 114.178Z" fill="#A8D5E0"/>
<path d="M51.7432 95.0419C50.3052 95.2339 47.9832 94.7309 48.8352 97.3179C49.7062 99.9629 48.5672 102.103 47.5792 104.128C45.8582 107.657 44.0232 111.271 41.5232 114.252C36.0762 120.748 35.2962 128.405 35.0082 136.307C34.9862 136.903 35.0052 137.5 35.0052 138.096C34.6062 138.494 34.2072 138.892 33.8082 139.29C33.1822 140.03 32.0312 139.72 31.4182 140.486C28.1832 139.611 26.8192 141.855 25.4402 144.074C26.2052 138.515 26.9862 132.963 31.0882 128.623C31.3452 128.351 31.8042 127.899 31.7282 127.736C29.0042 121.868 34.8662 117.464 34.2722 111.49C33.7242 105.98 38.0592 101.031 42.5522 97.2379C43.3082 96.5999 44.2002 96.0539 44.7692 95.2749C48.0632 90.7599 48.0362 90.7409 51.7432 95.0419Z" fill="#BBDFE8"/>
<path d="M171.298 73.5189C165.867 76.1769 161.41 79.7519 159.204 85.6769C158.308 88.0829 157.13 90.3869 153.874 90.3959C152.166 90.3999 151.182 91.8909 150.07 92.9859C147.114 95.8969 144.435 96.5208 140.924 94.7718C139.019 93.8228 136.83 93.2699 135.431 91.4569C135.433 91.0549 135.435 90.6529 135.437 90.2509C137.051 90.1749 138.516 90.7329 140.033 91.1889C142.215 91.8449 144.374 91.4259 146.271 90.1909C150.22 87.6189 155.18 84.9129 156.244 80.7209C157.208 76.9229 159.606 76.3859 161.737 74.7149C164.699 73.1529 167.473 70.9469 171.187 71.9319C171.742 72.4239 171.779 72.9539 171.298 73.5189Z" fill="#B3DAE3"/>
<path d="M31.4182 140.485C31.9402 139.538 32.8261 139.316 33.8081 139.289C33.2871 140.237 32.4022 140.461 31.4182 140.485Z" fill="#B7DAE3"/>
<path d="M234.665 188.319C235.461 188.322 236.257 188.324 237.052 188.327C239.034 190.343 242.576 189.233 244.226 191.913C240.635 191.79 237.019 191.735 234.665 188.319Z" fill="#9BCAD6"/>
<path d="M140.044 3.72585C147.631 4.19885 153.838 6.23085 160.014 8.29485C161.675 8.84985 162.943 10.3909 163.729 12.0359C164.925 14.5399 166.044 17.0889 167.043 19.6789C168.375 23.1309 167.458 25.3628 163.86 26.7228C161.079 27.7738 158.394 28.9568 155.706 30.2248C152.01 31.9678 148.2 33.9758 144.011 30.8288C142.894 29.9898 140.822 30.5489 139.416 29.9399C136.873 28.8379 135.169 29.8509 133.677 31.6489C128.091 38.3799 121.051 43.6459 115.187 50.0969C113.97 51.4359 113.03 52.7399 112.619 54.6419C111.349 60.5149 107.315 63.7249 101.619 64.9959C100.082 65.3389 98.5041 65.4318 96.9431 65.7698C92.2111 66.7928 90.1811 65.3089 90.0461 60.5919C89.8031 52.0869 91.2531 43.9559 94.5321 35.9499C97.8721 27.7939 104.204 22.8479 110.617 17.5599C113.799 14.9359 117.761 13.4329 120.47 10.2309C120.844 9.78885 121.366 9.35885 121.904 9.18785C128.248 7.17185 135.084 6.85085 140.044 3.72585Z" fill="#D6EDF2"/>
<path d="M97.1742 101.023C95.6502 103.624 91.7901 104.465 91.9651 108.48C92.0271 109.908 90.3471 110.566 88.7251 109.934C87.2721 109.368 85.8301 109.015 84.7981 107.526C82.5481 104.278 79.3381 101.866 77.0711 98.5308C74.5551 94.8298 70.9451 94.3868 66.0901 96.2378V96.2389C65.6651 96.6109 65.2681 97.0109 64.8921 97.4329C64.4941 97.4329 64.0971 97.4339 63.6991 97.4349C63.0841 96.6689 61.9382 96.9759 61.3042 96.2479C60.1462 95.7399 59.0671 94.9948 57.7211 95.0458C57.7211 94.6468 57.7211 94.2479 57.7211 93.8489C61.6541 93.8009 65.5121 93.7729 69.4381 92.7349C73.5091 91.6579 77.6681 92.2689 80.4331 96.2449C81.2401 97.0319 82.0221 97.8429 82.8241 98.6339H82.8261C83.2171 99.0389 83.6152 99.4388 84.0232 99.8278C86.3722 101.855 88.9681 102.231 91.7401 100.847C93.6161 99.9099 95.4141 99.2589 97.1731 101.019L97.1742 101.023Z" fill="#C1E3EB"/>
<path d="M171.298 72.3218C168.013 72.7308 165.32 75.5019 161.736 74.7149C162.873 72.9459 161.98 70.9088 162.541 68.9598C163.233 66.5568 163.96 64.7829 166.2 63.2749C168.471 61.7459 171.376 60.1199 170.397 56.2209C170.038 54.7899 171.646 54.5348 172.884 54.3948C174.782 54.1808 176.925 55.0469 178.467 53.1849L178.468 53.1829C179.437 51.1529 181.342 50.3728 183.25 49.5978L183.253 49.5969C183.662 49.2099 184.059 48.8119 184.446 48.4029L184.449 48.4009C185.176 47.7689 184.956 46.6639 185.645 46.0129V46.0109C186.56 44.7729 187.456 43.4779 189.229 44.8179C189.231 45.2149 189.233 45.6109 189.235 46.0079C189.86 48.4919 192.808 47.8859 194.01 49.6029C187.089 51.8489 179.925 53.7019 175.556 60.3159C173.159 63.9439 170.768 67.6149 172.488 72.3149C172.093 72.8169 171.697 72.8428 171.298 72.3218Z" fill="#BADFE9"/>
<path d="M183.25 49.5989C181.656 50.7939 180.062 51.9888 178.468 53.1838C178.656 50.1108 180.679 49.4889 183.25 49.5989Z" fill="#BFE4EE"/>
<path d="M189.228 44.8198C188.033 45.2178 186.839 45.6149 185.644 46.0129C185.694 45.6189 185.655 45.1828 185.813 44.8388C186.222 43.9488 186.668 42.4068 187.19 42.3688C188.554 42.2668 188.631 43.8898 189.228 44.8198Z" fill="#BFE4EE"/>
<path d="M185.644 46.0138C185.618 46.9958 185.397 47.8808 184.448 48.4018C184.474 47.4188 184.696 46.5348 185.644 46.0138Z" fill="#BFE4EE"/>
<path d="M82.8241 98.6328C81.2851 98.5798 80.4871 97.7838 80.4331 96.2438C81.4171 96.2678 82.3021 96.4888 82.8271 97.4358C82.8261 97.8348 82.8251 98.2338 82.8241 98.6328Z" fill="#C8E7EF"/>
<path d="M269.339 105.801C268.352 105.782 267.467 105.557 266.939 104.611C266.022 102.561 266.172 99.0688 262.144 101.48C261.213 102.037 259.665 101.02 259.26 99.9178C257.841 96.0628 255 95.2748 251.304 95.4988C249.8 95.5898 248.215 95.0038 246.8 94.2508C243.375 92.4278 240.042 89.7158 236.039 93.0558C235.575 92.6918 235.295 92.2168 235.167 91.6448C235.268 89.4128 236.769 88.0508 238.25 86.6748C238.657 86.2848 239.055 85.8858 239.445 85.4788C241.677 84.4438 244.082 84.4088 246.079 85.5938C249.204 87.4488 251.527 86.5028 253.792 84.2828C254.391 83.7818 255.243 83.4018 255.548 82.7608C258.095 77.3988 258.065 77.3848 263.757 76.8148C265.596 77.8398 263.098 81.7408 266.863 81.4948C267.606 81.4468 268.121 81.9988 267.912 82.5628C266.622 86.0418 267.98 87.1368 271.363 88.3308C273.485 89.0808 273.065 92.6578 272.135 95.0678C270.79 98.5458 269.801 102.101 269.339 105.801Z" fill="#B5DBE4"/>
<path d="M238.249 86.6739C238.407 88.7449 236.544 89.8039 235.858 91.4529C227.635 95.0689 226.612 96.8849 227.393 106.57C227.49 107.77 227.56 108.951 227.091 110.098C226.817 110.613 226.429 111.022 225.937 111.334C220.493 111.909 217.801 110.241 216.13 103.917C215.164 100.259 213.259 97.5689 210.755 95.0459C211.528 93.8899 212.732 93.9259 213.931 93.8299C217.303 93.5609 220.559 92.8899 223.512 91.0859C225.229 90.0369 226.968 89.5849 229.149 90.0699C231.351 90.5599 233.934 90.9399 235.063 87.7429C235.506 86.4859 237.072 86.7349 238.249 86.6739Z" fill="#B9DFE9"/>
<path d="M210.754 95.0449C214.457 96.0469 217.874 98.9939 217.286 101.816C216.5 105.592 220.05 106.738 220.908 109.491C221.552 111.559 224.424 110.304 226.292 110.589C223.042 115.155 219.208 115.453 215.373 111.28C211.852 107.448 209.433 102.863 206.964 98.3269C207.03 98.0289 207.098 97.7299 207.167 97.4309C208.148 97.4049 209.033 97.1859 209.555 96.2389C209.955 95.8399 210.354 95.4429 210.754 95.0449Z" fill="#B1DAE5"/>
<path d="M253.791 84.2819C252.556 85.4999 254.184 88.4568 251.751 88.5588C250.053 88.6298 247.714 89.1199 246.423 87.3609C244.521 84.7699 241.875 85.6869 239.445 85.4779C241.589 83.3549 244.284 84.5069 246.731 84.3199C249.071 84.1409 251.436 84.2819 253.791 84.2819Z" fill="#B9DFE9"/>
<path d="M97.1721 101.019C95.6111 101.094 93.9351 100.705 92.5641 101.7C88.9741 104.305 86.4082 102.551 84.0232 99.8279C85.9142 99.8889 87.5772 101.079 89.7392 100.175C91.9472 99.2519 93.5711 98.4359 93.6081 95.7499C93.6541 92.3909 95.1091 90.7959 98.7591 89.9059C101.701 89.1879 104.1 86.2409 106.739 84.2819C106.028 88.4579 102.705 91.6209 102.622 96.2269C102.579 98.5899 99.1371 99.5149 97.1721 101.019Z" fill="#C8E7EF"/>
<path d="M244.223 144.072C242.485 143.895 240.934 144.459 239.444 145.271C237.916 143.052 239.575 141.546 240.737 140.051C242.441 137.858 243.845 135.48 245.332 133.153C247.32 130.041 246.209 128.158 242.795 127.874C233.308 127.084 231.339 118.991 227.663 112.561C227.198 111.748 227.485 110.611 227.18 109.663C227.003 109.115 227.02 108.567 227.199 108.023C229.47 104.222 233.549 102.209 236.298 98.8209C237.661 97.1419 240.685 97.0889 241.05 99.5149C241.907 105.214 245.551 107.326 250.37 108.667C251.274 108.919 251.877 109.908 252.591 110.589C249.28 114.392 248.185 118.295 251.474 122.807C255.819 128.769 251.829 132.996 248.122 137.16C246.312 139.194 243.755 140.766 244.223 144.072Z" fill="#A4D2DE"/>
<path d="M252.592 110.588C249.698 110.484 247.374 108.558 244.178 108.54C242.073 108.528 240.457 104.456 239.94 101.551C239.755 100.514 240.769 99.1579 238.911 98.8549C237.834 98.6789 236.847 99.2449 236.475 100.176C234.801 104.371 230.753 105.831 227.491 108.201C226.09 102.749 230.226 95.0619 235.857 92.6489C236.245 92.5679 236.652 92.5359 237.018 92.3959C238.666 91.7619 238.62 89.7139 239.969 88.8199C241.101 91.4229 244.408 89.9049 245.877 91.9379C246.205 92.3909 246.814 92.6629 247.33 92.9529C250.33 94.6399 253.332 96.5309 256.28 92.9109C257.462 94.8299 258.378 96.3429 259.319 97.8399C260.612 99.8959 261.69 102.661 263.855 98.2949C264.419 97.1569 264.91 98.3069 264.877 99.1879C264.825 100.536 265.474 100.208 266.344 99.8459C269.087 98.7069 269.135 99.8949 267.912 101.85C267.366 102.723 266.977 103.587 266.939 104.609C265.446 101.724 263.113 103.033 260.967 103.412C260.04 103.106 259.103 102.522 258.19 102.558C256.861 102.61 256.272 102.346 256.783 101.006C258.134 97.4679 255.491 96.9489 253.194 96.3659C250.158 95.5959 247.355 97.0499 244.496 97.6989C243.057 98.0259 242.918 99.4039 243.586 100.57C244.48 102.13 245.676 103.753 247.374 104.188C250.843 105.08 252.087 107.452 252.592 110.588Z" fill="#AAD6E1"/>
<path d="M203.578 87.8679C202.576 83.7129 198.144 80.6948 199.388 75.8388C200.432 71.7648 200.189 67.2048 203.578 63.9488C204.65 64.5748 205.217 65.5779 205.637 66.6959C205.856 67.9079 205.795 69.0478 204.774 69.9298C200.595 73.1628 200.647 77.4459 203.01 81.3099C204.5 83.7489 203.998 85.6399 203.578 87.8679Z" fill="#C1E2EA"/>
<path d="M204.773 69.9298C204.773 68.7338 204.773 67.5379 204.773 66.3419C203.895 64.7479 203.909 63.1539 204.773 61.5599C205.913 62.5279 209.295 67.2838 209.431 68.1108C209.845 70.6248 208.418 71.1818 204.773 69.9298Z" fill="#C7E5EC"/>
<path d="M231.075 152.446C230.242 151.934 229.027 150.776 228.633 151.009C223.417 154.087 220.499 149.396 216.729 147.662C216.108 146.912 214.987 147.161 214.338 146.466C213.054 144.33 211.846 142.782 208.676 143.654C205.445 144.542 203.534 143.132 203.798 139.601C204.289 133.033 201.128 126.304 204.796 119.853C205.799 118.089 204.322 117.007 202.587 116.469C200.538 115.833 198.358 114.434 196.876 117.215C196.139 118.598 195.691 120.164 195.299 121.695C194.652 124.216 192.854 125.763 190.842 127.051C189.742 127.755 188.475 128.777 187.004 127.816C185.428 126.787 184.1 125.35 184.598 123.397C185.226 120.934 185.207 118.205 186.805 116.079C189.565 112.407 189.716 108.53 188.534 104.228C187.422 100.182 188.379 98.6118 192.344 99.1548C196.388 99.7088 196.703 98.0498 196.405 95.0498C196.616 94.9328 196.828 94.8158 197.038 94.6978C198.39 95.1798 199.896 93.8148 201.186 95.0408C201.583 95.0458 201.979 95.0478 202.376 95.0468C203.011 95.6228 203.851 95.8418 204.555 96.2978C211.755 102.244 209.631 110.274 209.183 117.826C208.983 121.197 208.679 124.495 209.18 127.876C209.875 132.567 210.51 137.123 216.66 137.489C220.966 146.147 229.903 144.277 237.054 146.467C235.46 148.46 233.866 150.452 232.272 152.445C231.873 152.821 231.474 152.821 231.075 152.446Z" fill="#A2D1DD"/>
<path d="M171.298 72.3219C171.695 72.3209 172.091 72.3189 172.488 72.3159C174.466 72.2299 176.36 71.2829 176.484 69.4349C176.798 64.7749 181.164 62.8969 182.893 59.2509C183.455 58.0649 184.897 58.0319 185.931 59.0229C186.627 59.6899 187.611 60.5259 187.654 61.3299C187.948 66.8209 190.528 72.3379 188.921 77.6789C187.819 81.3449 189.329 83.7759 190.606 86.4689C191.78 88.9459 192.575 91.9399 195.806 92.8609C196.078 92.9389 196.21 93.5069 196.408 93.8469C196.823 94.1109 196.961 94.3739 196.823 94.6379C196.686 94.9019 196.548 95.0339 196.408 95.0339L196.405 95.0499C196.007 95.0439 195.61 95.0399 195.212 95.0389C191.05 95.8489 187.958 94.7839 186.84 90.2599C186.442 89.8609 186.043 89.4629 185.645 89.0639C185.093 87.8089 184.17 86.5499 184.504 85.1639C185.536 80.8759 182.136 78.3529 180.702 75.0509C180.129 73.7319 179.007 73.5509 177.79 73.5409C175.626 73.5219 173.462 73.5249 171.299 73.5189C171.298 73.1199 171.298 72.7209 171.298 72.3219Z" fill="#ACD5DE"/>
<path d="M196.407 95.0348C196.407 94.6388 196.407 94.2438 196.407 93.8478C198.06 94.0058 199.924 93.3188 201.186 95.0418C199.593 95.0328 197.998 96.2708 196.407 95.0348Z" fill="#B1DAE5"/>
<path d="M203.578 96.2398C203.178 95.8428 202.777 95.4458 202.377 95.0478C203.177 95.0458 203.977 95.0448 204.777 95.0428C205.175 95.4408 205.574 95.8388 205.972 96.2368C205.81 96.4058 205.649 96.5758 205.487 96.7448C204.758 96.9278 204.11 96.8008 203.578 96.2398Z" fill="#B1DAE5"/>
<path d="M204.773 61.5608C204.773 63.1548 204.773 64.7489 204.773 66.3429C203.826 65.8199 203.604 64.9329 203.577 63.9499C203.604 62.9669 203.826 62.0818 204.773 61.5608Z" fill="#C1E2EA"/>
<path d="M205.972 96.2368C206.371 96.6348 206.769 97.0328 207.168 97.4298L207.164 97.4358C206.05 97.7558 205.623 97.3848 205.966 96.2418L205.972 96.2368Z" fill="#B1DAE5"/>
<path d="M232.267 187.132C233.252 187.151 234.14 187.367 234.664 188.318C233.679 188.3 232.793 188.079 232.267 187.132Z" fill="#9BCAD6"/>
<path d="M128.258 162.013C131.023 162.013 133.787 162.013 137 162.013C135.717 155.772 131.537 152.691 126.618 150.591C124.353 149.624 122.457 148.462 120.747 146.756C115.983 142.001 115.955 142.029 119.89 136.9C122.955 137.22 123.777 140.304 124.799 142.088C130.717 152.407 141.353 151.89 150.772 154.208C153.562 154.895 154.739 151.927 156.951 151.251C160.492 150.994 163.17 148.44 166.515 147.662C167.669 149.249 169.686 149.114 171.218 149.984C173.13 151.069 173.939 152.778 174.613 154.651C174.901 155.452 174.746 156.489 174.041 156.773C171.28 157.889 168.837 159.034 166.57 161.363C164.469 163.521 160.975 161.402 158.128 160.704C154.862 159.903 151.549 159.516 148.169 159.602C146.23 159.651 144.665 160.137 143.798 162.015C141.409 162.414 139.02 162.813 136.63 163.212C133.847 162.772 130.786 164.254 128.258 162.013Z" fill="#A3D2DD"/>
<path d="M156.951 151.25C155.3 156.538 154.638 157.284 147.645 154.594C146.915 154.313 146.02 153.573 145.494 153.782C139.427 156.194 135.51 150.154 130.135 149.962C129.577 149.942 128.69 149.727 128.531 149.356C126.497 144.604 121.288 142.068 119.888 136.9C119.888 136.103 119.888 135.306 119.888 134.508C122.684 130.915 121.057 127.286 119.854 123.743C118.635 120.153 120.152 115.317 123.475 112.982C123.249 117.494 123.603 121.97 122.577 126.524C121.557 131.052 123.413 135.401 127.718 137.541C130.525 138.936 131.245 140.644 130.33 143.1C129.201 146.128 130.72 147.443 133.005 148.704C137.996 151.458 143.686 151.092 149.003 152.381C150.642 152.778 152.021 151.824 153.332 150.849C154.587 149.917 155.887 149.839 156.951 151.25Z" fill="#A3D2DE"/>
<path d="M134.231 109.391C133.224 107.629 133.037 106.112 135.384 105.275C138.113 104.302 140.787 103.105 143.797 103.411C144.354 103.606 145.143 103.632 145.428 104.025C146.989 106.182 144.6 108.122 144.974 110.286C145.377 112.611 144.282 114.054 141.983 114.62C141.622 114.709 141.307 115.029 140.996 115.274C139.519 116.441 138.336 118.544 136 116.52C133.698 114.526 132.087 112.449 134.231 109.391Z" fill="#99CCD7"/>
<path d="M165.32 86.6728C166.118 84.2818 166.916 81.8908 167.714 79.5008C171.764 77.7728 174.707 80.0678 177.542 82.3598C179.14 83.6528 178.584 85.1519 176.366 85.6209C175.625 85.7779 175.037 85.7998 174.328 86.3268C169.921 89.6008 169.884 89.5508 165.32 86.6728Z" fill="#98CAD5"/>
<path d="M186.84 90.2599C188.544 93.7579 192.036 94.1209 195.212 95.0389C188.026 97.9019 188.026 97.9019 186.84 90.2599Z" fill="#A2D1DD"/>
<path d="M119.886 170.381C122.378 168.536 124.781 166.381 128.258 167.991C125.566 169.131 122.915 170.418 119.886 170.381Z" fill="#99C8D4"/>
<path d="M205.966 96.2419C206.365 96.6399 206.765 97.0379 207.164 97.4359C211.162 99.9649 211.749 104.899 214.807 108.189C218.485 112.146 218.75 115.064 226.293 110.588H226.29C226.741 110.24 226.763 109.461 227.491 109.392C228.948 115.244 234.241 118.82 236.339 124.312C236.892 125.76 238.357 126.083 239.827 126.115C241.611 126.154 243.458 125.947 245.163 126.342C248.64 127.147 249.432 130.002 247.497 133.052C244.883 137.173 241.394 140.716 239.443 145.269C238.919 146.214 238.033 146.434 237.052 146.466C235.011 146.685 232.945 148.187 230.977 146.034C230.247 145.235 229.236 145.864 228.271 146.263C223.532 148.226 222.46 147.886 220.398 143.667C218.854 140.507 217.397 138.002 212.952 138.384C210.318 138.61 208.644 135.947 208.389 133.101C207.9 127.646 205.846 122.213 208.097 116.708C206.065 113.435 208.661 110.206 208.203 106.743C207.645 102.523 205.956 99.3679 203.576 96.2379C204.374 96.2399 205.17 96.2419 205.966 96.2419Z" fill="#AAD6E1"/>
<path d="M231.075 152.446C231.473 152.446 231.872 152.446 232.27 152.446C231.873 153.12 231.474 153.121 231.075 152.446Z" fill="#9ECFDB"/>
<path d="M48.7831 110.216C48.2881 107.779 50.0181 106.665 50.2741 104.816C51.1251 98.6819 58.6662 96.2538 63.5072 100.313C65.4712 101.96 67.1661 103.928 69.0001 105.732C70.2031 106.915 71.0112 108.086 70.0312 109.892C69.1332 111.549 68.0361 113.438 66.1001 112.852C60.4031 111.125 54.2871 111.854 48.7831 110.216Z" fill="#AFD8E3"/>
<path d="M106.785 130.8C106.711 131.945 106.803 132.971 106.553 133.906C106.012 135.93 104.319 136.605 102.476 136.672C100.879 136.731 100.149 135.547 99.6171 134.132C98.5031 131.171 99.5562 128.261 99.8302 125.375C99.9982 123.609 101.71 122.942 103.49 123.403C104.944 123.78 106.674 123.802 106.303 126.284C106.08 127.781 106.611 129.39 106.785 130.8Z" fill="#BEE0E8"/>
<path d="M61.3042 96.2469C62.2882 96.2669 63.1732 96.4879 63.6992 97.4339C62.7162 97.4109 61.8312 97.1889 61.3042 96.2469Z" fill="#BBDFE9"/>
<path d="M64.8911 97.4319C65.2901 97.0339 65.6901 96.6359 66.0891 96.2379C65.6901 96.6359 65.2911 97.0339 64.8911 97.4319Z" fill="#BBDFE9"/>
<path d="M227.491 109.392C227.091 109.791 226.69 110.19 226.29 110.588C225.559 105.64 225.741 100.785 226.444 95.7769C226.881 92.6609 227.745 91.5499 230.542 91.4769C232.313 91.4309 234.086 91.4579 235.857 91.4529C235.857 91.8519 235.857 92.2509 235.857 92.6489C233.899 93.4159 233.683 95.2709 233.044 96.9359C232.369 98.6949 232.092 100.558 229.658 101.406C226.463 102.52 227.744 105.756 227.492 108.2C227.491 108.598 227.491 108.995 227.491 109.392Z" fill="#B1DAE5"/>
</svg>
