<svg width="807" height="343" viewBox="0 0 807 343" fill="none" xmlns="http://www.w3.org/2000/svg">
<path d="M152.982 340.822C147.583 342.866 141.931 342.541 136.444 341.906C124.598 340.536 112.802 338.711 101.006 336.936C98.2694 336.524 95.5364 335.783 92.9364 334.826C80.8284 330.368 68.6124 326.148 56.7414 321.118C48.2264 317.51 41.1804 311.562 35.7034 303.956C35.4544 303.384 35.0704 302.93 34.5344 302.608L34.5404 302.622C33.4654 298.97 28.6464 297.286 29.3134 292.717C28.9094 290.768 27.4044 289.625 26.0824 288.349C19.6004 284.761 16.2174 279.065 15.0574 271.935C14.7034 269.758 13.3934 267.948 13.0014 265.81C12.7404 263.124 12.7854 260.409 15.6794 259.159C18.2364 258.055 20.2154 259.795 22.1764 261.177C25.5384 263.545 27.8744 266.688 29.3384 270.51C32.6484 279.148 37.8844 286.038 46.2884 290.467C50.5504 292.713 53.4474 296.643 55.9374 300.752C56.3864 301.089 56.8154 301.452 57.2484 301.809C59.6904 303.591 61.7504 306.564 65.4184 303.769C66.4814 302.959 67.6074 304.118 68.5134 304.878C73.9114 309.408 80.2194 312.069 86.9594 313.854C95.5714 318.329 105.06 319.459 114.305 321.76C122.986 323.921 128.629 321.455 134.372 315.919C136.884 313.497 140.395 312.307 143.815 313.434C147.632 314.692 151.614 314.649 155.424 315.664L155.387 315.648C156.476 316.837 158.122 315.998 159.335 316.734C164.288 316.928 168.824 318.635 173.295 320.579C174.841 321.5 176.771 320.992 178.325 322.077C182.42 324.937 182.07 329.337 177.824 331.806C170.063 336.323 161.649 338.882 152.982 340.822Z" fill="#E09A00"/>
<path d="M28.3243 128.978C28.9983 126.904 30.3343 125.427 32.3293 124.547C39.4753 125.855 41.5773 119.178 45.2093 115.639C48.1473 112.776 50.2773 108.382 53.1063 105.427C61.9423 96.1977 72.1983 88.8557 86.0203 89.3997C86.8173 93.5837 83.1703 94.1067 80.8043 95.5237C76.5773 98.0547 71.5173 99.4617 69.1603 104.399C68.3523 106.091 66.4684 107.904 68.4584 109.757C70.1574 111.339 72.2863 110.565 74.0383 109.555C77.8313 107.369 81.6023 105.141 85.0713 102.432C86.8373 101.052 89.0723 99.6787 90.8813 101.891C92.7293 104.153 90.6793 105.862 89.1333 107.453C85.7503 110.935 81.8443 113.659 77.3083 115.372C68.2333 118.8 59.9834 123.385 54.0704 131.389C44.2864 131.349 43.2063 140.039 39.4433 146.023C39.0223 146.692 38.7543 147.542 38.8353 148.307C39.7543 156.976 38.6083 165.777 40.2703 174.367C40.9943 178.108 44.1183 180.796 46.0433 184.024C48.7403 188.546 50.3774 193.712 53.8594 197.931C56.2284 195.797 55.5533 193.257 55.7433 190.971C56.0583 187.169 56.5913 183.41 58.6853 180.155C59.7813 178.451 60.7553 176.061 63.6653 177.129C64.7483 181.711 62.8693 185.938 62.1323 190.304C60.6443 195.17 61.8013 200.163 61.4193 205.08C61.2193 207.656 61.3853 210.53 58.6573 211.854C55.7513 213.263 53.4083 211.219 52.0553 209.203C48.7443 204.269 43.4633 205.132 38.8413 203.981C34.5963 200.958 30.2243 198.57 24.6813 198.776C21.2023 198.906 18.0773 196.843 17.8923 193.343C17.3613 183.329 16.1953 173.241 18.7033 163.296C22.1363 151.924 27.1963 141.003 28.3243 128.978Z" fill="#F4C861"/>
<path d="M53.7513 130.347C58.0653 121.911 66.1404 118.268 74.2144 115.064C80.0924 112.732 85.0214 109.372 89.5734 105.185C90.4104 104.415 90.9594 103.546 90.3674 102.638C89.5654 101.407 88.1493 101.521 87.2753 102.443C83.7903 106.118 79.0514 107.93 75.1124 110.904C73.5714 112.067 71.9783 112.486 70.1293 112.41C65.6793 112.228 64.5054 110.379 66.3394 106.363C68.4514 101.738 71.3094 98.2047 76.3544 96.0337C79.7564 94.5697 84.1364 93.7767 86.0364 89.6947C87.4374 87.8707 89.8314 87.6217 91.5034 86.2267C95.4814 84.2237 98.7604 81.0797 102.852 79.2627C103.713 78.8807 103.679 78.7327 102.509 77.5417C108.023 76.8667 113.006 74.3577 118.314 72.9727C123.118 78.4567 123.014 80.4937 117.76 84.8287C116.72 85.6867 115.488 86.3447 114.771 87.5587C112.233 90.4807 108.452 91.5887 105.506 93.9737C97.6324 100.347 93.6454 109.287 89.3004 117.97C85.6644 125.236 82.3713 132.673 78.9263 140.034C78.2493 139.527 78.0893 138.806 78.0933 138.017C77.5873 138.27 77.5704 138.827 77.3854 139.253C76.6224 141.011 75.9034 142.786 74.6414 144.277C73.4454 145.604 72.0324 146.621 70.4014 147.343C69.8484 147.562 69.3124 147.811 68.7944 148.104C60.4974 152.806 55.6303 151.969 49.3773 144.826C47.4003 142.568 47.4344 140.208 48.8004 137.712C50.2274 135.107 51.9413 132.695 53.7513 130.347Z" fill="#F6CC67"/>
<path d="M76.3864 215.246C79.3074 224.778 82.2284 234.311 85.1504 243.843C84.2024 246.055 83.4334 248.326 83.5524 250.765C83.8104 256.061 79.4984 257.838 76.0514 259.784C73.4604 261.246 71.2824 258.969 69.5424 256.894C65.6664 252.271 65.8104 252.381 63.0524 257.368C61.2394 260.647 58.8854 263.559 58.3044 267.479C57.9804 269.665 55.9484 270.102 54.0454 269.528C43.8564 266.456 33.7004 263.931 28.1844 252.81C25.7684 247.939 24.3564 243.587 24.5224 238.31C24.8674 227.346 22.3214 216.571 22.0964 205.633C22.0604 203.894 20.9774 202.706 20.1664 201.359C22.0354 197.32 28.2884 197.167 31.1914 201.405C33.7984 205.211 35.7994 209.446 34.0864 214.294C33.2774 216.584 33.1774 218.493 35.3364 220.121C36.6814 221.135 37.2204 222.727 37.3084 224.337C37.6404 230.387 41.4924 234.539 45.1564 238.686C48.2794 242.221 52.0244 243.366 56.1594 239.967C58.9214 237.697 61.8324 237.312 64.9324 239.407C66.5254 240.484 68.1394 242.169 70.2194 240.328C72.1234 238.644 73.2324 236.535 72.4654 233.948C71.3824 230.294 71.2004 226.498 70.5034 222.786C70.0974 220.621 69.8054 218.334 70.7754 216.315C72.0494 213.666 73.7754 211.664 76.3864 215.246Z" fill="#EEB23F"/>
<path d="M96.8594 272.62C100.355 274.386 101.462 278.251 104.051 280.813C105.3 282.843 104.172 284.591 103.484 286.457C101.361 292.208 104.308 301.033 109.328 304.555C111.746 306.251 113.726 306.406 116.275 304.419C122.849 299.291 124.895 299.66 130.633 306.55C132.388 308.657 136.934 308.029 136.313 312.398C130.599 316.047 124.538 319.118 118.31 321.664C113.431 323.659 108.565 321.541 104.155 319.168C101.014 317.478 98.0314 315.556 94.6624 314.241C91.1454 312.868 87.7354 311.443 83.9204 310.91C79.6784 310.317 75.8414 308.051 73.0524 305.06C67.4264 299.026 61.2864 293.961 53.5384 290.996C52.3464 287.314 54.4544 286.289 57.5094 286.308C59.5044 286.321 61.8294 286.576 63.1524 287.922C66.7874 291.619 70.9314 289.587 74.9134 289.545C76.1784 289.532 77.8064 289.122 77.8014 287.952C77.7734 282.325 82.8354 277.302 79.6674 271.311C78.7214 269.522 78.2794 267.381 79.8334 265.703C81.5434 263.856 83.5424 265.126 85.3694 265.753C87.6484 266.535 89.8794 267.567 91.3364 269.533C92.7654 271.461 94.7024 272.159 96.8594 272.62Z" fill="#E9A826"/>
<path d="M804.338 0C805.321 0.027 806.206 0.249014 806.729 1.19601C805.746 1.16901 804.86 0.947 804.338 0Z" fill="#9ECFDB"/>
<path d="M20.2644 200.89C22.2394 200.879 24.0514 201.284 23.8044 203.771C23.2054 209.785 24.6944 215.632 25.1524 221.552C25.7804 229.667 26.8894 237.738 25.9404 245.896C25.8974 246.269 25.8764 246.883 26.0804 247.012C30.6614 249.893 30.8254 255.618 34.0664 259.345C34.4574 259.795 34.8104 260.507 35.2894 260.616C39.8254 261.644 43.5824 264.14 47.6084 266.269C49.9104 267.486 53.4484 268.263 56.4014 268.569C57.6404 267.15 57.2404 265.7 57.3334 264.344C57.4014 263.353 57.0604 261.776 57.5494 261.459C61.3154 259.013 62.1384 255.208 63.0634 251.241C63.3974 249.811 65.3674 249.679 66.6564 250.59C68.4434 251.853 69.7194 253.481 70.6744 255.607C72.4344 259.525 74.3694 259.666 77.5684 256.708C78.2894 256.041 79.0474 255.211 79.9314 254.962C82.2644 254.306 82.3534 253.096 81.8714 250.931C81.2124 247.973 81.2814 244.912 85.1494 243.844C87.3054 250.875 92.0714 256.859 93.3444 264.245C90.9464 266.581 87.8604 266.244 85.5504 264.974C79.3594 261.571 75.7584 263.702 72.6284 269.343C70.8924 272.471 67.6764 274.552 64.2884 275.861C59.7144 277.629 55.7484 277.636 50.4474 275.821C43.6634 273.498 38.0914 269.839 32.1774 266.363C22.1494 257.782 21.5634 245.574 19.9004 233.864C19.2884 229.557 19.6814 225.115 19.8844 220.752C20.2274 213.357 20.1914 206.239 12.4674 202.664C6.78438 209.935 6.71638 220.131 2.24738 228.614C0.916382 222.439 -0.298625 216.232 0.0653749 209.879C0.817375 196.755 1.64437 183.633 5.90137 171.029C6.60237 168.952 7.22238 166.851 8.46238 165.008C12.1214 161.765 11.9374 165.739 12.0594 167.266C12.4244 171.816 13.3034 176.432 12.8414 180.931C12.2444 186.75 14.0574 191.866 15.8914 197.075C16.2314 197.461 16.5664 197.867 16.9054 198.252C17.5664 198.959 18.3764 199.477 19.2394 199.919C19.6274 200.194 19.9684 200.518 20.2644 200.89Z" fill="#EDAE34"/>
<path d="M33.4245 265.484C37.2765 267.92 41.1534 270.318 44.9674 272.813C46.2184 273.631 47.5254 274.126 48.8954 273.63C51.4184 272.716 53.5875 272.118 54.0005 275.91C54.0985 276.811 54.9484 277.101 55.8304 276.872C62.8234 275.061 69.6184 272.931 73.2854 265.845C73.7424 264.963 74.1465 264.033 74.7325 263.242C76.6915 260.595 78.5694 259.928 81.3644 261.64C85.1304 263.948 89.1074 264.504 93.3434 264.244C95.0684 266.804 95.7304 269.809 96.8584 272.619C93.6654 275.212 93.5185 275.297 91.6485 272.053C89.5285 268.374 85.6874 267.647 82.3014 266.144C80.7434 265.452 80.0834 266.559 80.1714 267.947C80.2324 268.905 80.3864 270.121 80.9914 270.737C84.2134 274.016 83.0145 277.164 81.0055 280.384C79.8855 282.179 80.1255 284.208 80.0365 286.194C79.8325 290.752 78.5985 291.863 74.2425 291.201C73.0595 291.021 71.5945 290.26 70.8805 291.245C68.6095 294.381 67.1364 293.225 65.2094 290.852C63.0434 288.184 59.5434 288.135 56.4944 287.49C54.4594 287.06 53.9285 288.887 53.7505 290.594C52.8405 292.055 51.5005 292.599 49.8285 292.444C42.9425 288.142 36.8165 283.151 34.1905 275.011C34.5555 271.787 30.7965 268.887 33.4245 265.484Z" fill="#EBAA2D"/>
<path d="M20.2644 200.89L19.6784 200.891L19.0924 200.89C18.4594 200.157 17.3394 200.409 16.6944 199.702L16.6964 199.701C13.3004 192.907 15.1514 185.636 14.9394 178.587C14.7434 172.069 15.6974 165.569 15.5174 158.989C15.3404 152.521 16.1174 145.942 19.2124 139.967C20.6264 137.155 22.2894 134.533 24.8344 132.584C28.1604 132.637 27.6194 135.297 26.9354 136.755C23.0714 144.987 22.3414 153.975 20.2804 162.636C18.3804 168.009 19.2334 173.584 19.1024 179.082C19.0124 182.838 19.0294 186.598 19.0984 190.355C19.2004 195.903 20.5664 197.491 26.2124 197.233C31.8234 196.977 36.2335 198.606 39.4115 203.294C44.2245 205.693 43.8234 209.888 42.8374 214.029C41.8754 218.073 40.9164 222.074 41.2014 226.256C42.7674 232.095 50.0394 237.117 55.4904 236.099C61.4834 234.98 65.3774 229.507 64.8454 222.913C64.7814 222.123 64.3664 221.208 64.6934 220.561C67.9394 214.144 67.1024 207.188 67.4714 200.393C68.9484 198.82 69.7574 200.071 70.4684 201.189C71.3924 202.643 72.3294 204.011 74.2024 204.289C75.7174 207.784 76.2244 211.48 76.3874 215.245C75.3154 214.845 74.2954 213.918 73.0744 214.781C72.0074 215.535 71.6484 216.683 71.7174 217.915C72.0034 223.024 72.4914 228.113 74.0304 233.024C74.4944 234.503 75.8084 235.928 74.7334 237.48C73.2834 239.573 71.7794 241.722 69.8934 243.389C68.4564 244.659 67.0244 243.254 65.7574 242.223C61.0154 238.366 60.9964 238.39 55.9814 242.296C53.0544 244.576 49.6764 244.804 46.8354 242.305C41.1564 237.312 35.9204 231.942 35.7824 223.612C35.7614 222.367 35.3904 220.864 34.0794 220.834C29.3014 220.725 30.5794 217.337 31.7944 215.592C34.4904 211.72 32.9994 208.559 31.4194 205.041C29.2824 200.282 26.2704 198.481 21.3504 199.546C20.9114 199.643 20.6224 200.426 20.2644 200.89Z" fill="#F1BD4F"/>
<path d="M33.4244 265.484C32.9554 268.991 36.2974 271.546 35.8144 275.056C31.6474 275.108 30.0374 271.499 28.8194 268.857C27.0674 265.056 24.3164 262.009 22.4474 258.375C17.5454 247.67 16.0044 236.459 17.2544 224.783C17.5914 221.634 17.6804 218.43 17.1774 215.271C16.9914 214.099 16.6094 212.81 15.0824 212.818C13.7494 212.825 12.5424 213.808 12.5544 214.938C12.6144 220.686 8.84139 225.955 10.5204 231.868C11.4314 237.911 10.4744 244.101 11.9924 250.098C12.6244 252.595 10.9704 253.658 9.1134 254.574C8.8214 254.648 8.52841 254.718 8.23441 254.788C5.00741 246.346 3.10841 237.599 2.24841 228.615C3.11041 218.425 6.08439 209.002 12.2024 200.604C13.3974 201.585 14.2984 202.875 15.4594 203.185C20.9314 204.645 21.2714 209.046 21.4214 213.393C21.6194 219.162 21.5604 224.944 21.4524 230.718C21.2664 240.654 24.3894 249.859 27.5104 259.071C28.5234 262.059 31.9724 262.864 33.4244 265.484Z" fill="#E9A827"/>
<path d="M136.25 312.105C135.486 310.162 133.657 309.915 131.987 309.322C130.275 308.714 128.674 308.547 128.656 305.584C128.636 302.493 122.435 301.339 119.233 303.591C118.28 304.262 117.36 305.124 116.742 306.099C114.967 308.907 113.14 308.743 110.319 307.276C102.932 303.435 102.024 296.286 100.481 289.395C100.205 288.165 101.039 287.163 101.744 286.187C102.909 284.574 103.852 282.848 104.051 280.812C117.887 292.411 131.966 303.683 147.443 313.075C143.547 314.647 139.82 314.276 136.25 312.105Z" fill="#EBA92C"/>
<path d="M136.25 312.105C139.983 312.404 143.645 313.509 147.442 313.076C147.755 313.02 148.01 313.116 148.208 313.364C149.023 314.084 150.109 313.988 151.056 314.313C152.66 314.291 154.278 314.222 155.429 315.665C151.301 315.607 147.22 315.857 143.082 314.775C139.399 313.811 135.717 315.39 133.824 318.603C131.695 322.216 126.746 321.892 125.053 325.801C124.763 326.471 123.551 326.121 122.875 325.713C117.214 322.299 110.634 323.126 104.535 321.74C97.9784 320.25 91.4334 318.887 86.0264 314.517C77.3744 311.781 70.8664 305.397 63.1844 301.005C60.9544 299.731 58.9624 298.368 56.3014 297.855C53.1784 297.253 50.5034 295.548 50.1594 291.808C51.3194 291.292 52.4014 290.544 53.7534 290.593C61.5004 291.588 66.8314 296.135 71.8394 301.83C75.7464 306.274 80.7954 309.22 87.2384 309.919C92.6304 310.505 97.6744 313.217 102.283 316.196C105.492 318.27 108.765 320.043 112.418 321.102C114.974 321.843 117.395 322.543 118.692 318.963C119.523 316.668 121.72 316.544 123.75 317.327C125.583 318.034 126.935 317.648 127.712 315.945C129.46 312.117 132.717 311.854 136.25 312.105Z" fill="#E8A317"/>
<path d="M92.0063 87.2877C90.4613 89.1937 88.3734 89.7517 86.0374 89.6937C74.7084 90.8287 65.6194 96.9107 56.5684 103.066C56.0834 103.396 55.7133 103.897 55.2903 104.319C53.3673 106.243 53.5594 109.8 51.9984 111.014C50.0174 112.554 47.7243 113.602 47.1843 116.178C46.5453 119.227 44.5754 119.851 42.0134 119.629C40.8214 121.411 43.9383 122.96 41.9633 124.582C40.5793 125.719 38.9843 125.595 37.4133 125.539C35.6793 125.477 33.7833 126.082 32.3293 124.545C39.3113 115.617 47.1003 107.421 55.2183 99.5377C58.5263 96.3257 62.5283 94.0577 66.6973 92.1557C71.9303 89.7697 77.2314 87.5357 82.5034 85.2357C84.3464 86.3267 86.2494 85.9737 88.1884 85.5447C89.8524 85.1777 91.3163 85.4317 92.0063 87.2877Z" fill="#F2C35B"/>
<path d="M19.2104 139.967C19.4294 140.285 19.9134 140.756 19.8304 140.9C16.4904 146.711 19.0294 153.456 16.8684 159.456C16.4594 160.59 16.9314 161.805 17.3824 162.93C18.0704 164.647 18.1594 166.519 17.7974 168.226C15.5824 178.665 17.1674 189.217 16.6954 199.702C14.4324 198.518 13.0234 196.829 13.0744 194.1C13.1344 190.885 9.95839 188.375 10.7704 185.071C12.2634 179.001 9.92241 173.002 10.7044 166.968C10.9224 165.289 10.5254 164.154 8.4624 165.009C10.7654 156.111 14.1284 147.67 19.2104 139.967Z" fill="#EFB341"/>
<path d="M152.982 340.822C154.636 337.362 158.517 337.554 161.169 337.009C165.586 336.101 169.422 334.54 173.107 332.168C174.268 331.421 175.52 330.765 176.808 330.275C180.737 328.78 180.99 327.608 178.651 324.121C177.285 322.084 174.74 322.252 173.298 320.579C176.614 321.007 180.002 320.474 183.279 321.6C188.3 323.324 189.323 327.121 185.579 330.889C184.616 331.858 183.498 332.899 182.252 333.323C174.793 335.863 167.806 339.719 159.965 341.212C157.549 341.674 155.271 341.67 152.982 340.822Z" fill="#ECAE35"/>
<path d="M31.0013 291.83C30.9273 294.729 30.8663 297.529 34.1033 299.131C35.5893 299.866 35.2863 301.339 34.5413 302.623C26.0963 296.783 20.9993 288.195 16.1393 279.554C12.0303 272.25 9.71334 264.21 8.44434 255.903C8.90834 255.487 9.45233 255.343 10.0643 255.429C14.2203 257.633 13.0693 262.063 14.2853 265.502C15.5823 268.103 16.2673 270.824 16.9543 273.677C18.1593 278.681 19.7704 284.164 25.8864 285.919C27.0424 286.251 27.3023 287.178 27.4263 288.202C27.5843 290.43 29.7033 290.725 31.0013 291.83Z" fill="#EBAC34"/>
<path d="M74.2024 204.291C71.7354 206.515 70.4604 204.646 69.4704 202.735C68.9714 201.771 69.2344 200.426 68.0974 199.708C67.9224 199.498 67.7484 199.289 67.5694 199.081C67.1714 195.33 66.6593 191.608 64.7133 188.259C64.0493 186.229 64.1424 184.185 64.5634 182.13C65.1114 180.403 65.3444 178.631 65.3024 176.816C65.2954 173.794 66.2784 171.165 68.3884 168.974C69.6164 168.251 70.7194 165.845 72.2354 168.655C72.5934 177.797 71.6454 186.962 72.7594 196.088C72.8424 197.579 72.9254 199.069 73.0084 200.56C73.4554 201.418 73.3124 202.485 73.9694 203.268C74.1804 203.577 74.2584 203.919 74.2024 204.291Z" fill="#F0B84C"/>
<path d="M20.2794 162.636C19.2384 155.289 21.4783 148.339 22.9863 141.322C23.3393 139.68 25.0793 138.591 25.5413 136.766C25.9493 135.156 26.6044 133.732 24.8334 132.584C25.6304 131.026 26.8823 129.909 28.3253 128.979C30.0953 129.825 30.7404 130.843 30.4064 133.127C29.7094 137.891 26.8723 141.779 25.6293 146.335C24.9243 148.92 24.0734 151.391 23.7324 154.122C23.3534 157.166 22.7544 160.341 20.2794 162.636Z" fill="#F2C359"/>
<path d="M71.6844 167.419C70.8884 168.216 70.0924 169.013 69.2964 169.811C68.1244 168.827 67.5164 167.369 67.8514 166.068C69.7934 158.51 68.5504 150.059 74.0724 143.496C74.7284 141.898 75.2944 140.254 76.0804 138.723C76.4874 137.929 77.2724 136.885 78.2724 137.363C79.2224 137.817 78.7154 139.122 78.9264 140.035C77.1064 147.542 74.4214 154.86 73.9644 162.666C73.3194 163.46 73.4454 164.52 73.0244 165.391C73.1184 165.695 73.0684 165.974 72.8734 166.226C72.5774 166.501 72.3664 166.831 72.2424 167.216L71.6844 167.419Z" fill="#F0B953"/>
<path d="M92.0064 87.2877C90.0914 85.9027 88.3374 86.6587 86.5244 87.6027C84.0114 88.9107 82.8704 87.6837 82.5044 85.2367C88.8584 81.8507 95.7824 79.9517 102.511 77.5417C103.854 77.7107 105.197 77.8797 106.54 78.0487C101.392 80.7957 97.3934 85.1547 92.0064 87.2877Z" fill="#EFB444"/>
<path d="M114.771 87.5587C114.591 85.6527 116.133 85.0007 117.277 84.0027C120.274 81.3897 121.911 80.1097 119.131 75.6967C118.644 74.9237 118.575 73.8867 118.313 72.9727C119.521 72.2767 120.779 71.7567 122.193 71.6107C124.502 71.3727 126.709 71.5637 127.658 74.0377C128.657 76.6437 128.445 79.3217 125.866 80.8837C122.177 83.1207 118.873 86.0127 114.771 87.5587Z" fill="#EEB03D"/>
<path d="M72.7604 196.086C71.0914 194.475 71.6994 192.39 71.6864 190.486C71.6334 182.797 71.6764 175.108 71.6844 167.419C72.0494 167.061 72.4174 167.041 72.7884 167.41C72.7794 176.969 72.7704 186.528 72.7604 196.086Z" fill="#F2C157"/>
<path d="M159.339 316.735C157.866 316.943 156.386 317.178 155.391 315.649C156.793 315.698 158.195 315.746 159.339 316.735Z" fill="#E8A317"/>
<path d="M73.0234 165.39C72.8984 164.33 72.9593 163.335 73.9633 162.665C74.1223 163.736 73.9044 164.677 73.0234 165.39Z" fill="#F2C157"/>
<path d="M73.9704 203.266C72.9624 202.609 72.8954 201.618 73.0094 200.56C73.7544 201.31 74.0574 202.219 73.9704 203.266Z" fill="#F1BD4F"/>
<path d="M151.055 314.313C149.934 314.513 148.906 314.431 148.207 313.364C149.284 313.297 150.253 313.555 151.055 314.313Z" fill="#EBA92C"/>
<path d="M34.5354 302.609C35.2084 302.813 35.5994 303.261 35.7044 303.957C35.0304 303.754 34.6184 303.324 34.5354 302.609Z" fill="#EBAC34"/>
<path d="M9.54333 255.894C9.17633 255.901 8.80935 255.904 8.44335 255.903C8.21535 255.56 8.14633 255.188 8.23433 254.786L8.59133 254.537C9.41233 254.637 9.89733 254.971 9.54333 255.894Z" fill="#E9A827"/>
<path d="M72.7883 167.41C72.4203 167.415 72.0523 167.418 71.6843 167.419C72.0803 167.021 72.4764 166.623 72.8724 166.225C72.8444 166.62 72.8163 167.015 72.7883 167.41Z" fill="#F0B84C"/>
<path d="M9.54333 255.894C9.22433 255.443 8.90636 254.991 8.58936 254.539C10.1504 252.5 10.3353 250.65 9.82532 247.834C8.89632 242.705 9.52934 237.293 9.50934 232C9.17834 231.504 8.87734 230.986 9.03934 230.362C9.88934 227.082 9.27536 221.856 13.9774 222.221C18.8054 222.596 16.7484 227.589 16.5764 230.521C15.9814 240.643 16.4924 250.333 23.8544 258.31C28.2334 262.515 29.3433 268.892 33.6843 273.12C34.3703 273.789 35.1033 274.411 35.8143 275.054C35.8493 276.244 35.5453 277.926 36.5303 278.431C41.1943 280.824 41.9983 287.136 47.3763 288.829C48.5043 289.184 49.2413 290.782 50.1583 291.808C52.0043 294.813 54.3014 297.027 58.2114 296.609C59.1954 296.504 60.2593 296.685 60.9633 297.426C64.9163 301.585 70.7993 302.877 74.7963 307.183C77.8033 310.421 82.9273 311.032 86.0253 314.516C78.2093 313.803 72.0944 309.706 65.7794 304.636C64.2014 304.646 63.7014 307.377 61.3464 307.771C60.2744 305.512 57.9903 304.267 56.5563 302.159C56.9563 301.767 56.8143 301.893 56.5433 302.145C56.7063 302.042 56.8223 301.886 56.5613 302.165C54.9283 301.918 53.1923 301.544 52.9053 300.166C51.7963 294.833 47.1643 293.147 43.4073 290.546C38.4513 287.114 33.1984 284.072 31.1104 277.772C30.1874 274.987 28.2054 272.549 27.3154 269.759C26.0034 265.645 22.6923 263.469 19.6523 261.124C16.5173 258.706 15.0264 259.586 14.3214 263.726C14.2234 264.303 14.2933 264.909 14.2853 265.502C12.5623 262.369 11.7713 258.777 9.54333 255.894Z" fill="#E69E09"/>
<path d="M31.0013 291.83C26.7303 291.302 26.5503 291.119 27.4253 288.203C29.0573 288.977 30.2713 290.164 31.0013 291.83Z" fill="#E7A218"/>
<path d="M53.7513 130.347C53.1053 133.012 52.3963 135.557 50.5883 137.832C47.9853 141.108 48.4053 142.863 51.8903 144.897C53.7703 145.994 55.5314 147.153 57.1594 148.627C60.2274 151.405 61.1623 151.367 64.7313 148.636C66.4813 147.297 68.2413 146.113 70.4943 145.896C72.0153 148.14 70.8434 150.436 70.6304 152.716C70.0234 159.186 67.6064 165.267 66.5704 171.656C66.2424 173.681 65.6153 175.961 63.3093 176.982C58.4623 180.777 57.5324 186.143 57.3284 191.818C57.2434 194.178 57.7413 196.602 56.5063 198.848C55.8863 199.975 55.1244 200.768 53.7554 200.76C52.3224 200.751 51.8653 199.864 51.3633 198.627C48.3103 191.102 44.5903 183.996 39.5953 177.472C36.9413 174.007 37.4333 169.195 37.7623 164.964C37.9953 161.965 38.0883 159.152 37.5333 156.155C36.5973 151.099 35.9464 146.015 40.1564 141.636C41.7154 140.015 42.4554 137.551 43.0494 135.173C44.0914 130.997 45.1114 130.317 49.2224 131.143C50.9964 131.501 52.3143 131.007 53.7513 130.347Z" fill="#F5CA64"/>
<path d="M39.4074 227.212C39.2184 222.645 39.5173 218.2 41.2003 213.823C42.6193 210.131 42.0904 206.449 39.4094 203.295C45.4744 202.198 50.4633 203.737 54.1423 208.982C54.9763 210.171 56.1484 211.845 57.9934 211.06C59.9834 210.213 59.7154 208.163 59.7224 206.394C59.7364 202.438 59.7133 198.481 59.7363 194.525C59.7453 192.971 59.4563 191.313 60.9213 190.143C64.9913 193.342 64.5104 198.328 65.7564 202.616C67.1054 207.256 69.6563 211.886 65.0953 216.49C63.8363 217.761 64.9553 220.311 65.2593 222.274C66.4043 229.659 58.8234 236.634 51.5504 234.96C46.5744 233.813 42.0444 232.009 39.4074 227.212Z" fill="#F3C75D"/>
<path d="M39.4073 227.212C42.8433 231.519 48.2214 231.915 52.8214 233.879C54.0004 234.383 55.1064 234.334 56.1854 233.597C57.3274 232.817 58.5333 232.13 59.6473 231.314C65.0943 227.324 65.7653 225.162 63.2643 218.809C62.4083 216.635 61.3504 214.814 64.6904 213.771C66.7084 213.141 67.2614 211.382 66.3234 209.431C63.3834 203.316 63.3063 196.406 60.9203 190.142C60.9423 185.616 62.4473 181.359 63.3083 176.984C66.2033 166.737 69.6373 156.615 70.4933 145.897C71.6863 145.097 72.8784 144.297 74.0714 143.497C71.8724 149.159 71.8963 155.304 70.2803 161.071C69.4623 163.991 69.2813 166.861 69.2953 169.812C67.7113 171.94 66.3774 174.152 66.8964 176.984C65.5614 178.346 66.9943 180.397 65.7053 181.771C65.7053 184.163 65.7053 186.555 65.7053 188.946C67.5613 192.298 67.0214 196.183 68.0964 199.709C68.1684 201.677 67.9714 203.642 68.6284 205.588C69.8954 209.341 69.5244 212.962 67.5264 216.436C66.3414 218.496 65.5824 220.466 66.4534 223.13C68.4634 229.276 62.0164 238.063 53.4454 237.954C48.1114 237.885 40.7523 232.182 39.4073 227.212Z" fill="#F2C157"/>
<path d="M16.6924 199.702C17.6724 199.734 18.5574 199.957 19.0904 200.89C18.1024 200.878 17.2164 200.656 16.6924 199.702Z" fill="#EEB23F"/>
<path d="M23.8544 258.311C17.2174 252.433 12.6963 245.914 15.2233 236.238C16.1403 232.729 15.4533 228.795 15.4433 225.055C15.4413 224.305 15.4094 223.424 14.4664 223.113C13.3114 222.732 12.5624 223.517 11.9974 224.26C10.2744 226.53 10.3883 229.432 9.50932 231.999C7.37832 229.476 8.40632 226.852 9.15532 224.168C9.88132 221.568 11.3253 219.129 10.1163 216.126C9.46132 214.5 13.5413 209.568 15.2433 209.717C17.8213 209.942 18.9444 211.882 19.0234 214.261C19.1424 217.828 19.7943 221.615 18.8653 224.929C16.9963 231.599 19.5533 237.806 19.7273 244.222C19.8663 249.337 22.4594 253.624 23.8544 258.311Z" fill="#E8A318"/>
<path d="M68.0983 199.708C66.0833 196.391 65.6173 192.73 65.7073 188.945C69.3253 190.872 68.5034 194.339 68.6024 197.455C68.6254 198.2 68.2763 198.956 68.0983 199.708Z" fill="#F1BD4F"/>
<path d="M65.7074 181.77C65.8634 180.114 65.1825 178.25 66.8985 176.983C66.7445 178.639 67.4314 180.504 65.7074 181.77Z" fill="#F1BD4F"/>
<path d="M57.7824 299.354C58.7414 299.862 60.2924 299.91 60.2104 301.402C60.1384 302.718 58.7964 302.521 57.9004 302.509C57.2054 302.5 55.7854 303.3 56.1574 301.377C56.3534 300.363 56.5024 299.465 57.7824 299.354Z" fill="#E8A724"/>
</svg>
