<svg width="125" height="132" viewBox="0 0 125 132" fill="none" xmlns="http://www.w3.org/2000/svg">
<path d="M29.3718 125.092C33.9425 125.092 37.6478 123.098 37.6478 120.639C37.6478 118.18 33.9425 116.186 29.3718 116.186C24.8011 116.186 21.0958 118.18 21.0958 120.639C21.0958 123.098 24.8011 125.092 29.3718 125.092Z" fill="#919CA2"/>
<path opacity="0.5" fill-rule="evenodd" clip-rule="evenodd" d="M27.0478 116.825C29.5098 116.825 31.5068 117.899 31.5068 119.224C31.5068 120.549 29.5108 121.623 27.0478 121.623C24.5858 121.623 22.5888 120.549 22.5888 119.224C22.5898 117.899 24.5858 116.825 27.0478 116.825Z" fill="white"/>
<path fill-rule="evenodd" clip-rule="evenodd" d="M115.637 34.383C109.839 36.908 106.298 33.867 100.271 33.867C96.6328 33.866 92.7138 35.872 88.6148 35.662C83.1228 35.381 76.8698 30.679 70.9478 30.399C63.3308 30.04 55.9768 34.175 48.5078 34.639C41.7358 35.059 37.5948 31.912 28.4678 33.732C22.2208 34.978 17.8178 42.52 13.4528 46.64C9.76881 50.116 4.59982 49.696 1.50982 56.259C-1.29518 62.216 0.618816 69.359 0.875816 75.117C1.13182 80.83 -0.112185 86.055 2.23782 91.114C6.75882 100.847 15.2838 101.831 21.3258 104.937C20.0318 100.749 16.5638 94.955 15.8128 89.155C15.1748 84.224 15.9518 81.044 16.8828 75.992C17.5228 72.517 15.0738 67.681 17.1378 64.488C20.1028 59.902 25.0788 59.334 28.5798 56.415C31.4148 54.051 33.5748 48.076 36.7338 46.581C41.0598 44.535 47.3578 48.73 52.0948 47.924C59.1538 46.722 62.3738 44.613 68.9948 44.376C74.7648 44.169 82.4428 46.442 87.9418 46.006C92.2318 45.666 96.3808 42.099 100.29 41.134C106.02 39.718 111.235 40.854 115.637 34.383Z" fill="#3E724C"/>
<path fill-rule="evenodd" clip-rule="evenodd" d="M39.6928 121.258C41.8878 122.533 39.9638 125.175 38.1048 123.563C18.9478 112.773 -0.0661714 81.042 12.0958 59.45C28.4608 30.392 75.1288 42.99 102.676 37.865C103.884 37.643 104.107 38.918 102.9 39.139C76.0738 44.129 29.7328 32.598 14.0588 60.437C2.43084 81.082 21.4598 110.988 39.6928 121.258Z" fill="#24932B"/>
<path fill-rule="evenodd" clip-rule="evenodd" d="M124.459 0C115.395 5.91 110.914 5.67599 102.733 7.84399C95.4998 9.76099 91.6768 13.253 83.4838 15.651C77.3188 17.456 68.0978 16.476 61.7938 18.564C55.5538 20.63 52.4718 25.398 46.6938 29.078C41.9358 32.109 35.1908 32.289 30.2088 37.115C25.7968 41.388 25.8328 49.181 23.4918 53.839C19.7818 61.222 14.3618 63.396 14.0948 72.433C13.9308 78.005 20.3098 83.396 22.1148 88.194C24.8998 95.597 22.5538 99.96 33.3168 109.276C32.4648 94.621 36.2668 93.914 35.4678 86.428C34.7978 80.158 31.3098 77.917 31.3888 74.274C31.5188 68.314 37.5428 65.732 40.1888 60.999C43.3328 55.375 41.3758 53.143 45.8938 48.363C48.8088 45.279 58.7158 44.459 61.6958 42.15C65.9238 38.873 66.9578 33.628 71.1888 31.5C76.1228 29.019 83.4828 29.816 88.2048 28.184C95.4708 25.673 98.7338 21.049 105.935 18.239C113.997 15.095 120.269 11.817 124.459 0Z" fill="#2B6648"/>
<path fill-rule="evenodd" clip-rule="evenodd" d="M40.5048 121.612C41.4548 123.382 39.1488 124.785 37.8448 122.726C-12.7172 20.895 89.6958 24.93 117.161 5.94703C118.165 5.24103 118.86 6.00703 117.856 6.71403C91.1808 25.382 -8.21918 21.736 40.5048 121.612Z" fill="#24932B"/>
<path fill-rule="evenodd" clip-rule="evenodd" d="M41.6898 112.439C41.9918 107.739 43.1448 100.475 45.2018 96.777C46.8328 93.846 51.0688 93.535 53.4228 91.067C55.4448 88.948 55.5168 84.618 57.8408 82.74C60.3328 80.727 65.4878 81.177 68.0738 79.331C70.3738 77.688 70.1138 73.733 72.2918 72.136C74.6858 70.381 78.8688 71.138 80.7268 69.178C84.4378 65.265 86.3088 61.962 87.5278 57.956C88.9768 63.732 89.2918 67.522 88.6858 71.824C87.9368 77.134 84.7058 79.67 82.1308 83.228C80.0098 86.159 80.1458 89.571 76.4848 93.025C74.1118 95.265 69.0078 95.187 66.0808 96.63C63.4498 97.927 63.7118 103.397 61.1128 104.496C58.4268 105.632 53.6638 105.534 51.2808 106.254C47.3758 107.435 43.8238 110.185 41.6898 112.439Z" fill="#3E724C"/>
<path fill-rule="evenodd" clip-rule="evenodd" d="M40.5788 122.458C40.6888 124.412 37.8558 124.822 37.7448 122.382C35.7878 98.638 79.1978 87.865 85.9458 65.211C86.2968 64.033 87.7228 64.444 87.3718 65.623C80.5008 88.692 38.7648 102.382 40.5788 122.458Z" fill="#24932B"/>
<path fill-rule="evenodd" clip-rule="evenodd" d="M48.6438 131.174C56.0298 131.174 62.0548 127.932 62.0548 123.957C62.0548 119.982 56.0298 116.741 48.6438 116.741C41.2568 116.741 35.2328 119.983 35.2328 123.957C35.2328 127.932 41.2578 131.174 48.6438 131.174Z" fill="#989FA3"/>
<path opacity="0.5" fill-rule="evenodd" clip-rule="evenodd" d="M44.8788 117.776C48.8688 117.776 52.1038 119.517 52.1038 121.664C52.1038 123.811 48.8688 125.552 44.8788 125.552C40.8888 125.552 37.6538 123.812 37.6538 121.664C37.6528 119.516 40.8878 117.776 44.8788 117.776Z" fill="white"/>
<path fill-rule="evenodd" clip-rule="evenodd" d="M68.9108 116.237C72.5218 116.237 75.4668 114.652 75.4668 112.71C75.4668 110.767 72.5218 109.183 68.9108 109.183C65.2998 109.183 62.3558 110.768 62.3558 112.71C62.3558 114.652 65.2998 116.237 68.9108 116.237Z" fill="#989FA3"/>
<path opacity="0.5" fill-rule="evenodd" clip-rule="evenodd" d="M67.0698 109.688C69.0208 109.688 70.6018 110.539 70.6018 111.588C70.6018 112.637 69.0208 113.488 67.0698 113.488C65.1188 113.488 63.5378 112.637 63.5378 111.588C63.5378 110.539 65.1198 109.688 67.0698 109.688Z" fill="white"/>
</svg>
