<svg width="157" height="156" viewBox="0 0 157 156" fill="none" xmlns="http://www.w3.org/2000/svg">
<path d="M58.0736 142.797C63.269 142.797 67.4806 140.531 67.4806 137.735C67.4806 134.939 63.269 132.673 58.0736 132.673C52.8783 132.673 48.6666 134.939 48.6666 137.735C48.6666 140.531 52.8783 142.797 58.0736 142.797Z" fill="#D4DFE6"/>
<path opacity="0.5" fill-rule="evenodd" clip-rule="evenodd" d="M55.4316 133.399C58.2306 133.399 60.4996 134.62 60.4996 136.126C60.4996 137.632 58.2306 138.853 55.4316 138.853C52.6326 138.853 50.3636 137.632 50.3636 136.126C50.3636 134.62 52.6326 133.399 55.4316 133.399Z" fill="white"/>
<path fill-rule="evenodd" clip-rule="evenodd" d="M70.5526 110.413C69.6076 107.307 63.8196 104.663 60.6076 105.18C58.3096 105.55 56.3996 106.145 53.9416 107.484C50.1406 109.553 46.9296 104.909 51.6346 103.401C51.8696 103.326 52.1056 103.257 52.3426 103.195C53.4856 102.896 54.6136 101.899 53.5336 101.42C49.0896 99.4488 44.8326 99.7168 40.8616 101.455C35.5316 103.788 31.7646 97.1958 38.2426 95.7178C40.6506 95.1688 45.5816 95.3718 49.3636 96.1728C50.4366 96.3998 50.0356 95.1488 49.4096 94.2488C41.6326 83.0608 52.7086 80.8848 53.2046 88.4358C53.4636 92.3808 54.2196 95.0498 55.5696 98.1068C55.7006 98.4038 55.9156 98.6128 56.2156 98.7368C58.9296 99.8548 61.7676 100.194 64.5106 101.86C65.4756 102.446 66.0616 102.279 65.6956 101.212C62.8796 92.9928 71.2096 93.7188 71.5936 99.5648C71.7016 101.224 72.5716 106.543 73.7386 108.996C75.4456 112.314 72.2076 115.858 70.5526 110.413Z" fill="#4AA6D4"/>
<path fill-rule="evenodd" clip-rule="evenodd" d="M43.9036 68.6448C41.9746 66.0328 43.3066 59.8119 45.6396 57.5419C47.3076 55.9189 48.9256 54.7409 51.4666 53.5679C55.3946 51.7529 53.5846 46.4049 49.5666 49.2799C49.3666 49.4229 49.1696 49.5718 48.9776 49.7248C48.0556 50.4628 46.5836 50.7738 46.8436 49.6208C47.9146 44.8788 50.6686 41.6219 54.4336 39.4729C59.4866 36.5879 56.4446 29.6319 51.3936 33.9479C49.5156 35.5529 46.7366 39.6309 45.1226 43.1439C44.6646 44.1409 43.9006 43.0719 43.5506 42.0319C39.2136 29.1159 30.8586 36.7049 36.6216 41.6089C39.6336 44.1709 41.3236 46.3699 42.9706 49.2769C43.1306 49.5589 43.1706 49.8568 43.0906 50.1708C42.3686 53.0158 40.9476 55.4959 40.6466 58.6909C40.5406 59.8139 40.0576 60.1848 39.4196 59.2548C34.5046 52.0908 30.1166 59.2088 34.5776 63.0048C35.8436 64.0818 39.5936 67.9538 40.8646 70.3538C42.5096 73.7058 47.2856 73.2228 43.9036 68.6448Z" fill="#4AA6D4"/>
<path fill-rule="evenodd" clip-rule="evenodd" d="M80.2366 84.1049C80.4986 77.5049 81.4316 71.8058 83.7496 66.5438C83.8886 66.2288 83.8816 65.9008 83.7286 65.5928C82.7016 63.5178 81.6196 61.9358 79.6366 60.0508C76.7266 57.2848 79.9106 53.1258 82.5836 56.8498C83.4156 58.0088 84.0876 59.4108 84.7026 60.7898C85.5286 62.6438 86.6046 62.7578 86.6246 61.3608C86.6886 56.9928 85.4586 54.2989 83.5506 50.9309C80.8896 46.2329 86.6146 42.1288 88.5946 47.9678C89.0816 49.4028 89.3816 50.8988 89.4456 52.4628C89.4896 53.5408 89.9136 55.0719 90.5226 54.1809C91.6846 52.4819 93.8466 49.6829 95.0366 48.0279C95.2166 47.7769 95.2826 47.4968 95.2336 47.1918C94.4906 42.6018 93.4116 39.0628 90.7216 34.3948C85.5486 25.4188 100.132 20.6088 98.9296 38.9378C98.8546 40.0778 99.2406 42.1108 99.8796 41.1648C101.966 38.0778 105 33.4168 106.604 30.1278C106.728 29.8738 106.752 29.6168 106.679 29.3438C106.119 27.2588 105.387 25.5518 103.919 23.4108C101.648 20.0998 105.628 16.6938 107.467 20.8938C107.559 21.1028 107.645 21.3149 107.725 21.5279C108.11 22.5539 109.137 23.4998 109.476 22.4578C110.872 18.1688 110.22 14.2658 108.238 10.7668C105.577 6.06984 111.303 1.96585 113.283 7.80385C114.019 9.97385 114.301 14.5438 113.921 18.1098C113.813 19.1228 114.93 18.6328 115.701 17.9688C125.286 9.72685 128.348 19.7419 121.426 20.9179C117.81 21.5319 115.419 22.4838 112.726 24.0208C112.465 24.1698 112.291 24.3888 112.206 24.6768C111.432 27.2878 110.128 30.4718 108.851 33.1618C108.402 34.1068 109.874 34.1008 110.824 33.6618C118.142 30.2808 118.264 38.0378 112.906 38.9488C111.073 39.2608 104.435 41.0979 103.47 42.6249C102.352 44.3939 101.203 46.1478 100.055 47.9088C99.7746 48.3388 99.8146 48.8838 100.155 49.2678C100.496 49.6518 101.032 49.7569 101.492 49.5299C113.82 43.4439 113.726 55.4278 105.756 56.2588C100.495 56.8068 97.0266 57.9748 92.9726 59.9938C92.7496 60.1048 92.5896 60.2628 92.4756 60.4838C91.4816 62.4098 89.9906 65.8968 88.9976 68.4618C88.5876 69.5218 90.5696 68.4478 91.4706 67.7568C92.5156 66.9558 93.6356 66.3079 94.8146 65.7909C100.46 63.3129 101.295 70.3068 96.0316 71.5138C92.4276 72.3398 90.0866 73.4369 87.4626 75.1479C87.1976 75.3209 87.0326 75.5659 86.9726 75.8769C86.6516 77.5459 86.4086 79.2719 86.2546 81.0619L80.2366 84.1049Z" fill="#4AA6D4"/>
<path fill-rule="evenodd" clip-rule="evenodd" d="M148.539 48.5559C149.543 47.2689 150.716 46.2079 152.015 45.3299C156.854 42.0619 158.82 48.4379 154.121 50.4559C150.596 51.9699 148.538 53.5289 146.129 55.9009C146.03 55.9989 145.967 56.1049 145.93 56.2379C145.395 58.1369 144.281 60.9279 143.46 62.6389C143.156 63.2739 144.224 62.9549 144.872 62.6779C145.633 62.3529 146.417 62.1249 147.216 61.9779C151.337 61.2219 150.796 65.9789 147.126 65.9539C144.614 65.9359 142.895 66.2959 140.892 67.0159C140.739 67.0709 140.622 67.1589 140.528 67.2919C140.408 67.4609 139.623 68.4889 139.501 68.6559C139.077 69.2339 140.278 69.1689 140.972 68.9869C141.57 68.8299 142.174 68.7479 142.78 68.7279C145.895 68.6259 144.973 72.0649 142.276 71.6429C140.215 71.3189 138.829 71.4499 137.02 71.8549C136.861 71.8899 136.733 71.9639 136.623 72.0839C136.16 72.5889 134.71 73.9789 134.23 74.4699C133.728 74.9829 135.126 74.9529 135.839 74.8719C136.786 74.7639 137.719 74.7879 138.638 74.9199C142.786 75.5149 140.759 79.8539 137.287 78.6619C134.956 77.8609 133.232 77.6469 131.157 77.6819C130.967 77.6849 130.805 77.7479 130.664 77.8729C128.673 79.6339 125.611 82.0269 123.563 83.6939C122.976 84.1719 124.376 84.4239 125.128 84.3469C126.034 84.2549 126.928 84.2819 127.808 84.4079C131.957 85.0029 129.928 89.3409 126.457 88.1489C123.888 87.2669 122.057 87.0959 119.68 87.1869C119.504 87.1939 119.356 87.2509 119.221 87.3629C118.11 88.2889 115.963 90.1329 114.908 91.0689C114.316 91.5939 115.876 91.6489 116.646 91.4669C117.977 91.1529 119.309 91.0349 120.639 91.0769C126.476 91.2629 124.334 97.5819 119.344 96.4649C116.493 95.8269 114.317 95.7089 111.965 95.9139L108.281 93.6849C108.531 93.4249 108.784 93.1669 109.04 92.9099C109.18 92.7689 109.253 92.6029 109.262 92.4049C109.376 89.7909 109.147 87.4969 108.251 84.4449C106.812 79.5379 112.977 76.9889 113.543 82.8009C113.681 84.2149 113.637 85.6439 113.366 87.0849C113.233 87.7919 113.062 89.1319 113.609 88.6649C114.532 87.8779 116.475 86.2389 117.426 85.4589C117.576 85.3369 117.665 85.1819 117.696 84.9919C118.022 82.9879 118.056 81.2689 117.616 78.8839C116.949 75.2739 121.54 73.9089 121.516 78.1009C121.511 78.9449 121.416 79.7869 121.214 80.6259C121.043 81.3349 120.905 82.3989 121.472 81.9399C122.946 80.7449 125.383 78.9979 126.828 77.7709C126.989 77.6339 127.079 77.4579 127.095 77.2479C127.197 75.9339 127.119 74.7419 126.734 73.1689C126.086 70.5179 129.435 69.3079 129.596 72.4209C129.615 72.8059 129.61 73.1909 129.577 73.5779C129.516 74.2739 129.428 75.3169 129.94 74.8399C130.399 74.4129 131.771 73.3439 132.218 72.9079C132.351 72.7779 132.425 72.6249 132.445 72.4399C132.842 68.5669 132.823 65.8559 131.64 61.8229C130.2 56.9159 136.366 54.3669 136.932 60.1789C137.125 62.1609 136.961 64.1749 136.314 66.2089C136.058 67.0159 136.323 68.5879 136.842 67.9199C137.895 66.5649 139.668 64.1489 140.536 62.6859C140.651 62.4929 140.675 62.2819 140.608 62.0659C140.2 60.7729 139.674 59.6809 138.699 58.3399C137.094 56.1329 139.735 53.7439 141.063 56.5629C141.238 56.9339 141.387 57.3159 141.506 57.7109C141.715 58.4049 142.261 59.7599 142.524 59.0859C142.85 58.2519 143.565 56.0809 143.82 55.2079C143.886 54.9829 143.851 54.7619 143.72 54.5679C142.508 52.7669 141.325 51.4469 139.256 49.9589C136.275 47.8169 138.64 43.6529 141.526 46.6929C142.31 47.5189 142.975 48.4559 143.481 49.5289C143.813 50.2309 144.618 51.2969 144.748 50.5309C145.101 48.4419 145.098 45.7509 144.962 43.8719C144.957 43.8119 144.948 43.7609 144.93 43.7029C144.917 43.6589 144.903 43.6159 144.89 43.5719C144.83 43.3779 144.711 43.2319 144.534 43.1319C143.302 42.4409 142.147 41.9949 140.461 41.6879C137.776 41.1989 138.037 37.6479 140.945 38.7699C141.02 38.7989 141.094 38.8289 141.169 38.8599C141.864 39.1509 143.223 39.7719 142.098 37.7309C140.488 34.8089 143.443 31.9189 145.367 35.4739C145.989 36.6239 146.468 38.4249 146.696 40.4129C146.699 40.4339 146.701 40.4509 146.705 40.4709C146.712 40.5099 146.719 40.5489 146.725 40.5899C147.118 43.2319 147.229 47.3899 147.149 49.7359C147.121 50.4709 148.085 49.1379 148.539 48.5559Z" fill="#4AA6D4"/>
<path fill-rule="evenodd" clip-rule="evenodd" d="M11.9736 21.1049C10.6276 19.1169 9.01063 17.4439 7.18963 16.0289C0.409633 10.7559 -3.10438 19.9199 3.59262 23.3449C8.61762 25.9149 11.4836 28.4059 14.7866 32.1229C14.9226 32.2759 15.0046 32.4379 15.0466 32.6379C15.6446 35.4769 17.0046 39.6829 18.0406 42.2749C18.4256 43.2369 16.8886 42.6639 15.9646 42.1939C14.8796 41.6419 13.7516 41.2289 12.5936 40.9349C6.61863 39.4199 6.94562 46.4559 12.3346 46.7799C16.0226 47.0019 18.5106 47.6979 21.3786 48.9519C21.5976 49.0479 21.7596 49.1889 21.8856 49.3919C22.0456 49.6519 23.0956 51.2369 23.2596 51.4949C23.8256 52.3859 22.0676 52.1709 21.0666 51.8359C20.2046 51.5469 19.3256 51.3669 18.4386 51.2779C13.8776 50.8219 14.8926 55.9599 18.8916 55.6059C21.9476 55.3349 23.9686 55.6629 26.5856 56.4339C26.8156 56.5019 26.9946 56.6219 27.1446 56.8099C27.7746 57.5959 29.7656 59.7779 30.4226 60.5469C31.1086 61.3499 29.0596 61.1669 28.0206 60.9779C26.6416 60.7269 25.2696 60.6699 23.9076 60.7729C17.7606 61.2379 20.3106 67.8049 25.5226 66.3969C29.0236 65.4509 31.5736 65.3059 34.6156 65.5619C34.8926 65.5849 35.1246 65.6939 35.3206 65.8909C38.0696 68.6709 42.3276 72.4849 45.1696 75.1339C45.9836 75.8929 43.9036 76.1259 42.8076 75.9389C41.4876 75.7139 40.1736 75.6659 38.8686 75.7639C32.7216 76.2289 35.2706 82.7949 40.4836 81.3879C44.3416 80.3459 47.0456 80.2759 50.5236 80.6429C50.7806 80.6699 50.9936 80.7689 51.1796 80.9469C52.7206 82.4149 55.6886 85.3329 57.1456 86.8109C57.9616 87.6389 55.6666 87.5659 54.5556 87.2239C52.6336 86.6309 50.6886 86.3269 48.7336 86.2579C40.1496 85.9559 42.6696 95.4419 50.1046 94.2939C55.3626 93.4819 59.0256 93.7379 63.4956 94.6729C63.7776 94.7319 63.9996 94.8749 64.1706 95.1069C65.3116 96.6579 66.9896 98.9179 68.1546 101.536C68.6326 102.611 66.7056 102.001 65.7196 101.36C64.9736 100.875 64.1956 100.459 63.3886 100.103C57.7496 97.6139 56.9006 104.607 62.1606 105.823C65.9186 106.693 68.3026 107.853 71.0666 109.7C71.3156 109.866 71.4726 110.095 71.5386 110.386C73.5356 119.228 71.9806 129.38 64.6556 141.866C62.6496 145.279 66.6086 148.748 69.9476 147.258C76.1706 144.483 81.4756 141.478 86.0166 138.299C86.2746 138.119 86.5616 138.057 86.8696 138.116C91.1916 138.934 94.6146 140.092 99.0556 142.757C105.505 146.628 111.423 138.798 103.361 135.835C100.472 134.773 97.3876 134.26 94.0716 134.506C93.0096 134.585 91.7256 134.046 92.5126 133.33C95.2196 130.868 98.2826 127.554 100.319 124.96C100.53 124.69 100.822 124.542 101.164 124.531C103.708 124.446 105.694 124.644 108.461 125.6C112.596 127.028 116.622 120.148 104.097 121.564C103.07 121.68 103.165 121.023 103.718 120.151C105.362 117.559 106.749 114.926 107.93 112.272C108.11 111.868 108.481 111.619 108.923 111.606C112.005 111.515 114.556 111.797 118.025 112.946C124.585 115.118 127.877 103.87 111.297 108.368C110.367 108.62 109.355 108.685 109.681 107.76C110.745 104.743 111.856 101.16 112.561 98.1499C112.64 97.8129 112.844 97.5549 113.154 97.4009C117.334 95.3189 120.843 94.1278 126.222 93.5928C138.768 92.3438 128.796 77.0479 115.741 90.8689C114.989 91.6649 113.882 92.1929 114.07 91.1139C114.495 88.6819 114.986 85.2559 115.358 82.8979C115.405 82.5999 115.549 82.3599 115.789 82.1779C117.522 80.8659 119.151 79.9639 121.638 79.1729C125.464 77.9559 124.416 72.8239 120.385 75.0069C119.707 75.3739 119.061 75.8009 118.457 76.2979C117.648 76.9619 116.174 77.6259 116.364 76.5969C116.575 75.4549 117.074 72.9579 117.314 71.8509C117.396 71.4699 117.643 71.1819 118.007 71.0409C120.933 69.9089 123.452 69.3189 127.152 69.2569C132.55 69.1669 133.182 62.1509 127.146 63.4059C124.954 63.8619 122.855 64.7369 120.906 66.1799C120.025 66.8319 118.353 67.4299 118.7 66.3909C120.049 62.3559 122.332 57.2119 124.96 54.0279C125.047 53.9229 125.138 53.8449 125.255 53.7759C127.391 52.5149 129.647 51.4419 132 51.0129C137.311 50.0449 136.792 43.0199 131.041 45.2409C128.476 46.2319 125.532 48.5629 123.14 51.5569C123.11 51.5939 123.083 51.6239 123.049 51.6579C122.989 51.7169 122.928 51.7799 122.869 51.8459C122.055 52.7519 120.777 54.6439 120.085 55.6079C119.494 56.4309 118.731 55.1579 118.589 54.1539C118.432 53.0399 118.116 51.9879 117.674 50.9909C115.817 46.7999 111.851 50.2209 114.135 53.5229C115.775 55.8929 116.504 57.7299 117.101 60.1459C117.164 60.4029 117.142 60.6419 117.032 60.8819C115.875 63.4129 114.522 67.4609 113.741 70.2249C113.437 71.3009 112.345 69.9319 112.019 68.8629C111.292 66.4809 110.19 64.3409 108.801 62.4029C103.798 55.4209 97.1666 64.0029 103.274 68.3959C108.61 72.2339 111.979 78.2408 111.531 80.5388C110.932 83.6128 109.961 88.0239 109.27 91.1929C109.041 92.2419 107.986 91.1289 107.533 90.1549C102.053 78.3869 94.7136 86.3459 100.901 90.2419C103.941 92.1569 105.771 93.9179 107.627 96.2939C107.855 96.5849 107.924 96.9359 107.822 97.2919C106.905 100.522 105.121 105.028 103.723 108.234C103.287 109.232 102.589 107.821 102.275 106.746C98.7086 94.5348 91.9886 102.526 96.2056 106.218C97.8236 107.635 101.762 112.433 100.388 114.645C96.6256 120.706 90.6716 127.427 82.9166 132.667C81.9156 133.344 81.4786 132.717 82.3656 130.483C87.5056 117.527 90.9986 107.833 90.2286 98.0069C90.2016 97.6639 90.3166 97.3569 90.5626 97.1159C92.2166 95.4969 93.7616 94.3599 96.2556 93.2369C99.9156 91.5879 98.2846 86.6099 94.5316 89.2419C93.3636 90.0609 92.2656 91.1619 91.2306 92.2599C89.8386 93.7369 88.7846 93.4889 89.2276 92.1629C90.6106 88.0189 92.6606 85.8829 95.5746 83.3339C99.6376 79.7789 95.5896 74.0139 91.7916 78.8699C90.8586 80.0639 90.0806 81.3769 89.5036 82.8319C89.1056 83.8349 88.2006 85.1399 87.9196 84.0979C87.3846 82.1099 86.2686 78.7539 85.6916 76.7989C85.6046 76.5029 85.6346 76.2169 85.7816 75.9449C87.9986 71.8589 90.1866 68.8749 94.2676 65.3569C102.116 58.5939 89.9396 49.2369 85.0196 66.9339C84.7136 68.0349 83.6776 69.8259 83.3866 68.7209C82.4376 65.1179 81.1136 59.7169 80.6856 56.0819C80.6526 55.8019 80.7146 55.5499 80.8736 55.3169C82.0916 53.5339 83.3456 52.1649 85.4386 50.6289C88.6756 48.2539 86.0446 43.7249 82.9216 47.0809C82.7666 47.2479 82.6146 47.4189 82.4686 47.5939C81.7656 48.4349 80.4846 48.9889 80.5086 47.8929C80.6086 43.3829 82.5126 39.9149 85.5396 37.2669C89.6026 33.7129 85.5546 27.9479 81.7566 32.8029C80.3456 34.6079 78.5696 38.8279 77.7496 42.3199C77.5166 43.3109 76.6246 42.4799 76.1156 41.5989C69.7916 30.6539 63.5926 39.0939 69.7376 42.4909C72.9476 44.2659 74.8906 45.9529 76.9236 48.2939C77.1206 48.5209 77.2126 48.7839 77.1976 49.0849C77.0656 51.8049 77.2456 55.2409 77.5616 58.2009C77.6726 59.2419 76.2856 58.7489 75.5346 58.0209C69.7446 52.4119 67.0666 59.6939 71.8236 62.3229C73.4506 63.2219 79.1096 67.1499 79.5156 68.9099C79.9866 70.9489 80.4916 72.9839 80.9936 75.0259C81.1166 75.5239 80.8976 76.0249 80.4496 76.2749C80.0016 76.5249 79.4606 76.4468 79.1006 76.0798C69.4756 66.2638 65.6056 77.6049 72.8536 81.0219C77.6386 83.2769 80.5266 85.5239 83.6856 88.7699C83.8596 88.9479 83.9576 89.1509 83.9926 89.3969C84.2946 91.5429 84.5496 95.3269 84.6396 98.0759C84.6766 99.2119 83.1606 97.5438 82.5376 96.5928C81.8156 95.4918 80.9726 94.5099 80.0306 93.6319C75.5216 89.4279 72.4226 95.7539 76.9906 98.6319C80.1196 100.602 81.9666 102.411 83.8786 104.892C84.0716 105.143 84.1466 105.429 84.0996 105.742C83.5276 109.609 82.4716 113.621 80.7616 117.824C80.5626 118.314 80.0666 118.593 79.5436 118.51C79.0216 118.426 78.6366 118.005 78.6006 117.477C77.8856 107.017 72.6766 98.2519 65.5716 90.0899C65.3806 89.8699 65.2886 89.6179 65.2956 89.3259C65.3856 85.4789 65.9476 82.1339 67.5616 77.7439C70.1576 70.6839 61.3596 66.3359 59.9566 74.8099C59.6156 76.8709 59.5396 78.9729 59.7956 81.1149C59.9206 82.1659 60.0406 84.1479 59.2826 83.4099C58.0046 82.1649 55.3156 79.5678 53.9966 78.3298C53.7896 78.1348 53.6746 77.8999 53.6476 77.6169C53.3666 74.6439 53.4856 72.1179 54.3666 68.6618C55.6996 63.4299 49.0976 60.9739 48.7206 67.1279C48.6446 68.3669 48.7006 69.6139 48.9156 70.8629C49.0976 71.9199 49.1936 73.4959 48.4076 72.7669C46.3616 70.8669 42.9566 68.0628 40.9566 66.1208C40.7336 65.9048 40.6196 65.6379 40.6166 65.3259C40.5976 63.3869 40.8286 61.6459 41.5486 59.3749C42.7616 55.5479 37.9656 53.4429 37.4226 57.9949C37.3556 58.5579 37.3256 59.1249 37.3366 59.6949C37.3566 60.7229 37.3836 62.2619 36.6806 61.5119C36.0496 60.8399 34.1406 59.1349 33.5286 58.4519C33.3456 58.2479 33.2516 58.0159 33.2426 57.7419C33.0406 52.0189 33.3356 48.0419 35.4696 42.2409C38.0656 35.1809 29.2676 30.8329 27.8646 39.3069C27.3856 42.1969 27.4286 45.1679 28.1776 48.2179C28.4736 49.4269 27.9306 51.7089 27.2346 50.6769C25.8226 48.5839 23.4576 44.8629 22.3276 42.6309C22.1776 42.3359 22.1626 42.0229 22.2836 41.7149C23.0106 39.8569 23.8896 38.3059 25.4526 36.4339C28.0256 33.3529 24.3856 29.5859 22.1576 33.5929C21.8646 34.1199 21.6086 34.6659 21.3946 35.2339C21.0196 36.2309 20.0846 38.1679 19.7636 37.1509C19.3676 35.8949 18.5316 32.6379 18.2436 31.3309C18.1696 30.9939 18.2416 30.6739 18.4526 30.4009C20.4086 27.8769 22.2746 26.0559 25.4576 24.0769C30.0436 21.2269 26.9826 14.8819 22.4486 19.0599C21.2166 20.1949 20.1496 21.5039 19.3006 23.0289C18.7446 24.0269 17.4576 25.5129 17.3426 24.3759C17.0296 21.2749 17.2996 17.3259 17.6846 14.5819C17.6966 14.4939 17.7156 14.4199 17.7486 14.3369C17.7726 14.2749 17.7966 14.2119 17.8206 14.1489C17.9276 13.8699 18.1156 13.6679 18.3856 13.5389C20.2616 12.6459 22.0006 12.1049 24.5046 11.8209C28.4936 11.3679 28.4596 6.12986 24.0816 7.48986C23.9686 7.52486 23.8566 7.56186 23.7446 7.59986C22.6946 7.95786 20.6406 8.73686 22.4926 5.85086C25.1436 1.72186 21.0896 -2.81114 17.9176 2.21686C16.8916 3.84386 16.0106 6.43986 15.4796 9.33486C15.4746 9.36486 15.4686 9.38986 15.4616 9.41886C15.4476 9.47486 15.4326 9.53186 15.4206 9.59086C14.5836 13.4299 14.0116 19.5199 13.8976 22.9729C13.8646 24.0559 12.5826 22.0049 11.9736 21.1049Z" fill="#70C9F5"/>
<path fill-rule="evenodd" clip-rule="evenodd" d="M68.7406 139.694C72.9296 139.043 74.0886 135.555 76.3756 132.824C76.6226 132.529 76.7396 132.196 76.7326 131.811C76.6776 128.867 76.2706 126.368 75.0316 123.051C73.1146 117.922 79.5026 114.724 80.5556 120.886C80.6086 121.193 80.6526 121.501 80.6886 121.81C80.8606 123.295 81.9086 124.885 82.6996 123.617C85.9576 118.4 86.3796 113.019 84.9086 107.736C82.9326 100.644 91.8596 97.0969 92.5606 105.474C92.8206 108.588 91.6896 114.729 90.0136 119.324C89.5386 120.628 91.1766 120.347 92.4156 119.723C107.813 111.969 108.57 126.231 99.0226 125.51C94.0346 125.133 90.5566 125.606 86.4876 126.754C86.0926 126.865 85.7916 127.097 85.5836 127.451C83.6996 130.652 80.9256 134.436 78.3516 137.576C77.4466 138.68 79.3966 139.155 80.7976 138.886C91.5946 136.819 89.2036 147.125 81.8126 146.567C79.7156 146.408 72.8976 146.552 69.6176 147.579C65.1596 149.131 61.6236 140.801 68.7406 139.694Z" fill="#4AA6D4"/>
<path d="M62.2006 153.293C68.8297 153.293 74.2036 150.402 74.2036 146.835C74.2036 143.268 68.8297 140.377 62.2006 140.377C55.5715 140.377 50.1976 143.268 50.1976 146.835C50.1976 150.402 55.5715 153.293 62.2006 153.293Z" fill="#BECBD3"/>
<path opacity="0.5" fill-rule="evenodd" clip-rule="evenodd" d="M58.8306 141.303C62.4016 141.303 65.2966 142.861 65.2966 144.782C65.2966 146.703 62.4016 148.261 58.8306 148.261C55.2596 148.261 52.3646 146.703 52.3646 144.782C52.3636 142.861 55.2586 141.303 58.8306 141.303Z" fill="white"/>
<path fill-rule="evenodd" clip-rule="evenodd" d="M93.7106 155.083C97.0206 155.083 99.7206 153.63 99.7206 151.849C99.7206 150.068 97.0206 148.615 93.7106 148.615C90.4006 148.615 87.7006 150.067 87.7006 151.849C87.7006 153.63 90.4006 155.083 93.7106 155.083Z" fill="#D4DFE6"/>
<path opacity="0.5" fill-rule="evenodd" clip-rule="evenodd" d="M92.0236 149.079C93.8116 149.079 95.2616 149.859 95.2616 150.821C95.2616 151.783 93.8116 152.563 92.0236 152.563C90.2356 152.563 88.7856 151.783 88.7856 150.821C88.7856 149.859 90.2346 149.079 92.0236 149.079Z" fill="white"/>
</svg>
