<svg width="384" height="228" viewBox="0 0 384 228" fill="none" xmlns="http://www.w3.org/2000/svg">
<path d="M59.3883 168.184C16.7926 150.353 18.4309 133.737 24.5745 127.658L270.319 83.0789L294.894 36.4737L331.755 16.2105L368.617 42.5526V72.9474L331.755 97.2632L258.032 160.079L264.176 202.632L229.362 216.816L196.596 188.447H108.537L83.9628 218.842C28.2606 215.6 44.3704 183.719 59.3883 168.184Z" fill="#FFEEAC"/>
<path d="M143.351 18.2368C94.2021 11.7526 54.6098 83.0789 40.9574 119.553C129.426 189.258 229.362 137.789 268.271 103.342C270.319 101.316 272.367 97.2632 266.223 83.0789C240.088 22.7393 174.069 18.9123 143.351 18.2368Z" fill="#379C30"/>
<path fill-rule="evenodd" clip-rule="evenodd" d="M30.3457 112.024C18.4263 113.307 7.77122 117.819 7.77122 117.819C1.53178 120.446 -1.54003 127.444 0.763827 133.744C5.16346 145.839 15.8988 156.461 27.6901 164.424C34.9854 169.363 42.5691 173.289 48.585 176.091C47.6089 177.674 46.4732 179.162 45.353 180.539C39.9775 187.109 33.8338 191.336 33.8338 191.336C29.274 194.439 27.2421 200.074 28.81 205.33C28.81 205.33 30.7939 220.037 59.752 225.815C73.7992 228.633 84.2945 226.242 92.1661 222.032C102.181 216.665 108.005 207.847 111.253 200.818C154.385 202.607 178.579 201.436 191.874 199.884C198.609 216.221 213.809 222.269 228.847 223.63C244.238 225.023 259.037 220.939 259.037 220.939C262.029 220.116 264.621 218.232 266.317 215.636C272.412 206.343 273.373 193.489 271.42 181.299C270.444 175.157 268.813 169.267 267.213 164.392C302.555 148.577 319.466 129.185 335.8 106.435C359.047 103.364 371.83 93.9449 378.101 83.1957C385.333 70.7845 384.597 55.239 378.101 40.4365C366.182 13.2713 333.224 5.49833 327.674 4.91272C307.051 2.72812 291.148 14.9653 279.467 33.0753C272.748 43.5074 267.388 55.8396 262.876 66.7468C243.934 33.4076 207.678 -2.98666 146.483 0.194662C113.301 1.92019 88.2297 18.305 69.7989 39.1696C48.1844 63.6279 36.0253 94.2942 30.3457 112.024ZM61.5439 200.218C68.4395 192.73 75.7672 182.313 77.3191 170.773C78.103 164.868 74.631 159.201 68.9515 157.19C68.9515 157.19 55.0005 152.251 42.1051 143.528C39.2092 141.565 36.2973 139.444 33.6895 137.117C37.1613 136.769 40.905 136.484 43.5611 138.431C57.6562 148.673 179.97 209.842 272.3 105.123C274.604 102.495 277.132 98.237 279.644 92.7437C283.932 83.3403 288.843 69.362 295.467 56.4442C299.515 48.5132 304.17 40.9304 310.026 35.6586C314.202 31.9067 319.018 29.437 324.937 30.0704C328.185 30.4187 347.688 34.6454 354.663 50.5237C357.703 57.4732 359.351 64.7396 355.959 70.5652C352.119 77.135 342.984 80.6652 327.657 81.8526C323.849 82.1533 320.361 84.1322 318.169 87.2507C301.659 110.712 286.091 130.419 246.269 145.649C242.973 146.9 240.349 149.464 239.021 152.71C237.693 155.955 237.789 159.58 239.277 162.762C239.277 162.762 244.285 173.464 246.173 185.258C246.845 189.469 247.389 193.917 246.54 197.732C242.573 198.381 236.941 198.967 231.181 198.444C223.598 197.748 215.263 194.882 214.078 184.07C214.078 184.07 214.062 183.975 214.015 183.785C213.231 180.065 210.895 176.851 207.583 174.935C204.271 173.02 200.288 172.561 196.624 173.701C196.624 173.701 176.609 178.688 102.983 175.126C96.551 174.825 90.8874 179.305 89.7673 185.589C89.7673 185.589 88.1994 195.389 80.0079 199.789C76.3283 201.753 71.3843 202.338 64.825 201.024C63.6573 200.787 62.5519 200.519 61.5439 200.218ZM176.704 78.4322C166.209 80.5691 148.498 83.7039 133.138 84.0046L117.443 138.415C142.769 142.278 173.423 141.217 203.838 126.59C196.511 110.933 183.631 89.6094 176.704 78.4322ZM85.4794 60.0369C83.1276 62.9653 80.9196 65.9574 78.8558 68.9811C67.3525 85.793 60.0407 103.713 55.8332 116.202C56.8252 116.756 57.7852 117.374 58.6969 118.039C62.3929 120.714 74.792 127.394 92.4868 132.745L108.806 76.1826C102.358 71.6708 92.887 65.0711 85.4794 60.0369ZM207.041 41.3883C204.849 48.354 201.794 56.5225 197.73 64.0417C204.338 74.7589 217.361 96.3679 225.744 113.48C233.279 108.034 240.687 101.591 247.935 94.0397C240.815 76.9903 227.92 55.7144 207.041 41.3883ZM183.923 29.9427C173.347 26.4916 161.348 24.7504 147.829 25.4625C130.294 26.3648 115.815 32.7605 103.865 41.8791C112.825 48.0213 123.144 55.2402 128.088 58.691C143.927 59.4347 165.206 55.1766 174.71 53.0396C179.109 45.3777 182.099 36.5598 183.923 29.9427Z" fill="black"/>
<path fill-rule="evenodd" clip-rule="evenodd" d="M335.737 52.4873C335.737 68.0327 316.442 68.0327 316.442 52.4873C316.442 36.9258 335.737 36.9258 335.737 52.4873Z" fill="black"/>
</svg>
