<svg width="311" height="192" viewBox="0 0 311 192" fill="none" xmlns="http://www.w3.org/2000/svg">
<path d="M17.9211 147.464C15.4921 146.103 14.3151 143.764 13.1811 141.391C11.0251 137.684 13.7581 135.476 15.7901 133.118C16.8131 131.93 18.9521 131.301 19.0151 129.755C19.2531 123.892 23.8201 123.134 27.8401 121.115C32.3041 118.873 36.0621 119.768 40.3511 121.286C46.5821 123.491 55.4061 119.629 58.4881 113.782C61.1621 108.708 65.6511 105.443 70.7421 104.008C76.3081 102.439 80.9211 99.7764 84.9661 95.9774C87.3761 93.7134 89.8131 93.9014 92.6741 94.4294C98.5411 95.5124 103.891 98.4484 109.87 99.0634C113.588 100.659 118.875 100.37 118.278 106.937C118.146 108.386 120.36 108.19 121.646 107.276C124.941 104.933 127.984 105.483 130.745 108.18C133.125 110.505 136.832 109.731 139.241 111.94C136.843 118.07 133.64 122.967 126.074 123.638C120.74 124.111 115.444 125.119 110.058 125.257C108.075 125.308 106.032 125.343 104.679 127.206C103.542 128.129 102.182 128.596 100.842 129.105C99.3501 129.642 97.9331 130.259 96.5971 131.197C89.9591 135.855 88.0231 135.84 81.8801 131.399C81.3961 131.107 81.0301 130.705 80.7691 130.205C80.5211 129.38 80.5891 128.569 80.8701 127.767C81.3551 126.302 81.7991 124.839 80.6741 123.007C78.5881 128.803 76.3241 126.216 74.0451 123.354C73.6511 122.975 73.2851 122.573 72.9171 122.175C69.4701 119.464 66.7701 122.232 65.4181 124.296C62.9101 128.126 59.4261 130.172 55.6141 132.036C55.1201 132.278 54.1681 132.152 54.1071 132.716C53.3461 139.767 48.7001 136.384 45.2131 136.072C42.2021 135.802 39.1621 133.525 36.1861 136.367C35.7161 136.816 36.4561 136.583 35.6601 136.555C27.5951 136.27 22.8901 139.163 17.9211 147.464Z" fill="#BCDEE6"/>
<path d="M239.192 18.1544C240.377 18.1654 241.562 18.1755 242.747 18.1865C240.929 25.0315 248.065 24.5134 250.629 27.7484C251.61 28.2194 252.561 28.7364 253.371 29.4684C253.736 29.8604 253.956 30.3294 254.042 30.8564C254.052 32.4914 253.263 34.2534 254.787 35.6744C255.092 36.1134 255.285 36.5884 255.415 37.0994C256.675 39.9204 257.964 42.3974 256.866 45.9764C255.951 48.9564 257.935 52.1994 261.491 53.0474C267.903 54.5784 272.799 58.0364 276.263 63.5994L276.252 63.5884C277.272 64.5874 276.308 66.2204 277.402 67.1964C277.443 67.5904 277.458 67.9854 277.448 68.3814C277.23 68.5574 277.012 68.7324 276.794 68.9104C273.433 68.6564 270.743 68.3854 269.329 73.0174C267.907 77.6764 263.119 78.3464 259.151 75.5274C252.543 70.8334 246.21 66.3254 241.96 58.6874C239.411 54.1064 234.455 48.4784 226.789 51.4854C223.737 52.6824 223.182 50.3974 222.545 48.4714C222.097 49.1794 222.759 50.5135 222.427 51.7015C221.657 54.4595 219.576 55.2214 218.469 52.6564C216.361 47.7734 212.655 48.6944 208.919 48.8994C208.067 47.6614 208.212 46.2504 208.202 44.8594C208.154 37.8144 208.153 37.8285 201.1 39.1045C199.117 39.4635 196.986 39.8005 195.567 41.1735C189.714 46.8425 182.486 47.0994 175.047 46.8234C172.3 46.7214 169.551 46.1514 168.724 43.3224C167.86 40.3654 170.597 39.4705 172.673 38.2425C176.98 35.6945 181.294 33.6964 186.564 34.2794C189.107 34.5604 190.941 32.8214 192.087 30.4274C192.866 28.7994 193.19 26.1524 196.176 27.6954L196.15 27.6984C196.502 28.1514 196.912 28.5484 197.346 28.9224L197.334 28.9114C197.689 29.3514 198.137 29.7024 198.503 30.1314C199.285 31.0114 200.066 31.8924 200.848 32.7734C201.91 33.1124 202.223 32.2444 202.582 31.6094C208.139 21.7754 217.78 19.5644 227.798 18.2384C230.733 17.8494 233.761 18.1604 236.747 18.1514C237.562 17.4884 238.377 17.4854 239.192 18.1544Z" fill="#BDE0E8"/>
<path d="M196.175 27.6964C194.885 27.8934 194.136 28.4924 193.747 29.8854C192.399 34.7154 190.52 36.9124 186.03 35.8834C179.653 34.4224 176.032 39.4594 170.908 40.7204C168.687 41.2674 168.94 43.3354 171.158 44.5294C171.856 44.9054 172.62 45.4664 173.339 45.4454C176.781 45.3464 179.88 43.8464 183.758 45.3644C187.123 46.6814 190.264 42.9784 193.003 40.8164C195.474 38.8664 198.108 37.5564 201.069 37.4344C204.074 37.3104 206.883 36.8814 209.829 34.8764C210.769 40.1424 209.584 44.6954 209.279 49.2654C209.281 49.4934 209.282 49.7224 209.288 49.9504C209.111 51.1514 209.653 52.2054 209.984 53.3084C210.104 54.0874 209.972 54.8074 209.51 55.4564C207.994 56.3854 205.965 56.3184 204.789 57.9194C204.299 58.2214 203.774 58.4014 203.21 58.4984C197.127 59.0814 192.086 55.6724 186.543 54.1874C185.954 54.0824 185.382 53.9224 184.814 53.7484C181.914 53.0854 178.967 54.0754 175.986 53.1874C173.259 52.3744 171.396 54.2894 172.417 56.8664C174.422 61.9264 173.302 66.5404 171.854 71.3754C171.001 74.2254 171.538 77.3054 171.478 80.2824C171.429 82.6664 171.852 85.3054 170.52 87.2894C167.246 92.1664 166.464 97.4644 166.566 103.161C166.64 107.295 165.21 109.379 160.262 107.736C155.119 106.028 150.111 106.867 146.22 111.455C143.941 114.143 141.237 114.592 138.745 111.458C135.367 113.194 132.567 111.64 130.177 109.552C127.303 107.041 124.816 105.882 121.738 109.249C119.926 111.231 118.077 109.454 116.443 108.545C115.276 107.896 116.143 107.128 116.451 106.19C117.483 103.047 116.733 102.198 113.068 102.42C110.739 102.561 110.946 100.566 110.044 99.4994C110.234 99.2904 110.424 99.0814 110.611 98.8694C116.647 98.0784 122.385 95.4594 128.641 95.9584C131.131 96.1574 132.941 96.8924 134.467 99.2614C137.496 103.965 142.735 103.67 145.079 98.4304C149.845 87.7784 156.603 78.1004 160.737 67.2434C163.12 60.9844 165.276 54.0024 161.31 47.1334C159.842 44.5904 160.184 42.1394 163.263 40.7134C169.468 37.8414 173.764 31.7224 181.106 30.6084C183.612 30.2284 184.315 27.3874 184.606 24.8844C184.896 22.3904 184.46 19.6084 187.027 17.8854C188.817 17.8954 189.188 19.6064 190.209 20.5384C192.703 22.5014 195.447 24.2584 196.175 27.6964Z" fill="#C2E3EB"/>
<path d="M110.044 99.4974C107.991 100.829 106.068 100.57 103.909 99.4744C99.6371 97.3074 94.8711 96.6644 90.2781 95.4874C89.0591 95.1744 87.8401 94.7694 87.0311 95.9044C85.8951 97.4974 84.4811 98.8594 83.3681 100.498C82.7161 101.459 80.3021 100.213 79.3771 102.762C78.5631 105.002 75.2701 104.664 73.2271 105.129C67.3461 106.466 61.7991 110.092 59.5831 115.467C58.4821 118.137 56.6401 120.138 54.5931 122.042C53.6411 122.927 52.6631 123.235 51.3591 122.773C48.8991 121.903 46.5191 120.37 44.3671 123.887C43.8161 124.788 40.6641 123.603 38.9271 122.713C35.1231 120.763 31.6791 119.097 28.1321 123.593C27.2111 124.76 24.1341 124.224 21.7601 124.504C21.5551 126.146 21.0861 127.898 21.1941 129.613C21.3021 131.333 20.6721 132.283 19.2151 132.799C15.1471 134.238 13.6041 137.411 13.1831 141.392C10.3001 139.347 9.28511 136.224 8.36811 133.044C7.85811 131.979 8.31211 131.037 8.97911 130.327C13.1831 125.851 16.4421 120.374 22.3151 117.65C23.6661 117.023 23.1441 115.578 23.5381 114.539C25.2661 109.98 27.5441 106.474 33.2911 106.501C36.4351 106.515 40.6491 100.137 40.0661 97.2324C39.9851 96.8284 39.9381 96.3774 39.5291 96.2434C37.5091 95.5804 34.2691 95.2834 35.3531 92.4454C36.6851 88.9544 36.8441 84.2544 39.4551 82.1804C42.9751 79.3844 48.3901 79.2604 52.5651 81.1254C60.5561 84.6964 68.8791 86.0204 77.4221 86.7944C80.0891 87.0364 82.5991 87.7224 83.1491 90.9734C83.0271 91.6684 82.6731 92.2194 82.1461 92.6004C82.1911 92.5684 81.8101 92.7064 81.8101 92.7064C81.8101 92.7064 82.2101 92.6814 82.2291 92.6714C82.5751 92.1894 82.9671 91.7674 83.3021 91.2694C87.0241 88.4014 90.8401 88.1754 94.4541 91.2294C97.1411 93.5004 100.692 93.3324 103.579 94.9344C105.322 97.0384 109.44 95.7854 110.052 99.4914L110.044 99.4974Z" fill="#C4E1E8"/>
<path d="M3.63309 121.02C0.15209 111.921 -0.77991 102.467 0.63309 92.9284C1.00909 90.3904 0.194085 87.3194 2.44708 85.1394C4.17108 85.3454 4.80609 84.3174 5.34309 82.8684C9.64809 71.2614 14.9801 60.4114 26.5461 54.1234C27.7081 53.4914 28.2331 51.9744 29.0811 50.8854C30.9841 48.5274 33.0621 46.5174 36.4801 47.2824C37.1161 47.0684 37.3011 48.9034 38.1801 47.6384C38.6551 47.2874 39.1651 47.0374 39.7221 46.8634C48.4341 49.2474 57.1571 43.7454 65.8711 46.8874C70.8441 48.8834 73.4911 53.3574 76.6801 57.2064C78.2001 59.0404 78.0461 61.1754 76.3681 63.0364C74.3981 64.3364 72.9641 66.4254 70.5391 67.0774C62.8011 65.4714 54.8631 66.6624 47.0801 65.4074C42.0071 64.5894 35.6361 68.0024 33.0721 72.6054C31.9121 74.6884 30.8041 76.8004 29.5511 78.8374C19.1841 87.3544 15.9421 98.4514 17.7521 111.381C17.9211 112.586 17.9171 113.763 17.3221 114.866C16.9421 115.326 16.4711 115.67 15.9111 115.882C11.2461 116.414 8.84708 113.451 6.42008 109.676C6.41008 112.213 6.64508 114.542 6.29808 116.798C6.04208 118.488 6.73009 121.031 3.63309 121.02Z" fill="#DFF1F4"/>
<path d="M75.3781 62.4224C76.8181 61.2164 77.1231 59.4784 75.8871 58.3524C72.3281 55.1084 70.1841 50.4884 65.8131 48.0674C59.9031 43.5674 53.6831 42.4784 46.9121 46.1594C44.2661 47.5984 40.8711 46.0054 38.3141 48.0674H38.3131C37.9151 48.4564 37.5171 48.4374 37.1181 48.0684C33.9611 47.7324 31.8811 49.5504 29.9461 51.6574C28.2881 52.4344 27.5891 54.3664 25.9551 55.0934C24.7031 55.6504 22.9201 56.9474 22.7281 54.0064C27.2431 46.8244 32.8041 40.7104 41.2361 38.3394C49.7581 35.9434 58.4841 34.4674 67.4131 35.0404C68.1111 35.0854 68.7701 35.7214 69.4481 36.0824C67.1561 40.7554 68.4981 45.5544 73.1831 49.4264C78.7151 53.9994 82.0361 54.2074 86.8851 50.3294C88.2661 49.2244 89.1811 47.5764 90.9141 46.8874C93.9321 48.5454 97.5261 49.3894 99.2991 52.8104C100.085 53.5874 100.876 53.5834 101.673 52.8274C101.67 52.4374 101.677 52.0474 101.693 51.6584C102.061 51.2914 102.46 50.9604 102.879 50.6504C105.817 47.7394 108.601 44.7434 110.34 40.8924C112.329 36.4874 112.65 32.2214 109.844 28.0354C109.567 27.4894 109.636 26.9904 110.045 26.5394L110.044 26.5414C110.486 26.1824 110.847 25.7434 111.234 25.3304L111.226 25.3384C111.652 24.9614 112.055 24.5624 112.425 24.1304L112.417 24.1394C112.849 23.7684 113.25 23.3674 113.62 22.9344L113.612 22.9434C114.044 22.5724 114.446 22.1714 114.815 21.7384L114.807 21.7474C115.24 21.3774 115.641 20.9764 116.011 20.5434L116.003 20.5524C116.436 20.1834 116.834 19.7794 117.212 19.3544L117.205 19.3614C117.629 18.9854 118.025 18.5814 118.413 18.1694L118.411 18.1714C118.822 17.7864 119.217 17.3854 119.611 16.9824L119.615 16.9784C120.011 16.5854 120.409 16.1944 120.81 15.8064L120.831 15.7924C121.457 15.0794 122.582 15.3164 123.183 14.5564L123.172 14.5604C123.649 14.2304 124.17 13.9934 124.727 13.8324C130.728 11.4024 131.032 11.5154 131.719 16.4364C131.541 17.0024 131.266 17.5194 130.922 18.0004C130.494 18.4114 129.976 18.6384 129.391 18.7164C121.36 18.5404 117.67 22.0444 117.529 29.9894C117.476 32.9724 117.664 35.9614 117.339 38.9324C117.269 39.4434 117.128 39.9444 116.954 40.4274C116.771 40.8784 116.522 41.3044 116.248 41.7034C116.118 41.8894 115.969 42.0774 115.841 42.2684C115.472 42.8164 115.135 43.3914 114.896 44.0174C114.709 44.6404 114.492 45.2534 114.203 45.8374C113.996 46.2154 113.743 46.5634 113.465 46.8914C113.325 47.0504 113.175 47.2034 113.036 47.3644C112.757 47.6824 112.459 47.9854 112.166 48.2924C112.036 48.4624 111.892 48.6194 111.764 48.7894C111.4 49.3424 111.072 49.9144 110.743 50.4964C110.509 50.9204 110.238 51.3074 109.94 51.6854C109.468 52.2944 108.952 52.8554 108.399 53.3934C107.277 54.5264 105.689 55.2664 105.019 56.7374C103.82 59.3694 103.545 62.3724 104.913 64.8004C106.239 67.1544 108.825 65.8554 110.911 65.3674C112.681 64.9534 114.647 64.3554 115.865 66.1014C117.055 67.8054 115.845 69.5504 115.022 71.1064C107.645 85.0374 84.4611 86.1844 75.3201 73.0954C72.8221 69.5114 73.8211 65.9714 75.3781 62.4224Z" fill="#CEE9F0"/>
<path d="M130.371 16.9754C130.628 12.9794 130.627 12.9764 127.114 13.8544C126.203 14.0824 125.3 14.3404 124.394 14.5844C124.086 14.3164 123.982 14.0464 124.081 13.7754C124.181 13.5034 124.281 13.3664 124.383 13.3664C131.958 7.84643 140.087 3.32243 149.202 1.02743C158.671 -1.35757 167.669 0.560426 176.136 5.22143C177.55 6.00043 178.699 7.08944 179.43 8.56544C179.464 8.83644 179.499 9.10643 179.538 9.37543C179.571 10.8854 180.456 11.8144 181.526 12.7934C183.651 14.7354 182.807 16.2834 181.551 18.8224C175.599 30.8584 164.511 37.0504 154.168 44.1344C152.251 45.4474 151.366 47.3104 150.148 49.0964C147.751 52.6094 145.57 56.5934 140.516 56.9164C136.512 52.2284 139.882 48.5354 142.783 45.6234C145.691 42.7044 146.349 40.8764 143.034 38.0184C140.889 36.1694 139.378 33.5904 140.6 30.5724C141.833 27.5274 144.64 27.8594 147.256 28.0214C147.851 28.0584 148.47 28.1384 149.04 27.9974C151.222 27.4594 154.504 28.3544 155.073 25.4434C155.613 22.6834 152.15 22.8214 150.656 21.4754C145.444 16.7784 139.71 15.4634 133.09 17.8124C132.114 18.1584 131.142 17.7024 130.371 16.9754Z" fill="#CEE9EF"/>
<path d="M186.732 186.874C185.045 188.368 182.959 187.964 181.023 187.941C168.276 187.786 155.719 189.451 143.122 191.206C135.269 192.3 127.225 191.769 119.293 191.105C117.102 190.922 115.051 190.812 112.841 191.121C107.517 191.865 102.145 192.017 96.8981 190.374C96.5031 189.955 96.2191 189.47 96.0261 188.929C95.7971 187.699 96.0001 186.466 96.7011 185.505C98.5101 183.026 97.9961 181.687 95.3811 179.889C91.1731 176.994 91.5761 174.366 95.4131 170.81C99.1211 167.373 103.812 166.324 108.34 165.142C114.269 163.594 116.818 159.752 117.437 154.133C117.738 151.401 118.002 148.82 121.739 149.109C124.382 150.593 126.736 151.086 129.088 148.284C131.202 145.765 133.54 145.719 135.067 149.093C136.067 151.305 138.253 151.157 140.037 151.881C141.955 152.659 143.612 153.959 143.653 156.185C143.693 158.333 141.84 159.261 140.126 159.708C135.282 160.972 132.573 165.499 128.132 167.329C127.021 167.782 125.845 167.973 124.678 168.222C119.378 169.354 118.744 170.993 121.091 176.09C122.767 179.731 124.043 183.567 129.071 183.488C133.486 186.044 138.038 185.858 142.631 184.095C144.158 183.509 145.707 183.505 147.28 183.518C150.763 181.525 154.649 182.552 158.326 182.017C168.334 180.56 177.547 183.603 186.732 186.874Z" fill="#9FCCD6"/>
<path d="M304.981 136.676C303.264 140.707 300.975 144.353 297.78 147.391C295.833 146.495 295.973 144.978 296.711 143.416C297.894 140.911 299.327 138.54 300.775 136.176C302.416 133.497 301.989 130.847 300.242 128.394C298.655 126.165 295.939 124.815 295.148 121.712C292.034 124.255 288.206 124.547 284.585 125.476C284.014 125.546 283.446 125.531 282.877 125.455C271.276 120.64 260.031 122.258 248.978 127.335C248.392 127.394 247.864 127.239 247.398 126.88C246.16 124.86 246.976 122.795 248.047 121.305C251.445 116.578 251.794 111.183 252.159 105.726C252.211 104.944 252.732 103.993 252.382 103.403C246.914 94.1934 254.956 91.0684 259.949 86.6914C262.648 84.3254 264.584 85.5064 265.751 88.5994C266.716 91.1564 266.477 94.1334 268.469 96.3224C271.348 99.4334 269.967 104.478 273.745 107.355C275.342 105.204 276.389 102.435 278.717 100.692C279.141 100.414 279.608 100.22 280.097 100.113C281.849 100.504 281.329 98.7104 282.033 98.0644C282.502 97.7634 283 97.5914 283.551 97.5434C295.605 98.8994 298.214 108.441 300.882 117.773C301.701 120.639 302.211 123.384 304.531 125.636C308.009 129.011 306.252 132.928 304.981 136.676Z" fill="#98CBD7"/>
<path d="M15.5991 115.04C15.9951 115.038 16.3911 115.036 16.7871 115.034C17.8071 113.767 17.5451 112.4 16.9321 111.122C15.4511 108.034 16.6201 105.316 18.0051 102.629C18.5501 101.572 20.1771 100.502 19.8761 99.6904C16.7991 91.3894 25.3121 89.2444 28.0391 84.0784C30.0491 80.2694 34.3671 79.5064 37.8411 77.6614C42.6851 74.5624 47.6131 72.4394 53.0341 76.4064C62.4661 78.2434 70.7471 83.9064 80.5101 84.6694C81.2901 84.7304 82.1291 85.2714 82.8361 85.0594C92.3301 82.2074 96.8951 90.0794 103.132 94.3174C103.332 94.8924 103.244 95.4214 102.874 95.9024C99.3061 94.6374 95.5591 94.5294 92.3551 91.4494C89.9161 89.1044 85.7521 90.6914 82.5501 92.3164C82.2811 89.3384 80.3741 88.4414 77.6821 88.2184C71.2001 87.6824 64.6541 87.4664 58.4561 85.1294C58.2741 85.0604 58.0531 85.0974 57.8711 85.0294C49.0891 81.7454 49.0891 81.7444 39.6951 82.7454C39.0951 85.8374 40.4411 89.4964 36.7091 91.8324C35.2371 92.7534 36.2771 94.3634 38.0741 94.5764C38.8271 94.6654 39.6521 94.4554 40.3991 94.2304C42.9541 93.4624 43.5241 94.8674 42.4941 96.6364C40.9651 99.2614 40.0521 101.983 39.3941 104.915C38.6191 108.371 34.9131 108.849 32.8801 108.403C28.4121 107.422 27.1811 109.641 26.0631 112.951C25.5271 114.539 23.6181 115.631 24.6271 117.787C25.0311 118.65 24.3721 119.194 23.3301 118.92C20.6031 118.204 19.0841 119.093 19.1321 122.089C19.1451 122.908 18.9101 123.934 18.1571 124.108C13.1861 125.258 11.8721 130.341 8.3671 133.042C6.5001 130.967 5.36111 128.536 4.83111 125.807C4.18811 125.121 4.2681 124.267 4.2771 123.433C8.6641 121.466 10.2701 115.741 15.5991 115.04Z" fill="#CAE7ED"/>
<path d="M281.011 100.688C280.615 100.692 280.219 100.693 279.823 100.693C273.433 104.756 270.492 99.8814 267.23 95.8344C266.493 94.4134 266.171 92.7814 266.06 91.2974C265.665 85.9854 263.766 83.1044 257.879 84.9614C256.55 85.3804 255.2 84.6544 253.917 84.0884C248.256 81.5944 242.278 80.5694 236.134 80.3964C235.608 80.3384 235.092 80.2114 234.588 80.0534C233.626 79.7144 232.675 79.3344 231.734 78.9304C231.048 78.6154 230.444 78.1774 229.885 77.6764C229.127 77.0154 228.289 76.4654 227.425 75.9404C224.09 74.0084 224.111 69.7684 221.489 67.3604C220.977 66.8914 220.478 66.3954 219.932 65.9724C219.134 65.4404 218.271 65.5754 217.394 65.7574C214.15 65.3904 210.244 66.4624 208.96 61.8664C212.11 59.1664 216.398 60.9644 219.764 59.1134C220.571 58.9054 221.393 58.7964 222.217 58.7074C225.851 57.7674 230.144 55.1694 230.759 62.0164C230.808 62.5674 230.778 63.4484 231.582 63.1494C235.261 61.7794 236.927 63.8904 238.207 66.7874C238.515 66.5444 238.858 66.3624 239.249 66.2304C244.399 66.2044 249.811 65.6914 251.714 72.2514C252.073 73.4904 252.302 72.4004 252.554 72.3294C256.456 71.2364 257.257 73.7244 257.654 76.7004C257.527 78.8324 259.048 78.7704 260.452 78.7204C264.436 78.5774 268.265 77.8564 271.95 76.1674C276.974 73.8644 278.94 75.0584 279.138 80.5984C279.235 83.3184 279.799 86.1364 278.663 88.8124C279.271 92.1694 281.927 91.0234 283.876 91.0334C288.862 91.0584 293.773 91.1664 297.825 94.6814C295.863 97.7494 292.189 97.9674 289.357 99.5114C285.897 101.397 285.684 97.2904 284.222 95.5764C282.836 96.0064 283.26 97.6964 282.21 98.2964V98.2954C281.419 98.8974 281.84 100.106 281.011 100.688Z" fill="#A7D4DF"/>
<path d="M74.1811 122.212C76.5391 121.736 76.0971 124.989 77.9861 125.182C79.8611 123.644 78.2321 121.292 79.6081 119.438C82.8851 120.746 82.9541 123.882 83.4531 126.615C83.6641 127.767 82.3421 128.023 81.3561 128.193C80.3291 129.311 79.2261 130.278 77.5561 130.111C77.0941 130.017 76.6761 129.816 76.3051 129.526C75.8721 129.049 75.4411 128.558 74.9081 128.181C74.5411 128.002 74.1751 127.818 73.7991 127.671C73.1861 127.548 72.6061 127.636 72.0631 127.954C71.1431 128.736 70.8771 129.846 70.5141 130.904C70.2191 131.814 69.8131 132.674 69.3851 133.519C69.2021 133.933 68.9871 134.337 68.7761 134.736C68.4031 135.541 68.1471 136.391 67.9121 137.251C67.7981 137.693 67.6451 138.119 67.4851 138.545C67.1831 139.433 66.9561 140.339 66.7331 141.254C66.6371 141.754 66.5061 142.236 66.3711 142.724C66.0691 147.273 64.8481 151.234 59.9371 152.844C59.3881 152.876 58.8541 152.793 58.3321 152.626C55.8251 151.098 53.1701 149.8 50.8441 147.97C50.2231 147.435 49.6631 146.841 49.1231 146.225C44.9341 140.754 38.4391 142.147 32.8771 140.872C30.6781 140.368 30.1871 142.614 29.3691 144.167C27.0981 148.48 27.9121 153.392 26.6001 157.884C26.1471 158.293 25.6411 158.371 25.0851 158.12C22.5071 154.695 19.7441 151.395 17.9211 147.462C16.5861 141.471 22.5031 139.859 24.8041 136.063C27.2011 137.289 29.4291 137.039 31.5021 135.277C32.1901 133.442 29.0021 132.501 30.5661 130.293C33.8441 130.318 34.8181 132.661 35.0271 136.265C37.5611 133.282 39.3531 132.25 42.9571 133.998C45.3281 135.148 48.8251 135.332 51.5711 136.222C52.6631 135.199 52.4111 134.295 52.2161 133.283C51.4891 129.512 51.5771 129.353 55.4411 130.508C56.7411 130.897 57.0491 130.761 57.5511 129.644C58.3131 127.947 58.8381 125.692 61.6821 127.312C62.3881 127.714 63.2121 126.623 63.0831 125.892C62.4601 122.363 64.4991 121.325 67.4001 120.947C67.7781 120.898 68.1681 120.744 68.4981 120.547C71.7951 118.576 71.7921 118.57 74.1811 122.212Z" fill="#B6DCE4"/>
<path d="M69.3961 131.778C69.4241 129.085 69.0241 126.136 72.9821 125.802C73.3451 126.236 73.7831 126.594 74.1801 126.994L74.1821 126.995C75.0921 127.678 76.1261 128.237 76.5731 129.384L76.5751 129.387C77.9191 130.783 80.0951 128.846 81.3541 130.581L81.3551 130.582C82.4951 131.666 82.9151 133.176 82.2551 134.414C80.1621 138.341 80.9341 142.444 80.7181 146.58C80.4841 151.048 82.0141 151.201 85.4741 150.454C87.3351 150.052 89.4311 149.729 91.2491 150.998C92.5281 156.393 90.6431 159.596 85.0151 160.739C83.1251 161.123 81.1391 161.557 79.3251 162.429C74.8221 164.595 74.2451 166.368 76.9951 170.64C77.8841 172.02 78.6271 173.283 78.4501 175.016C77.4281 185.013 79.9321 187.678 90.1831 187.585C92.0601 187.59 93.9281 187.614 95.5781 188.696C96.1301 189.214 96.1701 189.769 95.7001 190.361C91.1841 190.369 86.6671 190.431 82.1531 190.36C80.2451 190.33 78.1801 190.833 76.5501 189.268C68.8541 185.938 66.4641 182.342 67.1161 174.163C67.3531 171.184 66.3921 168.857 65.1591 166.291C62.7441 161.266 59.5521 156.256 64.3051 150.545C66.3621 148.074 64.5061 144.31 65.8101 141.343V141.342C66.9311 140.388 65.9491 138.732 67.0051 137.756V137.755C68.1261 136.8 67.1451 135.145 68.2001 134.169L68.2011 134.167C68.9451 133.545 68.6731 132.413 69.3961 131.778Z" fill="#AAD5DF"/>
<path d="M283.402 124.609C283.8 124.608 284.199 124.606 284.597 124.605C288.146 124.426 291.564 121.459 295.268 124.314C299.153 127.309 300.501 131.888 298.639 136.493C297.431 139.481 295.915 142.376 293.484 144.451C290.302 147.166 290.132 150.08 291.907 153.495C287.286 158.592 282.99 164.075 276.249 166.647C274.779 164.28 277.001 162.181 276.695 159.31C273.556 160.306 270.574 161.519 267.459 162.204C265.518 162.631 263.567 163.205 262.472 160.753C262.399 160.187 262.473 159.64 262.665 159.105C262.951 158.621 263.298 158.183 263.687 157.779C268.887 152.691 275.216 148.506 277.199 140.849C280.98 132.9 279.695 129.539 271.659 126.406C270.55 125.974 269.42 125.582 268.736 124.491C268.658 123.866 268.853 123.342 269.282 122.891C274.237 121.443 278.676 124.204 283.402 124.609Z" fill="#8FC0CC"/>
<path d="M65.8101 141.346C65.8101 144.315 65.8171 147.284 65.8071 150.252C65.8041 151.042 65.9441 152.451 65.6961 152.527C62.0411 153.654 64.0221 156.394 63.9081 158.486C63.7501 161.402 65.1661 164.016 66.7841 166.026C69.0321 168.816 69.6111 171.218 68.5481 174.677C67.4471 178.262 68.8811 181.716 71.3591 184.488C72.9191 186.234 74.8081 187.684 76.5501 189.268C74.4641 189.309 72.4451 189.036 70.5961 187.98C64.0201 185.715 60.7191 181.238 60.5021 174.151C60.3501 169.175 57.3131 166.291 52.2301 167.293C46.1441 168.493 40.8621 166.285 35.2601 165.293C33.6721 164.729 32.0031 164.47 30.3751 164.065C29.3501 163.692 28.4951 163.125 28.1541 162.014C27.9591 161.565 27.7481 161.117 27.5191 160.681C27.3811 160.484 27.2441 160.281 27.1051 160.083C26.8141 159.695 26.6011 159.264 26.4501 158.802C26.4181 158.564 26.3891 158.324 26.3591 158.085C24.4981 152.15 26.5131 146.763 28.7631 141.431C29.6691 139.284 31.5541 138.417 33.5971 139.25C36.5891 140.469 39.7911 140.423 42.8241 140.805C46.6141 141.282 48.8131 142.912 50.2721 146.125C44.7621 147.374 39.9711 143.628 34.7911 144.356C38.0531 152.879 47.7561 160.231 56.3421 160.327C56.7891 160.109 57.2311 159.88 57.6331 159.599C59.4261 157.29 57.1981 154.443 58.6431 152.105C62.5851 150.505 65.2121 148.016 64.7071 143.322C64.6171 142.488 65.2011 141.873 65.8101 141.346Z" fill="#B0D8E2"/>
<path d="M186.732 186.874C184.36 186.843 181.873 186.349 179.646 186.901C176.977 187.564 175.463 182.643 172.636 185.774C172.471 185.421 172.366 185.019 172.13 184.723C168.971 180.766 168.194 180.914 165.898 186.418C164.071 181.007 160.004 183.726 156.884 183.651C153.601 183.571 149.981 183.07 147.108 185.588C146.421 182.925 147.777 181.548 150.113 180.781C164.947 181.153 177.822 174.45 191.094 169.255C193.91 168.153 195.75 163.762 199.678 167.035C200.549 168.552 199.768 169.48 198.537 170.239C196.871 169.622 197.626 170.99 197.455 171.605C196.529 174.754 199.063 175.347 200.988 175.969C203.168 176.674 204.056 174.73 204.921 173.199C207.257 169.065 209.581 164.962 215.489 166.399C215.764 170.51 213.844 173.336 209.095 175.209C214.406 178.446 219.075 178.879 224.013 178.018C226.339 178.979 229.121 178.839 230.984 180.911C226.505 183.242 221.461 183.246 216.679 183.946C206.762 185.398 196.826 187.069 186.732 186.874Z" fill="#98C7D2"/>
<path d="M230.984 180.912C228.31 180.734 225.41 181.22 223.625 178.418C223.311 177.344 223.934 176.869 224.811 176.553C234.135 176.517 241.757 171.849 249.403 167.359C251.269 166.263 252.979 164.889 255.895 163.606C251.327 164.338 248.136 160.649 244.094 162.921C243.131 163.462 241.677 161.895 241.198 160.441C241.738 157.498 244.639 157.998 246.409 156.84C246.894 156.56 247.394 156.311 247.889 156.051C248.133 155.91 248.386 155.788 248.633 155.65C249.94 155.019 251.262 154.619 252.633 155.468C254.007 157.361 255.812 158.162 258.195 157.965C259.92 157.823 261.764 157.693 263.077 159.282C263.243 160.99 264.374 162.25 265.797 161.296C268.766 159.304 272.856 160.531 275.446 157.494C276.326 156.463 278.014 156.73 279.528 157.806C278.431 160.762 277.34 163.702 276.248 166.643C276.118 166.795 276.019 167.015 275.854 167.087C263.287 172.569 250.396 177.051 236.908 179.682C235.445 180.833 233.402 179.478 231.984 180.823L231.488 180.919L230.984 180.912Z" fill="#8DBDC9"/>
<path d="M282.208 98.2964C282.002 96.5814 281.796 94.8654 281.538 92.7134C284.846 93.1814 287.619 93.4304 286.655 97.8884C286.467 98.7584 288.127 99.7104 288.763 98.6514C290.908 95.0794 295.023 96.4544 297.824 94.6814C305.537 98.7224 308.771 105.438 309.813 113.793C310.766 121.436 310.261 128.666 306.145 135.361C305.843 135.852 305.373 136.239 304.982 136.675C305.055 135.293 304.935 133.866 305.245 132.539C305.689 130.638 305.46 128.363 304.314 127.478C299.259 123.574 299.621 117.511 297.792 112.367C296.685 109.254 293.372 107.157 293.844 103.334C293.944 102.526 292.936 102.063 292.127 101.987C288.483 101.642 285.642 99.1774 282.208 98.2964Z" fill="#A4D2DE"/>
<path d="M254.709 36.1094C252.663 36.2484 251.224 35.8705 252.281 33.3065C252.714 32.2555 253.106 31.1874 253.517 30.1274C254.761 27.4484 256.905 27.0165 259.507 27.7275C266.335 32.6565 268.949 40.3834 272.152 47.5574C274.389 52.5684 276.15 57.9334 276.264 63.6014C273.092 59.8654 267.831 58.8684 264.842 54.8464C263.979 53.6854 262.706 54.4204 261.575 54.7544C259.286 55.4294 257.063 55.9054 257.639 52.1524C257.692 51.8054 257.541 51.2494 257.285 51.0594C254.044 48.6464 253.65 45.9894 256.308 42.8364C257.052 41.9534 256.671 40.6714 255.589 40.4524C251.624 39.6464 254.428 37.6574 254.709 36.1094L255.086 35.6665L255.042 35.6405L254.709 36.1094Z" fill="#C3E4EC"/>
<path d="M90.9131 46.8884C89.7081 52.1384 85.1591 53.3894 81.0171 55.0644C80.3671 55.3274 79.3541 55.2544 78.7271 54.9234C72.8941 51.8474 68.1251 47.7204 66.1061 41.1634C65.1651 38.1064 65.9081 37.1124 69.4471 36.0834C69.8301 36.0774 70.2121 36.0864 70.5931 36.1094C71.2271 36.8804 72.3641 36.5914 73.0421 37.2714C79.6021 39.3574 85.0701 43.4724 90.9131 46.8884Z" fill="#C7E7EF"/>
<path d="M64.5871 186.841C59.3101 186.507 54.7781 183.999 50.4441 181.405C45.0841 178.197 40.0571 174.421 34.9711 170.771C33.8991 170.002 33.1971 168.716 32.3241 167.669C34.4211 163.686 37.8141 165.796 40.7921 165.829C42.8991 165.852 44.5891 167.779 46.3711 167.643C60.4671 166.56 58.5761 180.423 64.5871 186.841Z" fill="#BFE4ED"/>
<path d="M64.5871 186.841C64.3981 186.495 64.2971 185.984 64.0061 185.827C59.0431 183.152 56.6491 178.841 56.3041 173.384C56.1391 170.776 54.8931 169.974 52.5091 170.037C49.3581 170.121 46.5751 169.819 43.6711 167.68C40.3941 165.266 36.1261 165.936 32.3251 167.668L32.3321 167.666C31.9911 167.2 31.5031 166.883 31.1111 166.469C27.9961 164.485 26.2871 161.486 25.0861 158.12C25.5101 158.109 25.9351 158.098 26.3601 158.087V158.088C26.6861 158.559 27.1711 158.871 27.5541 159.284C27.9541 159.68 28.3121 160.12 28.7491 160.48C28.7781 161.463 29.0001 162.349 29.9461 162.872C31.3041 164.217 33.3561 162.777 34.7281 164.066C37.7761 163.665 40.5501 164.985 43.4061 165.613C46.1281 166.212 48.4881 166.402 51.3681 165.705C54.0511 165.055 57.4671 166 60.1431 167.184C62.4771 168.217 62.4081 171.174 62.1991 173.563C61.7161 179.075 63.8231 183.12 68.6271 185.864C69.4261 186.32 69.9481 187.263 70.5981 187.981C69.7981 187.971 68.9971 187.961 68.1971 187.952C67.2091 186.879 65.5951 187.818 64.5821 186.826L64.5871 186.841Z" fill="#B7DEE9"/>
<path d="M291.907 153.495C286.047 150.416 286.1 150.463 290.707 145.356C293.316 142.464 295.518 139.367 297.327 135.774C299.019 132.413 298.211 130.064 296.502 127.727C294.689 125.247 292.63 122.639 288.695 124.447C287.547 124.975 285.974 124.577 284.596 124.603C286.644 122.792 289.334 122.811 291.773 122.296C293.464 121.94 293.883 120.754 294.804 119.388C296.577 121.585 297.572 124.161 299.964 125.844C304.232 128.847 304.966 133.6 301.665 137.66C300.15 139.523 299.761 141.905 297.996 143.55C296.863 144.606 297.037 146.06 297.78 147.39C296.336 149.92 294.246 151.827 291.907 153.495Z" fill="#92C4D1"/>
<path d="M110.05 27.7384C112.559 27.9994 113.331 29.9545 113.493 31.9095C113.98 37.7795 112.233 43.1825 107.954 47.1155C106.323 48.6145 106.322 52.2305 102.873 51.6535C101.948 49.2525 101.983 46.8485 102.85 44.4415C102.714 39.0895 104.251 34.2965 107.64 30.1245C108.05 29.7215 108.464 29.3215 108.826 28.8715C108.825 28.4945 108.844 28.1175 108.88 27.7425C109.268 27.3125 109.658 27.3104 110.05 27.7384Z" fill="#CDE9F0"/>
<path d="M22.7291 54.0074C23.6241 55.2554 24.5931 55.0704 25.5991 54.1544C26.8641 53.0024 27.9861 51.5994 29.9461 51.6574C28.8831 54.0254 27.2921 55.4884 24.8771 56.9154C18.3531 60.7714 13.5611 66.5884 10.9211 73.7604C9.53008 77.5394 5.97408 80.4964 6.71208 85.1524C6.90708 86.3824 5.19008 86.8854 4.08208 87.0784C2.75408 87.3104 2.61908 86.1134 2.44708 85.1384C2.44808 84.7404 2.45308 84.3424 2.46208 83.9444C3.21408 83.3194 2.91109 82.1794 3.63409 81.5404C3.63409 81.1454 3.64008 80.7514 3.65108 80.3564C4.41008 79.7344 4.10609 78.5914 4.83009 77.9524C4.83309 77.5584 4.84209 77.1644 4.85609 76.7704C5.29409 76.4104 5.61108 75.9364 6.01908 75.5474C6.03008 74.1044 6.62208 72.8034 7.41508 71.7144C12.0271 65.3924 16.4961 58.9324 22.7291 54.0074Z" fill="#D6ECF1"/>
<path d="M259.506 27.7275C257.51 28.5275 255.513 29.3275 253.516 30.1275H253.514C252.899 29.3635 251.753 29.6705 251.12 28.9405C249.949 28.9045 248.176 29.2025 247.821 28.2275C246.23 23.8585 239.239 25.9965 238.809 20.1505C239.639 18.9355 242.919 21.5185 242.748 18.1865C249.723 18.9255 255.28 22.1555 259.506 27.7275Z" fill="#CAE7EE"/>
<path d="M15.5991 115.04C13.8051 117.08 10.0661 117.529 10.6281 121.534C10.8211 122.908 9.41105 123.285 8.13105 123.359C7.03105 123.423 5.91105 122.308 4.83505 123.412C4.43905 123.951 4.05205 123.972 3.67805 123.389C3.66305 122.599 3.64806 121.81 3.63306 121.02C5.56606 119.271 4.65205 116.955 4.82105 114.87C5.08505 111.622 4.39105 108.29 5.71005 103.636C8.01005 109.425 9.54205 114.495 15.5991 115.04Z" fill="#D2EBF0"/>
<path d="M278.661 88.8124C278.594 85.6544 278.806 82.4584 278.384 79.3494C277.924 75.9594 276.383 75.2544 273.504 77.0154C268.57 80.0344 263.166 80.3804 257.644 80.3494C256.715 80.3444 255.643 80.5784 255.453 79.0894C255.279 77.7264 255.384 76.7184 257.1 76.7694C258.161 75.7614 259.23 76.2144 260.302 76.7494C264.921 79.0574 267.928 76.0874 269.859 72.8864C271.801 69.6674 273.831 68.9924 277.019 70.0904C278.241 70.7654 277.74 72.3044 278.569 73.1774C279.359 77.2624 280.128 81.3444 279.781 85.5454C279.68 86.7524 279.624 87.9244 278.661 88.8124Z" fill="#AFD9E4"/>
<path d="M179.43 8.56543C182.186 9.00243 183.784 10.5944 184.211 13.3574C183.931 13.4514 183.652 13.5454 183.372 13.6394C181.411 12.4664 178.804 11.8064 179.384 8.61543L179.43 8.56543Z" fill="#CEE9EF"/>
<path d="M102.85 44.4434C102.858 46.8474 102.866 49.2514 102.873 51.6554C102.479 51.6564 102.085 51.6574 101.691 51.6594C101.997 49.2404 100.792 46.5804 102.85 44.4434Z" fill="#D4EBF1"/>
<path d="M231.985 180.825C233.307 179.069 235.187 179.72 236.908 179.684C235.518 181.143 233.712 180.811 231.985 180.825Z" fill="#98C7D2"/>
<path d="M278.568 73.1774C277.657 72.6434 277.44 71.7684 277.4 70.8054C276.713 70.0214 276.714 69.2334 277.381 68.4384L277.446 68.3814C279.047 69.6934 278.515 71.5044 278.568 73.1774Z" fill="#BDE0E8"/>
<path d="M190.208 20.5354C189.022 20.1354 188.234 19.3174 187.752 18.1824C187.618 17.9804 187.483 17.7784 187.349 17.5774C187.485 17.3764 187.622 17.1764 187.758 16.9754C189.304 17.6604 190.105 18.8584 190.208 20.5354Z" fill="#CEE9EF"/>
<path d="M277.401 67.1974C276.034 66.3094 276.251 64.9144 276.251 63.5904C277.579 64.4914 277.406 65.8714 277.401 67.1974Z" fill="#C3E4EC"/>
<path d="M64.5811 186.827C65.9081 186.811 67.2961 186.599 68.1961 187.953C66.8641 187.984 65.4911 188.149 64.5811 186.827Z" fill="#BFE4ED"/>
<path d="M3.67908 123.389C4.06408 123.399 4.45008 123.407 4.83608 123.412C4.83508 124.21 4.83308 125.008 4.83208 125.806C3.89708 125.263 3.66808 124.383 3.67908 123.389Z" fill="#DFF1F4"/>
<path d="M73.0421 37.2724C72.0361 37.2864 71.1371 37.0724 70.5931 36.1104C71.5901 36.1194 72.4781 36.3544 73.0421 37.2724Z" fill="#CEE9F0"/>
<path d="M4.83006 77.9534C4.81606 78.9404 4.59506 79.8264 3.65106 80.3574C3.66606 79.3704 3.89306 78.4874 4.83006 77.9534Z" fill="#DFF1F4"/>
<path d="M101.672 52.8284C100.873 54.0674 100.081 54.0634 99.2981 52.8124C100.09 52.8174 100.881 52.8224 101.672 52.8284Z" fill="#D4EBF1"/>
<path d="M3.6341 81.5414C3.6221 82.5274 3.4021 83.4124 2.4621 83.9454C2.4721 82.9574 2.6961 82.0754 3.6341 81.5414Z" fill="#DFF1F4"/>
<path d="M239.192 18.1544C238.377 18.1534 237.562 18.1524 236.746 18.1504C237.563 17.0154 238.378 17.0094 239.192 18.1544Z" fill="#CAE7EE"/>
<path d="M123.185 14.5565C122.692 15.5225 121.811 15.7514 120.832 15.7924C121.336 14.8454 122.208 14.6015 123.185 14.5565Z" fill="#D2EBF0"/>
<path d="M6.01907 75.5484C5.63107 75.9564 5.24308 76.3634 4.85608 76.7714C5.24408 76.3634 5.63207 75.9564 6.01907 75.5484Z" fill="#DFF1F4"/>
<path d="M198.502 30.1324C198.112 29.7264 197.723 29.3194 197.333 28.9124C197.723 29.3184 198.112 29.7254 198.502 30.1324Z" fill="#C2E3EB"/>
<path d="M108.826 28.8734C108.431 29.2914 108.036 29.7084 107.641 30.1264C108.035 29.7084 108.43 29.2904 108.826 28.8734Z" fill="#D2EBF0"/>
<path d="M110.05 27.7384C109.66 27.7404 109.27 27.7414 108.88 27.7434C109.269 27.3424 109.657 26.9414 110.045 26.5394C110.047 26.9394 110.048 27.3394 110.05 27.7384Z" fill="#D2EBF0"/>
<path d="M111.234 25.3314C110.837 25.7354 110.441 26.1384 110.044 26.5424C110.441 26.1384 110.838 25.7344 111.234 25.3314Z" fill="#D2EBF0"/>
<path d="M112.426 24.1304C112.026 24.5334 111.627 24.9354 111.227 25.3384C111.626 24.9364 112.026 24.5334 112.426 24.1304Z" fill="#D2EBF0"/>
<path d="M114.816 21.7384C114.415 22.1404 114.014 22.5414 113.613 22.9434C114.014 22.5414 114.415 22.1394 114.816 21.7384Z" fill="#D2EBF0"/>
<path d="M116.012 20.5424C115.611 20.9434 115.21 21.3454 114.808 21.7464C115.209 21.3454 115.61 20.9434 116.012 20.5424Z" fill="#D2EBF0"/>
<path d="M117.213 19.3535C116.81 19.7525 116.407 20.1525 116.004 20.5515C116.407 20.1515 116.81 19.7525 117.213 19.3535Z" fill="#D2EBF0"/>
<path d="M119.613 16.9814C119.213 17.3774 118.813 17.7734 118.413 18.1704C118.813 17.7744 119.213 17.3784 119.613 16.9814Z" fill="#D2EBF0"/>
<path d="M95.7021 190.364C95.7011 189.97 95.7001 189.577 95.6991 189.183C96.0971 188.763 96.4971 188.782 96.8961 189.182C96.8961 189.579 96.8971 189.977 96.8991 190.375C96.5001 190.37 96.1011 190.367 95.7021 190.364Z" fill="#A6D3DD"/>
<path d="M186.573 15.7654C186.968 16.1684 187.363 16.5724 187.758 16.9754L187.731 16.9954C187.172 17.2004 186.737 17.0354 186.411 16.5504C186.465 16.2894 186.519 16.0274 186.573 15.7654Z" fill="#CEE9EF"/>
<path d="M185.39 14.5544C185.784 14.9584 186.179 15.3624 186.573 15.7664L186.55 15.7924C185.988 15.9834 185.548 15.8164 185.213 15.3384C185.272 15.0774 185.331 14.8154 185.39 14.5544Z" fill="#CEE9EF"/>
<path d="M184.211 13.3564C184.604 13.7554 184.997 14.1554 185.39 14.5544L185.36 14.5904C184.295 14.8554 183.886 14.4674 184.167 13.3924L184.211 13.3564Z" fill="#CEE9EF"/>
<path d="M124.383 13.3665C124.387 13.7725 124.39 14.1785 124.394 14.5845C123.987 14.5765 123.581 14.5685 123.174 14.5605C123.577 14.1625 123.98 13.7645 124.383 13.3665Z" fill="#D2EBF0"/>
<path d="M138.745 111.456C141.731 112.637 143.804 112.568 145.949 109.254C148.684 105.027 156.274 104.151 161.77 106.481C162.473 106.779 163.026 107.47 164.493 107.028C165.63 104.352 165.007 101.182 164.987 98.1504C164.963 94.6474 165.311 91.3714 167.97 88.8134C169.553 87.2914 169.883 85.4494 169.837 83.3794C169.769 80.3974 169.827 77.4124 169.822 74.4294C169.818 71.8534 169.997 69.4794 171.374 67.0204C172.807 64.4624 172.967 61.3944 170.874 58.6524C169.227 56.4944 169.367 54.1884 171.227 52.1604C173.152 50.0604 175.356 49.9224 177.578 51.6724C179.306 53.0334 180.59 52.7494 182.251 51.3204C183.786 50.0004 184.638 51.6614 185.372 52.8464C184.016 55.4914 185.248 60.3544 179.726 59.4354C179.609 59.4164 179.782 59.5074 179.642 60.2454C179.007 63.5934 182.356 67.5644 177.945 70.4044C177.2 70.8844 178.473 72.1194 178.888 72.9594C179.857 74.9204 180.949 76.8234 181.3 79.0294C181.143 81.4934 179.138 83.6354 180.188 86.3604C180.538 87.2684 179.913 88.7234 178.932 88.7104C173.774 88.6394 174.962 92.8484 175.325 95.0784C175.924 98.7634 179.204 98.8944 182.428 98.2324C186.545 97.3864 190.106 98.3244 191.578 102.643C192.85 106.377 193.077 110.042 188.35 112.021C186.76 112.687 186.068 114.731 184.461 115.613C178.611 118.184 172.908 119.712 167.968 113.756C166.221 111.649 162.425 112.845 161.168 109.773C160.757 111.134 160.421 112.553 158.747 112.955C158.163 112.986 157.682 112.786 157.315 112.324C155.848 108.18 153.856 108.059 151.36 111.529C150.567 112.631 149.884 113.806 149.067 114.89C148.713 115.308 148.289 115.645 147.813 115.914C146.604 116.505 145.292 116.76 143.995 117.065C138.893 118.987 138.829 125.07 134.978 128.01C133.262 130.604 133.246 133.691 132.481 136.558C131.383 140.669 129.049 142.48 124.542 141.533C115.374 139.606 115.348 139.733 118.573 130.48C118.773 129.907 118.887 129.326 118.484 128.599C115.685 127.313 112.78 129.94 109.893 128.725C109.394 128.556 108.909 128.34 108.436 128.112C107.115 127.222 105.387 127.877 104.062 126.989C104.099 125.117 104.078 123.381 106.88 123.631C114.58 124.317 122.057 121.979 129.7 121.789C130.569 121.767 131.168 121.453 131.653 120.733C133.832 117.5 136.911 114.954 138.745 111.456Z" fill="#B4DBE5"/>
<path d="M90.9111 150.903C88.2241 152.641 84.9381 151.611 82.0141 152.983C80.0001 153.928 77.8491 150.734 78.6461 148.385C78.8301 147.843 79.6781 147.194 79.5461 146.926C76.6551 141.069 80.9861 136.044 81.3551 130.583C82.4611 130.809 83.7961 129.432 84.6221 130.663C85.4611 131.913 86.0081 134.581 87.4741 133.637C89.7201 132.192 92.6231 133.502 94.4531 131.263C95.9751 129.401 97.7541 127.8 100.48 128.189C100.839 128.719 100.935 129.293 100.778 129.912C100.311 131.415 99.6751 132.924 99.7801 134.506C100.267 141.86 96.0771 146.636 90.9111 150.903Z" fill="#B4DBE4"/>
<path d="M100.483 129.388C100.483 128.989 100.482 128.59 100.482 128.191C101.349 126.814 102.751 127.033 104.064 126.99C105.66 126.397 107.258 124.837 108.849 126.999C106.679 129.965 104.77 133.842 100.483 129.388Z" fill="#AFD7E1"/>
<path d="M81.3541 130.582C79.7011 130.424 77.8361 131.112 76.5751 129.388C78.1691 128.99 79.7621 128.591 81.3561 128.193C81.3551 128.989 81.3541 129.786 81.3541 130.582Z" fill="#B4DBE4"/>
<path d="M277.381 68.4394C277.388 69.2284 277.394 70.0164 277.4 70.8054C274.331 70.4774 272.245 71.0234 270.469 74.3174C267.821 79.2294 262.739 79.7684 257.1 76.7694C257.023 76.5904 256.962 76.4014 256.866 76.2344C254.569 72.2524 254.568 72.2534 250.491 74.9084C250.128 73.1094 251.384 71.1404 249.465 69.6294C248.002 68.4764 246.873 67.6914 244.828 68.1564C242.976 68.5774 241.194 66.8374 239.169 67.1994C236.699 63.8674 233.023 61.7894 230.391 58.5624C227.175 54.6174 224.931 58.6114 222.428 60.0264C221.631 60.0274 220.835 60.0274 220.038 60.0284C214.881 60.4854 209.691 61.6354 204.663 59.3064C204.145 58.7974 204.09 58.2414 204.496 57.6394L204.497 57.6374C205.283 55.2264 207.839 56.3524 209.276 55.2444C209.276 54.4474 209.277 53.6504 209.277 52.8544C208.265 51.6584 208.421 50.4634 209.278 49.2684V49.2674C211.437 48.5204 212.151 46.1154 213.97 44.9734C216.42 47.4704 219.184 49.5344 220.161 53.1794C221.139 50.6664 222.457 48.3664 220.896 45.7494C220.523 45.1234 220.735 44.5494 221.294 44.2394C222.168 43.7534 222.743 44.2704 223.174 45.0154C224.169 46.7324 222.885 49.0684 224.738 50.6184C226.284 51.0834 227.042 49.4874 228.283 49.0414C230.774 48.1444 232.771 47.9084 234.685 50.1304C237.048 52.8734 241.332 53.6544 243.142 56.2974C244.908 58.8784 246.329 62.0934 247.728 65.1144C248.598 66.9924 250.349 67.9864 252.139 68.9334C255.114 70.5074 257.908 72.3434 260.411 74.6494C263.01 77.0444 268.182 75.0704 268.928 71.5164C270.125 65.8124 270.122 65.8214 275.644 68.0544C276.188 68.2724 276.801 68.3144 277.381 68.4394Z" fill="#B7DCE5"/>
<path d="M251.12 28.9414C252.104 28.9624 252.988 29.1834 253.514 30.1284C252.531 30.1044 251.647 29.8824 251.12 28.9414Z" fill="#C3E4EC"/>
<path d="M184.166 13.3934C184.564 13.7924 184.961 14.1924 185.359 14.5914C185.756 14.9914 186.153 15.3924 186.55 15.7924C186.944 16.1934 187.338 16.5944 187.731 16.9964C187.746 17.3924 187.753 17.7874 187.752 18.1834C186.08 19.9134 185.891 22.2324 186.232 24.2604C186.693 26.9994 185.447 28.8184 184.084 30.7904C182.629 32.8964 180.741 33.2694 178.374 32.6274C177.709 32.4474 176.341 32.7344 176.18 33.1494C174.694 36.9864 169.69 36.3914 167.974 39.7784C166.652 42.3884 162.54 40.9674 161.842 43.7194C161.158 46.4154 164.217 48.1704 164.809 50.6324C165.219 52.3364 165.244 54.2364 164.977 55.9784C164.324 60.2304 163.163 64.4134 162.684 68.6784C162.425 70.9814 160.033 70.7934 159.293 73.0024C157.412 78.6134 155.632 84.5174 151.15 88.9124C149.55 90.4814 148.546 92.4354 148.315 94.6984C148.084 96.9644 146.901 98.8414 145.827 100.725C144.147 103.674 141.291 104.347 138.141 104.262C135.116 104.18 133.3 102.64 132.8 99.6834C132.509 97.9624 131.618 98.0454 130.062 97.6754C126.509 96.8304 123.263 97.7504 120.086 98.5304C116.725 99.3554 113.423 99.4764 110.051 99.4884C108.072 97.4654 104.381 98.8704 102.875 95.9004C102.875 95.5024 102.875 95.1054 102.875 94.7074C104.642 93.2694 106.252 94.4964 107.836 95.0844C110.125 95.9344 112.411 96.2284 114.781 95.5914C116.111 95.2344 117.646 94.9724 117.866 93.2914C118.104 91.4794 116.529 91.2354 115.296 90.6134C110.359 88.1274 110.304 86.7464 114.895 83.7584C119.244 83.6154 121.556 81.3184 122.472 77.1074C123.371 72.9764 125.737 69.6944 129.272 67.3034C130.299 66.9054 131.377 66.6684 132.428 66.3434C133.459 66.0544 134.514 65.8704 135.561 65.6524C136.332 65.4434 137.105 65.2434 137.883 65.0474C138.413 64.9064 138.949 64.8194 139.492 64.7564C142.853 64.3454 146.138 63.5314 149.326 62.4774C151.738 61.6804 154.053 60.4274 154.289 56.7574C149.821 57.5484 146.375 59.6354 142.948 61.8454C140.703 63.2924 138.443 64.1804 137.84 60.2044C138.058 58.1784 139.358 57.0994 141.132 56.4384C144.624 53.3594 149.062 51.0544 149.737 45.6894C149.867 44.6614 150.664 43.9244 151.629 43.5664C158.612 40.9794 163.692 35.4464 169.725 31.4314C173.324 29.0364 177.99 25.8324 177.72 19.9554C177.671 18.8924 178.937 18.5594 179.738 17.9924C182.921 15.7364 183.055 15.1594 179.756 13.4494C176.515 11.7694 177.569 10.3684 179.385 8.6134C180.543 10.6434 182.134 12.2394 184.166 13.3934Z" fill="#CBE7ED"/>
<path d="M180.58 79.1654C178.592 75.6614 176.603 72.1574 174.674 68.7574C175.732 67.5254 176.285 68.4934 176.906 68.7794C177.649 69.1214 178.444 69.5374 178.938 68.5814C179.171 68.1294 179.24 67.1884 178.963 66.9434C177.339 65.5054 177.251 64.2664 178.514 62.3764C179.843 60.3874 177.869 60.2494 176.533 59.9364C175.128 59.6064 174.391 58.7204 175.15 57.3724C175.718 56.3644 176.824 56.4874 177.779 56.9854C178.303 57.2594 178.755 57.6684 179.267 57.9674C181.313 59.1654 182.729 58.8564 182.921 56.2424C183.045 54.5474 183.217 53.0164 185.372 52.8464C185.769 52.8484 186.166 52.8504 186.563 52.8514C186.73 53.0504 186.897 53.2494 187.066 53.4504C187.115 53.9814 187.084 54.5054 186.995 55.0254C186.843 57.4704 188.65 58.9664 189.801 60.7614C191.089 62.7704 190.968 64.5554 190.149 66.8764C189.105 69.8324 184.373 68.5424 184.692 71.5144C185.064 74.9914 182.457 76.3604 181.278 78.7094C181.048 78.8654 180.814 79.0154 180.58 79.1654Z" fill="#ADD7E2"/>
<path d="M186.564 54.0464C186.563 53.6484 186.563 53.2504 186.563 52.8524C187.719 52.9134 189.347 52.5034 189.956 53.1124C194.059 57.2164 199.701 56.0174 204.495 57.6374C204.495 58.0354 204.495 58.4324 204.495 58.8304C197.875 61.8434 190.274 59.8154 186.564 54.0464Z" fill="#BDE0E8"/>
<path d="M209.276 55.2424C208.087 56.8484 205.94 56.5384 204.497 57.6354C204.964 54.2904 204.964 54.2904 209.276 55.2424Z" fill="#BDE0E8"/>
<path d="M209.279 49.2664C209.279 50.4614 209.278 51.6574 209.278 52.8524C206.509 51.5984 206.51 51.4734 209.279 49.2664Z" fill="#BDE0E8"/>
<path d="M120.083 105.787C120.226 105.462 120.299 104.959 120.535 104.865C120.765 104.773 121.162 105.098 121.485 105.24C121.342 105.565 121.271 106.07 121.037 106.163C120.805 106.255 120.408 105.93 120.083 105.787Z" fill="#BCDEE6"/>
<path d="M29.7911 114.426C29.7731 115.25 29.5401 116.106 28.7521 116.356C27.4351 116.772 27.6821 115.584 27.6461 114.925C27.6031 114.151 27.7181 113.254 28.7831 113.242C29.4381 113.234 29.6991 113.819 29.7911 114.426Z" fill="#CAE7ED"/>
<path d="M82.5491 94.7064C81.7791 94.2884 80.7451 93.9814 81.1051 92.8314C81.1971 92.5374 82.0471 92.4814 82.5491 92.3164C82.5491 93.1134 82.5491 93.9104 82.5491 94.7064Z" fill="#CAE7ED"/>
<path d="M82.5491 94.7074C82.7101 94.7964 83.0181 94.9164 83.0071 94.9684C82.9251 95.3534 82.7441 95.2594 82.5491 94.7074Z" fill="#CAE7ED"/>
<path d="M114.829 85.1404C113.556 85.3204 112.416 85.7014 112.643 87.3134C112.836 88.6824 113.636 89.4764 115.107 89.1124C116.318 88.8134 117.506 88.6484 118.455 89.6084C119.589 90.7564 120.676 92.1774 120.333 93.7904C119.937 95.6504 118.373 96.5734 116.484 97.0584C111.567 98.3214 107.194 96.7364 102.874 94.7074C98.6831 91.9374 93.8621 90.1494 90.4381 86.1544C89.2951 84.8214 86.8091 85.1294 85.5571 85.9294C83.3211 87.3584 81.2481 86.4204 79.3031 86.0744C76.9811 85.6604 74.9601 83.2134 72.4081 85.7414C71.8581 86.2864 71.0271 85.5104 70.4181 84.9474C68.4851 83.1554 65.8881 82.5694 63.6711 81.3354C60.7891 79.7304 57.9231 78.8604 54.6671 79.0734C53.8241 79.1284 53.1961 78.5804 52.6621 77.9654C54.4401 75.9854 56.9021 74.9084 59.2441 74.1754C64.0251 72.6794 69.0391 71.8594 70.5931 66.0064C72.6811 65.4714 72.8151 62.3264 75.3771 62.4224C75.5331 63.5994 75.8801 64.7884 75.8031 65.9494C75.6691 67.9744 74.0491 69.9274 76.0501 71.9824C78.2491 74.2404 80.8821 75.8234 83.3811 77.6524C86.8211 80.1694 90.9551 79.1854 94.5611 81.0644C97.2451 82.4624 101.057 82.2514 104.148 79.9004C108.881 76.3004 113.639 72.8324 115.256 66.6524C113.624 65.6654 112.143 65.8474 111.168 66.8904C109.057 69.1494 106.622 66.9574 104.418 67.6094C104.074 67.7114 103.228 67.0844 103.051 66.6254C101.895 63.6314 103.548 60.4454 102.431 57.3504C102.024 56.2244 103.378 55.2654 104.368 54.5844C105.838 53.5724 107.355 52.6284 108.852 51.6554C109.229 51.2354 109.67 50.8784 110.048 50.4594C110.773 49.8254 110.555 48.7204 111.243 48.0674C111.651 47.6784 112.049 47.2794 112.439 46.8714C112.858 46.4934 113.215 46.0524 113.634 45.6754C113.634 44.8784 113.634 44.0814 113.634 43.2834C114.072 42.9244 114.429 42.4844 114.83 42.0874C115.238 41.6984 115.636 41.2994 116.025 40.8914C116.678 40.1174 117.02 39.2324 117.013 38.2134C116.942 27.8664 120.881 21.9574 130.371 18.1694C138.543 19.3204 140.444 23.6164 135.672 30.1834C134.737 31.4694 133.71 32.6944 133.086 34.1744C132.011 36.7234 132.701 38.4254 135.509 39.0494C137.253 39.4364 139.079 39.3734 140.785 39.9694C144.893 41.4074 145.212 42.7724 142.466 46.3234C141.133 48.0464 140.237 50.0714 138.986 51.8594C136.017 50.1004 136.017 50.1004 137.536 43.7724C131.635 46.2864 126.006 45.9564 120.345 45.8594C116.8 45.7994 114.665 49.3064 116.224 52.7194C117.788 56.1444 118.103 59.9974 120.434 63.1734C122.517 66.0114 122.418 69.1774 119.795 71.8804C117.292 74.4594 116.54 78.2354 113.558 80.5434C110.671 82.7794 116.112 83.1104 114.829 85.1404Z" fill="#D4EBF1"/>
<path d="M70.5941 66.0064C70.5161 66.1894 70.4841 66.4164 70.3541 66.5484C68.3261 68.6094 72.5211 72.5414 69.1171 73.2494C66.7661 73.7384 64.4051 74.7354 61.9401 74.8004C58.5041 74.8914 56.3621 78.7044 52.6611 77.9654C47.4691 73.4454 42.8901 76.2954 38.3131 79.1604C35.0191 79.6194 31.5331 81.6154 28.7501 77.9674C30.2441 74.7634 30.9031 70.3524 33.4131 68.6164C38.0891 65.3804 43.3461 61.7214 49.8451 64.1534C50.7461 64.4904 51.5251 65.7484 52.4891 65.2234C58.7161 61.8314 64.5641 65.8394 70.5941 66.0064Z" fill="#D8EDF2"/>
<path d="M28.7511 77.9664C31.8601 78.9944 35.0491 79.3764 38.3141 79.1594C37.6851 80.0504 36.6971 80.1174 35.7511 80.4244C32.9291 81.3394 30.3711 82.5784 28.7861 85.4234C27.1851 88.2954 26.4351 92.3404 21.5791 91.6524C20.6491 91.5204 20.3881 92.6794 20.6291 93.4414C21.0451 94.7564 21.6701 96.0064 22.2211 97.2774C22.7281 98.4474 22.9701 99.8444 21.9281 100.588C17.2241 103.946 16.5171 108.43 17.7811 113.647C17.8681 114.008 17.1381 114.567 16.7881 115.034C16.3931 112.713 15.9421 110.401 15.6131 108.071C14.5841 100.795 17.0711 94.0324 19.5661 87.5454C21.1251 83.4924 24.9061 80.4264 28.7511 77.9664Z" fill="#D1EAEF"/>
<path d="M38.3141 48.0674C38.5231 47.7334 38.6651 47.1884 38.9501 47.0984C44.4951 45.3494 49.8371 42.7924 55.6641 42.1544C60.3041 41.6464 63.4561 44.3264 65.8121 48.0674C64.2401 48.0054 62.4811 48.3784 61.1311 47.7984C57.3961 46.1944 54.1841 47.3604 51.0711 49.1764C49.6201 50.0224 48.1981 50.9404 46.7761 49.7034C44.2081 47.4704 41.2021 48.2284 38.3141 48.0674Z" fill="#D7EDF2"/>
<path d="M37.1181 48.0684C37.5161 48.0674 37.9141 48.0674 38.3131 48.0674C37.9161 48.7444 37.5181 48.7454 37.1181 48.0684Z" fill="#D7EDF2"/>
<path d="M138.74 51.6565C139.293 48.2205 142.028 46.1175 143.923 43.4775C141.79 41.0565 139.09 41.0025 136.296 40.8445C130.141 40.4965 128.845 37.7065 132.098 32.3895C133.135 30.6945 134.384 29.2175 135.69 27.7365C138.148 24.9505 137.991 24.0515 135.324 21.3145C133.906 19.8595 132.13 19.0465 130.371 18.1705C130.371 17.7715 130.371 17.3735 130.371 16.9745C130.965 16.9485 131.766 17.1635 132.121 16.8585C136.618 12.9985 141.544 15.7625 146.285 15.8795C146.85 15.8935 147.853 16.1365 147.902 16.4085C148.767 21.2435 154.254 19.6015 156.399 22.5385C159.028 26.1385 157.983 28.2385 153.341 28.9785C150.464 29.4365 147.778 30.3875 144.663 29.3075C142.267 28.4765 140.742 30.8105 141.65 33.3995C142.316 35.2995 143.524 36.8085 145.142 38.0915C149.281 41.3745 149.384 42.3625 144.99 45.4265C142.282 47.3155 141.379 50.0415 140.205 52.7055C139.639 53.9905 139.777 55.4555 141.131 56.4395C140.334 57.6355 139.537 58.8315 138.74 60.0275C136.15 62.0205 140.991 64.0135 138.74 66.0065C138.342 66.0065 137.943 66.0065 137.545 66.0075C137.179 66.4385 136.698 66.7545 136.349 67.2025C135.153 67.2025 133.958 67.2025 132.762 67.2025C131.963 67.9115 131.103 67.8185 130.217 67.3995C129.616 60.2875 132.691 55.1665 138.74 51.6565Z" fill="#D2EBF0"/>
<path d="M130.371 18.1714C127.232 21.1134 124.026 23.9884 120.973 27.0174C118.18 29.7874 116.585 33.1174 117.796 37.1224C118.399 39.1164 117.588 40.0954 116.025 40.8944C116.025 36.5494 116.384 32.1674 115.938 27.8694C115.328 21.9904 119.976 20.2974 123.315 17.4724C125.909 15.2754 128.066 17.4624 130.371 18.1714Z" fill="#D2EBF0"/>
<path d="M111.243 48.0684C111.216 49.0514 110.994 49.9374 110.048 50.4604C110.074 49.4774 110.296 48.5914 111.243 48.0684Z" fill="#D2EBF0"/>
<path d="M113.634 45.6774C113.236 46.0764 112.837 46.4744 112.438 46.8734C112.837 46.4744 113.235 46.0754 113.634 45.6774Z" fill="#D2EBF0"/>
<path d="M164.068 4.00543C164.353 4.85543 164.659 5.44144 164.56 5.52044C160.441 8.81044 156.381 12.2244 150.924 13.1194C150.106 13.2534 149.307 13.2404 148.926 12.3934C148.522 11.4964 149.161 10.8354 149.791 10.3994C154.041 7.46144 158.913 5.91643 164.068 4.00543Z" fill="#D2EBF0"/>
<path d="M215.263 166.466C211.405 167.341 208.46 169.486 206.873 173.11C206.299 174.42 205.603 175.514 204.628 176.474C203.002 178.077 201.428 180.612 199.321 176.921C199.149 176.62 198.723 176.44 198.384 176.264C193.809 173.89 193.807 173.892 197.32 170.046C198.456 169.59 199.252 168.794 199.714 167.661C199.033 166.735 202.433 163.762 198.097 164.624C190.823 166.07 183.323 165.916 176.181 168.633C171.586 170.381 166.381 167.798 161.497 169.157C153.813 166.605 146.542 169.401 139.182 170.925C137.565 171.26 136.052 171.222 134.545 170.573C134.014 170.372 133.503 170.128 132.997 169.874C131.392 168.643 128.182 169.751 127.979 166.462C132.153 163.247 135.367 158.637 141.2 157.842C142.928 157.607 143.388 156.208 141.966 154.787C140.872 153.693 140.009 152.465 137.949 152.961C135.46 153.56 133.693 152.353 133.513 149.619C133.443 148.561 133.582 147.568 132.158 147.545C131.295 147.531 130.695 148.041 130.303 148.803C130.121 149.157 129.944 149.524 129.698 149.833C126.734 153.553 125.406 153.531 122.003 149.722C121.999 149.448 121.995 149.175 121.988 148.901C122.09 148.359 122.277 147.848 122.537 147.362C124.854 144.551 128.193 143.22 131.192 141.385C132.196 140.81 133.239 140.338 134.37 140.072C139.014 139.681 143.467 136.688 148.316 139.013C150.499 139.972 152.921 139.613 155.164 140.223C161.758 142.347 168.409 144.764 175.001 146.334C181.848 147.965 189.653 151.61 196.918 145.065C200.967 141.417 206.481 144.343 211.679 145.144C210.561 140.744 207.742 137.863 204.206 135.815C199.939 133.343 197.121 129.458 193.797 126.064C192.546 124.787 191.304 123.176 192.398 121.283C193.306 119.713 195.108 119.765 196.708 119.899C203.419 120.461 210.158 120.881 216.605 123.113C218.351 123.448 220.003 124.061 221.634 124.744C224.293 126.318 228.434 126.155 228.616 130.651C220.088 134.43 220.071 134.72 227.313 141.328C229.432 143.262 231.889 144.394 234.623 145.081C236.598 145.577 238.483 147.07 236.774 148.741C234.135 151.321 233.11 154.111 233.017 157.581C232.99 158.58 232.259 159.84 231.369 159.856C225.346 159.963 221.931 165.208 216.814 167.045C216.216 167.066 215.703 166.861 215.263 166.466Z" fill="#9CC9D4"/>
<path d="M131.566 142.545C129.087 144.973 125.274 145.531 123.198 148.523C122.772 148.893 122.374 149.291 122.005 149.718L122.004 149.721C120.511 149.809 118.425 150.726 118.939 151.796C120.787 155.642 117.279 158.089 117.026 161.319C116.877 163.229 115.399 164.76 113.573 164.988C110.323 165.394 107.738 167.72 104.583 167.963C100.747 168.257 98.2111 170.771 95.3591 172.701C92.6791 174.515 92.9081 177.113 95.7411 178.791C96.7181 179.37 98.0231 179.365 99.1061 179.803C101.151 180.631 102.302 181.699 99.8651 183.549C98.0311 184.941 97.1811 186.932 96.8961 189.182C96.4971 189.182 96.0981 189.183 95.6991 189.183C93.7081 189.18 91.7181 189.178 89.7271 189.176C87.9291 185.723 86.2141 182.295 83.9981 179C80.2401 173.41 82.5901 167.098 84.3171 161.175C84.6691 159.967 85.9921 159.269 87.2071 159.452C91.9541 160.167 94.0781 157.419 95.4591 153.533C96.0751 151.801 96.7621 149.964 99.0681 150.294C101.334 150.618 101.459 152.527 101.712 154.374C102.335 158.92 103.306 159.375 107.156 156.938C110.037 155.115 113.16 152.992 114.371 149.985C116.679 144.257 120.924 142.493 126.396 142.103C128.151 141.894 129.985 140.792 131.566 142.545Z" fill="#A2D0DA"/>
<path d="M127.98 166.461C129.394 168.704 132.546 166.603 133.956 168.854C134.303 173.036 130.153 174.44 128.064 176.149C125.036 178.626 127.694 178.851 128.37 179.985C129.064 181.15 129.983 182.213 129.66 183.72C129.499 183.947 129.337 184.174 129.174 184.401C125.177 184.614 121.472 184.548 121.302 178.987C121.273 178.03 119.881 177.171 119.297 176.163C118.255 174.366 116.302 172.57 118.167 170.339C119.62 168.601 120.319 165.503 123.925 166.917C125.045 167.356 126.616 166.645 127.98 166.461Z" fill="#97C4CF"/>
<path d="M150.698 182.004C148.365 182.06 147.971 184.059 147.109 185.588C145.674 184.863 144.502 184.878 142.787 185.517C138.224 187.217 133.359 188.861 129.174 184.401L129.182 184.391C135.466 181.319 142.62 182.236 149.121 180.085C149.955 179.809 150.921 180.731 150.698 182.004Z" fill="#97C4CF"/>
<path d="M234.384 79.1634C241.737 78.6914 248.892 79.2184 255.34 83.3164C256.881 84.2954 258.307 83.6964 259.854 83.1734C263.369 81.9834 266.217 83.4674 266.468 87.1524C266.672 90.1524 267.905 92.9164 267.861 95.9034C268.228 96.1694 268.35 96.4355 268.228 96.7015C268.106 96.9665 267.983 97.0994 267.86 97.0994C266.852 96.9284 265.888 96.6344 265.65 95.4804C265.372 94.1334 265.48 92.6294 264.908 91.4404C264.164 89.8934 265.023 87.4404 262.98 86.7884C260.539 86.0094 260.396 88.6554 259.418 89.9374C258.604 91.0044 257.401 91.3894 256.339 91.5084C252.486 91.9434 253.567 95.7164 251.964 97.6374C251.543 98.1414 251.653 98.8984 252.199 99.1894C256.085 101.259 253.824 104.31 253.464 107.018C253.215 108.891 251.989 110.715 253.824 112.526C254.861 113.55 254.387 114.808 253.42 115.654C249.965 118.677 248.893 122.903 247.536 126.994C247.3 127.17 247.064 127.346 246.836 127.523C245.155 127.533 244.009 128.522 242.739 129.504C241.151 130.732 239.031 131.69 237.209 130.558C234.92 129.134 235.988 126.658 236.331 124.572C236.523 123.401 237.168 122.345 237.523 121.211C240.651 111.229 240.628 101.031 239.571 90.7754C239.469 90.2394 239.45 89.6894 239.477 89.1464C239.864 87.6064 239.497 86.2184 238.564 84.9574C238.325 84.5544 238.117 84.1314 237.917 83.7124C237.676 83.3334 237.434 82.9484 237.159 82.5904C236.984 82.4444 236.829 82.2814 236.657 82.1344C235.802 81.2184 233.812 81.1584 234.384 79.1634Z" fill="#9ECFDB"/>
<path d="M252.32 155.701C250.971 155.639 249.892 156.393 248.729 156.891C242.857 156.87 239.693 153.811 238.874 148.111C238.79 147.529 238.795 146.848 238.482 146.401C235.359 141.938 236.034 138.138 240.294 134.826C240.891 134.362 241.106 133.498 241.435 132.787C241.678 132.306 241.981 131.862 242.327 131.45C243.234 130.54 244.352 129.853 245.154 128.822C245.805 128.029 246.801 127.684 247.532 126.992L247.534 126.993C247.933 126.993 248.332 126.993 248.731 126.993C255.055 123.239 261.733 121.499 269.055 123.408C269.055 123.806 269.055 124.203 269.055 124.601C267.576 126.339 265.476 125.945 263.569 126.186C258.313 126.85 254.505 129.726 251.589 133.979C251.003 134.834 250.66 135.797 251.225 136.732C251.883 137.82 252.84 137.284 253.819 137.094C263.45 135.22 268.281 139.638 266.799 148.889C262.995 154.857 258.335 157.044 252.32 155.701Z" fill="#91C0CB"/>
<path d="M267.86 97.0994C267.86 96.7004 267.861 96.3014 267.861 95.9034C268.034 95.9884 268.233 96.0414 268.376 96.1614C272.924 99.9804 272.923 99.9814 279.823 100.692C278.201 103.763 275.324 106.089 274.809 109.864C274.619 111.257 272.713 110.494 272.603 109.893C272.048 106.842 268.498 105.129 269.108 101.57C269.376 100.008 268.612 98.5004 267.86 97.0994Z" fill="#A4D2DE"/>
<path d="M269.055 123.41C261.896 122.424 255.36 124.973 248.731 126.995C249.919 124.758 252.087 124.259 254.202 123.194C258.866 120.846 264.36 123.601 268.624 120.213C268.894 119.999 269.496 119.856 269.739 120.008C273.937 122.62 279.495 121.175 283.403 124.609C280.69 126.064 278.08 124.515 275.538 124.062C273.364 123.674 271.235 123.452 269.055 123.41Z" fill="#92C4D1"/>
<path d="M281.011 100.688C281.037 99.7044 281.258 98.8174 282.208 98.2954C281.687 99.0324 283.352 100.862 281.011 100.688Z" fill="#A4D2DE"/>
<path d="M209.279 62.4204C212.124 64.5844 215.595 64.2414 218.839 64.8074C218.912 65.0734 218.984 65.3384 219.059 65.6044C216.869 69.4474 210.896 69.1014 209.711 74.0584C207.8 74.7284 206.735 77.3514 204.149 76.4884C199.172 68.1494 199.192 68.0494 206.915 62.6864C207.666 62.2684 208.43 61.9534 209.279 62.4204Z" fill="#9ECFDB"/>
<path d="M209.279 62.4204C208.879 62.8174 208.479 63.2144 208.079 63.6124C202.77 62.9554 197.514 61.8864 192.367 60.5374C189.404 59.7604 185.405 58.9534 186.553 54.0574L186.563 54.0464C191.83 58.3054 198.036 59.0384 204.494 58.8304C209.03 58.6134 213.534 60.7244 218.113 58.9674C218.839 58.6884 219.525 59.4214 220.037 60.0264C216.906 62.8664 212.775 61.2164 209.279 62.4204Z" fill="#ADD7E2"/>
<path d="M222.428 60.0244C223.209 58.9044 223.837 57.6245 224.805 56.6995C226.651 54.9354 229.615 55.1274 231.182 57.2394C233.721 60.6634 237.565 63.0354 239.169 67.1974C238.325 67.0704 237.829 69.8194 236.815 67.6124C234.568 62.7214 234.645 62.6964 230.255 66.3254C230.015 66.5234 229.535 66.4314 229.159 66.4754C228.154 65.3844 228.785 64.3064 229.153 63.1984C229.665 61.6534 229.945 60.1134 228.353 58.9524C226.531 57.6234 225.598 58.7864 224.564 60.1634C224.009 60.9024 223.141 60.2304 222.428 60.0244Z" fill="#ADD7E2"/>
<path d="M221.235 66.0034C223.934 66.2074 224.32 68.5914 225.137 70.3934C225.999 72.2964 226.721 74.2174 228.41 75.5704C228.196 75.7654 227.982 75.9604 227.769 76.1574C226.614 76.6644 225.512 76.5104 224.447 75.8904C222.016 73.3074 220.954 70.1654 220.722 66.6864C220.891 66.4584 221.063 66.2314 221.235 66.0034Z" fill="#9ECFDB"/>
<path d="M234.384 79.1634C235.107 80.6704 237.248 80.0464 237.972 81.5524C237.417 83.2524 236.115 83.7334 234.489 83.6934C231.651 83.0074 229.822 81.2364 228.912 78.4794C228.853 77.8664 228.97 77.2884 229.255 76.7424C229.777 76.2494 230.29 76.2594 230.792 76.7724C231.192 77.1714 231.592 77.5714 231.991 77.9704C232.614 78.7154 233.734 78.4664 234.381 79.1634H234.384Z" fill="#9ACCD8"/>
<path d="M230.793 76.7714C230.395 76.7714 229.998 76.7714 229.6 76.7724C229.391 76.9344 229.182 77.0964 228.972 77.2584C228.729 77.1534 228.486 77.0484 228.243 76.9434C227.923 76.4444 227.994 75.9914 228.402 75.5774L228.409 75.5704C229.39 75.6014 230.275 75.8224 230.793 76.7714Z" fill="#9ECFDB"/>
<path d="M234.383 79.1624C233.401 79.1354 232.517 78.9144 231.993 77.9694C232.976 77.9934 233.86 78.2144 234.383 79.1624Z" fill="#9ECFDB"/>
<path d="M220.039 64.8094C220.438 65.2074 220.836 65.6054 221.235 66.0034L221.229 66.0094C220.669 66.2224 220.218 66.0694 219.862 65.6004C219.921 65.3374 219.98 65.0734 220.039 64.8094Z" fill="#9ECFDB"/>
<path d="M218.839 64.8074C219.24 64.1354 219.64 64.1374 220.039 64.8094L220.033 64.8164C219.636 65.3004 219.239 65.2994 218.844 64.8134L218.839 64.8074Z" fill="#9ECFDB"/>
<path d="M58.6431 152.106C60.1451 154.561 60.0281 157.282 59.7101 159.947C59.5261 161.486 58.2841 160.6 57.4431 160.48C57.0471 160.09 56.6861 159.665 56.3051 159.375C56.3571 159.438 56.3911 159.428 56.4361 159.474C56.8011 159.841 57.1161 160.166 57.4431 160.479C56.5151 163.527 53.3661 162.742 52.2321 162.136C43.5641 157.505 34.7741 152.791 31.8251 141.477C38.2351 142.949 44.4201 143.784 50.2731 146.126C50.6711 146.526 51.0691 146.925 51.4671 147.325C52.8951 149.602 52.0791 152.298 52.9991 154.752C54.5351 153.294 55.4741 150.209 58.6411 152.104L58.6431 152.106Z" fill="#AAD4DD"/>
<path d="M58.6401 152.105C54.4171 152.257 54.2791 156.262 52.4521 158.887C52.2101 154.882 49.3751 151.318 51.4661 147.326C53.8781 148.889 57.1191 149.205 58.6401 152.105Z" fill="#B0D8E2"/>
<path d="M76.5731 129.385C75.4361 128.929 74.6411 128.131 74.1821 126.996C75.6871 127.083 77.8751 126.486 76.5731 129.385Z" fill="#B4DBE4"/>
<path d="M67.0061 137.759C66.9731 139.076 67.1951 140.479 65.8111 141.345C65.8461 140.028 65.6231 138.626 67.0061 137.759Z" fill="#B0D8E2"/>
<path d="M68.2001 134.171C68.1661 135.488 68.3901 136.891 67.0051 137.757C67.0411 136.441 66.8201 135.039 68.2001 134.171Z" fill="#B0D8E2"/>
<path d="M73.8961 122.678C73.5781 122.817 73.1751 123.149 72.9591 123.055C72.4731 122.841 72.5571 122.478 73.1011 122.343C73.4501 122.256 73.8201 122.253 74.1801 122.213C74.0861 122.367 73.9911 122.522 73.8961 122.678Z" fill="#BCDEE6"/>
<path d="M69.3961 131.778C69.3711 132.761 69.149 133.647 68.201 134.169C68.228 133.187 68.4521 132.302 69.3961 131.778Z" fill="#B0D8E2"/>
<path d="M126.785 143.74C125.744 145.211 124.476 144.619 123.059 144.372C120.142 143.865 118.108 145.099 117.265 148.077C115.544 154.159 109.95 156.554 105.59 160.064C104.402 161.02 102.423 160.797 101.008 159.969C99.7471 159.231 97.9231 158.366 99.7741 156.361C100.142 155.962 100.37 155.298 100.394 154.744C100.452 153.4 100.861 151.579 99.0561 151.249C96.6681 150.812 97.8291 152.983 97.3351 154.023C95.3971 158.104 93.6891 162.671 87.4831 160.634C86.2801 160.239 85.0221 161.184 85.0791 162.615C85.2151 166.043 83.5011 169.163 83.6971 172.619C83.8971 176.137 84.1641 179.441 88.0741 180.918C89.4241 181.428 89.6861 182.544 89.6971 183.798C89.7131 185.591 89.7171 187.384 89.7261 189.176C87.9341 189.177 86.1391 189.122 84.3491 189.191C81.4691 189.303 79.3001 188.731 78.8411 185.251C78.4891 182.576 75.3421 182.235 73.9561 180.223C75.0921 178.962 76.3541 177.856 76.8191 175.981C77.2911 174.078 77.4621 172.841 75.7181 171.329C71.6081 167.765 72.4931 164.592 77.3131 162.027C80.8931 160.123 84.6901 159.213 88.4751 158.107C89.2221 157.889 90.4611 157.704 89.8771 156.915C88.0121 154.398 91.3411 153.01 90.9091 150.903C90.8311 149.238 91.3311 148.023 92.7791 146.893C96.7421 143.803 98.5911 139.711 98.1571 134.547C97.9941 132.608 97.2011 129.959 100.48 129.387C102.289 130.598 104.034 130.396 105.63 129.03C106.613 128.188 107.323 126.967 108.846 126.998V126.997C109.508 132.218 112.052 137.026 111.695 142.533C111.435 146.544 113.987 144.585 115.389 143.491C119.325 140.424 123.071 139.679 126.785 143.74Z" fill="#A6D3DD"/>
<path d="M265.468 148.522C265.647 147.36 265.671 146.145 266.047 145.051C266.486 143.773 266.265 142.687 265.539 141.703C263.803 139.347 260.803 139.04 258.455 137.706C255.897 136.253 253.729 138.364 252.098 141.032C250.602 138.958 249.387 137.273 248.18 135.6C253.178 128.144 259.423 123.147 269.055 124.604C271.484 124.346 273.597 125.656 275.918 126.011C278 126.329 279.267 127.894 279.737 129.998C279.949 130.949 279.939 132.042 280.429 132.82C282.018 135.346 282.125 137.408 279.331 139.19C278.836 139.506 278.843 140.608 278.619 141.347C273.886 141.185 274.99 136.435 272.972 134.504C273.226 143.634 272.145 145.708 265.468 148.522Z" fill="#8CBBC7"/>
<path d="M265.468 148.522C265.627 148.404 265.782 148.283 265.944 148.17C271.769 144.084 272.119 137.957 271.819 131.425C274.116 133.204 275.836 134.989 276.173 137.61C276.394 139.325 277.008 140.62 278.619 141.347C278.019 144.002 276.618 146.01 274.924 148.225C273.323 150.318 272.515 152.65 269.782 154.037C267.617 155.136 266.087 157.488 264.274 159.283C263.874 158.851 263.475 158.852 263.076 159.285C260.914 159.385 258.723 159.301 256.596 159.628C253.371 160.123 252.22 158.671 252.319 155.702C259.34 154.344 262.432 152.656 265.468 148.522Z" fill="#89B7C1"/>
<path d="M263.077 159.284C263.475 158.608 263.875 158.608 264.275 159.282C263.876 159.283 263.477 159.284 263.077 159.284Z" fill="#8DBDC9"/>
<path d="M34.7281 164.066C33.0741 163.91 31.2091 164.597 29.9461 162.872C31.6001 163.03 33.4651 162.343 34.7281 164.066Z" fill="#B6DCE4"/>
<path d="M150.698 182.004C150.199 181.372 149.442 180.62 148.771 181.014C142.648 184.611 135.835 184.006 129.182 184.391C129.324 182.53 127.468 181.858 126.818 180.425C125.796 178.175 125.802 180.593 125.295 180.852C123.86 181.584 123.514 180.34 123.416 179.5C123.202 177.675 123.982 176.34 126.033 176.398C127.353 176.436 127.946 176.182 127.348 174.781C126.455 172.688 126.58 172.428 129.153 172.851C131.1 173.171 132.252 170.157 133.958 168.855V168.854C135.347 171.419 138.439 171.624 140.093 171.04C146.755 168.688 153.496 167.873 160.465 168.199C160.843 168.217 161.176 167.963 161.456 167.656C164.738 167.168 167.942 166.531 171.331 167.551C174.281 168.439 177.274 167.154 180.053 166.254C184.117 164.939 189.183 163.815 194.9 164.053C196.607 164.124 197.494 162.627 199.088 162.476C200.394 162.352 201.818 161.099 202.826 162.652C203.758 164.086 202.663 165.291 201.632 166.27C201.065 166.809 200.359 167.202 199.715 167.661C197.433 167.271 194.512 165.164 194.12 169.822C194.085 170.235 193.32 170.888 192.86 170.918C184.516 171.475 178.106 177.135 170.404 179.38C166.92 180.395 163.568 182.138 159.814 180.568C158.806 180.146 157.896 180.318 157.041 180.992C155.12 182.508 152.844 181.859 150.698 182.004Z" fill="#90BEC9"/>
<path d="M215.263 166.466C215.659 166.465 216.055 166.463 216.451 166.46C220.712 166.624 224.41 164.358 228.48 163.651C230.424 163.313 232.28 162.369 234.201 163.623C234.102 167.634 232.624 170.927 228.532 172.016C225.571 172.804 224.973 174.715 224.824 177.22C224.424 177.619 224.025 178.019 223.625 178.418C223.45 179.494 223.403 181.771 222.499 181.194C218.765 178.81 214.352 180.146 210.573 178.439C208.353 177.436 207.174 174.14 208.571 172.179C208.68 172.026 208.894 171.775 208.981 171.805C214.028 173.489 213 168.037 215.263 166.466Z" fill="#8EBCC7"/>
<path d="M197.321 170.046C197.16 169.957 196.851 169.836 196.862 169.784C196.944 169.398 197.125 169.492 197.321 170.046Z" fill="#90BEC9"/>
<path d="M234.382 164.061C230.428 163.985 226.81 165.519 223.213 166.772C220.729 167.637 218.656 167.734 216.451 166.459C218.061 165.098 220.079 164.341 221.3 162.363C222.731 160.045 225.037 158.935 227.901 159.271C230.987 159.633 232.703 158.072 231.881 155.157C230.793 151.299 232.205 149.517 235.741 148.665C235.978 148.608 236.085 148.01 236.262 147.645C236.089 146.082 234.943 146.782 234.07 146.649C227.64 145.674 224.315 140.396 220.31 136.251C218.446 134.322 219.8 131.414 222.502 130.837C224.402 130.431 226.435 130.645 228.408 130.582C228.809 130.118 229.52 129.533 229.885 129.767C233.898 132.348 238.596 130.339 242.755 131.779C242.933 135.87 240.254 138.081 236.85 140.082C238.794 143.036 240.251 145.866 240.649 149.353C240.99 152.34 242.285 155.607 246.738 154.911C247.648 154.769 248.311 155.964 248.731 156.891L248.732 156.892C248.3 157.258 247.923 157.678 247.531 158.084C245.838 159.624 243.096 158.548 241.56 160.48C240.048 163.441 237.269 163.859 234.382 164.061Z" fill="#98C6D2"/>
<path d="M234.382 164.061C236.177 161.669 239.285 161.911 241.56 160.48C242.388 161.01 243.152 161.758 244.058 162.025C246.075 162.62 247.42 157.702 250.351 161.552C251.408 162.939 255.049 162.357 257.885 162.721C257.206 164.59 255.443 165.421 254.097 165.998C251.51 167.108 250.009 169.973 247.53 170.532C244.523 171.21 242.747 173.685 239.921 174.456C237.073 175.233 234.238 176.211 231.578 177.481C229.155 178.638 227.029 178.499 224.823 177.219C221.941 173.717 221.751 172.861 224.699 172.107C229.433 170.898 231.752 167.444 234.382 164.061Z" fill="#89B7C1"/>
<path d="M254.696 36.1274C254.928 34.8924 254.214 33.5374 255.334 32.2394C257.017 33.9494 256.703 35.1524 254.696 36.1274Z" fill="#BDE0E8"/>
<path d="M157.869 112.645C160.237 110.133 161.121 109.982 165.172 110.81C167.058 111.195 168.477 111.599 169.762 113.487C171.545 116.107 174.389 117.206 177.904 116.313C179.943 115.795 181.938 114.713 184.169 115.034C184.25 115.299 184.332 115.565 184.415 115.83C182.084 119.9 177.465 120.987 173.863 121.206C171.066 121.376 170.286 123.248 168.608 123.728C162.163 125.574 160.495 130.246 160.053 136C159.75 136.386 159.421 136.764 159.11 137.14C158.744 137.763 158.556 138.447 158.485 139.176C158.412 139.687 158.208 140.135 157.883 140.535C157.433 140.815 156.945 140.964 156.421 141.009C154.595 140.499 152.709 140.902 150.868 140.625C149.837 140.242 148.815 139.846 147.976 139.099C148.591 133.823 145.291 128.246 150.205 123.201C152.585 120.757 148.645 117.89 148.303 115.033C148.013 111.684 150.762 109.861 152.407 107.662C153.799 105.801 155.863 108.78 157.731 107.817C158.665 109.661 157.509 111.167 157.869 112.645Z" fill="#AED7E2"/>
<path d="M184.169 115.034C184.911 113.874 186.078 112.792 186.307 111.539C186.816 108.752 189.772 110.259 190.092 109.593C191.265 107.153 191.329 104.209 189.892 101.818C188.534 99.5594 185.876 98.5714 183.479 99.4254C181.096 100.274 179.072 100.729 176.715 99.6074C174.779 98.6854 172.161 94.1704 173.429 92.6364C175.307 90.3644 175.206 88.5794 173.794 86.3544C173.628 86.0924 174.197 85.3644 174.467 84.7554C176.513 84.9904 176.604 87.6354 178.503 87.8224C179.221 87.6584 179.404 87.0584 179.228 86.5264C178.675 84.8534 177.623 83.2484 177.495 81.5614C177.366 79.8664 180.934 81.8504 180.579 79.1644L180.583 79.1604C181.573 78.1834 182.515 77.1184 184.018 76.9554C185.898 76.7514 187.851 76.8384 188.312 79.0734C188.82 81.5384 187.548 82.7624 185.234 82.5164C192.58 89.7504 197.691 98.5124 200.259 108.741C201.011 111.738 199.932 114.084 196.925 114.712C192.741 115.586 188.47 117.086 184.171 115.038L184.169 115.034Z" fill="#ADD7E2"/>
<path d="M148.302 115.032C149.595 115.612 150.624 116.54 151.321 117.733C153.487 121.439 153.115 123.137 149.824 126.308C148.676 127.414 145.749 128.661 149.657 130.102C149.942 130.207 150.347 130.778 150.332 130.794C148.146 133.147 150.233 136.557 148.308 138.953C148.46 139.154 148.612 139.354 148.764 139.555C148.61 139.755 148.457 139.954 148.303 140.154C145.226 139.731 142.253 139.09 139.198 140.868C137.824 141.667 135.729 141.227 133.961 141.349C129.818 136.566 133.934 131.781 133.958 126.997C134.097 124.542 139.126 124.416 136.893 120.831C138.76 119.227 140.614 117.606 142.518 116.046C142.688 115.907 143.18 116.162 143.523 116.234C145.113 117.023 145.979 115.629 147.113 115.043C147.509 115.04 147.905 115.037 148.302 115.032Z" fill="#A6D2DD"/>
<path d="M133.958 126.996C134.092 129.696 134.925 132.426 133.519 135.052C132.354 137.228 134.45 139.203 133.961 141.348C133.163 141.747 132.365 142.146 131.567 142.545C129.91 142.692 128.048 142.017 126.785 143.74C126.588 143.719 126.359 143.756 126.199 143.668C122.027 141.35 118.432 142.333 115.08 145.433C114.098 146.341 113.257 147.557 111.746 147.839C109.703 146.99 109.185 144.446 109.658 143.396C111.452 139.414 109.602 136.044 108.489 132.615C107.813 130.533 107.754 128.812 108.849 126.999C110.945 128.657 113.032 127.156 115.105 126.927C116.269 126.799 117.378 126.152 118.541 126.036C121.048 125.785 122.291 127.574 120.921 129.715C119.075 132.6 117.81 135.596 117.27 139.635C119.784 138.914 121.797 138.823 124.029 139.753C128.566 141.643 129.998 140.705 131.181 135.894C131.925 132.861 131.668 129.539 133.958 126.996Z" fill="#AFD7E1"/>
<path d="M147.112 115.042C146.209 116.323 145.55 118.342 143.522 116.233C144.684 115.731 145.763 114.977 147.112 115.042Z" fill="#AED7E2"/>
<path d="M138.74 51.6564C137.439 54.8824 134.193 56.6484 132.884 60.1004C131.996 62.4404 131.889 65.0984 130.373 67.2034C130.8 67.4714 130.941 67.7364 130.795 67.9984C130.651 68.2584 130.507 68.3894 130.361 68.3894C127.048 70.8544 124.759 73.9514 123.72 78.0534C122.126 84.3474 121.585 84.6694 114.829 85.1404C113.572 82.9184 109.926 85.1744 109.325 82.6224C108.607 79.5744 112.567 80.4984 113.636 78.6254C114.301 77.4594 115.733 76.7064 115.877 75.2144C116.042 73.5034 116.931 72.4584 118.201 71.3204C121.119 68.7064 121.849 66.6844 119.386 64.2474C115.979 60.8754 116.861 56.1154 114.099 52.4764C111.688 49.3004 116.709 43.2794 120.836 43.9464C126.023 44.7854 131.049 45.0804 135.888 42.4654C136.91 41.9134 138.312 41.8204 139.214 42.8414C140.263 44.0294 140.055 45.4404 139.237 46.6924C138.698 47.5164 137.871 48.1564 137.366 48.9954C136.453 50.5144 137.716 51.0574 138.74 51.6564Z" fill="#D8EEF2"/>
<path d="M138.74 66.0064C138.458 65.3054 138.366 64.3954 137.862 63.9404C135.736 62.0204 137.02 61.0054 138.74 60.0264C138.969 61.2644 139.834 62.9664 140.845 61.6364C143.582 58.0364 148.335 58.1764 151.339 55.2794C152.618 54.0454 154.166 53.6284 155.566 55.0484C157.023 56.5274 157.032 58.3324 155.813 59.9224C154.982 61.0054 153.939 62.1414 152.735 62.6834C148.304 64.6784 143.738 66.3104 138.74 66.0064Z" fill="#CEE9EF"/>
<path d="M130.361 68.3904C130.366 67.9954 130.37 67.5994 130.373 67.2044C131.17 67.2034 131.966 67.2034 132.763 67.2024C132.236 68.1524 131.348 68.3724 130.361 68.3904Z" fill="#CEE9EF"/>
<path d="M184.173 115.039C187.675 114.632 191.182 114.256 194.679 113.809C199.075 113.247 200.063 112.238 198.422 108.085C196.079 102.156 195.205 95.4874 189.763 90.9474C187.181 88.7944 187.532 84.0584 182.893 83.2234C184.729 81.5934 188.164 82.1644 187.372 79.4684C186.57 76.7404 184.16 78.2694 182.338 78.8294C181.773 79.0034 181.171 79.0544 180.585 79.1614C180.609 78.5674 180.413 77.8284 180.693 77.4044C182.441 74.7554 184.667 72.2544 181.979 68.9034C181.798 68.6784 182.249 67.7984 182.58 67.3504C182.965 66.8284 183.718 66.7284 183.977 67.3714C185.19 70.3814 186.429 69.1034 187.673 67.4534C188.894 65.8344 191.245 64.5504 189.069 61.9684C187.547 60.1634 186.101 58.2584 184.892 56.2364C183.926 54.6214 185.323 54.2784 186.557 54.0564C188.096 59.4994 193 59.4324 197.072 59.8744C201.138 60.3154 204.81 61.1764 208.082 63.6124C207.443 64.7704 205.987 64.6254 205.158 65.4144C204.034 66.4844 202.733 67.5364 202.064 68.8734C201.175 70.6484 203.109 71.5334 203.942 72.7594C204.771 73.9794 204.407 75.4184 204.499 76.7704C204.434 77.0454 204.369 77.3194 204.311 77.5964C199.187 87.1184 203.882 96.6494 214.83 98.9364C223.576 100.763 224.683 102.007 224.709 110.021C223.853 112.213 225.138 114.219 225.253 116.322C225.562 121.944 223.501 123.825 218.042 122.916C216.89 122.724 215.727 122.587 214.587 122.338C213.253 122.17 212.157 121.327 210.872 121.023C209.56 120.576 208.47 121.574 207.223 121.594C202.596 120.699 198.396 117.973 193.325 118.943C187.459 120.064 185.988 122.936 188.066 128.541C189.262 131.768 188.939 135.416 191.767 138.219C193.119 139.559 191.888 141.567 190.539 142.959C186.224 147.415 181.459 148.132 175.396 145.206C173.298 143.464 171.092 142.089 168.183 143.068C167.645 143.147 167.108 143.143 166.57 143.075C162.306 142.733 160.467 139.145 157.872 136.565C158.526 135.321 160.334 134.935 159.604 132.656C158.281 128.526 159.732 126.084 163.587 124.528C164.503 124.158 165.424 123.754 166.382 123.545C169.107 122.95 170.074 121.531 168.911 118.838C168.591 118.096 168.788 117.307 169.654 116.858C171.316 116.948 170.855 118.64 171.566 119.456C172.094 120.063 172.921 121.015 173.449 120.554C176.586 117.812 181.502 118.596 184.173 115.039Z" fill="#A7D4DF"/>
<path d="M210.473 119.821C211.821 119.765 212.9 120.516 214.061 121.02C215.046 122.09 217.401 122.246 216.451 124.606C209.913 122.312 202.993 122.297 196.249 121.232C195.12 121.054 193.764 120.648 193.153 122.073C192.68 123.176 193.72 123.847 194.331 124.583C198.615 129.746 203.832 133.873 209.268 137.704C212.389 139.903 212.176 144.114 214.97 146.441C215.116 146.563 214.963 147.214 214.783 147.522C214.434 148.119 213.67 148.254 213.26 147.891C211.32 146.169 208.769 146.56 206.598 145.784C201.435 143.941 197.279 145.124 193.749 149.112C192.215 150.845 191.034 151.417 188.298 150.402C185.215 149.258 181.645 147.717 177.972 149.134C177.324 149.384 176.256 149.352 175.722 148.972C169.633 144.64 161.958 144.58 155.473 141.354C156.05 140.514 157.266 140.942 157.868 140.149H157.867C161.395 139.589 164.007 142.69 167.432 142.544V142.545C170.247 142.77 173.013 143.331 175.801 143.74C181.533 146.679 185.607 146.12 190.106 141.775C191.832 140.107 191.698 138.024 189.242 137.3C186.085 136.369 186.281 134.418 187.013 132.324C187.821 130.011 187.754 128.567 185.056 127.856C183.871 127.544 183.121 126.554 183.452 125.094C184.057 122.423 189.643 117.997 192.389 117.369C198.294 116.019 203.05 118.973 208.081 121.016C208.771 120.402 209.054 118.973 210.473 119.821Z" fill="#A0CDD9"/>
<path d="M242.753 131.779C241.154 133.889 237.502 130.356 236.358 134.179C236.071 135.137 234.992 134.13 234.502 133.636C232.802 131.923 231.15 130.185 228.407 130.582C227.059 127.422 223.315 127.858 221.234 125.8C222.167 121.907 224.75 124.076 226.665 124.455C228.765 124.87 230.601 125.262 231.184 122.479C231.683 120.101 230.805 118.952 228.307 118.473C224.444 117.731 224.837 115.487 226.85 112.98C229.204 111.181 231.486 109.412 234.838 110.16C238.136 110.896 238.907 108.861 238.778 106.044C238.59 101.929 239.023 97.8034 238.278 93.6884C237.931 91.7704 237.143 89.3064 240.361 88.7284C242.256 92.0984 242.102 95.5594 241.712 99.3604C241.088 105.437 241.807 111.611 240.373 117.689C239.439 121.649 236.67 125.114 237.403 129.609C239.501 129.859 241.675 129.24 243.161 127.701C244.638 126.171 246.053 126.997 247.532 126.993C247.135 127.791 246.737 128.589 246.34 129.388C245.215 130.291 243.674 130.57 242.753 131.779Z" fill="#9ACCD8"/>
<path d="M227.212 113.84C226.452 115.557 225.515 117.283 228.725 117.387C230.046 117.43 231.403 115.832 232.571 117.17C233.702 118.466 233.174 120.146 232.849 121.686C232.768 122.067 232.691 122.451 232.651 122.838C232.24 126.827 231.131 127.662 227.568 126.497C226.268 126.072 225.073 125.334 223.785 124.862C222.747 124.482 221.879 124.926 221.233 125.799C219.639 125.401 218.045 125.003 216.451 124.604C215.654 123.409 214.858 122.213 214.061 121.018C215.409 121.125 216.788 121.089 218.097 121.374C219.741 121.732 222.179 123.179 222.729 121.358C223.308 119.44 225.018 117.291 223.584 114.877C222.728 113.436 221.611 111.769 223.621 110.252C223.621 110.252 224.135 110.503 224.138 110.497C224.592 110.846 225.019 111.23 225.482 111.574C225.825 111.775 226.134 112.015 226.43 112.279C226.723 112.559 226.957 112.881 227.137 113.242C227.165 113.441 227.189 113.64 227.212 113.84Z" fill="#9ECFDB"/>
<path d="M161.456 167.655C156.464 169.167 151.383 170.454 146.173 170.476C143.836 170.486 141.758 169.643 141.657 173.123C141.634 173.919 140.11 174.606 140.024 174.358C138.988 171.369 134.756 171.979 133.958 168.853C134.873 169.208 136.185 170.14 136.641 169.827C140.27 167.334 144.848 169.631 148.54 167.175C150.81 165.665 153.569 164.913 156.281 166.806C157.825 167.884 159.684 167.638 161.456 167.655Z" fill="#97C4CF"/>
<path d="M157.868 140.149C157.346 141.1 156.456 141.319 155.473 141.353C153.08 140.967 150.401 142.295 148.303 140.152L148.307 140.147C149.103 139.419 149.9 139.474 150.697 140.146C153.088 140.148 155.478 140.148 157.868 140.149Z" fill="#A6D2DD"/>
<path d="M226.017 112.645C225.619 112.642 225.221 112.64 224.823 112.639C224.338 112.119 224.227 111.488 224.278 110.805C224.375 110.357 224.502 109.921 224.652 109.488C224.801 108.759 224.784 108.035 224.649 107.302C223.753 102.501 220.502 100.021 216.105 98.8334C212.557 97.8744 210.563 95.8464 210.794 92.0444C210.968 89.1844 209.53 87.2824 207.517 85.4374C205.042 83.1684 202.637 80.6504 204.498 76.7704V76.7694C206.053 75.8954 206.346 72.5034 209.276 74.3744C209.498 74.5454 209.72 74.7164 209.946 74.8834C211.124 76.7004 212.198 78.4564 214.607 79.1104C219.75 80.5064 221.468 84.7544 221.473 89.3844C221.476 92.1354 221.994 93.7804 224.286 95.2364C228.908 98.1704 230.323 102.312 228.265 107.479C227.52 107.851 229.313 108.06 228.613 107.68C228.258 107.487 228.356 107.378 228.78 107.132C229.108 106.942 229.36 106.528 229.742 106.471C236.492 105.461 236.073 105.438 236.569 98.3604C236.953 92.8834 233.316 88.1824 234.382 82.7524C235.579 82.3524 236.776 81.9524 237.973 81.5524L237.972 81.5534C238.343 81.9794 238.742 82.3774 239.167 82.7494C239.167 83.1484 239.167 83.5464 239.167 83.9454C237.964 85.9404 241.696 86.7014 240.362 88.7294C239.256 89.5354 238.951 90.7354 239.32 91.8974C241.351 98.3054 239.907 104.833 240.424 111.45C235.888 112.547 231.037 110.585 227.213 113.841L227.212 113.842C226.862 113.393 226.381 113.077 226.017 112.645Z" fill="#98CAD6"/>
<path d="M240.362 88.7284C240.245 87.0634 236.712 86.2524 239.167 83.9444C240.037 85.4214 243.098 86.3504 240.362 88.7284Z" fill="#9ACCD8"/>
<path d="M239.166 82.7494C238.768 82.3504 238.369 81.9524 237.971 81.5534C238.37 81.9514 238.768 82.3504 239.166 82.7494Z" fill="#9ACCD8"/>
<path d="M242.753 131.779C242.881 129.379 244.6 129.368 246.34 129.387C245.667 130.969 244.472 131.767 242.753 131.779Z" fill="#98C6D2"/>
<path d="M218.844 64.8134C219.24 64.8144 219.637 64.8144 220.033 64.8164C220.432 65.2144 220.83 65.6124 221.229 66.0094C222.427 69.1964 223.625 72.3834 224.823 75.5704C224.678 75.8064 224.534 76.0414 224.393 76.2804C218.982 78.6334 213.952 77.9404 209.281 74.3804L209.275 74.3744C208.962 71.1434 209.69 68.8014 213.42 67.9444C215.389 67.4924 217.453 66.5754 218.844 64.8134Z" fill="#98CAD6"/>
<path d="M228.402 75.5784C228.403 75.9764 228.403 76.3754 228.403 76.7734C227.983 77.7034 227.28 78.3834 226.254 78.0864C225.101 77.7514 224.333 76.9634 224.818 75.5774L224.823 75.5714C226.016 75.5734 227.209 75.5754 228.402 75.5784Z" fill="#98CAD6"/>
<path d="M224.818 75.5764C225.512 77.4774 226.764 77.7054 228.403 76.7734H228.405C228.838 77.1364 229.236 77.5354 229.601 77.9674C230.753 80.0034 232.345 81.6004 234.382 82.7524C238.057 89.9244 238.365 97.6314 237.966 105.445C237.756 109.561 237.672 109.58 233.615 108.178C231.573 107.472 229.434 106.577 227.71 109.736C227.028 107.686 227.322 106.265 227.576 104.769C228.208 101.037 226.663 98.3064 223.091 96.4964C219.435 94.6434 218.696 92.9614 220.24 89.1174C220.782 87.7694 220.992 86.8184 219.447 86.3424C216.556 85.4514 218.656 82.0714 216.712 80.9114C215.092 79.9444 213.023 81.2194 211.157 79.6744C209.242 78.0874 209.306 76.3494 209.281 74.3824C212.732 76.2274 216.862 74.2494 220.386 76.4564C221.316 77.0364 223.312 75.9154 224.818 75.5764Z" fill="#91C6D2"/>
<path d="M229.601 77.9664C229.203 77.5684 228.804 77.1704 228.405 76.7724C228.804 76.7724 229.202 76.7724 229.601 76.7714C229.601 77.1704 229.601 77.5684 229.601 77.9664Z" fill="#98CAD6"/>
<path d="M57.3001 156.138C57.3111 156.157 57.9081 156.781 57.7751 157.1C57.4421 157.901 56.9051 158.811 56.1931 159.178C55.8501 159.355 55.1591 158.247 55.2031 157.44C55.2481 156.597 55.7011 156.09 57.3001 156.138Z" fill="#B0D8E2"/>
<path d="M49.7811 158.266C48.6421 157.704 47.7561 156.317 48.5091 155.688C49.5511 154.818 49.9161 156.325 50.1211 157.197C50.1931 157.503 49.9101 157.891 49.7811 158.266Z" fill="#B0D8E2"/>
<path d="M57.4431 160.48C57.0451 160.081 56.6461 159.683 56.2471 159.284C56.6461 159.683 57.0441 160.082 57.4431 160.48Z" fill="#B0D8E2"/>
<path d="M108.049 150.462C108.954 150.479 109.554 151.011 109.607 151.82C109.687 153.038 108.64 153.364 107.718 153.655C106.939 153.9 106.647 153.334 106.624 152.724C106.584 151.682 106.987 150.844 108.049 150.462Z" fill="#AFD7E1"/>
<path d="M167.432 142.544C163.928 143.01 160.823 141.876 157.867 140.149C157.866 139.751 157.866 139.354 157.867 138.956C157.168 138.158 157.2 137.361 157.869 136.564H157.87C159.259 136.603 160.983 136.953 161.45 138.003C162.67 140.743 165.364 141.155 167.432 142.544Z" fill="#A6D2DD"/>
<path d="M164.512 113.33C165.175 113.513 165.687 113.95 165.527 114.58C165.254 115.656 164.349 116.098 163.295 116.1C162.688 116.101 162.003 115.865 162.373 115.058C162.782 114.163 163.445 113.437 164.512 113.33Z" fill="#B4DBE5"/>
<path d="M157.506 113.112C156.865 113.691 156.113 113.872 155.351 113.485C154.722 113.165 154.553 112.507 155.148 112.079C155.884 111.55 156.6 112.187 157.329 112.395C157.965 112.578 158.052 112.721 157.506 113.112Z" fill="#B4DBE5"/>
<path d="M157.869 136.564C157.868 137.361 157.868 138.159 157.867 138.956C156.67 138.158 156.666 137.361 157.869 136.564Z" fill="#A7D4DF"/>
<path d="M150.698 140.147C149.901 140.147 149.104 140.147 148.308 140.148C148.307 139.749 148.307 139.351 148.308 138.952C149.288 138.982 150.173 139.205 150.698 140.147Z" fill="#A7D4DF"/>
<path d="M181.795 85.1474C182.97 85.7144 184.214 86.2234 185.512 88.1024C183.02 87.6984 181.854 87.0944 181.795 85.1474Z" fill="#B4DBE5"/>
<path d="M181.78 85.1404L181.298 84.8744L181.513 84.6584L181.78 85.1404Z" fill="#B4DBE5"/>
<path d="M204.497 76.7714C203.825 79.6554 207.346 80.9724 207.087 83.7014C210.177 82.9354 209.686 85.5574 210.849 86.9694C212.495 88.9684 212.305 90.5664 212.14 92.5094C211.926 95.0354 212.715 96.7814 215.448 97.0514C216.854 97.1904 217.86 97.9614 219.052 98.5504C223.545 100.771 224.843 104.806 226.016 109.057C225.593 109.431 225.191 109.827 224.821 110.253V110.254C224.424 110.793 224.027 110.821 223.628 110.255L223.624 110.251C223.092 102.475 222.617 101.942 215.338 100.641C213.595 100.33 211.888 99.6504 210.143 99.5624C207.613 99.4344 206.034 98.5174 205.5 95.9214C205.352 95.2024 204.846 94.3604 204.248 93.9614C199.459 90.7754 200.964 85.6724 200.434 81.2724C200.118 78.6654 202.493 77.7034 204.497 76.7714Z" fill="#9ECFDB"/>
<path d="M175.802 143.739C172.675 145.7 170.012 144.419 167.433 142.544C170.562 140.412 171.281 140.515 175.802 143.739Z" fill="#A6D2DD"/>
<path d="M210.473 119.821C209.676 120.219 208.878 120.617 208.081 121.016C208.328 119.515 208.581 118.025 210.473 119.821Z" fill="#9ECFDB"/>
<path d="M223.627 110.257C224.024 110.255 224.422 110.255 224.82 110.256C224.821 111.051 224.822 111.846 224.823 112.641C223.872 112.122 223.653 111.238 223.627 110.257Z" fill="#9ACCD8"/>
</svg>
