<svg width="148" height="144" viewBox="0 0 148 144" fill="none" xmlns="http://www.w3.org/2000/svg">
<path fill-rule="evenodd" clip-rule="evenodd" d="M72.6259 135.073C78.4969 135.073 83.2859 132.496 83.2859 129.337C83.2859 126.178 78.4969 123.601 72.6259 123.601C66.7549 123.601 61.9659 126.178 61.9659 129.337C61.9649 132.497 66.7539 135.073 72.6259 135.073Z" fill="#D4DFE6"/>
<path opacity="0.5" fill-rule="evenodd" clip-rule="evenodd" d="M69.6319 124.424C72.8039 124.424 75.3749 125.807 75.3749 127.514C75.3749 129.221 72.8039 130.604 69.6319 130.604C66.4599 130.604 63.8889 129.221 63.8889 127.514C63.8889 125.808 66.4599 124.424 69.6319 124.424Z" fill="white"/>
<path fill-rule="evenodd" clip-rule="evenodd" d="M143.288 63.5035C139.211 62.1015 133.971 62.2035 132.431 64.9035C129.317 70.3645 139.749 77.2005 128.154 79.5085C123.838 80.3675 129.218 68.2875 125.05 69.7065C120.883 71.1255 117.826 82.3265 111.663 76.5175C105.5 70.7095 116.516 68.3895 122.424 64.3035C128.332 60.2165 113.13 54.5525 123.079 49.4115C133.028 44.2715 125.651 59.6985 131.405 58.4195C136.718 57.2385 138.984 56.7335 145.183 59.2745C148.78 60.7505 146.731 64.6875 143.288 63.5035Z" fill="#FFE0A3"/>
<path fill-rule="evenodd" clip-rule="evenodd" d="M71.2349 25.7325C70.0839 21.5765 67.0359 17.3145 63.9369 17.5725C57.6729 18.0945 57.9389 30.5645 49.4749 22.3095C46.3239 19.2365 59.3289 16.8375 55.8009 14.2045C52.2729 11.5705 41.3079 15.3885 42.6099 7.02046C43.9119 -1.34754 52.0569 6.42347 58.7689 8.98247C65.4809 11.5415 61.5499 -4.19852 71.4179 1.09648C81.2859 6.39148 64.3909 9.03748 68.7019 13.0575C72.6819 16.7695 74.3799 18.3525 75.7929 24.9015C76.6129 28.7025 72.2079 29.2415 71.2349 25.7325Z" fill="#F9A653"/>
<path fill-rule="evenodd" clip-rule="evenodd" d="M79.3309 93.8814C71.5609 98.0394 71.8469 81.1595 66.3749 77.7015C60.9029 74.2435 51.0369 76.4665 48.1509 81.2915C45.2659 86.1175 56.1289 98.1905 46.5529 99.6335C36.9769 101.076 40.6259 95.1475 40.6019 90.7445C40.5769 86.3415 23.6619 95.8175 25.3039 86.6635C26.9459 77.5095 36.3229 88.8035 38.9599 81.9135C41.5969 75.0235 28.4389 77.9085 31.1509 72.2375C33.8629 66.5665 38.3139 75.3475 43.7869 72.8105C49.2599 70.2735 55.0719 67.7184 61.0789 68.4634C67.3989 69.2464 61.0019 56.2205 51.9729 52.6135C42.9439 49.0065 56.7719 63.0865 48.6389 62.1155C40.5059 61.1445 47.4949 51.4194 43.9389 51.2694C40.3819 51.1204 41.1269 63.3094 32.3469 61.7654C23.5669 60.2224 31.1289 55.8454 37.1239 49.8514C43.1189 43.8564 24.6369 39.7265 21.9259 45.3975C19.2139 51.0685 30.1129 57.1345 18.7139 60.2735C14.4709 61.4415 18.9649 49.0045 14.9109 50.7205C10.8569 52.4355 8.61586 63.8285 2.04986 58.4805C-4.51614 53.1325 6.30386 50.0235 11.9009 45.5215C17.4979 41.0195 1.92786 36.4665 11.4789 30.6215C21.0309 24.7765 14.7859 40.6965 20.4329 39.0055C26.0799 37.3145 28.3439 36.3194 35.8799 39.5285C43.4169 42.7375 38.7419 30.3005 36.6269 27.7385C34.5129 25.1765 26.8979 38.8305 22.9239 29.9055C20.3539 24.1325 27.1989 25.6225 30.7069 22.9615C34.2149 20.3005 16.9269 17.6875 24.9869 11.4445C33.0469 5.20147 34.5139 13.1865 35.6579 17.8875C36.8019 22.5885 46.2989 22.5015 48.2109 17.0335C51.3989 7.91946 60.6569 18.5604 54.2389 21.6444C47.8209 24.7284 43.8169 29.2555 45.2089 36.0215C46.6009 42.7875 43.9679 36.7434 51.6539 42.3904C59.3399 48.0374 50.1499 33.1655 59.0609 35.7415C66.5619 37.9095 56.6249 42.6635 61.2019 49.4795C65.7779 56.2955 68.4889 62.6135 70.1809 56.2705C71.8729 49.9285 75.7539 35.3775 71.4759 33.4365C67.1979 31.4955 56.0479 32.1354 61.0879 24.8214C64.7889 19.4514 66.5269 26.5204 71.0789 28.9334C75.6309 31.3464 76.1369 17.5945 69.9029 15.8525C61.4899 13.4995 68.3209 1.82045 74.2149 8.18845C80.1099 14.5565 79.2139 17.9144 79.4869 24.3814C79.7599 30.8484 84.7359 12.1945 89.0389 18.5375C93.3419 24.8805 86.0369 24.4464 82.1979 30.7004C79.1889 35.6014 77.8909 39.3755 78.9109 44.8435C79.8349 49.7935 87.6509 29.9245 91.5989 40.4025C94.6319 48.4485 86.4419 46.6645 81.3829 49.6895C76.9049 52.3675 75.1579 55.8335 75.8299 60.8075C76.5009 65.7825 86.5949 55.1325 87.8409 60.1605C90.3319 70.2165 72.0209 66.6614 75.4039 71.9594C78.7859 77.2574 86.5109 90.0394 79.3309 93.8814Z" fill="#FFCC66"/>
<path fill-rule="evenodd" clip-rule="evenodd" d="M80.4219 112.948C89.1659 114.046 82.8499 98.3894 86.7199 93.2004C90.5899 88.0114 100.597 86.5515 105.02 90.0225C109.443 93.4935 103.627 108.658 113.084 106.573C122.541 104.488 117.01 100.261 115.455 96.1425C113.9 92.0235 133.088 94.8084 128.274 86.8514C123.461 78.8944 118.753 92.7985 113.823 87.3105C108.892 81.8225 122.21 79.8005 117.646 75.4785C113.082 71.1555 112.073 80.9485 106.055 80.5415C100.036 80.1345 93.6949 79.8315 88.3539 82.6795C82.7339 85.6755 84.0389 71.2214 91.1759 64.6184C98.3129 58.0154 90.4479 76.1155 97.6929 72.2945C104.938 68.4735 94.9279 61.8985 98.1949 60.4845C101.462 59.0705 105.135 70.7165 112.778 66.1295C120.422 61.5425 111.794 60.1655 104.049 56.7175C96.3039 53.2695 112.079 42.7905 116.643 47.1135C121.207 51.4365 113.205 61.0045 124.971 59.8505C129.351 59.4205 120.699 49.4205 125.099 49.5695C129.499 49.7185 135.672 59.5515 139.886 52.2055C144.1 44.8595 132.884 45.8355 126.046 43.6375C119.207 41.4405 132.113 31.6105 121.1 29.5765C110.088 27.5425 121.622 40.1665 115.745 40.6115C109.867 41.0555 107.397 40.9385 101.511 46.6355C95.6249 52.3325 95.5329 39.0455 96.5889 35.8955C97.6449 32.7455 109.647 42.7645 110.159 33.0085C110.49 26.6985 104.633 30.5425 100.405 29.3145C96.1769 28.0875 111.38 19.4525 101.619 16.5125C91.8569 13.5725 93.3489 21.5525 93.9659 26.3505C94.5829 31.1495 85.6849 34.4705 81.9409 30.0515C75.6999 22.6855 70.8689 35.9375 77.9659 36.5165C85.0619 37.0955 90.4239 39.8875 91.5479 46.7035C92.6719 53.5195 92.9639 46.9335 87.8129 54.9585C82.6609 62.9845 85.9119 45.8075 78.5149 51.4055C72.2889 56.1175 83.2689 56.9955 81.4389 64.9985C79.6089 73.0015 79.3419 79.8715 75.4899 74.5565C71.6379 69.2415 62.7999 57.0465 66.0989 53.7025C69.3979 50.3575 80.0369 46.9594 72.7109 41.9374C67.3319 38.2504 68.2419 45.4725 64.8569 49.3565C61.4719 53.2405 56.0719 40.5825 61.2679 36.7215C68.2789 31.5115 57.7169 23.0545 54.4959 31.1125C51.2739 39.1695 53.3139 41.9835 55.3759 48.1195C57.4379 54.2555 46.1089 38.6225 44.3639 46.0855C42.6199 53.5495 49.2849 50.5264 55.1089 54.9894C59.6739 58.4874 62.2379 61.5454 63.2449 67.0154C64.1569 71.9674 49.7399 56.2185 49.8079 67.4155C49.8599 76.0135 56.8659 71.4135 62.6729 72.4255C67.8129 73.3205 70.6849 75.9305 71.8409 80.8155C72.9969 85.7005 59.7569 79.3754 60.3959 84.5154C61.6739 94.7964 77.4949 84.9165 76.2359 91.0745C74.9749 97.2335 72.3419 111.934 80.4219 112.948Z" fill="#F9A653"/>
<path fill-rule="evenodd" clip-rule="evenodd" d="M58.7919 127.118C52.7719 120.682 69.1549 116.608 71.0859 110.43C73.0169 104.251 68.3259 95.2925 62.9199 93.7475C57.5139 92.2035 48.6479 105.811 44.7859 96.9304C40.9239 88.0494 47.5929 90.0475 51.8409 88.8885C56.0889 87.7305 42.5729 73.8285 51.8409 73.0565C61.1089 72.2845 52.6129 84.2555 59.9499 85.0265C67.2869 85.7985 61.1089 73.8285 67.2869 74.9875C73.4659 76.1455 66.1289 82.7094 69.9899 87.3434C73.8519 91.9774 77.8179 96.9354 78.6469 102.93C79.5199 109.238 90.4569 99.7004 91.6149 90.0464C92.7739 80.3924 82.7329 97.3825 81.5749 89.2735C80.4159 81.1645 91.6149 85.4115 90.8419 81.9365C90.0699 78.4615 78.4839 82.3225 77.7129 73.4415C76.9409 64.5605 83.1199 70.7384 90.4569 74.9864C97.7939 79.2334 97.0209 60.3124 90.8429 59.1534C84.6649 57.9954 81.6129 70.0885 75.6419 59.8845C73.4199 56.0865 86.5939 57.2225 83.8919 53.7475C81.1889 50.2725 69.6049 51.0444 73.0799 43.3214C76.5549 35.5984 82.3469 45.2525 88.1399 49.5005C93.9329 53.7485 94.3189 37.5304 102.428 45.2524C110.537 52.9754 93.5459 51.0445 96.6349 56.0645C99.7239 61.0845 101.269 63.0154 100.111 71.1244C98.9529 79.2334 109.765 71.5115 111.696 68.8075C113.627 66.1045 98.4709 62.2655 106.07 56.1265C110.986 52.1555 111.31 59.1534 114.785 61.8564C118.26 64.5594 116.329 47.1824 124.439 53.3614C132.548 59.5404 125.211 63.0154 120.964 65.3314C116.716 67.6484 119.249 76.8024 125.024 77.2404C134.651 77.9714 126.756 89.6594 122.122 84.2534C117.488 78.8474 112.082 76.1445 105.903 79.2335C99.7239 82.3235 104.886 78.2214 101.41 87.1024C97.9349 95.9834 109.935 83.2714 109.744 92.5454C109.582 100.352 102.428 91.9764 97.0219 98.1544C91.6159 104.333 86.2099 108.58 92.7739 108.58C99.3379 108.58 114.398 108.579 115.171 103.946C115.943 99.3124 112.452 88.7044 120.817 91.6884C126.959 93.8794 120.577 97.3815 119.419 102.401C118.26 107.421 131.678 104.365 131.755 97.8935C131.859 89.1585 144.905 92.7474 140.271 100.084C135.638 107.421 132.162 107.421 125.984 109.352C119.806 111.283 139.112 111.282 134.093 117.075C129.073 122.868 127.609 115.697 120.578 113.6C115.067 111.956 111.085 111.675 106.065 114.07C101.521 116.238 122.733 118.669 113.627 125.185C106.635 130.189 106.248 121.816 102.021 117.707C98.2799 114.07 94.4809 113.276 89.8469 115.207C85.2139 117.138 98.1049 124.146 93.5679 126.646C84.4929 131.644 83.2089 113.036 78.9619 117.67C74.7129 122.307 64.3549 133.066 58.7919 127.118Z" fill="#FFCC66"/>
<path fill-rule="evenodd" clip-rule="evenodd" d="M48.3169 108.34C44.7629 105.898 39.6869 104.595 37.4809 106.786C33.0199 111.215 41.2439 120.592 29.4539 119.715C25.0659 119.388 33.4799 109.187 29.0849 109.44C24.6899 109.692 18.7489 119.668 14.3639 112.423C9.97886 105.178 21.2139 105.89 27.9989 103.532C34.7839 101.174 21.6509 91.6505 32.6129 89.3585C43.5739 87.0665 32.3399 99.9585 38.2259 100.264C43.6609 100.547 45.9789 100.667 51.2729 104.773C54.3459 107.155 51.3189 110.401 48.3169 108.34Z" fill="#F9A653"/>
<path fill-rule="evenodd" clip-rule="evenodd" d="M63.7469 128.927C71.4759 127.002 61.0479 115.862 62.6179 110.226C64.1889 104.59 72.1499 100.097 77.0099 101.581C81.8699 103.065 81.9109 117.745 89.2039 112.905C96.4969 108.065 90.4559 106.304 87.8019 103.338C85.1479 100.372 102.232 96.4664 95.5799 91.3264C88.9279 86.1874 89.4919 99.4434 83.5459 96.4244C77.5999 93.4054 88.1689 87.3594 82.9119 85.2024C77.6549 83.0454 79.9969 91.6304 74.7899 93.2494C69.5839 94.8684 64.1379 96.6804 60.5639 100.822C56.8029 105.179 53.1919 92.5694 57.0559 84.6764C60.9199 76.7834 60.1899 94.6065 65.0529 89.0235C69.9159 83.4405 59.3329 81.1614 61.6259 78.9034C63.9199 76.6464 70.8119 85.2674 75.7609 78.9084C80.7099 72.5494 72.9869 74.2015 65.3339 73.8195C57.6809 73.4375 67.5629 59.4615 72.8199 61.6175C78.0769 63.7745 74.4499 74.4485 83.9939 69.6395C87.5459 67.8495 76.9919 62.2394 80.7499 60.9304C84.5079 59.6214 92.9179 65.8985 94.0749 58.3325C95.2329 50.7665 86.0949 55.2445 79.6139 55.6215C73.1319 55.9985 80.8079 43.5045 70.8609 45.3795C60.9139 47.2545 74.7539 54.1375 69.9439 56.4285C65.1339 58.7195 63.0129 59.4254 59.9079 66.1464C56.8029 72.8684 52.3939 61.6964 52.2569 58.6974C52.1199 55.6974 65.5039 60.2314 62.7549 51.8404C60.9769 46.4124 57.2919 51.5625 53.3279 51.9065C49.3629 52.2505 59.3649 40.0144 50.1779 40.7184C40.9899 41.4214 44.8489 47.6634 46.9329 51.5074C49.0169 55.3514 42.5989 61.0524 38.0019 58.5474C30.3389 54.3714 30.5869 67.1185 36.7579 65.2935C42.9289 63.4685 48.3589 64.0745 51.5289 69.4535C54.6989 74.8325 52.7979 69.1855 51.0709 77.6305C49.3439 86.0755 46.4849 70.5355 42.0739 77.6655C38.3619 83.6675 47.9039 80.8284 48.9699 88.1714C50.0359 95.5154 52.0499 101.393 47.0699 98.1685C42.0899 94.9435 30.6639 87.5444 32.3549 83.6494C34.0459 79.7544 41.9069 73.4214 34.0939 71.5764C28.3569 70.2214 31.4789 76.0134 29.8909 80.3914C28.3039 84.7694 19.6249 75.8585 22.7469 70.9105C26.9589 64.2325 15.2979 60.5465 15.2089 68.3895C15.1199 76.2325 17.7569 77.9395 21.4949 82.4405C25.2339 86.9405 10.5869 77.4545 11.5489 84.3155C12.5109 91.1765 17.1449 86.4554 23.5099 88.3184C28.4989 89.7784 31.6579 91.5214 34.2899 95.8044C36.6729 99.6824 19.3849 91.1045 23.0919 100.522C25.9379 107.754 30.3459 101.591 35.5709 100.551C40.1959 99.6304 43.4679 100.894 46.0349 104.635C48.6019 108.376 35.3779 107.36 37.5929 111.485C42.0219 119.735 52.1389 106.249 53.0839 111.851C54.0309 117.455 56.6029 130.706 63.7469 128.927Z" fill="#FFE0A3"/>
<path d="M56.2199 138.375C63.8673 138.375 70.0669 135.04 70.0669 130.924C70.0669 126.809 63.8673 123.473 56.2199 123.473C48.5724 123.473 42.3729 126.809 42.3729 130.924C42.3729 135.04 48.5724 138.375 56.2199 138.375Z" fill="#BECBD3"/>
<path opacity="0.5" fill-rule="evenodd" clip-rule="evenodd" d="M52.3319 124.541C56.4519 124.541 59.7919 126.338 59.7919 128.555C59.7919 130.772 56.4519 132.569 52.3319 132.569C48.2119 132.569 44.8719 130.772 44.8719 128.555C44.8719 126.339 48.2119 124.541 52.3319 124.541Z" fill="white"/>
<path fill-rule="evenodd" clip-rule="evenodd" d="M81.6819 143.996C85.2929 143.996 88.2379 142.411 88.2379 140.468C88.2379 138.525 85.2929 136.941 81.6819 136.941C78.0709 136.941 75.1269 138.526 75.1269 140.468C75.1259 142.411 78.0709 143.996 81.6819 143.996Z" fill="#D4DFE6"/>
<path opacity="0.5" fill-rule="evenodd" clip-rule="evenodd" d="M79.8409 137.447C81.7919 137.447 83.3719 138.298 83.3719 139.347C83.3719 140.397 81.7909 141.247 79.8409 141.247C77.8909 141.247 76.3089 140.396 76.3089 139.347C76.3099 138.298 77.8909 137.447 79.8409 137.447Z" fill="white"/>
</svg>
