<svg width="183" height="161" viewBox="0 0 183 161" fill="none" xmlns="http://www.w3.org/2000/svg">
<path fill-rule="evenodd" clip-rule="evenodd" d="M154.516 96.9844C162.332 97.7954 170.231 93.5284 173.668 87.2944C177.395 80.5364 186.711 87.5444 180.888 94.8034C175.855 101.077 161.3 102.34 151.728 99.6594C151.205 99.5134 150.81 99.5114 150.503 99.9894C148.839 102.582 146.168 106.402 144.359 108.762C143.528 109.847 143.303 110.956 146.614 109.748C149.251 108.786 152.33 112.431 149.141 115.732C146.727 118.23 141.403 118.818 136.584 118.093C136.202 118.036 135.853 118.151 135.567 118.427C121.87 131.643 105.435 139.068 88.0135 139.26C78.9705 139.36 69.5795 137.505 60.5975 133.519C60.2015 133.343 59.7865 133.385 59.4275 133.636C52.1675 138.72 41.0385 140.931 35.4455 136.848C28.9655 132.117 35.3825 123.887 39.9785 128.707C43.0315 131.909 47.6585 132.801 52.4025 131.979C53.5795 131.775 55.5815 130.922 52.8205 129.46C49.2225 127.554 45.9335 124.872 42.6935 122.035C42.3795 121.76 42.0005 121.667 41.6075 121.767C35.0805 123.422 26.3435 122.886 22.9215 119.109C18.5495 114.284 24.8065 108.941 27.6885 113.511C29.5905 116.527 32.8665 118.786 36.5525 119.493C37.7715 119.727 39.6135 119.25 38.7295 118.318C35.6125 115.031 31.6075 110.23 28.9135 106.158C28.6605 105.775 28.2775 105.572 27.8405 105.589C17.2585 105.999 4.54353 101.085 0.93853 93.1874C-3.34047 83.8154 8.27453 79.1814 10.4725 87.4074C11.9535 92.9494 16.5355 96.9994 22.2265 99.2234C23.3185 99.6504 24.9625 99.9464 24.1805 98.1614C22.3035 93.8744 19.7565 88.6534 18.1225 83.8274C17.9705 83.3784 17.6425 83.0694 17.2085 82.9674C10.9655 81.4904 3.70853 77.1974 2.20553 72.4564C0.27253 66.3604 7.71853 64.5054 8.46253 69.7244C8.98053 73.3614 10.9905 77.2234 14.3295 79.1664C17.7245 81.1424 16.1195 77.2814 15.8195 76.1394C11.7665 60.6924 25.4515 54.0074 28.3215 70.6484C28.6285 72.4304 28.9375 74.1964 29.3805 75.9084C30.2105 79.1174 31.6385 77.2454 31.8505 75.7914C32.0895 74.1484 31.9875 72.5884 31.4195 71.3054C29.6865 67.3904 35.5425 64.9624 36.8425 70.0624C37.7635 73.6704 35.2895 79.3854 32.1185 83.4724C31.8225 83.8534 31.7445 84.3384 31.9025 84.8044C35.6725 95.9314 41.3675 105.612 48.3455 113.495C49.1535 114.408 50.5535 115.222 50.5185 112.483C50.4745 109.036 49.2945 105.756 47.2535 104.207C43.9575 101.707 47.9555 96.5074 51.4145 100.269C54.2905 103.396 54.4065 111.527 52.8155 117.074C52.6655 117.597 52.8075 118.133 53.1905 118.493C59.2885 124.223 66.1365 128.719 73.3915 131.791C74.6895 132.34 76.1205 132.079 75.0825 131.074C66.4515 122.72 58.1255 110.568 51.3125 96.5154C51.1025 96.0804 50.7235 95.8174 50.2685 95.7884C44.9165 95.4494 38.0715 92.6474 36.3265 88.7684C34.1845 84.0064 40.0805 81.6964 41.1715 85.8704C41.7845 88.2154 43.9265 90.2034 46.5255 91.5514C47.0145 91.8054 47.5715 91.7054 47.9585 91.2964C48.3455 90.8874 48.4465 90.2894 48.2175 89.7604C44.9245 82.1364 42.0945 74.0764 39.9015 65.8474C39.7845 65.4064 39.4985 65.0844 39.0945 64.9374C29.1535 61.3134 19.0455 52.1374 18.1955 43.5064C17.1725 33.1244 29.5615 33.0594 28.9975 41.5964C28.6445 46.9334 31.2105 52.0484 35.2835 56.1054C36.1825 57.0004 38.0905 58.8254 37.3765 54.8384C36.3965 49.3714 35.8745 43.8804 35.2045 38.4944C33.5035 24.8234 50.7155 22.1694 50.7665 37.3624C50.8035 48.3794 51.8685 58.6934 53.6235 68.2204C54.1655 71.1654 55.6195 69.7014 56.0485 68.4094C57.2675 64.7284 57.3995 60.9484 55.9625 57.6954C53.2075 51.4614 62.5305 47.6024 64.5965 55.7234C66.1845 61.9664 61.9545 71.0554 56.1865 77.0204C55.8455 77.3734 55.7205 77.8614 55.8445 78.3524C56.7285 81.8474 57.7075 85.2154 58.7605 88.4504C58.9585 89.0584 59.5085 89.4264 60.1035 89.3484C60.6985 89.2704 61.1505 88.7714 61.2065 88.1304C61.3865 86.0804 61.1255 84.1634 60.2515 82.7404C58.0285 79.1234 63.5115 75.8424 65.4615 80.6984C66.9415 84.3854 64.8645 91.0604 61.9335 95.6524C61.6835 96.0454 61.6395 96.5084 61.8115 96.9474C66.3725 108.527 71.8275 118.034 77.1405 125.132C78.0495 126.346 79.6085 126.432 79.0445 124.995C70.6405 103.614 65.4965 69.7324 66.3675 40.1214C66.3805 39.6854 66.2185 39.3044 65.9035 39.0284C57.7585 31.8974 51.2615 19.4804 53.2785 11.0664C55.7015 0.956417 67.3285 5.55641 64.0185 13.3404C62.0875 17.8824 62.6015 23.1994 64.7055 28.2244C65.2335 29.4844 66.8275 30.7184 66.9565 29.3434C67.6285 22.1864 68.8725 13.9214 70.4245 7.90941C74.2605 -6.95159 90.0605 1.57742 84.2075 13.4424C79.7085 22.5634 76.9385 35.1744 75.8695 47.2154C75.7705 48.3284 77.1485 47.7634 78.0365 47.1824C83.6755 43.4974 86.5565 36.4504 85.8685 30.3554C85.1305 23.8214 94.6475 23.3614 94.2315 31.3774C93.8615 38.5124 84.2615 47.6624 76.5015 50.9044C76.0285 51.1014 75.7255 51.5524 75.6995 52.0964C75.4045 58.1934 75.3915 64.4204 75.7545 70.5914C75.9215 73.4334 77.4605 72.3594 78.0975 71.2124C79.8475 68.0574 80.2205 64.2214 79.2295 61.0954C77.8435 56.7264 84.3135 54.9304 85.1075 60.4964C85.7615 65.0824 81.2205 72.0824 76.6635 75.8204C76.3105 76.1104 76.1345 76.5384 76.1725 77.0134C77.9715 99.5554 83.1105 120.616 88.2825 131.475C88.7305 132.416 89.2905 132.47 89.8065 131.568C92.5335 126.795 95.2095 119.721 97.4395 111.259C97.5865 110.7 97.4015 110.131 96.9635 109.791C87.7945 102.68 80.2265 86.8494 83.4005 77.4524C86.7155 67.6394 97.8775 73.4174 93.8875 80.8244C90.3335 87.4224 92.2885 96.4084 97.0735 103.682C97.7055 104.642 98.8135 105.305 99.0525 104.158C101.068 94.4894 102.741 82.6304 103.048 71.5554C103.062 71.0404 102.827 70.5904 102.409 70.3364C95.9645 66.4104 88.8955 57.9984 89.0905 51.9194C89.3215 44.6974 97.8185 45.9404 96.6645 51.7314C95.7135 56.5044 97.2855 61.7064 100.968 65.4124C101.782 66.2314 103.11 66.7854 103.091 65.5874C102.849 50.5004 100.427 34.3084 94.6735 22.0114C89.0595 10.0124 106.662 2.85042 110.202 17.7964C110.95 20.9564 112.414 19.7734 112.766 18.3254C113.391 15.7614 113.352 13.0904 112.649 10.7534C111.137 5.73041 118.566 3.80141 119.381 10.1814C119.936 14.5254 116.406 20.6864 112.188 25.0574C111.881 25.3754 111.751 25.7964 111.818 26.2484C113.106 34.8544 113.52 45.2254 113.185 54.6584C113.163 55.2694 114.154 56.3224 115.538 54.2034C116.842 52.2064 116.976 49.6024 116.723 47.3614C116.195 42.6884 123.003 42.3584 122.706 48.0924C122.492 52.2134 117.974 57.2734 113.321 60.2914C112.962 60.5244 112.749 60.8934 112.716 61.3424C111.131 82.4064 106.282 103.696 100.263 120.028C99.2725 122.714 100.268 124.023 101.117 122.671C106.782 113.655 112.906 101.31 117.798 87.7434C117.949 87.3254 117.908 86.8934 117.68 86.5164C114.862 81.8404 112.967 75.6894 114.291 72.0644C115.796 67.9484 119.784 69.0904 120.338 71.6754C120.63 73.0364 121.481 75.8584 121.927 74.5464C124.872 65.8674 126.644 54.0024 127.094 45.3974C127.119 44.9184 126.929 44.4944 126.565 44.2164C121.224 40.1344 115.786 32.3344 116.364 27.0704C117.067 20.6744 124.529 22.4524 123.105 27.5054C122.066 31.1904 122.676 35.6584 124.894 39.2244C125.594 40.3504 127.251 41.2004 127.221 39.8464C127.193 38.6004 127.12 35.9554 127.035 34.7324C126.113 21.3384 141.323 19.4384 141.698 35.3054C141.838 41.2244 141.377 47.3534 140.34 53.5324C139.84 56.5154 141.523 55.6284 142.416 54.7834C146.467 50.9494 148.91 45.5104 149.109 40.2664C149.407 32.4184 160.701 33.8374 158.78 43.1964C157.354 50.1404 148.122 57.4094 139.457 60.9214C139.058 61.0834 138.783 61.4144 138.679 61.8594C132.318 89.0274 116.908 116.117 101.43 130.997C100.383 132.003 101.875 132.639 103.176 132.074C116.162 126.438 126.707 116.201 134.781 103.487C135.056 103.054 135.271 102.941 135.036 102.482C132.439 97.4054 130.823 89.0734 133.025 85.3944C135.687 80.9464 140.598 85.1464 137.854 88.3244C136.248 90.1844 135.7 93.3824 136.179 96.5864C136.593 99.3594 137.916 98.2274 138.522 97.1034C140.548 93.3524 142.383 89.4354 144.023 85.3994C144.197 84.9714 144.164 84.5184 143.93 84.1264C140.626 78.5834 138.405 70.9944 140.123 66.7124C142.496 60.7984 149.175 64.7924 146.468 69.1984C145.1 71.4254 144.144 74.8914 144.87 78.4454C145.166 79.8964 146.455 78.9614 146.923 77.5634C147.731 75.1504 148.475 72.7064 149.153 70.2414C152.639 57.5744 167.552 62.3144 162.475 75.8264C159.902 82.6744 156.462 89.7804 153.112 95.6554C152.625 96.5064 153.585 96.8884 154.516 96.9844Z" fill="#FF85A6"/>
<path fill-rule="evenodd" clip-rule="evenodd" d="M158.352 64.1394C162.182 65.3354 163.656 69.7274 161.644 70.6314C160.566 71.1144 160.084 69.2304 157.761 69.4864C155.862 69.6964 156.428 71.9534 154.48 71.8484C152.353 71.7344 151.637 69.2524 152.25 66.9854C152.904 64.5654 155.636 63.2914 158.352 64.1394Z" fill="#FCA6BD"/>
<path fill-rule="evenodd" clip-rule="evenodd" d="M179.056 85.9834C181.78 86.8344 182.828 89.9584 181.397 90.6004C180.63 90.9434 180.288 89.6044 178.636 89.7864C177.285 89.9354 177.688 91.5404 176.302 91.4664C174.789 91.3854 174.28 89.6194 174.716 88.0074C175.182 86.2864 177.125 85.3804 179.056 85.9834Z" fill="#FCA6BD"/>
<path fill-rule="evenodd" clip-rule="evenodd" d="M148.315 110.509C149.921 111.01 150.538 112.852 149.695 113.23C149.243 113.432 149.041 112.643 148.067 112.75C147.271 112.838 147.508 113.784 146.691 113.74C145.799 113.692 145.499 112.651 145.756 111.701C146.031 110.688 147.176 110.153 148.315 110.509Z" fill="#FCA6BD"/>
<path fill-rule="evenodd" clip-rule="evenodd" d="M136.523 84.1454C138.129 84.6474 138.746 86.4884 137.903 86.8664C137.451 87.0694 137.249 86.2794 136.275 86.3864C135.479 86.4744 135.716 87.4204 134.899 87.3764C134.007 87.3284 133.707 86.2874 133.964 85.3374C134.239 84.3244 135.385 83.7904 136.523 84.1454Z" fill="#FCA6BD"/>
<path fill-rule="evenodd" clip-rule="evenodd" d="M144.324 64.5304C146.058 65.0724 146.725 67.0604 145.814 67.4694C145.326 67.6874 145.108 66.8354 144.056 66.9514C143.196 67.0464 143.453 68.0684 142.57 68.0214C141.607 67.9694 141.283 66.8464 141.561 65.8194C141.857 64.7234 143.094 64.1464 144.324 64.5304Z" fill="#FCA6BD"/>
<path fill-rule="evenodd" clip-rule="evenodd" d="M135.876 25.8304C139.706 27.0264 141.18 31.4184 139.168 32.3214C138.091 32.8044 137.608 30.9214 135.285 31.1764C133.386 31.3854 133.952 33.6424 132.004 33.5384C129.877 33.4244 129.162 30.9424 129.775 28.6754C130.429 26.2564 133.16 24.9824 135.876 25.8304Z" fill="#FCA6BD"/>
<path fill-rule="evenodd" clip-rule="evenodd" d="M155.117 36.3614C157.711 37.1714 158.709 40.1454 157.346 40.7574C156.616 41.0844 156.29 39.8094 154.717 39.9824C153.431 40.1244 153.814 41.6524 152.495 41.5824C151.055 41.5054 150.57 39.8244 150.985 38.2894C151.429 36.6504 153.279 35.7874 155.117 36.3614Z" fill="#FCA6BD"/>
<path fill-rule="evenodd" clip-rule="evenodd" d="M120.581 23.7934C122.429 24.3704 123.139 26.4884 122.169 26.9244C121.649 27.1574 121.417 26.2494 120.296 26.3724C119.38 26.4734 119.653 27.5624 118.713 27.5114C117.687 27.4564 117.342 26.2594 117.638 25.1664C117.954 23.9984 119.271 23.3834 120.581 23.7934Z" fill="#FCA6BD"/>
<path fill-rule="evenodd" clip-rule="evenodd" d="M116.359 7.1544C118.206 7.7314 118.917 9.8494 117.946 10.2854C117.426 10.5184 117.194 9.6104 116.073 9.7334C115.157 9.8344 115.43 10.9234 114.49 10.8724C113.464 10.8174 113.119 9.6204 113.415 8.5274C113.732 7.3604 115.05 6.7464 116.359 7.1544Z" fill="#FCA6BD"/>
<path fill-rule="evenodd" clip-rule="evenodd" d="M102.896 11.2714C107.089 12.5804 108.702 17.3884 106.499 18.3774C105.319 18.9064 104.792 16.8444 102.249 17.1244C100.17 17.3534 100.79 19.8244 98.6565 19.7104C96.3285 19.5854 95.5445 16.8684 96.2155 14.3874C96.9325 11.7374 99.9225 10.3434 102.896 11.2714Z" fill="#FCA6BD"/>
<path fill-rule="evenodd" clip-rule="evenodd" d="M93.6385 47.8844C95.4855 48.4614 96.1965 50.5794 95.2265 51.0154C94.7065 51.2484 94.4745 50.3404 93.3535 50.4634C92.4375 50.5644 92.7105 51.6524 91.7705 51.6024C90.7445 51.5474 90.3995 50.3504 90.6955 49.2564C91.0115 48.0894 92.3295 47.4754 93.6385 47.8844Z" fill="#FCA6BD"/>
<path fill-rule="evenodd" clip-rule="evenodd" d="M120.145 44.7774C121.812 45.2984 122.454 47.2094 121.578 47.6024C121.109 47.8124 120.899 46.9934 119.888 47.1044C119.061 47.1954 119.308 48.1784 118.46 48.1324C117.534 48.0834 117.223 47.0024 117.489 46.0154C117.774 44.9634 118.963 44.4084 120.145 44.7774Z" fill="#FCA6BD"/>
<path fill-rule="evenodd" clip-rule="evenodd" d="M117.826 70.5674C119.493 71.0874 120.135 72.9994 119.259 73.3924C118.79 73.6024 118.58 72.7834 117.569 72.8944C116.742 72.9854 116.989 73.9684 116.141 73.9224C115.215 73.8724 114.904 72.7924 115.17 71.8054C115.455 70.7524 116.644 70.1984 117.826 70.5674Z" fill="#FCA6BD"/>
<path fill-rule="evenodd" clip-rule="evenodd" d="M90.3245 73.8844C93.3725 74.8364 94.5455 78.3314 92.9435 79.0494C92.0855 79.4344 91.7025 77.9344 89.8535 78.1384C88.3425 78.3054 88.7925 80.1014 87.2425 80.0184C85.5505 79.9274 84.9805 77.9524 85.4685 76.1484C85.9895 74.2234 88.1635 73.2094 90.3245 73.8844Z" fill="#FCA6BD"/>
<path fill-rule="evenodd" clip-rule="evenodd" d="M79.8515 1.53641C84.0445 2.84641 85.6575 7.65441 83.4545 8.64241C82.2745 9.17141 81.7475 7.10941 79.2045 7.38941C77.1255 7.61841 77.7455 10.0894 75.6125 9.97441C73.2845 9.85041 72.5005 7.13241 73.1715 4.65141C73.8885 2.00341 76.8785 0.608407 79.8515 1.53641Z" fill="#FCA6BD"/>
<path fill-rule="evenodd" clip-rule="evenodd" d="M90.3195 26.4804C92.4265 27.1384 93.2375 29.5544 92.1305 30.0514C91.5375 30.3174 91.2725 29.2804 89.9945 29.4214C88.9495 29.5364 89.2615 30.7784 88.1895 30.7204C87.0195 30.6574 86.6255 29.2924 86.9635 28.0454C87.3225 26.7144 88.8255 26.0134 90.3195 26.4804Z" fill="#FCA6BD"/>
<path fill-rule="evenodd" clip-rule="evenodd" d="M60.3285 6.4854C63.2515 7.3984 64.3765 10.7504 62.8405 11.4394C62.0175 11.8074 61.6495 10.3704 59.8775 10.5654C58.4285 10.7254 58.8605 12.4474 57.3735 12.3684C55.7505 12.2814 55.2045 10.3874 55.6725 8.6574C56.1705 6.8104 58.2555 5.8384 60.3285 6.4854Z" fill="#FCA6BD"/>
<path fill-rule="evenodd" clip-rule="evenodd" d="M60.6775 52.5434C62.9905 53.2654 63.8795 55.9174 62.6645 56.4624C62.0135 56.7544 61.7235 55.6164 60.3205 55.7714C59.1735 55.8974 59.5155 57.2604 58.3395 57.1974C57.0555 57.1284 56.6235 55.6294 56.9935 54.2614C57.3885 52.8004 59.0375 52.0314 60.6775 52.5434Z" fill="#FCA6BD"/>
<path fill-rule="evenodd" clip-rule="evenodd" d="M82.4905 58.0224C84.1575 58.5434 84.7995 60.4544 83.9235 60.8474C83.4545 61.0574 83.2445 60.2374 82.2335 60.3494C81.4065 60.4404 81.6535 61.4234 80.8055 61.3774C79.8795 61.3274 79.5685 60.2474 79.8355 59.2604C80.1195 58.2074 81.3085 57.6534 82.4905 58.0224Z" fill="#FCA6BD"/>
<path fill-rule="evenodd" clip-rule="evenodd" d="M63.1115 79.0594C64.7785 79.5804 65.4205 81.4914 64.5445 81.8854C64.0755 82.0954 63.8655 81.2754 62.8545 81.3864C62.0275 81.4774 62.2745 82.4604 61.4265 82.4144C60.5005 82.3644 60.1895 81.2844 60.4555 80.2974C60.7405 79.2454 61.9295 78.6904 63.1115 79.0594Z" fill="#FCA6BD"/>
<path fill-rule="evenodd" clip-rule="evenodd" d="M39.1075 84.5574C40.7035 85.0554 41.3175 86.8864 40.4795 87.2624C40.0305 87.4634 39.8295 86.6784 38.8615 86.7854C38.0705 86.8724 38.3065 87.8134 37.4945 87.7694C36.6075 87.7224 36.3095 86.6874 36.5655 85.7424C36.8375 84.7344 37.9755 84.2044 39.1075 84.5574Z" fill="#FCA6BD"/>
<path fill-rule="evenodd" clip-rule="evenodd" d="M44.3885 29.0314C48.8795 30.4344 50.6075 35.5834 48.2485 36.6424C46.9855 37.2084 46.4195 35.0004 43.6965 35.3004C41.4695 35.5464 42.1335 38.1924 39.8485 38.0694C37.3545 37.9364 36.5155 35.0254 37.2345 32.3674C38.0015 29.5304 41.2045 28.0374 44.3885 29.0314Z" fill="#FCA6BD"/>
<path fill-rule="evenodd" clip-rule="evenodd" d="M24.3705 36.9064C27.6085 37.9174 28.8545 41.6304 27.1535 42.3934C26.2425 42.8014 25.8345 41.2094 23.8715 41.4264C22.2665 41.6034 22.7445 43.5114 21.0975 43.4234C19.2995 43.3274 18.6945 41.2284 19.2125 39.3124C19.7655 37.2664 22.0745 36.1894 24.3705 36.9064Z" fill="#FCA6BD"/>
<path fill-rule="evenodd" clip-rule="evenodd" d="M34.4555 68.0034C36.0475 68.5004 36.6595 70.3254 35.8235 70.7014C35.3755 70.9024 35.1755 70.1194 34.2095 70.2254C33.4205 70.3124 33.6555 71.2504 32.8455 71.2064C31.9615 71.1594 31.6645 70.1274 31.9195 69.1854C32.1925 68.1804 33.3275 67.6504 34.4555 68.0034Z" fill="#FCA6BD"/>
<path fill-rule="evenodd" clip-rule="evenodd" d="M5.78753 68.0984C7.75253 68.7114 8.50753 70.9644 7.47553 71.4274C6.92253 71.6754 6.67553 70.7094 5.48453 70.8404C4.51053 70.9474 4.80053 72.1054 3.80153 72.0514C2.71053 71.9934 2.34353 70.7204 2.65853 69.5574C2.99453 68.3164 4.39553 67.6634 5.78753 68.0984Z" fill="#FCA6BD"/>
<path fill-rule="evenodd" clip-rule="evenodd" d="M6.23953 84.8804C9.39453 85.8664 10.6085 89.4844 8.95153 90.2284C8.06353 90.6264 7.66653 89.0744 5.75253 89.2854C4.18853 89.4574 4.65453 91.3174 3.04953 91.2314C1.29753 91.1374 0.707528 89.0924 1.21253 87.2244C1.75153 85.2314 4.00153 84.1814 6.23953 84.8804Z" fill="#FCA6BD"/>
<path fill-rule="evenodd" clip-rule="evenodd" d="M22.4415 62.6904C26.0375 63.8134 27.4215 67.9374 25.5315 68.7854C24.5195 69.2384 24.0675 67.4704 21.8865 67.7104C20.1035 67.9064 20.6355 70.0264 18.8055 69.9274C16.8085 69.8204 16.1365 67.4894 16.7125 65.3614C17.3265 63.0904 19.8915 61.8944 22.4415 62.6904Z" fill="#FCA6BD"/>
<path fill-rule="evenodd" clip-rule="evenodd" d="M49.4155 99.7754C51.0115 100.274 51.6255 102.104 50.7875 102.48C50.3385 102.681 50.1375 101.897 49.1695 102.003C48.3785 102.09 48.6135 103.031 47.8015 102.987C46.9155 102.94 46.6175 101.905 46.8725 100.96C47.1455 99.9524 48.2835 99.4224 49.4155 99.7754Z" fill="#FCA6BD"/>
<path fill-rule="evenodd" clip-rule="evenodd" d="M25.3715 113.359C27.2835 113.956 28.0195 116.149 27.0145 116.599C26.4765 116.84 26.2365 115.9 25.0765 116.028C24.1285 116.132 24.4105 117.259 23.4385 117.207C22.3765 117.15 22.0195 115.911 22.3255 114.779C22.6515 113.571 24.0155 112.935 25.3715 113.359Z" fill="#FCA6BD"/>
<path fill-rule="evenodd" clip-rule="evenodd" d="M37.5885 128.943C40.3085 129.793 41.3555 132.911 39.9265 133.553C39.1615 133.896 38.8185 132.559 37.1695 132.74C35.8215 132.888 36.2225 134.492 34.8395 134.417C33.3295 134.336 32.8205 132.573 33.2565 130.964C33.7195 129.246 35.6605 128.341 37.5885 128.943Z" fill="#FCA6BD"/>
<path fill-rule="evenodd" clip-rule="evenodd" d="M88.9995 137.904C82.9555 138.231 66.6215 135.082 63.4235 133.242C60.2265 131.401 57.9425 131.769 55.3165 133.364C52.6905 134.959 53.2615 132.996 55.5445 131.278C57.8285 129.56 59.3125 129.192 54.7455 126.125C50.1785 123.057 43.7845 116.677 48.5805 119.745C53.3765 122.813 54.9745 125.144 61.0255 128.702C67.0765 132.26 75.9825 134.224 79.0655 134.96C82.1485 135.696 80.0925 133.487 77.2385 130.788C74.3845 128.089 65.7065 116.064 64.5655 112.261C63.4235 108.457 66.9625 113.857 71.0735 119.255C75.1845 124.654 78.2665 128.213 80.4365 129.807C82.6055 131.402 81.8065 125.022 80.5505 120.973C79.2945 116.924 73.2425 92.0154 76.2115 99.2554C79.1795 106.494 83.2905 124.04 84.7745 128.58C86.2585 133.12 88.3135 136.31 90.1405 134.838C91.9675 133.366 96.7625 121.341 97.6765 117.292C98.5905 113.243 99.4745 108.933 97.7905 107.844C95.0465 106.07 90.8895 99.3474 93.5665 102.2C96.2675 105.079 99.0735 107.099 100.672 107.099C102.27 107.099 104.071 98.0284 104.528 95.3294C104.985 92.6304 106.469 93.3664 104.871 99.8694C103.273 106.372 99.3905 118.765 97.5635 123.182C95.7365 127.599 98.0205 128.581 101.332 125.513C104.643 122.445 107.497 118.519 109.439 115.574C111.38 112.629 106.699 122.2 102.817 126.74C98.9345 131.279 97.4505 133.611 99.5055 134.225C101.561 134.839 111.495 131.035 114.463 129.562C117.432 128.09 119.144 129.194 115.719 130.789C112.292 132.383 98.8385 137.372 88.9995 137.904Z" fill="#FC4E7C"/>
<path fill-rule="evenodd" clip-rule="evenodd" d="M60.6795 28.3464C61.7885 31.3264 66.7805 36.2934 68.0745 36.8894C69.3685 37.4854 69.3415 51.4244 69.3415 57.5834C69.3415 63.7424 71.3485 70.2724 71.1375 60.7614C71.0675 57.6344 70.5025 52.8114 72.0285 52.4174C73.3475 52.0774 76.3325 50.5554 78.4345 49.0904C81.7385 46.7884 79.2395 47.8484 75.7265 48.8964C72.2135 49.9434 71.4015 46.2264 71.7705 40.6634C72.1405 35.1004 73.0645 26.1604 73.8035 21.5904C74.5435 17.0214 70.8455 26.5574 70.1065 30.9284C69.3675 35.2994 68.6275 33.5114 66.7785 32.3194C64.9295 31.1274 59.7545 26.5574 60.6795 28.3464Z" fill="#FC4E7C"/>
<path fill-rule="evenodd" clip-rule="evenodd" d="M36.0555 107.169C34.0185 104.432 30.3255 102.927 27.9055 103.201C25.4865 103.475 20.9015 102.928 18.9925 101.97C17.0825 101.012 20.7755 101.97 26.2505 101.286C31.7255 100.602 30.1975 100.054 28.6695 96.2234C27.1415 92.3914 25.4865 86.6444 23.9585 82.1284C22.4305 77.6134 23.7045 73.2334 24.4685 77.8864C25.2325 82.5384 26.6335 83.3604 28.0335 82.4024C29.4345 81.4444 34.2815 75.5644 33.7565 77.2634C33.2315 78.9624 31.4485 81.8554 29.9435 82.8134C28.4385 83.7714 28.5425 87.7394 29.6885 91.4344C30.8345 95.1294 34.1455 101.286 37.7105 106.212C41.2755 111.137 39.1115 109.632 36.0555 107.169Z" fill="#FC4E7C"/>
<path fill-rule="evenodd" clip-rule="evenodd" d="M107.997 74.6934C108.597 69.9454 109.195 64.7784 109.555 62.8474C109.914 60.9154 113.15 59.2424 114.827 57.4394C116.505 55.6364 114.228 56.6664 112.79 57.6964C111.352 58.7264 109.674 60.9154 109.795 58.4694C109.915 56.0224 108.837 40.7004 107.758 35.8074C106.68 30.9144 105.96 32.3304 106.44 36.4514C106.919 40.5714 108.237 56.0234 108.237 58.0834C108.237 60.1434 107.394 66.0234 106.864 68.7704C106.616 70.0564 104.284 68.7354 102.846 67.8344C101.408 66.9334 99.2515 66.0664 100.929 67.7404C102.607 69.4144 106.201 69.8004 106.201 72.6334C106.2 75.4654 107.279 80.3774 107.997 74.6934Z" fill="#FC4E7C"/>
<path fill-rule="evenodd" clip-rule="evenodd" d="M51.2255 87.1444C49.1015 81.0584 44.9555 67.0384 44.3485 64.8654C43.7415 62.6914 38.0785 62.8004 35.1455 60.6264C32.2125 58.4524 32.8195 56.1704 34.7415 58.0184C36.6635 59.8654 41.1125 60.0834 42.5285 60.0834C43.9445 60.0834 42.9325 50.6274 42.4275 46.1724C41.9215 41.7164 44.2475 39.3254 44.2475 44.2164C44.2475 49.1074 47.2815 68.9954 49.3045 74.3214C51.3275 79.6474 54.3615 74.7564 55.2715 73.0174C56.1815 71.2784 58.7105 70.3004 56.8895 73.1264C55.0695 75.9524 53.1475 78.5604 51.8325 79.1044C50.5175 79.6474 51.5295 83.3424 52.8435 86.3864C54.1585 89.4264 54.7655 94.2084 51.2255 87.1444Z" fill="#FC4E7C"/>
<path fill-rule="evenodd" clip-rule="evenodd" d="M117.813 96.5264C120.612 91.2914 120.269 90.2214 119.723 87.8764C119.177 85.5304 117.427 83.0384 116.972 80.0084C116.517 76.9784 118.245 77.3694 119.246 80.7904C120.246 84.2114 121.338 86.6554 122.338 84.4074C123.338 82.1594 127.704 71.2124 129.25 64.7614C130.796 58.3104 130.978 51.2724 131.07 48.2434C131.161 45.2134 132.525 45.1164 132.616 48.0484C132.782 53.4214 132.616 56.2584 132.434 59.2884C132.252 62.3184 137.709 59.3864 140.165 57.7244C142.621 56.0624 143.311 56.3904 140.893 58.6044C138.438 60.8524 134.89 63.2964 132.798 64.0784C131.337 64.6244 128.523 73.2664 126.886 76.9804C125.249 80.6944 121.611 92.2294 118.973 97.1154C116.335 101.999 116.587 98.8194 117.813 96.5264Z" fill="#FC4E7C"/>
<path fill-rule="evenodd" clip-rule="evenodd" d="M129.203 118.998C130.923 116.872 136.55 114.266 139.707 114.708C142.864 115.151 144.027 113.393 141.145 113.098C138.263 112.803 135.38 112.803 137.164 110.886C138.948 108.968 145.372 100.457 146.81 97.9714C147.363 97.0154 149.854 98.8634 157.131 99.5094C159.631 99.7314 159.918 98.3514 157.183 98.3354C152.913 98.3104 147.458 95.8414 148.831 93.6294C150.203 91.4174 153.381 81.4954 154.753 77.2174C156.126 72.9394 153.566 73.8914 152.914 76.4384C152.225 79.1264 150.632 82.6144 150.247 84.0924C149.862 85.5714 146.375 83.1254 145.391 81.3134C144.209 79.1364 142.885 78.9134 144.092 81.3794C145.196 83.6344 146.806 86.0514 147.687 87.1154C148.567 88.1804 141.891 99.1774 139.856 101.719C137.82 104.261 136.3 100.269 136.082 98.9564C135.807 97.3044 134.417 96.9244 134.983 99.6594C135.558 102.438 136.775 104.38 137.215 105.267C137.655 106.154 132.641 112.4 128.601 117.483C124.56 122.564 126.367 122.504 129.203 118.998Z" fill="#FC4E7C"/>
<path fill-rule="evenodd" clip-rule="evenodd" d="M109.321 146.167C114.849 146.167 119.358 143.741 119.358 140.766C119.358 137.791 114.849 135.365 109.321 135.365C103.793 135.365 99.2835 137.791 99.2835 140.766C99.2835 143.741 103.793 146.167 109.321 146.167Z" fill="#BECBD3"/>
<path opacity="0.5" fill-rule="evenodd" clip-rule="evenodd" d="M106.502 136.14C109.488 136.14 111.909 137.443 111.909 139.05C111.909 140.657 109.488 141.96 106.502 141.96C103.515 141.96 101.095 140.657 101.095 139.05C101.095 137.443 103.516 136.14 106.502 136.14Z" fill="white"/>
<path fill-rule="evenodd" clip-rule="evenodd" d="M91.0445 152.414C99.9275 152.414 107.173 148.515 107.173 143.735C107.173 138.955 99.9275 135.057 91.0445 135.057C82.1615 135.057 74.9165 138.956 74.9165 143.735C74.9165 148.515 82.1615 152.414 91.0445 152.414Z" fill="#D4DFE6"/>
<path opacity="0.5" fill-rule="evenodd" clip-rule="evenodd" d="M86.5155 136.301C91.3145 136.301 95.2045 138.394 95.2045 140.976C95.2045 143.558 91.3145 145.651 86.5155 145.651C81.7165 145.651 77.8265 143.558 77.8265 140.976C77.8265 138.395 81.7165 136.301 86.5155 136.301Z" fill="white"/>
<path fill-rule="evenodd" clip-rule="evenodd" d="M112.205 160.258C116.002 160.258 119.098 158.592 119.098 156.549C119.098 154.506 116.001 152.84 112.205 152.84C108.408 152.84 105.312 154.506 105.312 156.549C105.312 158.592 108.408 160.258 112.205 160.258Z" fill="#D4DFE6"/>
<path opacity="0.5" fill-rule="evenodd" clip-rule="evenodd" d="M110.269 153.372C112.32 153.372 113.983 154.267 113.983 155.37C113.983 156.473 112.32 157.368 110.269 157.368C108.218 157.368 106.556 156.473 106.556 155.37C106.556 154.266 108.218 153.372 110.269 153.372Z" fill="white"/>
</svg>
