<svg width="333" height="324" viewBox="0 0 333 324" fill="none" xmlns="http://www.w3.org/2000/svg">
<path d="M79.9011 262.903C67.0131 253.84 56.426 242.691 49.204 228.585C41.64 213.811 35.92 198.462 34.119 181.77C29.01 134.438 44.369 95.7176 82.423 66.6216C91.432 59.7336 101.339 54.1566 111.976 50.0416C115.113 48.8276 118.213 47.4096 121.669 47.2826C124.78 47.9726 125.14 48.6196 122.889 50.6086C119.342 53.7416 115.715 56.8296 111.571 59.1996C100.018 67.1556 89.145 75.7956 82.249 88.4236C81.777 89.2876 81.418 90.2376 81.231 91.2016C80.607 94.4186 78.792 98.1836 82.243 100.482C85.461 102.624 89.3331 102.911 92.6461 99.9246C92.9881 99.4926 93.352 99.0806 93.71 98.6616C94.028 98.2066 94.376 97.7776 94.722 97.3456C96.721 94.8196 99.2871 92.9536 102.024 91.3556C104.204 90.0826 106.658 89.7276 108.683 91.5126C110.671 93.2636 110.677 95.6646 109.916 98.1046C109.145 100.577 107.123 102.461 106.677 105.068C106.511 106.038 106.336 107.17 107.212 107.828C108.215 108.582 109.036 107.662 109.787 107.101C112.649 104.964 115.674 103.09 118.828 101.423C122.293 99.5906 124.213 100.862 124.403 104.556C124.595 108.313 125.192 112.033 125.27 115.791C125.394 121.803 126.791 122.826 132.359 120.897C134.047 120.312 135.619 119.466 137.226 118.701C137.723 118.451 138.243 118.261 138.771 118.092C144.272 117.569 146.78 111.568 152.127 110.755C152.926 110.427 153.747 110.2 154.618 110.194C155.199 110.3 155.703 110.556 156.124 110.973C158.422 114.542 159.255 118.683 160.027 122.696C161.41 129.877 165.342 133.911 172.602 134.702C173.179 134.839 173.732 135.035 174.276 135.26C177.876 136.415 181.323 135.083 184.846 134.735C187.54 134.469 191.096 133.125 191.664 137.847C191.368 138.382 190.921 138.923 190.346 138.925C184.35 138.944 181.071 142.161 178.92 147.564C176.874 152.702 174.965 152.879 171.313 148.88C168.868 146.204 166.558 143.639 162.499 143.497C159.937 143.408 159.822 141.199 159.441 139.148C157.831 130.484 152.28 128.107 144.942 132.82C143.272 133.893 141.731 135.149 140.118 136.302C134.045 140.645 133.032 140.408 129.3 133.778C127.617 130.808 126.118 131.147 125.016 134.127C124.197 136.341 124.8 138.816 124.009 141.07C123.119 143.12 121.509 144.198 119.325 144.018C114.703 143.639 110.288 144.466 105.872 145.729C102.509 146.691 101.545 144.838 102.043 141.831C102.238 140.652 102.793 139.57 103.4 138.549C106.668 133.046 106.423 127.566 103.083 122.261C101.31 119.445 101.577 114.465 98.676 113.776C95.673 113.063 93.5681 117.58 90.7581 119.307C86.3841 121.995 82.8871 125.9 78.2061 128.115C75.4661 128.472 75.786 125.132 73.85 124.544C67.539 127.756 66.6621 135.389 61.5571 139.548C59.2721 142.548 56.901 145.392 53.939 147.84C50.634 150.573 49.3201 155.117 48.7371 158.851C47.8421 164.585 46.356 170.537 47.788 176.512C48.252 178.448 48.303 180.483 48.1 182.446C46.827 194.754 49.683 206.63 53.048 218.154C55.112 225.223 58.616 232.2 62.767 238.459C67.436 245.498 71.6281 253.087 79.0261 257.908C79.7091 258.586 80.2351 259.365 80.5651 260.273C80.7961 261.264 80.6781 262.167 79.9011 262.903Z" fill="#EDAC33"/>
<path d="M155.321 110.746C154.924 110.747 154.526 110.748 154.129 110.749C153.749 111.166 153.281 111.494 152.93 111.939C149.981 113.087 146.999 114.161 144.999 116.863C143.385 119.043 141.048 119.296 138.581 119.109C137.966 116.018 140.461 115.064 142.354 113.824C145.137 112.001 147.776 109.996 150.832 108.142C144.85 105.714 141.759 106.613 138.154 111.013C135.705 114.002 135.386 116.569 138.578 119.112C135.963 121.788 132.454 122.728 129.054 123.619C125.523 124.544 122.518 121.813 123.27 118.239C124.44 112.682 122.096 107.438 123.217 101.189C116.407 103.983 111.362 107.554 106.153 112.133C105.057 107.959 103.201 104.447 106.823 101.078C107.101 100.819 107.239 100.408 107.441 100.068C108.903 97.6006 110.417 94.6615 108.003 92.4645C105.492 90.1785 102.939 92.0805 100.731 94.0695C98.995 95.6335 96.538 96.3946 95.543 98.7856C95.105 99.1456 94.748 99.5845 94.348 99.9825V99.9846C91.218 101.784 89.914 100.027 89.426 97.2675C88.717 93.2595 89.3281 89.3505 90.9711 85.6375C95.6731 75.0075 102.105 65.6326 111.084 58.1266C114.939 55.1836 118.854 52.3146 122.622 49.2646C124.367 47.8526 122.839 47.5435 121.667 47.2835C128.808 43.6455 136.338 41.2095 144.26 39.9875C145.901 42.0175 146.109 42.6206 144.217 43.8176C140.388 46.2396 136.778 49.0425 132.579 50.8695C125.188 54.0865 120.402 59.8966 117.078 66.9846C116.326 68.5886 115.668 70.2115 114.733 71.7375C113.875 73.1385 111.693 74.7536 113.493 76.2996C115.055 77.6416 116.76 75.6525 118.142 74.6945C126.283 69.0455 134.603 63.6786 143.045 58.4886C144.061 57.8826 145.122 57.3785 146.24 56.9915C150.094 56.0285 153.935 54.8055 157.978 55.6205C161.129 56.2555 163.81 57.9176 164.137 61.2486C164.479 64.7356 161.378 65.7136 158.726 66.6266C156.083 67.5366 153.336 67.9485 150.532 68.0865C138.538 68.6795 128.442 76.4835 124.367 88.5085C128.786 85.2055 132.462 81.5455 136.264 78.0135C140.727 73.8665 143.404 73.7265 148.45 77.1245C150.27 78.3495 152.253 79.3026 154.023 80.5756C156.312 82.2216 157.195 84.1706 154.693 86.4336C153.662 87.2926 151.947 87.1075 151.134 89.1065C155.101 90.8185 158.807 93.1565 162.414 95.4945C165.847 97.7195 171.319 97.7795 175.895 98.7975C177.877 99.2385 180.017 99.5135 180.715 101.686C181.545 104.267 179.67 105.803 177.776 106.922C175.811 108.082 174.594 108.906 176.422 111.378C177.989 113.497 179.265 114.385 181.745 112.865C189.847 107.899 198.684 107.043 207.988 107.893C215.196 108.551 216.711 109.522 218.005 116.903C218.211 118.079 218.662 119.191 218.843 120.374C218.853 124.24 221.997 127.559 220.822 131.629C220.171 133.76 216.243 133.613 217.586 137.5C219.05 141.738 221.145 145.368 224.051 148.605C224.733 149.365 225.274 148.155 225.803 147.69C227.086 146.563 228.746 146.122 230.233 146.565C234.3 147.778 236.548 147 236.137 142.219C236.073 141.474 236.933 140.912 237.61 140.471C238.171 140.248 238.74 140.215 239.325 140.364C240.143 140.795 240.732 141.435 241.101 142.28C241.715 143.968 241.685 145.708 241.518 147.458C241.56 148.252 241.567 147.28 241.441 148.043C241.036 150.488 241.578 152.852 244.108 153.168C246.47 153.463 245.889 150.544 246.741 149.122C248.205 145.631 249.189 142.055 249.345 138.241C249.459 135.446 249.728 132.434 253.059 131.561C256.267 130.721 258.176 132.86 259.76 135.283C260.84 137.511 260.216 139.553 258.988 141.486C255.333 147.242 253.23 153.73 250.367 159.857C247.591 165.798 244.661 171.652 241.06 177.778C245.461 179.296 250.961 178.03 252.972 183.309C254.027 186.078 252.446 188.308 251.041 190.509C248.263 195.525 246.913 200.633 249.737 206.134C252.365 211.254 249.958 216.007 248.557 220.832C248.315 221.444 247.95 221.967 247.473 222.417C245.937 223.316 244.384 223.352 242.821 222.514C242.323 222.106 242.016 221.576 241.899 220.943C243.257 213.272 241.839 210.544 235.208 208.083C228.413 205.561 224.151 196.282 227 189.442C229.214 184.128 231.021 178.607 234.148 173.696C236.181 170.503 236.752 166.982 235.759 163.38C234.816 159.959 232.652 159.532 230.36 162.237C228.944 163.908 227.742 165.777 225.828 166.929C222.396 168.995 217.961 168.07 216.178 164.169C212.605 156.348 206.285 149.51 207.328 139.914C207.615 137.274 205.987 135.009 204.122 133.074C201.409 130.257 199.756 132.762 197.579 134.043C195.11 135.495 193.063 133.617 191.125 132.219C188.43 130.276 186.347 130.095 184.308 133.427C181.629 137.806 177.402 137.118 173.251 135.858V135.855C162.921 133.381 161.264 131.533 161.299 119.489C161.317 114.677 159.981 111.846 155.321 110.746Z" fill="#EFB341"/>
<path d="M249.767 189.671C250.08 189.166 250.412 188.672 250.703 188.155C253.05 183.988 252.055 181.322 247.421 180.396C244.741 179.86 241.914 180.067 239.202 179.942C238.157 178.285 239.317 177.255 240.028 176.159C245.085 168.364 248.589 159.802 252.327 151.355C254.005 147.564 255.283 143.559 257.966 140.297C259.06 138.966 259.415 137.517 259.306 135.874C259.593 135.819 259.88 135.763 260.168 135.707C261.003 136.13 261.443 136.853 261.706 137.712C261.289 144.087 262.754 150.636 259.934 156.808C259.122 158.585 258.008 160.711 259.905 162.255C262.237 164.152 263.84 162.053 265.37 160.547C266.242 159.688 267.119 158.945 268.459 159.254C269.31 159.619 269.607 160.343 269.711 161.19C269.712 162.484 269.588 163.783 269.762 165.082C269.792 165.897 269.628 166.668 269.255 167.394C268.211 175.339 263.798 181.902 260.471 188.909C260.34 189.455 260.145 189.978 259.917 190.49C255.641 195.376 255.578 201.243 256.071 207.22C256.193 208.701 255.49 210.765 257.373 211.363C259.114 211.915 260.009 210 261.132 208.97C261.859 208.303 262.419 207.476 263.064 206.726C266.461 204.045 268.84 200.264 272.548 197.913C282.675 195.868 282.348 195.272 283.47 184.18C284.276 176.21 286.691 168.339 288.048 160.349C289.422 152.254 289.826 143.898 288.266 136.099C287.031 129.929 286.094 122.789 280.599 118.066C279.865 117.554 279.282 116.908 278.866 116.117C277.56 111.606 276.009 107.52 272.698 103.676C264.28 93.9025 254.921 85.1225 245.793 76.0825C245.511 75.6145 245.277 75.1186 245.066 74.6146C242.901 71.2146 242.395 66.4345 237.373 65.4225C236.53 65.2175 235.773 64.8646 235.188 64.2046C235.021 63.6356 235.096 63.0985 235.406 62.5935C239.8 60.3815 243.142 61.4445 246.265 65.2965C249.126 68.8245 252.637 71.8555 257.066 73.4555C258.635 74.0225 259.689 75.0065 260.657 76.3715C263.97 81.0435 267.352 85.6845 272.293 88.8565C275.631 90.9985 276.793 95.0105 279.7 97.5255C285.763 112.913 292.315 128.126 296.305 144.248C296.49 144.997 296.413 145.811 296.458 146.595C295.01 151.665 296.024 156.872 295.617 162.007C294.782 172.533 292.174 182.765 290.705 193.181C290.449 194.998 289.682 196.595 288.442 197.955C287.578 198.907 286.53 199.615 285.395 200.195C282.262 201.186 280.321 204.03 277.422 205.395C274.876 206.559 272.512 208.169 271.035 210.453C266.083 218.113 257.459 219.164 250.103 222.495C249.182 222.912 248.178 222.692 247.376 221.961C247.376 221.563 247.377 221.165 247.379 220.767C252.597 214.327 251.044 206.97 249.616 199.95C248.884 196.337 248.642 193.088 249.767 189.671Z" fill="#F0BC4E"/>
<path d="M284.441 199.243C285.236 198.84 286.031 198.437 286.826 198.034C291.331 196.696 292.761 198.446 291.601 202.794C288.388 210.9 284.583 218.738 280.749 226.56C280.055 227.976 279.265 229.439 278.185 230.556C268.542 240.517 260.53 252.027 249.782 260.919C240.787 268.36 230.441 273.278 219.098 276.001C212.955 277.476 207.18 280.33 200.785 280.831C199.956 278.683 201.726 277.969 202.994 277.246C205.645 275.733 207.972 274.024 209.216 271.093C210.113 268.981 212.086 268.501 214.122 268.275C217.076 267.948 219.841 267.094 223.56 265.235C216.669 264.689 211.554 261.57 205.667 261.637C203.95 261.657 201.756 261.431 201.589 259.074C201.433 256.866 203.412 256.225 205.103 255.621C206.42 255.151 207.838 255.15 209.214 254.949C219.74 253.414 227.842 247.811 234.869 239.974C230.898 236.86 226.412 241.166 222.754 238.443C222.313 238.056 222.046 237.57 221.945 236.993C228.563 230.142 239.393 229.944 245.207 236.598C245.841 237.323 246.14 238.397 247.391 238.297C250.755 238.028 251.157 240.189 250.345 242.511C248.835 246.827 251.811 246.448 253.988 245.859C258.722 244.58 263.069 242.239 264.264 236.992C266.774 225.973 272.751 216.653 278.4 207.172C280.092 204.332 281.211 200.95 284.441 199.243Z" fill="#EDAE34"/>
<path d="M235.441 62.8995C235.433 63.2965 235.43 63.6925 235.432 64.0895C241.816 73.6315 247.972 83.3275 254.786 92.5785C255.494 93.5395 256.239 94.5016 256.585 95.6536C257.175 97.6206 257.573 99.8735 255.674 101.132C253.275 102.722 252.154 100.373 251.07 98.8135C247.462 93.6305 242.864 89.6876 237.04 87.2226C236.536 87.0636 236.044 86.8555 235.569 86.6315C235.108 86.4365 234.656 86.2005 234.214 85.9645C233.778 85.7645 233.35 85.5305 232.928 85.2995C232.087 84.8805 231.195 84.6055 230.263 84.4415C229.783 84.3705 229.321 84.2456 228.861 84.0976C227.93 83.7526 227.092 83.2405 226.271 82.6935C224.796 81.7195 223.314 80.7545 222.076 79.4695C221.523 78.9175 221.037 78.3105 220.593 77.6645C220.281 77.2315 220.009 76.7765 219.749 76.3105C219.463 75.8485 219.216 75.3685 218.978 74.8795C218.715 74.3895 218.496 73.8846 218.284 73.3736C216.808 68.5276 213.019 66.7275 208.495 65.7595C203.411 64.6715 198.229 64.5895 193.09 64.0795C190.383 63.6775 187.542 64.2415 184.945 62.9975C181.749 61.9755 179.581 59.7545 177.936 56.9365C175.131 52.1325 178.038 46.0145 183.648 45.6785C185.805 45.5495 186.993 45.2725 187.46 43.1765C188.691 40.2795 190.674 41.0035 192.705 42.1115C194.973 43.3485 197.337 44.0965 199.951 43.6785C200.721 43.4395 201.483 43.1755 202.266 42.9795C203.1 42.8275 203.886 42.9866 204.639 43.3476C208.663 47.2716 214.67 47.4865 218.928 50.9865C220.684 52.4305 221.163 50.1866 222.273 49.7566C224.919 50.4476 227.213 51.8515 229.474 53.3225C231.028 56.7845 236.793 57.6225 235.441 62.8995Z" fill="#F6CD6A"/>
<path d="M222.279 237.515C226.252 238.463 230.107 236.92 234.048 236.886C235.629 236.872 236.829 236.8 237.45 238.326C238.067 239.841 237.299 240.936 236.096 241.907C232.087 245.142 228.396 248.86 224.081 251.603C219.415 254.57 213.919 255.849 208.421 256.594C206.263 256.887 204.042 256.68 202.67 258.754C202.714 259.521 203.176 260.104 203.726 260.041C211.025 259.2 217.383 263.425 224.438 263.841C225.484 263.903 226.533 264.147 226.461 265.435C226.416 266.232 225.712 266.85 224.905 267.078C223.763 267.402 222.467 267.387 221.455 267.927C218.734 269.379 215.893 269.829 212.843 269.898C208.962 269.986 210.871 274.623 208.224 276.126C205.696 277.562 202.54 278.145 200.783 280.83C199.747 281.737 198.484 281.811 197.2 281.808C195.107 278.284 199.332 277.812 200.357 275.352C195.111 274.848 190.011 274.642 184.925 274.571C181.244 274.519 178.42 274.075 179.212 269.346C179.344 268.558 179.124 267.773 178.87 267.005C176.619 260.192 176.68 260.324 183.107 257.607C186.933 255.99 191.3 255.706 194.643 252.909C198.039 250.873 201.833 251.519 205.488 251.264C208.401 251.171 211.312 250.864 214.238 250.82C219.235 250.744 221.89 246.091 226.357 242.195C221.057 243.102 216.856 244.859 213.619 240.812C215.544 237.182 219.287 238.336 222.279 237.515Z" fill="#E9A928"/>
<path d="M169.842 286.649C166.824 288.102 163.601 287.38 160.488 287.384C146.329 287.398 132.441 285.868 119.361 279.826C115.226 277.916 110.834 276.484 106.341 275.805C97.6241 274.488 90.2901 270.455 83.5231 265.099C83.6731 264.902 83.824 264.705 83.972 264.505C85.3 263.675 86.752 263.732 88.215 263.897C88.651 263.956 89.086 264.061 89.506 264.182C90.099 264.314 90.7031 264.393 91.3121 264.242C91.6681 264.038 92.008 263.826 92.313 263.554C92.754 263.047 93.042 262.456 93.348 261.863C93.56 261.405 93.82 260.991 94.11 260.584C94.95 259.537 95.9051 258.645 97.1641 258.126C103.186 256.642 107.758 259.316 111.841 263.305C113.203 264.635 114.09 266.578 116.389 266.611C116.944 266.734 117.467 266.933 117.972 267.193C118.476 267.462 118.945 267.781 119.404 268.12C125.737 273.348 134.129 274.034 141.067 277.93C148.529 279.735 156.117 280.951 163.514 282.99C165.902 283.646 168.721 283.729 169.842 286.649Z" fill="#EDAC33"/>
<path d="M169.842 286.649C161.933 283.781 153.655 282.397 145.484 280.585C143.585 280.164 141.681 279.769 139.779 279.361C138.36 276.174 140.807 276.031 142.732 275.892C145.141 275.719 147.441 276.587 149.705 277.355C151.78 278.059 153.952 279.532 155.945 279.229C165.044 277.846 173.304 282.674 182.181 282.383C184.238 282.315 187.192 282.591 187.353 279.619C187.535 276.247 184.6 276.31 182.183 276.223C179.994 276.145 177.799 276.192 175.64 275.724C171.98 274.517 168.159 275.382 164.461 274.869C160.797 274.36 156.948 274.186 154.9 270.105C152.426 265.175 152.918 264.395 157.74 261.451C161.329 259.26 164.165 256.221 168.815 259.292C170.416 260.35 170.779 257.2 172.365 256.92C178.414 256.07 184.495 255.448 190.333 253.472C191.845 252.96 193.472 252.975 194.774 254.247C194.043 255.855 192.662 256.267 191.046 256.732C186.56 258.025 182.166 259.633 177.782 261.1C177.297 263.341 179.043 264.056 179.994 265.148C181.414 266.779 182.248 268.461 180.946 270.472C178.867 273.684 181.764 273.428 183.15 273.222C188.842 272.372 194.467 274.006 200.134 273.421C201.483 273.282 203.224 273.369 203.455 275.071C203.665 276.617 202.2 277.556 200.885 277.919C198.779 278.5 197.199 279.337 197.202 281.807L197.226 281.79C196.531 282.394 195.505 282.214 194.806 282.808L194.355 283.062L193.838 283.046C193.038 283.545 192.022 283.417 191.231 283.944C187.785 284.747 184.358 285.682 180.764 285.477C177.959 286.597 174.908 285.256 172.1 286.342C171.346 286.445 170.594 286.547 169.842 286.649Z" fill="#E8A724"/>
<path d="M143.376 59.3286C142.062 62.1726 138.935 62.5315 136.699 64.0895C129.863 68.8515 122.806 73.2946 115.929 78.0006C114.24 79.1566 112.972 79.8326 111.308 78.0716C109.898 76.5806 110.339 75.4716 111.292 73.8946C113.138 70.8406 116.739 68.5225 115.643 64.0515C115.509 63.5055 116.853 62.5896 117.522 61.8556C120.461 58.6306 124.044 56.0006 126.265 52.1016C126.946 50.9076 128.108 49.9635 129.631 49.8535C135.536 49.4295 139.002 44.3095 144.108 42.3185C145.008 41.9675 145.476 40.8535 144.263 39.9865C146.285 38.6325 148.582 38.1306 150.948 37.9406C160.368 37.1856 169.775 36.0465 179.256 36.8405C179.925 37.6095 179.877 38.4225 179.412 39.2615C174.729 42.5445 169.202 41.8135 163.974 42.3915C159.285 42.9095 154.639 43.0836 149.992 44.4546C140.711 47.1926 137.261 55.6246 130.344 62.4886C135.748 61.9286 138.716 56.8636 143.376 59.3286Z" fill="#F0BB4D"/>
<path d="M291.601 202.793C291.893 199.316 289.574 198.459 286.826 198.033C288.378 195.92 289.593 193.739 289.261 190.928C289.051 189.157 289.483 187.42 289.932 185.653C292.623 175.062 294.047 164.295 294.022 153.347C294.016 150.839 293.357 148.014 296.46 146.593C298.542 151.865 297.123 157.595 298.619 162.953C300.015 167.953 298.146 173.153 299.442 178.175C299.537 178.544 299.597 179.024 299.443 179.341C295.818 186.823 296.031 195.587 291.601 202.793Z" fill="#EEB342"/>
<path d="M235.441 62.8995C233.852 58.7045 230.707 56.0105 226.649 54.2515C227.545 53.0665 228.59 53.5115 229.472 53.3215C233.165 54.3165 236.301 56.4595 239.452 58.4585C243.146 60.8025 246.908 62.8925 251.029 64.3975C255.626 66.0775 259.036 69.4595 262.127 73.0645C264.95 76.3575 267.429 79.9465 270.06 83.4055C270.477 83.6315 270.787 83.9585 270.988 84.3885C271.536 85.0515 272.084 85.7135 272.632 86.3765C272.767 87.1215 273.17 87.6415 273.897 87.8905L273.824 87.7995C274.014 88.4535 274.445 88.8725 275.084 89.0895L275.002 89.0175C275.203 89.6385 275.652 90.0385 276.194 90.3555L276.134 90.2935C276.384 90.8125 276.858 91.1625 277.162 91.6405L277.206 91.7255C278.015 92.2615 277.715 93.3815 278.395 93.9855C278.623 94.2085 278.703 94.4755 278.636 94.7875C279.035 95.6995 278.848 96.8405 279.717 97.5705L279.704 97.5245C279.549 98.4655 280.003 99.8415 279.024 100.22C277.992 100.619 276.816 99.3485 276.93 98.6125C277.542 94.6705 274.737 92.3065 272.259 91.0665C267.278 88.5745 265.427 83.1895 261.005 80.3745C259.923 79.6855 259.457 78.6035 259.317 77.3605C259.169 76.0525 258.621 75.0525 257.169 74.9545C251.436 74.5675 248.115 69.9495 245.098 66.3845C242.562 63.3875 240.409 62.8275 237.232 62.9055C236.635 62.9185 236.038 62.9015 235.441 62.8995Z" fill="#EFB443"/>
<path d="M184.95 318.573C184.54 320.359 185.348 323.569 182.622 323.776C179.254 324.031 180.474 320.673 180.281 318.775C179.597 312.057 179.141 305.316 178.5 298.593C178.398 297.521 178.24 296.576 179.386 296.139C180.848 295.582 181.636 296.609 182.113 297.719C182.577 298.797 182.918 299.976 183.055 301.14C183.725 306.863 184.309 312.597 184.95 318.573Z" fill="#E8A929"/>
<path d="M154.189 24.3885C154.189 25.1785 154.27 25.9795 154.162 26.7545C154.086 27.2995 153.915 28.0156 153.134 27.9666C152.59 27.9326 151.896 27.8575 151.551 27.5165C150.227 26.2075 149.676 24.4536 149.501 22.6796C148.937 16.9566 148.456 11.2235 148.053 5.48755C147.957 4.12655 148.17 2.70653 148.481 1.36953C148.647 0.657535 149.322 0.035554 150.214 0.001554C151.134 -0.034446 151.748 0.559542 151.987 1.31454C152.341 2.43554 152.598 3.61755 152.679 4.78955C153.13 11.3235 153.516 17.8616 153.924 24.3986C154.011 24.3936 154.1 24.3905 154.189 24.3885Z" fill="#E8A929"/>
<path d="M179.241 38.9846C179.246 38.2696 179.251 37.5555 179.256 36.8415C181.824 36.3375 184.229 36.6826 186.771 37.4856C192.945 39.4346 199.492 40.0856 205.487 42.7216C205.707 43.7496 205.538 44.3565 204.306 43.8155C203.539 43.8165 202.773 43.8166 202.006 43.8166C201.552 44.1646 201.161 44.5776 200.758 44.9806C197.314 46.0476 194.287 45.3815 191.536 43.0035C190.524 42.1295 189.12 41.2915 188.776 43.7205C187.967 44.5045 186.994 44.7256 185.909 44.5626C184.929 44.2656 184.258 43.5405 183.557 42.8625C182.895 42.2705 182.216 41.6916 181.531 41.1236C181.028 40.7386 180.525 40.3486 180.018 39.9636C179.679 39.7016 179.422 39.3726 179.241 38.9846Z" fill="#EFB13E"/>
<path d="M82.397 25.0265C83.745 24.8815 84.3291 25.6845 84.7241 26.6155C86.5731 30.9705 89.497 34.8575 90.024 39.8025C90.228 41.7155 91.337 43.5245 91.962 45.4045C92.292 46.3965 92.2321 47.4685 91.1431 47.9255C90.0421 48.3875 89.29 47.5795 88.701 46.7535C88.358 46.2725 88.0241 45.7415 87.8641 45.1825C86.2271 39.4415 83.982 33.9386 81.567 28.4896C81.014 27.2376 80.764 25.7645 82.397 25.0265Z" fill="#E9AB2D"/>
<path d="M240.362 282.026C240.768 282.203 241.378 282.32 241.78 282.673C242.855 283.615 243.498 284.888 243.801 286.253C244.841 290.945 246.831 295.274 248.744 299.638C249.141 300.543 249.494 301.484 249.721 302.443C249.954 303.428 249.934 304.535 248.854 305.002C247.74 305.484 246.888 304.757 246.51 303.788C244.792 299.379 241.731 295.553 241.174 290.611C240.937 288.503 239.749 286.512 239.087 284.437C238.762 283.413 239.006 282.492 240.362 282.026Z" fill="#E8AA2B"/>
<path d="M74.128 277.81C73.931 279.858 72.924 281.388 71.65 282.63C68.09 286.1 64.424 289.462 60.763 292.827C59.97 293.556 59.026 293.788 58.171 292.813C57.319 291.843 57.776 290.907 58.421 290.153C59.842 288.493 61.337 286.893 62.863 285.328C65.631 282.488 68.45 279.698 71.232 276.872C71.858 276.236 72.612 275.954 73.332 276.434C73.757 276.717 73.91 277.408 74.128 277.81Z" fill="#E9AA2C"/>
<path d="M295.098 269.423C294.744 270.482 293.94 271.307 292.917 270.701C286.972 267.172 280.805 263.885 276.956 257.748C276.483 256.994 276.335 256.303 276.869 255.6C277.416 254.88 278.216 254.769 278.987 255.151C279.687 255.498 280.456 255.875 280.946 256.45C284.448 260.556 288.311 264.182 293.238 266.573C294.273 267.076 295.118 268.034 295.098 269.423Z" fill="#E8AA2A"/>
<path d="M259.781 57.6066C258.731 57.1696 258.091 56.3956 258.454 55.2926C259.015 53.5836 259.902 51.9846 261.22 50.7506C264.698 47.4926 268.238 44.2996 271.783 41.1146C272.552 40.4236 273.489 39.9846 274.365 40.9736C275.184 41.8976 274.855 42.9216 274.152 43.6526C269.754 48.2236 265.304 52.7446 260.845 57.2556C260.609 57.4936 260.136 57.4966 259.781 57.6066Z" fill="#E8A928"/>
<path d="M56.014 77.1415C55.721 78.4165 55.017 79.1785 53.92 78.7275C52.867 78.2955 51.8261 77.5755 51.0701 76.7235C47.9061 73.1585 44.569 69.8575 40.176 67.7805C39.326 67.3785 38.649 66.5555 37.978 65.8455C37.401 65.2355 37.249 64.4785 37.79 63.7245C38.33 62.9725 39.233 62.7446 39.873 63.1666C45.426 66.8296 51.7831 69.5295 55.2471 75.7465C55.5241 76.2445 55.795 76.7435 56.014 77.1415Z" fill="#E8A929"/>
<path d="M10.561 166.997C14.537 166.586 18.497 166.771 22.421 167.442C23.228 167.58 24.01 168.161 24 168.961C23.991 169.722 23.361 170.419 22.473 170.551C21.496 170.696 20.506 170.834 19.522 170.835C14.56 170.845 9.59703 170.843 4.63603 170.763C3.46703 170.744 2.26603 170.528 1.14903 170.179C0.404035 169.945 -0.090975 169.22 0.014025 168.325C0.126025 167.376 0.79704 167.011 1.65404 167.005C4.62304 166.984 7.59202 166.997 10.561 166.997Z" fill="#E8A724"/>
<path d="M216.992 17.2206C216.376 22.8046 214.395 27.5216 211.936 32.0596C211.56 32.7546 210.827 33.1956 209.93 32.8706C209.032 32.5446 208.776 31.7016 208.961 30.9726C210.173 26.1956 211.426 21.4266 212.787 16.6906C213.143 15.4526 213.505 13.6486 215.377 14.1146C217.038 14.5276 216.635 16.3326 216.992 17.2206Z" fill="#E8A928"/>
<path d="M116.66 310.395C117.154 305.335 119.247 301.042 121.375 296.77C121.718 296.081 122.312 295.417 123.255 295.656C124.509 295.974 124.661 297.034 124.411 298.003C123.174 302.804 121.866 307.588 120.535 312.364C120.216 313.506 119.747 314.847 118.306 314.735C116.764 314.615 116.817 313.133 116.673 311.981C116.599 311.394 116.66 310.791 116.66 310.395Z" fill="#E8A929"/>
<path d="M15.8201 114.475C16.3721 114.546 16.784 114.521 17.134 114.657C21.168 116.22 25.2231 117.735 29.2001 119.433C30.4281 119.957 31.484 120.942 32.524 121.828C33.173 122.382 33.2581 123.246 32.7731 123.962C32.3131 124.64 31.4621 125.187 30.7601 124.66C26.4071 121.394 20.801 121.011 16.249 118.241C15.754 117.94 15.263 117.574 14.895 117.135C14.523 116.691 14.2371 116.078 14.6611 115.525C14.9931 115.09 15.4801 114.773 15.8201 114.475Z" fill="#E9AC2F"/>
<path d="M321.873 160.807C324.734 161.194 327.664 161.573 330.588 161.996C331.402 162.114 332.107 162.512 332.127 163.457C332.152 164.679 331.229 165.431 330.27 165.274C324.749 164.369 319.291 165.438 313.806 165.558C313.081 165.574 312.266 165.197 311.642 164.78C311.244 164.514 311.012 163.862 310.897 163.34C310.739 162.625 311.373 162.199 311.895 162.122C315.183 161.638 318.484 161.243 321.873 160.807Z" fill="#E9AA2B"/>
<path d="M204.305 43.8145C204.699 43.4495 205.093 43.0845 205.487 42.7195C211.414 44.2715 217.028 46.5715 222.271 49.7545C221.343 54.7305 221.296 54.7626 217.793 51.8456C216.884 51.0886 216.142 49.9645 214.897 49.8875C210.339 49.6065 207.216 46.9165 204.305 43.8145Z" fill="#F0B94C"/>
<path d="M317.928 217.762C317.715 218.577 317.173 219.554 316.409 219.232C311.327 217.089 305.71 216.218 301.117 212.941C300.031 212.166 298.708 211.086 300.066 209.543C301.156 208.304 302.222 209.288 303.158 209.971C306.764 212.602 311.398 212.752 315.165 214.985C316.325 215.673 317.795 216.05 317.928 217.762Z" fill="#E9AA2A"/>
<path d="M310.215 100.132C310.068 100.997 309.61 101.639 308.888 102C304.839 104.026 300.78 106.032 296.709 108.011C295.773 108.466 294.686 108.573 294.075 107.596C293.485 106.653 293.864 105.548 294.781 105.043C299.087 102.672 303.417 100.317 308.094 98.7436C309.072 98.4146 310.004 98.9496 310.215 100.132Z" fill="#E9AB2D"/>
<path d="M38.86 226.648C39.111 227.573 38.574 228.3 37.933 228.631C33.736 230.795 29.503 232.895 25.243 234.932C24.345 235.362 23.199 235.347 22.699 234.265C22.226 233.241 22.748 232.284 23.707 231.806C27.933 229.702 32.17 227.614 36.459 225.643C37.339 225.238 38.411 225.472 38.86 226.648Z" fill="#E9AA2A"/>
<path d="M79.9011 262.903C79.9311 262.014 79.9611 261.125 79.9901 260.236C80.2131 260.132 80.435 260.028 80.658 259.923C81.425 259.98 82.0611 260.316 82.6141 260.833C83.2621 261.576 83.676 262.448 83.98 263.379C84.092 263.864 84.0171 264.321 83.7631 264.75L83.5231 265.101C81.9301 265.004 80.7191 264.278 79.9011 262.903Z" fill="#EAA82C"/>
<path d="M172.098 286.343C174.827 284.474 177.852 285.564 180.761 285.478C177.985 286.881 175.022 286.413 172.098 286.343Z" fill="#EDAC33"/>
<path d="M279.717 97.5715C278.577 96.9485 278.481 95.9195 278.636 94.7905C279.543 95.5035 279.768 96.4835 279.717 97.5715Z" fill="#F0BC4E"/>
<path d="M278.395 93.9866C277.506 93.4916 277.264 92.6576 277.206 91.7256C278.07 92.2336 278.438 93.0016 278.395 93.9866Z" fill="#F0BC4E"/>
<path d="M194.805 282.809C195.383 281.927 196.261 281.756 197.225 281.791C196.617 282.604 195.796 282.908 194.805 282.809Z" fill="#E9A928"/>
<path d="M191.229 283.945C191.896 283.061 192.831 282.955 193.835 283.047C193.148 283.873 192.252 284.093 191.229 283.945Z" fill="#E9A928"/>
<path d="M277.161 91.6415C276.818 91.1925 276.476 90.7446 276.133 90.2946C276.77 90.5196 277.113 90.9675 277.161 91.6415Z" fill="#F0BC4E"/>
<path d="M276.193 90.3565C275.536 90.1435 275.131 89.7045 275.001 89.0195C275.7 89.1955 276.065 89.6705 276.193 90.3565Z" fill="#F0BC4E"/>
<path d="M275.083 89.0905C274.38 88.9385 273.957 88.5125 273.823 87.8015C274.529 87.9515 274.939 88.3905 275.083 89.0905Z" fill="#F0BC4E"/>
<path d="M273.897 87.8915C273.131 87.6765 272.723 87.1615 272.632 86.3785C273.269 86.7015 273.753 87.1545 273.897 87.8915Z" fill="#F0BC4E"/>
<path d="M270.988 84.3885C270.679 84.0605 270.369 83.7325 270.06 83.4055C270.592 83.5235 270.925 83.8285 270.988 84.3885Z" fill="#F0BC4E"/>
<path d="M77.574 127.51C85.074 121.566 92.573 115.621 101.028 108.92C100.917 115.985 104.38 120.66 106.602 125.834C108.568 130.411 107.451 134.761 105.059 138.883C104.009 140.692 102.377 142.321 103.287 145.042C108.848 143.202 114.115 141.048 119.922 142.809C121.414 143.262 122.42 141.906 123.081 140.591C125.502 139.255 127.338 136.642 130.603 137.134C132.191 141.363 135.184 143.586 139.611 144.854C150.197 147.885 153.032 152.739 151.51 163.771C151.456 164.164 151.307 164.555 151.317 164.945C151.393 167.778 149.155 171.586 151.963 173.171C154.465 174.585 156.754 171.269 158.77 169.419C159.811 168.464 160.94 167.361 162.339 167.442C169.066 167.83 171.559 163.043 174.024 158.159C174.203 157.805 174.296 157.403 174.501 157.068C176.354 154.047 178.055 150.054 182.468 151.734C186.619 153.315 187.204 157.37 186.322 161.35C185.122 166.762 183.226 172.031 183.188 177.667C183.102 179.485 182.615 181.179 181.65 182.722C181.3 183.41 180.734 183.993 180.302 186.599C188.952 176.536 199.779 172.16 209.679 166.304C215.24 167.512 220.557 169.215 226.464 166.605C230.207 164.951 234.208 172.096 232.293 177.027C231.295 179.597 230.183 182.188 228.807 184.562C223.827 193.154 225.704 200.872 231.36 208.247C234.215 216.581 227.639 225.78 218.378 226.436C217.797 226.258 217.308 225.926 216.916 225.462C214.648 221.226 216.064 218.329 220.117 216.192C221.983 215.208 224.247 214.671 225.374 212.535C224.291 210.7 222.333 210.767 220.719 210.179C213.799 207.658 211.416 202.908 214.408 196.221C217.394 189.547 214.187 182.876 214.997 176.193C215.328 173.46 211.818 172.661 209.908 175.012C208.282 177.014 206.906 179.223 205.072 181.07C200.033 186.437 193.202 188.995 186.851 192.119C182.799 194.112 179.527 195.974 178.943 200.787C178.785 202.085 179.098 203.938 177.154 204.032C175.387 204.118 174.228 202.755 173.688 201.194C172.261 197.065 172.871 192.951 174.057 188.867C175.634 183.436 176 178.033 173.693 171.47C171.682 176.321 170.533 180.33 166.923 182.834C165.091 184.105 165.452 186.402 165.044 188.319C164.666 190.093 164.2 192.198 161.921 191.975C159.941 191.782 160.141 189.654 159.832 188.15C159.641 187.22 159.841 186.167 158.888 185.385C156.591 186.488 156.733 189.015 155.731 190.836C153.819 194.308 151.904 197.54 147.013 195.973C143.166 194.74 140.524 190.444 141.089 186.052C141.268 184.659 141.865 183.378 142.281 182.048C142.762 180.512 142.997 178.936 142.922 177.332C142.783 174.355 138.7 169.518 136.288 169.91C132.765 170.483 132.535 173.868 132.196 176.424C131.42 182.291 132.391 188.268 131.515 194.17C131.405 194.911 132.123 196.064 131.659 196.477C126.299 201.248 129.574 205.378 132.331 209.745C133.274 211.239 132.981 213.23 132.479 215.015C132.038 216.251 131.305 217.238 130.124 217.858C128.832 218.326 127.599 218.257 126.448 217.46C122.451 206.713 117.473 196.175 119.732 184.136C120.203 181.628 118.292 180.73 116.263 180.05C114.009 179.295 111.544 178.688 111.281 175.645C111.29 175.056 111.39 174.477 111.575 173.917C112.296 171.804 115.249 169.761 113.062 167.542C111.075 165.526 108.344 163.886 104.964 165.336C103.531 165.951 101.895 166.129 100.463 166.871C99.3871 167.428 97.519 168.157 97.147 167.349C94.936 162.548 89.461 161.663 86.428 157.957C86.058 157.504 85.66 156.759 85.85 156.306C88.799 149.272 85.024 142.213 86.111 134.181C82.999 137.1 81.837 140.608 79.218 142.876C74.931 146.589 71.772 146.371 68.48 141.928C69.392 135.784 73.27 131.512 77.574 127.51Z" fill="#E8A725"/>
<path d="M180.425 182.495C181.241 181.006 181.799 179.452 181.626 177.715C184.239 170.307 187.004 162.965 190.726 156.018C192.586 152.547 192.705 148.916 191.641 145.127C191.018 142.909 189.997 140.623 191.187 138.246C190.415 134.671 187.472 135.583 185.56 136.143C182.711 136.977 179.723 136.594 176.976 137.625C175.063 138.343 174.039 137.403 173.253 135.857C174.446 135.857 175.655 135.73 176.829 135.88C180.642 136.368 182.651 134.58 183.917 131.089C185.244 127.43 185.448 127.532 188.796 129.105C190.748 130.022 192.691 130.725 194.161 132.603C195.169 133.89 197.035 133.892 198.081 132.023C198.594 131.106 198.151 129.329 199.967 129.619C201.501 129.864 203.299 129.557 204.485 130.824C206.782 133.276 209.428 135.747 209.061 139.46C208.465 145.502 210.013 150.754 213.562 155.643C215.058 157.704 215.925 160.228 217.036 162.561C219.336 167.387 222.897 168.053 226.666 164.338C227.942 163.08 228.9 161.696 229.652 159.988C231.004 156.92 232.602 156.758 235.134 158.922C238.048 161.413 239.33 168.012 236.837 172.134C233.52 177.619 231.708 183.755 228.695 189.272C226.369 193.53 227.789 197.177 229.342 200.389C230.652 203.1 231.885 207.012 236.756 206.883C238.674 206.832 240.909 209.089 242.559 210.736C245.648 213.82 245.51 216.146 242.594 220.757C238.339 224.348 232.699 225.457 228.288 228.841C225.29 231.142 222.735 233.536 222.268 237.499L222.276 237.511C221.446 239.297 219.984 239.912 218.094 239.904C216.604 239.898 214.982 239.591 213.895 241.087C213.638 241.545 213.301 241.933 212.878 242.249C212.219 242.715 211.503 243.057 210.722 243.276C210.186 243.404 209.645 243.457 209.094 243.448C205.065 241.017 204.687 239.01 208.309 236.105C212.93 232.4 217.777 228.943 222.584 225.508C225.363 223.522 228.255 222.289 229.157 218.616C229.473 217.328 230.455 216.02 231.611 215.333C236.788 212.256 233.885 210.538 230.638 208.804C226.114 206.183 225.507 201.566 224.668 197.071C223.407 190.311 226.659 184.802 229.67 179.246C230.517 177.683 231.976 176.226 231.573 174.383C231.118 172.302 230.729 170.115 229.098 168.422C226.89 166.131 225.078 168.068 223.202 168.852C218.112 170.979 213.543 169.586 209.119 166.952C208.504 167.527 207.677 167.681 206.938 167.672C196.515 167.544 190.502 174.606 184.335 181.444C183.345 182.542 182.633 184.232 180.623 183.507C180.504 183.464 180.412 183.234 180.385 183.078C180.357 182.893 180.409 182.691 180.425 182.495Z" fill="#EDAE35"/>
<path d="M191.188 138.246C192.761 141.683 193.338 145.41 194.097 149.051C194.966 153.218 192.394 156.769 190.677 160.108C188.411 164.516 186.258 168.882 184.774 173.61C184.249 175.284 183.472 176.962 181.626 177.716C181.565 172.296 183.043 167.177 184.627 162.069C185.611 158.895 185.756 155.893 182.981 153.302C181.46 151.881 180.34 151.871 179.034 153.389C177.883 154.728 175.973 155.698 175.857 157.57C175.611 161.568 172.32 163.63 170.485 166.588C169.19 168.675 167.038 170.114 164.374 168.964C161.936 167.912 160.267 169.043 159.495 170.914C158.137 174.205 154.801 174.372 152.406 175.902C150.153 177.341 148.207 175.625 148.886 172.781C149.765 169.101 149.392 165.342 150.176 161.608C150.861 158.344 149.504 154.638 148.958 151.142C148.878 150.632 148.197 149.753 147.946 149.803C144.099 150.571 142.362 146.211 138.485 146.274C133.486 146.356 130.365 142.264 130.216 137.06C129.215 135.845 129.176 134.642 130.259 133.452C133.972 138.74 133.978 138.749 139.354 134.875C142.726 132.445 146.07 130.004 149.944 128.359C151.832 127.558 153.315 127.301 154.51 129.328C154.801 129.822 155.259 130.31 155.76 130.573C160.403 133.005 161.914 136.905 160.751 142.485C168.89 139.969 170.9 147.052 174.888 150.885C177.459 149.401 177.568 146.846 178.457 144.709C180.908 138.821 184.759 136.889 191.188 138.246Z" fill="#EAA82A"/>
<path d="M78.8051 259.035C73.4761 255.871 69.555 251.779 66.23 246.222C63.556 241.754 60.499 237.364 57.837 232.767C55.592 228.891 55.223 224.046 51.584 220.886C51.075 220.444 50.9061 219.417 50.8721 218.647C50.5861 212.215 48.158 206.236 47.014 199.994C45.859 193.691 46.955 187.277 46.472 180.944C46.053 175.451 45.4581 170.05 46.4111 164.5C47.0671 160.68 45.8361 156.505 49.4531 153.446C50.0431 152.947 50.06 151.589 50.074 150.624C50.112 148.08 50.547 146.857 53.67 145.803C56.589 144.817 58.5131 140.887 60.8751 138.252C61.5401 138.74 61.8301 139.436 61.9711 140.217C62.0341 140.728 62.034 141.242 61.981 141.755C61.915 142.265 61.793 142.763 61.637 143.252C61.314 144.229 60.983 145.206 60.611 146.174C60.405 146.678 60.138 147.141 59.83 147.588C58.981 148.708 58.054 149.759 57.128 150.817C52.649 156.499 51.578 163.123 50.3 170.132C46.906 188.738 54.76 204.976 59.837 221.74C61.948 228.711 67.29 234.333 72.048 240.012C76.433 245.245 78.8921 251.449 79.4221 258.334C79.2171 258.569 79.0111 258.801 78.8051 259.035Z" fill="#EAA82C"/>
<path d="M111.086 58.1246C111.116 60.1466 109.635 61.2516 108.453 62.5696C105.298 66.0866 101.421 69.2356 99.2581 73.2926C96.3471 78.7536 92.7761 84.0126 91.1561 90.0816C90.5611 92.3096 90.8661 94.7836 90.7971 97.1466C90.7251 99.6386 92.3941 100.004 94.3491 99.9836C91.0011 103.835 84.1541 104.768 80.0131 101.98C78.8301 101.184 78.933 100.002 78.809 98.8356C78.236 93.4596 79.744 88.4966 82.64 84.1706C86.26 78.7626 90.2971 73.5906 95.8621 69.9236C97.5421 68.8166 98.8961 67.4106 100.071 65.7876C102.363 62.6226 106.251 61.3046 108.781 58.3706C109.15 57.9436 110.298 58.1896 111.086 58.1246Z" fill="#EEB13C"/>
<path d="M60.8781 141.835C60.8751 141.439 60.875 141.043 60.879 140.647C62.333 137.541 64.8751 135.277 67.2421 132.973C70.5811 129.723 72.8271 125.966 74.0581 121.531C75.7981 121.648 76.4191 122.694 76.4151 124.31C76.4121 125.507 76.4651 126.706 77.5751 127.509C77.6481 129.225 76.6211 130.469 75.5601 131.55C72.6541 134.509 71.0121 138.204 69.2471 141.84C69.0311 144.422 68.588 146.929 66.884 149.024C66.297 149.911 65.761 150.829 65.228 151.757C64.943 152.249 64.6061 152.694 64.2241 153.113C59.7901 154.927 59.725 151.912 60.072 149.075C60.368 146.665 61.6841 144.379 60.8781 141.835Z" fill="#E59E07"/>
<path d="M155.321 110.746C157.469 108.556 159.061 109.815 160.839 111.43C162.326 112.78 164.294 113.858 163.252 116.225C161.226 120.831 164.279 125.095 163.972 129.618C163.838 131.596 165.906 132.816 167.935 133.516C169.757 134.144 171.85 134.249 173.254 135.854C164.749 135.693 160.465 132.012 158.823 123.946C157.918 119.493 156.505 115.143 155.321 110.746Z" fill="#EEB039"/>
<path d="M130.261 133.452C130.247 134.655 130.232 135.858 130.218 137.06C128.452 139.477 126.41 141.334 123.082 140.591C123.201 138.04 122.634 135.438 123.438 132.946C124.15 130.74 125.592 128.85 128.067 129.162C130.287 129.442 130.156 131.679 130.261 133.452Z" fill="#E79E06"/>
<path d="M74.058 121.531C74.665 126.155 73.144 129.8 69.434 132.741C66.397 135.148 64.226 138.54 60.879 140.647C60.878 139.848 60.877 139.05 60.876 138.251C63.014 134.884 66.8611 132.547 67.0161 127.978C67.0461 127.1 67.7421 126.557 68.5131 126.4C71.3141 125.83 72.206 123.144 74.058 121.531Z" fill="#E9A521"/>
<path d="M79.991 260.235C79.596 259.835 79.2011 259.434 78.8051 259.034L78.809 259.028C79.2 258.707 79.5971 258.7 80.0001 259.006C80.2951 259.411 80.2971 259.817 80.0051 260.224L79.991 260.235Z" fill="#EAA82C"/>
<path d="M152.93 111.939C153.33 111.542 153.729 111.146 154.129 110.749C153.729 111.146 153.33 111.543 152.93 111.939Z" fill="#EEB039"/>
<path d="M227.062 82.0305C227.854 82.4365 228.647 82.8435 229.439 83.2495C230.24 84.1355 231.046 85.0825 232.116 85.5885C241.377 89.9655 241.359 98.0195 240.444 106.438C240.12 109.422 238.188 110.919 235.5 111.701C233.184 112.375 230.796 112.507 228.422 112.422C224.398 112.278 222.332 114.075 222.837 118.113C223.645 124.576 221.221 131.873 227.51 136.981C228.03 137.349 228.441 137.815 228.757 138.366C229.357 142.129 227.78 144.828 224.549 146.592C223.145 147.359 221.624 146.903 220.969 145.578C219.387 142.38 216.191 139.518 218.272 135.355C218.79 134.319 219.779 133.526 219.881 132.269C220.031 130.063 219.74 127.944 218.564 126.024C217.478 124.251 217.437 122.294 217.496 120.313C217.436 109.083 212.024 104.477 200.913 103.043C191.782 101.864 182.223 102.591 173.695 96.4445C168.916 93.0005 161.847 92.3575 155.747 90.6525C152.965 89.8755 150.416 88.6705 154.127 85.6325C155.802 84.1535 155.514 82.6615 153.638 81.9385C150.613 80.7735 148.164 78.9305 145.666 76.9315C143.691 75.3505 141.016 75.4535 139.119 77.4355C134.316 82.4545 128.935 86.8355 123.56 91.6015C122.282 87.6215 123.217 84.2365 125.84 80.9855C128.708 77.4315 131.494 73.9835 135.364 71.2895C140.126 67.9745 144.871 65.8275 150.815 66.4215C154.403 66.7795 157.902 65.5625 161.156 64.0925C163.792 62.9015 163.819 61.7085 162.089 59.5035C159.382 56.0545 155.674 56.7585 152.186 57.1405C150.051 57.3745 147.995 58.3535 145.758 58.1305C146.35 53.7475 149.75 52.5775 153.279 51.9275C159.112 50.8525 164.302 53.1995 168.838 56.3295C173.79 59.7475 172.991 66.0005 167.673 68.8705C166.293 69.6155 164.818 70.2255 163.348 70.7875C161.563 71.5545 159.536 71.3645 157.656 72.1645C159.958 75.8845 164.32 76.2975 167.515 78.5085C167.035 81.9525 163.149 80.6905 161.522 82.9545C167.003 88.8205 173.803 90.8295 181.651 89.8965C189.289 89.9755 196.868 88.6185 204.57 89.4555C210.289 90.0765 215.687 86.9525 221.471 86.9465C222.924 86.9455 223 85.3755 223.383 84.2805C223.992 82.5435 224.579 80.7205 227.062 82.0305Z" fill="#F0BB4D"/>
<path d="M222.27 237.503C221.117 234.22 221.844 231.521 224.773 229.527C230.3 225.765 235.705 221.749 242.596 220.761C242.596 221.162 242.596 221.562 242.596 221.963C245.233 225.454 251.467 225.566 255.93 222.817C264.145 217.756 269.815 209.895 277.267 204.024C279.998 202.941 281.037 199.317 284.441 199.244C281.116 205.932 276.61 211.974 273.342 218.631C271.62 222.138 270.455 225.854 267.874 228.944C266.576 230.497 266.638 232.601 266.439 234.605C265.815 240.873 260.596 246.865 254.64 247.96C252.052 248.436 249.494 246.174 246.443 248.639C246.944 244.728 249.754 243.163 249.531 240.393C249.503 240.048 249.192 239.725 249.008 239.383C247.208 238.833 247.285 241.476 245.323 241.287C245.117 239.068 244.163 236.986 242.558 235.25C240.978 233.542 238.617 232.482 236.723 232.951C231.836 234.159 226.405 233.878 222.27 237.503Z" fill="#EEB43F"/>
<path d="M162.497 70.0805C163.488 68.7015 165.054 68.3305 166.506 67.7025C171.614 65.4935 172.64 59.7805 167.758 57.3185C164.722 55.7875 161.643 53.5806 157.805 53.2386C152.771 52.7906 149.029 54.6696 145.758 58.1306C145.234 59.0676 144.353 59.2956 143.375 59.3286C140.151 59.7766 137.372 61.2465 134.715 63.0345C133.574 63.8025 132.397 64.5616 131.138 65.0916C130.428 65.3906 129.557 65.0605 128.99 64.4005C128.378 63.6875 128.546 62.9966 129.066 62.2786C129.997 60.9936 130.837 59.6426 131.785 58.3716C134.348 54.9366 138.281 52.6116 139.735 48.2256C140.043 47.2976 141.444 46.6026 142.48 46.0676C148.699 42.8556 155.323 40.4646 162.306 40.7476C168.125 40.9826 173.596 39.5046 179.24 38.9846C179.635 38.9876 180.03 38.9925 180.425 38.9995C180.78 39.4395 181.258 39.7565 181.625 40.1845C182.419 40.5885 183.213 40.9915 184.006 41.3955C184.492 41.9185 184.492 42.4406 184.014 42.9636C182.295 44.2156 180.264 44.2705 178.305 44.1495C169.447 43.6045 161.157 46.2266 152.803 48.7206C158.875 49.4806 164.824 47.8316 170.845 47.6786C172.611 47.6336 174.384 46.9715 176.141 47.5595C177.556 48.0325 178.436 48.5075 177.462 50.5245C175.028 55.5675 178.856 60.8955 185.216 61.7235C187.607 62.1175 189.997 62.5115 192.388 62.9045C193.969 64.8775 196.233 64.8005 198.411 64.8235C201.202 64.8535 203.981 65.0276 206.741 65.3906C211.38 66.0006 215.885 66.7856 217.374 72.3606C217.662 73.4376 219.02 74.0396 219.876 74.8686C220.293 75.2486 220.606 75.7326 221.07 76.0656C221.077 76.4606 221.083 76.8566 221.089 77.2516C220.836 77.4376 220.584 77.6245 220.333 77.8145C213.995 77.6505 207.584 77.7646 203.169 71.9076C202.185 70.6026 200.569 69.6506 199.015 69.9406C192.128 71.2266 185.272 69.5685 178.41 69.9915C177.797 70.1695 177.174 70.2806 176.543 70.3636C172.978 70.2436 169.621 71.8576 166.041 71.6406C164.689 71.5156 163.409 71.2115 162.497 70.0805Z" fill="#F1C054"/>
<path d="M154.127 85.6326C153.627 87.0386 152.293 88.8396 155.094 89.1456C161.603 89.8576 167.321 93.5406 173.871 94.0106C175.108 94.0996 176.271 94.2896 176.881 95.5076C179.043 99.8246 183.22 99.7836 187.057 99.8906C190.638 99.9906 194.132 100.277 197.578 101.219C198.528 101.479 199.668 102.192 200.407 101.901C208.562 98.6856 211.885 105.767 216.763 109.473C217.68 110.17 218.901 111.291 218.225 112.434C216.692 115.027 221.404 118.073 217.496 120.314C216.604 118.71 216.403 116.981 216.234 115.163C215.841 110.942 214.449 109.794 210.125 109.55C205.782 109.305 201.36 110.218 197.101 108.609C196.61 108.423 195.802 108.497 195.381 108.793C191.113 111.781 185.43 111.457 181.354 115.065C178.453 117.633 176.65 117.23 175.875 113.573C175.263 110.685 172.52 110.442 171.048 108.145C173.644 106.701 176.62 106.707 178.627 104.732C180.581 102.81 180.3 100.746 177.602 100.56C174.185 100.323 171.116 99.7396 168.236 97.8226C167.597 97.3976 166.233 97.6886 165.365 98.0466C162.428 99.2556 160.551 98.8876 159.504 95.4576C158.527 92.2556 155.345 92.1946 152.648 91.6356C151.069 91.3086 148.538 92.3846 148.481 89.6306C148.436 87.4246 150.211 86.1826 152.338 85.7176C152.914 85.5916 153.53 85.6556 154.127 85.6326Z" fill="#EFB646"/>
<path d="M240.208 147.813C240.207 145.821 240.205 143.829 240.204 141.836C239.785 141.458 239.428 141.017 239.009 140.639C235.558 139.238 231.313 141.41 228.252 138.25L228.246 138.244C226.529 134.868 228.459 132.212 231.167 131.852C235.732 131.245 235.749 128.343 236.059 125.186C236.214 123.604 236.181 122.016 235.998 120.439C235.64 117.355 235.378 113.96 239.336 113.359C243.078 112.79 247.556 111.875 248.75 117.598C249.167 119.597 250.724 120.753 252.504 120.975C257.245 121.566 258.89 124.317 258.611 128.737C258.547 129.752 259.014 130.662 259.368 131.589C259.841 133.012 260.588 134.442 259.341 135.849L259.305 135.871C258.375 135.138 257.474 134.364 256.509 133.681C253.388 131.472 251.205 132.375 251.054 136.244C250.906 140.025 250.935 143.778 249.361 147.31C248.881 148.386 248.473 149.539 247.377 150.206C244.208 151.747 241.916 150.657 240.208 147.813Z" fill="#F0BB4D"/>
<path d="M205.518 125.094C198.822 125.086 194.935 120.75 195.503 114.145C195.631 112.656 196.774 111.736 197.844 112.195C201.611 113.81 205.176 112.455 208.828 111.982C209.986 111.832 211.222 111.871 212.365 112.104C214.574 112.554 215.054 114.03 213.37 115.704C212.052 117.015 211.029 118.399 210.706 120.176C210.445 121.61 212.279 123.269 210.537 124.53C209.003 125.639 207.079 124.91 205.518 125.094Z" fill="#EDAE35"/>
<path d="M228.253 138.251C231.338 137.904 234.347 139.313 237.503 138.525C238.505 138.275 238.851 139.663 239.01 140.64C237.428 141.446 236.495 142.488 237.275 144.439C237.949 146.126 238.223 147.873 237.062 149.578C234.535 150.038 232.765 147.805 230.313 147.779C226.853 147.743 226.426 147.982 225.918 152.512C219.161 147.292 216.279 140.272 214.74 132.226C216.338 130.589 218.244 134.381 219.883 132.268C220.59 132.774 221.118 133.675 220.543 134.24C216.472 138.237 220.458 141.456 221.597 144.841C222.216 146.681 224.034 146.025 224.983 145.021C226.745 143.155 227.876 140.854 228.253 138.251Z" fill="#F1B946"/>
<path d="M138.578 119.111C133.348 117.985 132.449 116.105 135.45 112.151C137.548 109.387 139.194 106.345 143.186 105.279C146.601 104.367 149.395 105.664 152.45 106.134C153.327 106.269 153.819 106.902 153.844 107.769C153.871 108.678 153.273 109.241 152.459 109.439C148.268 110.459 145.742 114.255 141.822 115.763C140.338 116.334 139.283 117.624 138.581 119.108L138.578 119.111Z" fill="#F0BB4C"/>
<path d="M277.267 204.023C270.648 211.865 263.229 218.877 255.306 225.382C253.772 226.642 251.959 227.257 250.376 226.559C247.272 225.191 244.294 226.021 241.329 226.665C240.732 224.552 242.132 223.402 242.596 221.962C244.19 221.961 245.784 221.96 247.378 221.959C252.567 220.899 256.741 217.31 262.208 216.511C265.219 216.071 267.227 212.324 269.459 209.846C271.687 207.374 273.842 204.864 277.267 204.023Z" fill="#F0BA46"/>
<path d="M249.767 189.671C249.975 192.934 249.91 195.981 251.501 199.299C253.303 203.057 251.737 207.84 251.93 212.122C252.118 216.301 250.784 218.872 247.381 220.766C247.513 219.401 247.131 217.577 247.867 216.75C250.834 213.42 249.868 209.563 248.245 206.79C244.519 200.422 246.899 195.152 249.767 189.671Z" fill="#F0BA46"/>
<path d="M240.208 147.813C242.598 148.611 244.988 149.409 247.378 150.207C247.349 151.194 247.505 152.23 247.257 153.158C246.487 156.037 244.615 156.791 242.569 154.778C240.745 152.982 238.019 151.124 240.208 147.813Z" fill="#F1B946"/>
<path d="M259.343 135.851C258.941 134.657 258.538 133.463 258.136 132.269C257.647 124.766 258.003 117.171 255.697 109.864C255.395 106.977 255.497 104.108 258.735 102.95C261.634 101.913 263.897 103.716 265.245 105.888C269.353 112.506 277.173 114.914 281.79 120.892C284.272 124.029 285.767 127.546 285.885 131.59C289.341 143.002 285.848 153.986 283.684 165.009C282.424 171.429 280.491 177.719 280.062 184.294C279.74 189.226 276.144 192.396 273.735 196.208C271.84 198.109 270.326 201.117 266.964 199.783C263.566 198.435 263.737 195.139 263.697 192.158C263.662 189.516 264.287 187.046 266.035 184.97C268.73 181.769 269.544 177.976 269.541 173.929C269.992 171.544 267.294 169.442 268.891 166.948C268.893 166.152 268.895 165.356 268.897 164.559C268.205 163.767 268.212 162.969 268.874 162.164C268.882 161.368 268.889 160.572 268.897 159.776C263.685 159.496 262.195 156.113 261.748 151.562C261.273 146.729 261.793 141.814 260.531 137.052C260.136 136.65 259.739 136.251 259.343 135.851Z" fill="#F6CC69"/>
<path d="M280.843 121.512C277.351 118.076 273.013 115.773 269.176 112.802C266.801 110.963 265.475 108.228 263.528 106.025C262.373 104.718 261.123 103.157 259.042 103.912C256.985 104.658 256.935 106.538 256.95 108.361C256.953 108.756 256.948 109.15 256.947 109.544C253.669 108.843 252.755 105.765 251.28 103.481C247.818 98.1206 243.881 93.4125 238.105 90.4055C236.332 89.4825 233.886 88.5825 235.417 85.6375C243.17 86.6675 247.716 92.1676 252.193 97.7336C252.919 98.6366 253.137 99.9265 254.56 100.738C256.384 98.9445 256.115 96.8865 254.832 95.1115C251.261 90.1665 247.344 85.3916 244.141 80.2766C240.921 75.1336 236.098 70.6605 235.432 64.0895C236.224 64.0985 237.015 64.1086 237.807 64.1186C241.697 66.8456 243.543 71.1655 246.183 74.8665C246.719 78.3815 249.853 79.8726 251.999 82.0416C257.791 87.8956 262.204 94.9396 268.919 100.071C273.928 103.898 276.484 110.074 279.659 115.526C280.058 115.926 280.456 116.325 280.855 116.725C282.052 118.324 282.322 119.92 280.843 121.512Z" fill="#F4C862"/>
<path d="M280.843 121.512C280.847 119.917 280.85 118.321 280.854 116.726C285.789 118.923 286.568 123.599 287.579 128.106C287.74 128.825 287.197 130.102 287.523 130.324C292.172 133.492 290.046 138.244 290.385 142.353C291.354 154.096 289.144 165.563 286.647 176.915C285.763 180.934 284.19 184.56 285.488 188.874C286.312 191.614 281.749 197.97 278.961 199.343C277.849 199.891 277.097 199.635 276.314 198.945C274.924 197.72 273.733 198.74 272.491 199.244C271.724 198.381 271.859 197.481 272.378 196.565C278.117 192.495 280.036 186.528 281.297 179.921C283.186 170.028 285.333 160.18 286.609 150.187C287.439 143.69 286.957 137.24 284.44 131.073C284.635 127.361 282.121 124.669 280.843 121.512Z" fill="#F2C258"/>
<path d="M272.485 196.849C272.487 197.647 272.489 198.445 272.491 199.243C269.791 202.124 267.382 205.296 264.11 207.602C259.229 209.714 257.669 206.509 256.685 202.784C255.43 198.033 257.581 193.87 259.336 189.673V189.671C260.372 188.235 260.894 186.41 262.48 185.391C265.718 183.312 267.378 180.432 267.647 176.528C267.779 174.61 268.444 172.471 271.282 172.923C271.223 177.926 270.612 182.605 266.834 186.552C263.903 189.614 265.095 193.728 265.864 197.311C266.295 199.321 268.388 199.737 270.164 198.302C271.064 197.575 271.718 196.544 272.484 195.65C272.852 195.916 272.974 196.183 272.852 196.449C272.731 196.716 272.609 196.849 272.485 196.849Z" fill="#F4C860"/>
<path d="M279.658 115.527C276.929 114.032 275.225 111.663 273.936 108.91C271.79 104.325 268.973 100.386 263.952 98.5306C263.263 98.2756 262.487 97.6936 262.181 97.0556C258.843 90.1146 252.22 85.8816 247.94 79.7086C246.864 78.1566 246.04 76.7506 246.182 74.8666C250.718 78.9006 254.871 83.3546 259.721 87.0466C262.063 88.8296 264.046 90.8206 265.506 93.5876C267.383 97.1456 270.763 99.7546 273.416 102.766C276.459 106.218 279.553 110.035 279.658 115.527Z" fill="#F2C258"/>
<path d="M260.533 137.05C262.098 140.433 262.813 144.007 262.918 147.715C262.962 149.281 263.168 150.822 263.365 152.377C263.823 155.991 265.567 158.42 268.899 159.774C266.05 159.893 266.408 163.673 263.77 164.196C262.13 164.521 260.736 166.227 258.865 164.62C257.159 163.154 256.673 161.327 257.064 159.265C257.24 158.334 257.847 157.481 258.275 156.601C259.755 153.557 260.828 150.707 259.841 146.981C259.02 143.883 261.023 140.446 260.533 137.05Z" fill="#F2C35A"/>
<path d="M259.337 189.674C259.515 193.622 257.676 197.319 258.085 201.345C258.541 205.837 259.032 206.568 264.11 207.604C262.905 209.937 260.856 211.533 258.985 213.237C257.013 215.033 254.755 214.468 254.792 212.066C254.912 204.36 251.821 195.897 259.337 189.674Z" fill="#F2C258"/>
<path d="M271.284 172.924C269.466 173.776 268.703 175.294 268.93 177.191C269.472 181.726 267.17 184.443 263.463 186.501C261.963 187.333 260.705 188.603 259.337 189.673C258.911 185.86 259.668 182.663 263.557 180.863C264.933 180.226 265.538 178.788 265.202 177.37C264.708 175.285 264.854 173.577 266.6 172.12C267.437 171.422 267.421 170.583 266.786 169.54C265.207 166.948 267.652 167.388 268.892 166.947C268.714 169.329 271.48 170.534 271.284 172.924Z" fill="#F2C257"/>
<path d="M246.183 74.8665C242.379 72.0725 240.084 68.1026 237.807 64.1176C238.969 64.1366 240.711 63.8446 241.08 64.8026C242.447 68.3476 246.318 70.6065 246.183 74.8665Z" fill="#F2C258"/>
<path d="M268.876 162.162C268.884 162.96 268.891 163.759 268.899 164.557C267.708 163.771 267.688 162.972 268.876 162.162Z" fill="#F2C257"/>
<path d="M235.417 85.6386C235.517 87.1046 236.001 88.6286 237.505 88.8426C243.657 89.7166 246.414 94.9406 250.034 98.7986C252.9 101.854 254.683 105.925 256.947 109.545C259.399 115.812 259.967 122.204 258.355 128.782C258.082 129.895 258.2 131.105 258.137 132.27C256.074 130.323 257.218 127.794 256.948 125.53C256.76 123.954 256.49 122.888 254.452 123.325C251.669 123.922 249.815 121.591 247.553 120.642C245.338 119.712 247.348 117.493 247.267 115.455C244.807 115.095 242.391 114.505 239.966 114.461C237.946 114.424 236.559 115.556 237.248 117.927C238.806 123.288 237.193 128.424 236.31 133.646C230.523 131.731 230.422 131.79 228.248 138.247C224.712 138.331 222.838 136.712 222.232 133.117C221.181 126.872 221.076 120.604 221.071 114.308C221.069 111.804 222.127 110.684 224.64 110.741C227.417 110.804 230.215 110.915 232.972 110.663C238.101 110.194 238.936 109.151 239.006 103.974C239.017 103.18 238.904 102.37 239.024 101.594C240.053 94.8916 237.707 89.9846 231.408 87.1826C229.628 86.3906 229.372 84.9226 229.44 83.2506C229.839 83.2496 230.237 83.2476 230.636 83.2466C231.251 84.0146 232.404 83.6936 233.033 84.4326C233.429 84.4356 233.825 84.4396 234.22 84.4426C234.6 84.8586 234.998 85.2566 235.416 85.6356L235.417 85.6386Z" fill="#F1C257"/>
<path d="M227.062 82.0306C225.754 82.2186 224.885 82.8256 224.712 84.2586C224.501 86.0086 225.06 87.8476 223.905 89.9596C219.166 86.7396 214.637 89.9816 209.993 90.7216C207.625 91.0996 205.5 91.6666 203.061 91.0476C199.609 90.1716 196.039 89.4986 192.756 91.7876C192.087 92.2546 191.139 92.8146 190.591 92.2416C187.741 89.2636 184.607 91.7346 181.625 91.6066C178.931 89.3616 175.433 91.1156 172.499 89.7236C169.795 88.4406 168.145 87.0456 171.385 84.8546C173.388 83.4996 173.172 82.9766 172.473 80.6146C171.458 77.1826 175.185 76.9546 177.703 77.2606C181.237 77.6906 184.717 78.5096 188.272 77.5306C189.347 77.2746 190.433 77.2376 191.522 77.3636C192.821 77.5946 194.082 77.4756 195.295 76.9046C202.189 76.8046 208.92 77.7226 215.102 80.9176C218.145 82.4896 220.26 82.3576 221.625 78.9736C221.84 78.7946 222.058 78.6196 222.277 78.4446C223.873 79.6406 225.468 80.8356 227.062 82.0306Z" fill="#F2C358"/>
<path d="M185.217 61.7236C183.732 63.3916 181.809 63.3666 180.462 62.0376C178.082 59.6886 175.977 57.0306 173.974 54.3406C173.033 53.0776 173.326 52.7916 177.772 48.1876C171.266 49.7086 165.636 49.3116 160.168 50.4116C157.178 51.0136 154.251 50.9406 151.287 50.8356C150.063 50.7916 148.851 50.2536 148.764 48.8196C148.671 47.2866 150.136 46.7266 151.157 46.6236C159.602 45.7706 167.513 41.7026 176.245 42.5456C178.807 42.7926 181.412 42.5936 183.998 42.5986C184.742 42.6426 184.812 43.3756 185.204 43.7796C186.394 43.7606 187.585 43.7406 188.775 43.7206C188.597 44.2776 188.212 44.8606 188.276 45.3896C188.593 48.0266 187.896 49.4306 185.195 47.7296C183.513 46.6706 181.888 45.7146 180.862 47.9886C179.801 50.3396 175.742 51.8226 178.544 55.4726C180.439 57.9426 181.927 60.7726 185.217 61.7236Z" fill="#F5C962"/>
<path d="M219.878 74.8696C218.69 74.8106 217.479 74.8716 216.32 74.6566C215.332 74.4726 214.536 73.9846 214.953 72.6176C216.004 69.1706 213.949 68.2596 211.07 67.6426C206.572 66.6786 202.064 66.3176 197.488 66.4926C194.888 66.5916 192.641 66.1596 192.389 62.9056C198.084 62.4936 203.694 63.2906 209.292 64.1586C215.525 65.1256 218.813 68.4976 219.878 74.8696Z" fill="#F3C860"/>
<path d="M233.033 84.4305C232.049 84.4095 231.165 84.1855 230.636 83.2445C231.621 83.2635 232.507 83.4835 233.033 84.4305Z" fill="#F4C862"/>
<path d="M221.091 77.2535C221.487 77.6505 221.882 78.0486 222.278 78.4456L222.26 78.4636C221.19 78.7316 220.787 78.3375 221.066 77.2625L221.091 77.2535Z" fill="#F2C358"/>
<path d="M200.757 44.9796C201.173 44.5916 201.588 44.2036 202.005 43.8156C201.589 44.2046 201.173 44.5926 200.757 44.9796Z" fill="#F0B94C"/>
<path d="M212.708 241.098C213.104 241.095 213.501 241.092 213.897 241.091C217.473 241.27 221.159 243.563 224.561 240.221C225.279 239.516 226.982 239.677 227.74 240.84C228.499 242.004 227.937 243.211 227.007 244.031C223.751 246.902 220.475 249.757 217.094 252.478C215.975 253.379 213.888 253.603 213.152 252.822C210.715 250.238 208.837 253.124 206.726 253.052C205.754 249.193 202.969 248.344 199.462 248.641C193.749 249.124 188.121 249.129 182.67 246.802C181.021 246.098 179.603 245.815 180.601 243.628C181.02 242.877 181.601 242.27 182.271 241.744C184.727 239.975 187.348 238.529 190.293 237.73C191.317 237.407 192.343 237.084 193.352 236.703C193.864 236.493 194.387 236.33 194.92 236.186C200.627 234.462 205.991 232.234 210.319 227.84C212.132 226 214.267 223.665 217.487 225.547H217.493C217.162 231.077 212.191 232.795 208.918 235.868C206.681 237.969 203.503 239.064 201.825 242.67C204.911 242.882 207.606 243.238 210.316 242.292C210.713 242.29 211.111 242.287 211.508 242.285C211.878 241.858 212.357 241.543 212.708 241.098Z" fill="#E8A822"/>
<path d="M181.623 243.485C181.525 244.163 180.656 245.197 181.707 245.413C182.757 245.629 184.52 244.491 185.017 244.96C190.179 249.82 196.316 246.01 201.86 247.064C202.243 247.137 202.652 247.056 203.048 247.079C207.698 247.346 208.191 248.148 206.727 253.053C202.737 253.391 198.589 252.158 194.774 254.249C193.366 254.215 192.045 254.514 190.714 255.012C184.703 257.261 178.492 258.298 172.062 257.845C169.731 259.891 167.115 258.276 164.646 258.422C161.396 255.817 163.742 254.95 166.035 254.6C168.35 254.247 170.716 255.253 173.078 254.931C175.553 254.594 178.71 254.888 179.533 251.879C180.281 249.144 176.595 249.169 175.619 247.316C175.18 246.53 175.231 245.764 175.718 245.02C176.039 244.602 176.427 244.246 176.862 243.947C177.509 243.539 178.201 243.209 178.919 242.935C179.394 242.778 179.887 242.723 180.388 242.743C180.881 242.85 181.293 243.099 181.623 243.485Z" fill="#E7A416"/>
<path d="M130.201 217.15C130.605 216.363 131.009 215.576 131.413 214.788C132.661 208.504 132.924 208.26 138.952 210.45C142.233 211.641 145.329 212.296 148.697 210.809C151.167 209.718 153.519 210.083 154.554 212.913C155.644 215.89 157.227 214.141 158.736 213.597C160.605 212.922 162.356 211.994 164.158 211.177C170.626 208.247 173.949 209.151 178.047 214.94C179.19 216.555 180.188 217.859 182.268 216.154C184.319 214.472 186.193 211.582 189.363 213.859C192.51 216.119 194.868 219.038 194.707 223.265C194.654 224.649 194.536 226.03 194.629 227.418C194.605 227.996 194.5 228.561 194.341 229.116C193.185 231.092 192.715 233.357 191.737 235.412C189.276 237.954 185.86 239.011 183.048 241.013C178.942 241.494 176.119 245.208 171.918 245.453C168.536 243.571 165.366 242.485 163.009 247.015C162.372 248.239 160.637 249.44 159.55 248.986C154.609 246.923 149.512 248.96 144.612 248.035C141.773 247.499 140.556 245.055 139.852 242.43C139.334 240.499 139.609 238.456 139.004 236.559C137.999 235.677 137.158 235.893 136.8 237.104C136.354 238.615 136.179 240.2 135.666 241.707C133.017 249.486 131.89 249.197 124.423 246.136C117.53 243.311 114.972 238.585 113.533 232.088C112.917 229.308 112.03 226.451 110.091 223.85C107.123 232.598 104.32 241.236 103.253 250.335C103.057 250.827 102.804 251.296 102.53 251.747C102.269 252.181 101.967 252.595 101.657 252.994C101.52 253.195 101.363 253.39 101.227 253.593C100.697 254.396 100.295 255.274 99.86 256.134C99.224 257.531 97.681 257.952 96.746 259.032C96.26 260.133 95.47 260.934 94.374 261.433C93.356 262.476 92.0651 262.902 90.6741 263.21C88.2961 263.737 86.335 263.231 84.914 261.164C83.546 259.174 84.177 257.28 85.516 255.679C88.366 252.271 88.629 248.599 87.397 244.478C86.409 241.17 87.0481 237.841 87.6871 234.459C88.5381 229.957 89.301 225.289 83.052 223.372C80.532 222.599 79.119 220.048 78.309 217.513C76.144 210.744 73.445 204.089 74.029 196.73C74.31 193.19 71.95 189.849 73.235 186.156C74.169 183.47 73.8111 179.187 77.9191 179.856C81.8461 180.495 81.7661 184.078 80.9971 187.552C79.5531 194.075 80.732 200.462 82.29 206.917C85.892 206.184 85.752 203.007 86.999 200.948C89.917 196.127 93.5061 195.889 96.5181 200.696C98.3051 203.548 99.772 206.627 101.209 209.673C102.321 212.031 102.726 214.261 105.987 211.713C107.595 210.457 109.876 210.963 111.665 212.058C115.578 214.455 118.166 219.113 123.894 218.472C125.344 218.31 125.06 221.13 125.658 222.738C127.642 221.105 128.198 218.522 130.201 217.15Z" fill="#E09A00"/>
<path d="M130.201 217.15C130.077 219.827 128.123 221.843 127.595 224.397C127.343 225.617 126.378 226.612 124.993 226.249C123.744 225.922 123.178 224.839 123.194 223.489C123.21 222.139 124.675 221.026 123.826 219.543C119.148 220.989 119.154 220.983 115.383 217.296C113.964 215.908 112.648 214.357 111.041 213.23C108.754 211.625 106.486 212.188 105.218 214.513C104.769 215.335 104.891 216.661 103.6 216.604C102.323 216.547 100.967 215.399 101.014 214.478C101.225 210.293 97.421 207.972 96.655 204.312C96.574 203.927 96.4401 203.543 96.2691 203.189C95.2311 201.041 94.316 198.399 91.572 198.342C88.836 198.285 88.5271 201.218 87.7921 203.079C86.8921 205.358 85.9411 207.44 83.9481 208.922C82.1561 210.254 80.4731 209.502 80.3671 207.698C79.9351 200.313 76.7781 192.908 80.0471 185.53C80.8331 183.757 79.807 182.917 79.038 181.878C77.77 180.162 75.788 180.297 75.671 182.187C75.44 185.92 72.2341 189.731 75.7271 193.494C76.1681 193.968 76.3201 195.072 76.1141 195.731C73.7251 203.396 78.0181 209.893 79.7951 216.8C80.7201 220.396 82.4381 223.56 87.1851 222.755C88.7201 222.495 89.5451 223.726 89.4091 224.891C88.9461 228.854 91.131 232.784 88.733 236.913C87.482 239.065 87.9701 242.354 89.1261 245.029C90.9721 249.297 90.4421 253.076 86.9241 256.33C85.7961 257.373 84.3351 258.494 85.6621 260.346C86.8091 261.947 88.159 262.664 90.262 261.833C91.492 261.347 92.992 261.547 94.371 261.438C94.372 261.833 94.3631 262.227 94.3461 262.621C93.5351 263.404 92.7511 264.215 91.9581 265.016C91.1601 265.692 90.3571 265.682 89.5501 265.033L89.5531 265.032C87.7921 263.508 85.3621 265.271 83.5871 263.817C82.6331 263.303 82.4161 262.414 82.3761 261.436C81.6401 254.702 81.4501 247.98 82.7871 241.287C83.2601 238.922 83.6061 236.521 82.0871 234.385C76.3841 226.364 74.8101 216.866 72.5191 207.634C72.0391 205.701 71.6081 203.78 70.8211 201.938C67.8281 194.936 67.954 188.034 71.567 181.254C73.431 177.756 74.2751 173.73 76.9071 170.636C78.3411 168.95 80.0471 167.327 82.4631 167.76C84.8131 168.181 83.9831 170.665 84.7821 172.101C89.7471 181.018 88.1871 189.756 84.3881 198.511C83.9971 199.412 84.186 200.479 83.996 201.446C83.567 203.115 82.4611 204.604 82.5921 206.438C82.4381 207.221 82.8391 206.888 82.7871 206.672C82.4031 205.088 83.122 203.656 83.856 202.266C84.868 193.725 89.8181 187.762 96.4971 182.945C100.203 180.272 104.103 181.669 105.17 186.1C105.734 188.439 105.475 190.86 105.52 193.247C105.661 200.758 108.171 203.749 115.54 204.678C117.542 204.93 119.501 204.932 121.148 206.272C124.749 209.011 124.146 213.866 126.631 217.172C127.821 217.163 129.011 217.157 130.201 217.15Z" fill="#E69E06"/>
<path d="M175.646 274.575C179.013 274.586 182.38 274.598 185.747 274.607C187.277 274.611 188.135 275.184 188.781 276.776C190.891 281.969 190.471 283.192 184.877 283.924C181.371 284.383 177.762 284.115 174.2 284.071C171.97 284.044 170.791 282.222 169.39 280.874C168.004 279.541 166.597 279.242 165.323 280.789C163.266 283.287 161.01 282.741 158.394 281.83C153.753 280.213 149.01 278.889 144.301 277.472C142.306 276.872 140.293 276.357 139.779 279.361C134.886 276.538 129.524 274.938 124.227 273.098C121.979 272.317 119.531 271.039 118.263 268.593C117.838 268.221 117.483 267.78 117.064 267.402V267.399C112.98 263.431 106.579 261.75 105.063 255.243C108.394 253.893 110.65 256.374 113.199 257.635C115.295 258.672 117.105 260.299 119.961 260.856C120.446 257.753 119.188 253.821 123.846 252.896C127.832 252.104 131.52 251.105 134.375 255.446C136.253 258.301 140.611 256.413 142.837 259.087C144.183 261.221 144.852 263.515 143.463 265.803C140.735 270.296 143.785 270.624 147.035 271.249C156.494 273.067 166.024 274.191 175.646 274.575Z" fill="#E7A213"/>
<path d="M105.117 255.438C105.742 256.919 106.8 258.27 108.114 258.899C112.062 260.791 114.621 264.001 117.064 267.4C115.403 268.305 113.827 268.849 112.58 266.734C109.009 260.675 103.501 258.561 96.745 259.035C96.55 257.181 98.388 256.675 99.128 255.441C99.884 254.825 99.624 253.695 100.334 253.056L100.33 253.059C100.731 252.662 101.131 252.263 101.526 251.859L101.525 251.865C104.22 251.55 105.404 252.754 105.117 255.438Z" fill="#E8A521"/>
<path d="M83.5881 263.815C85.6031 264.091 87.8931 263.018 89.5551 265.029C87.6241 264.937 85.6931 264.844 83.7631 264.75C83.6561 264.446 83.5981 264.135 83.5881 263.815Z" fill="#E8A216"/>
<path d="M91.96 265.014C92.002 263.463 92.806 262.673 94.348 262.619C94.312 264.176 93.513 264.971 91.96 265.014Z" fill="#E8A216"/>
<path d="M89.5521 265.031C90.3551 265.025 91.157 265.02 91.96 265.014C91.166 266.223 90.3631 266.241 89.5521 265.031Z" fill="#E8A216"/>
<path d="M117.064 267.403C117.464 267.8 117.863 268.197 118.263 268.594C117.863 268.196 117.463 267.8 117.064 267.403Z" fill="#E8A521"/>
<path d="M175.646 274.574C170.718 274.575 165.789 274.518 160.862 274.599C157.882 274.648 154.98 274.474 152.164 273.371C150.725 272.807 149.289 272.213 147.622 272.959C145.604 273.862 143.814 273.153 142.194 271.751C141.175 270.869 139.455 270.613 139.155 269.127C138.803 267.384 140.628 266.96 141.618 266.173C144.449 263.923 141.616 261.372 142.171 259.035C142.621 258.384 143.159 257.673 143.912 257.557C150.514 256.545 157.121 255.997 163.687 257.833C166.479 257.837 169.272 257.841 172.064 257.845C171.196 259.399 170.681 261.078 170.733 262.797C168.722 262.929 168.726 261.349 167.944 260.607C165.558 258.344 162.164 258.773 160.378 261.52C158.28 264.748 158.28 264.748 154.803 263.446C155.54 270.513 157.623 272.797 164.089 273.324C166.459 273.517 168.857 273.354 171.242 273.389C172.803 273.411 174.47 273.098 175.646 274.574Z" fill="#E7A71B"/>
<path d="M185.204 43.7795C184.802 43.3855 184.4 42.9915 183.998 42.5985C184.001 42.1975 184.004 41.7965 184.007 41.3955C184.968 41.9085 185.175 42.7995 185.204 43.7795Z" fill="#F0BB4D"/>
<path d="M83.59 202.826C82.189 200.367 82.0001 198.103 83.9581 195.682C86.2421 192.858 86.5321 189.544 85.4011 186.083C85.0991 185.159 84.584 183.87 84.968 183.229C87.019 179.801 87.663 177.23 83.157 174.936C81.223 173.952 83.0501 170.952 83.3331 168.398C79.8861 169.245 77.92 170.939 76.723 173.53C74.808 177.674 72.6631 181.752 71.2031 186.057C69.5681 190.88 69.797 195.989 71.988 200.581C73.22 203.163 73.652 205.728 74.278 208.411C75.761 214.765 77.7691 221.004 79.7371 227.235C80.3261 229.1 81.0761 231.171 82.7161 232.325C85.5571 234.323 85.5201 236.967 84.7161 239.709C83.2881 244.581 83.6041 249.541 83.5991 254.492C83.5961 256.887 83.7181 259.283 82.3771 261.434C81.5861 261.031 80.7951 260.628 80.0051 260.225C80.0031 259.827 80.001 259.43 79.999 259.032C79.994 258.782 79.988 258.532 79.981 258.282C79.805 256.982 79.279 255.777 78.96 254.508C78.275 251.528 78.125 248.567 79.137 245.624C81.466 242.284 80.1941 239.142 78.4401 236.171C74.5971 229.663 70.861 223.168 69.896 215.442C69.549 212.665 67.735 210.379 66.222 208.035C55.536 191.48 53.611 173.363 56.735 154.353C57.193 151.563 58.42 149.091 59.675 146.617V146.619C60.812 145.665 59.794 143.998 60.865 143.022C60.863 142.626 60.868 142.231 60.878 141.835C63.098 144.472 61.954 147.207 61.141 149.95C60.781 151.165 61.028 152.474 62.217 152.854C62.755 153.026 63.7 151.927 64.46 151.404C66.163 152.67 67.759 152.898 69.936 152.048C75.631 149.826 78.8671 152.397 78.7161 158.648C78.5521 165.42 78.563 165.55 85.446 164.976C89.165 164.666 92.211 164.588 92.701 169.485C93.027 172.744 94.4 171.789 96.639 170.529C101.189 167.969 106.087 166.948 111.149 169.862C113.268 171.081 113.479 172.282 112.284 174.125L112.282 174.124C111.778 179.148 112.856 184.129 112.66 189.173C112.566 191.595 115.258 192.941 117.025 194.494C121.094 198.068 122.159 202.483 120.651 207.605C119.99 207.175 119.291 206.792 118.674 206.305C116.736 204.776 115.326 208.661 113.317 206.772C112.039 205.571 110.864 204.186 108.878 204.014C104.989 203.676 104.247 200.645 103.994 197.64C103.713 194.292 103.826 190.901 103.937 187.534C104.012 185.257 103.229 183.712 101.051 182.936C98.939 182.184 97.692 183.211 96.692 184.936C96.304 185.605 95.819 186.394 95.173 186.708C89.723 189.364 86.941 193.847 86.016 199.675C85.781 201.157 84.9491 202.201 83.5831 202.82L83.59 202.826Z" fill="#E8A216"/>
<path d="M158.896 214.778C158.413 215.112 157.926 215.44 157.448 215.781C156.461 216.485 156.327 218.686 154.366 217.656C153.177 217.032 153.161 215.848 153.081 214.601C152.862 211.202 151.924 210.372 149.51 211.97C145.818 214.414 142.495 213.775 138.958 212.021C138.086 211.589 137.053 211.478 136.187 211.037C133.546 209.69 132.645 210.872 132.413 213.396C132.368 213.887 131.761 214.326 131.413 214.789C131.728 211.465 131.228 208.491 128.351 206.245C127.461 205.55 126.906 204.368 126.338 203.333C125.384 201.591 124.961 200.042 127.552 199.142C130.126 198.247 131.747 196.81 129.516 193.871C129.017 193.213 128.83 191.538 129.275 191.07C131.979 188.224 130.423 185.019 130.147 182.039C129.724 177.479 130.999 173.381 132.8 169.377C133.982 166.747 135.646 166.393 137.971 168.235C139.672 169.583 141.024 171.334 143.226 172.054C144.607 172.505 144.517 173.904 144.547 175.093C144.632 178.482 144.386 181.693 142.904 184.958C140.964 189.232 143.841 193.578 148.397 194.774C150.248 195.26 151.273 195.126 152.358 193.482C153.682 191.475 154.885 189.541 155.407 187.104C156.049 184.108 156.256 184.153 160.34 181.918C161.852 183.118 161.131 184.83 161.28 186.319C161.436 187.871 161.456 189.437 161.538 191.067C164.14 190.604 163.567 188.732 163.669 187.282C163.871 184.417 163.595 182.128 167.419 180.384C170.307 179.067 171.27 174.256 172.239 170.613C176.653 171.809 177.049 175.016 176.918 178.885C176.783 182.883 176.384 186.719 175.282 190.614C174.077 194.878 172.916 199.507 177.289 203.32C176.45 199.939 177.327 197.164 179.558 194.731C181.622 192.48 183.739 190.82 187.123 190.641C190.212 190.477 192.403 188.285 193.992 185.486C194.901 183.885 196.193 181.598 198.338 184.648C199.091 185.719 199.524 184.673 199.978 184.109C201.227 182.557 202.5 181.021 204.338 180.108C209.789 176.988 211.391 177.666 211.873 183.598C212.4 190.088 213.689 196.545 212.793 203.114C212.43 205.774 211.065 208.434 215.765 209.528C218.474 210.158 217.754 214.021 216.514 216.342C213.914 221.208 211.112 225.995 207.779 230.395C204.766 234.372 199.51 234.475 195.549 236.862C193.378 232.32 195.197 228.506 198.39 225.572C201.043 223.135 202.187 220.754 201.495 217.22C200.811 213.723 203.296 210.808 203.741 207.477C203.992 205.601 205.022 204.391 201.524 203.773C198.255 203.195 195.663 199.123 191.468 201.389C188.158 202.923 184.712 203.901 182.402 207.362C180.313 210.492 174.882 210.262 171.077 207.647C168.651 199.562 171.574 191.534 171.267 182.618C167.035 191.57 159.684 198.252 159.741 208.384C159.179 210.473 159.928 212.746 158.896 214.778Z" fill="#E8A317"/>
<path d="M112.284 174.126C112.053 172.548 112.776 169.994 109.552 171.504C109.077 171.726 108.073 171.916 108.042 171.837C105.5 165.326 101.417 172.999 98.345 170.82C97.858 170.475 97.1041 171.577 96.8781 172.369C96.5691 173.448 96.6651 175.075 94.9841 174.765C93.2401 174.444 91.4741 173.684 91.0081 171.669C90.7961 170.75 90.912 169.701 91.097 168.754C91.532 166.525 90.19 165.409 88.519 166.066C85.984 167.063 83.506 166.431 81.028 166.723C77.906 167.091 76.7471 166.296 76.4501 163.457C76.2811 161.834 76.8031 160.349 77.3381 158.844C78.3031 156.127 76.3601 154.375 75.0081 152.486C74.3081 151.508 73.2691 151.756 72.3621 152.288C71.3431 152.885 70.3761 153.57 69.3621 154.175C65.7331 156.339 65.394 156.142 64.46 151.406V151.404C65.228 150.79 64.919 149.64 65.653 149.009C67.187 146.788 67.429 143.92 69.248 141.841C72.683 144.834 74.478 145.078 77.319 142.647C78.964 141.239 80.6 139.757 81.48 137.666C81.787 136.937 82.094 136.169 82.58 135.562C83.889 133.924 85.154 130.929 87.288 131.898C89.56 132.929 88.4391 135.66 87.2451 137.563C86.6521 138.508 86.4981 139.446 87.0891 140.328C89.3691 143.732 87.5771 147.796 88.9431 151.332C89.3681 152.431 89.0361 153.262 88.0861 153.862C85.1161 155.74 87.857 157.203 88.494 158.742C89.277 160.634 90.242 159.863 91.679 159.108C93.95 157.916 95.435 158.944 95.545 161.661C95.593 162.834 95.677 164.057 96.056 165.15C96.383 166.091 97.7411 167.123 98.3231 166.404C100.938 163.174 105.916 165.233 108.009 161.324C110.273 162.807 110.61 166.696 114.31 165.09C115.361 164.634 115.82 166.04 115.825 167.084C115.836 170.022 114.96 172.531 112.284 174.126Z" fill="#E7A41E"/>
<path d="M194.772 236.309C198.423 233.492 204.313 233.971 206.599 229.662C209.271 224.624 213.066 220.342 215.478 215.192C215.996 214.086 216.341 212.981 216.207 211.746C215.995 209.787 214.769 209.196 213.137 210.56C212.194 211.349 211.573 212.508 210.265 211.437C209.151 210.525 209.536 209.36 209.959 208.173C212.161 201.991 211.986 195.755 210.557 189.416C210.085 187.322 210.41 185.054 210.305 182.869C210.122 179.062 209.976 178.973 206.098 179.779C205.515 179.9 204.926 179.997 204.34 180.105C205.535 177.825 207.831 176.334 208.726 173.811C209.358 172.031 210.257 170.746 212.688 171.549C215.808 172.58 218.045 174.305 217.27 176.745C215.867 181.159 216.675 185.282 217.451 189.552C217.974 192.429 216.666 194.92 215.427 197.445C213.186 202.009 215.472 207.742 220.329 208.518C223.417 209.012 225.749 210.64 228.71 211.752C227.618 214.678 224.81 216.011 222.541 216.736C217.761 218.265 216.612 221.143 217.489 225.549C213.872 225.895 211.769 228.557 209.258 230.721C204.774 234.584 199.631 237.153 193.581 237.508C193.344 236.476 193.671 236.007 194.772 236.309Z" fill="#E7A41C"/>
<path d="M120.652 207.606C120.446 202.103 119.447 197.211 113.939 194.101C111.02 192.453 108.982 189.742 110.834 185.601C111.654 183.768 111.01 181.294 111.097 179.114C111.166 177.383 110.622 175.484 112.282 174.124C111.772 177.577 114.505 177.931 116.712 178.576C122.458 180.253 122.188 180.201 121.317 186.136C120.309 193.007 121.126 199.713 123.985 206.256C125.457 209.624 128.333 212.929 126.63 217.17C124.625 216.092 123.18 214.657 122.995 212.193C122.859 210.384 122.13 208.779 120.652 207.606Z" fill="#E7A41B"/>
<path d="M210.317 242.292C207.809 243.963 204.803 244.227 202.034 245.141C200.206 245.744 199.092 244.361 199.759 242.455C200.653 239.9 202.587 237.852 204.862 236.891C210.461 234.525 213.691 229.771 217.494 225.548C222.892 225.402 226.635 223.047 228.588 217.8C229.682 214.86 232.714 212.451 230.642 208.809C231.038 208.809 231.434 208.79 231.829 208.811C233.934 208.921 236.584 208.219 237.412 210.942C238.3 213.865 235.191 214.28 233.677 215.543C231.902 217.024 229.324 217.741 229.91 220.865C230.138 222.081 229.208 222.634 228.344 223.104C221.763 226.682 217.024 232.761 210.407 236.295C209.551 236.752 208.721 237.362 208.065 238.072C205.975 240.329 206.503 241.281 210.317 242.292Z" fill="#E9A928"/>
<path d="M180.425 182.495C181.2 183.355 181.942 182.938 182.273 182.189C185.001 176.014 191.287 173.205 195.34 168.288C196.433 166.962 198.087 166.933 199.692 166.945C202.835 166.968 205.979 166.954 209.122 166.955C206.804 169.641 202.871 170.477 201.186 173.944C200.901 174.531 199.947 175.031 199.239 175.135C195.56 175.674 191.583 175.494 190.496 180.447C190.287 181.4 188.772 181.179 187.84 181.448C185.5 182.123 184.435 184.032 183.444 186.014C182.564 187.775 181.41 189.273 179.345 187.671C177.571 186.295 177.787 184.605 179.419 183.123C179.707 182.862 180.087 182.702 180.425 182.495Z" fill="#EAA92C"/>
<path d="M110.493 145.974C112.162 147.169 113.523 148.292 115.021 149.184C117.813 150.845 116.508 152.989 115.547 154.775C114.435 156.841 112.834 156.029 111.11 155.085C105.681 152.113 105.632 152.189 109.248 146.929C109.455 146.628 109.85 146.457 110.493 145.974Z" fill="#E7A41E"/>
<path d="M80.0051 245.878C80.0061 249.465 80.0071 253.052 80.0081 256.639C80.7021 257.436 80.668 258.234 80.011 259.033L79.999 259.032C79.602 259.032 79.206 259.031 78.809 259.029C76.229 252.138 75.005 244.682 69.256 239.208C64.34 234.527 61.392 228.308 57.897 222.59C56.329 220.026 56.744 216.555 55.666 213.496C52.979 205.874 50.049 198.303 48.444 190.299C47.845 187.312 47.253 184.284 47.892 181.487C49.062 176.363 48.53 171.222 48.998 166.119C49.606 159.477 51.9091 153.445 57.2861 149.012C58.4841 150.241 57.9921 151.609 57.5231 152.908C53.7201 163.427 55.787 174.056 56.977 184.643C58.661 199.625 62.64 213.849 71.116 226.579C72.533 228.707 73.065 231.357 73.793 233.83C74.651 236.744 75.558 239.479 78.576 240.995C80.621 242.022 81.4761 243.681 80.0051 245.878Z" fill="#E8A725"/>
<path d="M80.0051 245.878C80.0911 243.872 79.6231 242.471 77.1951 242.193C74.7891 241.918 73.2751 240.316 72.9051 237.883C71.8471 230.918 68.3991 225.072 64.8371 219.139C61.9181 214.276 59.9201 208.844 58.5481 203.278C55.7461 191.913 55.17 180.226 53.765 168.665C53.112 163.29 53.6791 157.928 56.4491 153.049C57.1661 151.787 57.3141 150.421 57.2871 149.012C57.7491 147.88 58.5421 147.079 59.6751 146.617C59.6491 147.609 59.8791 148.695 59.5561 149.579C56.1131 159.004 57.3581 168.797 57.3671 178.455C57.3741 185.701 60.6681 192.211 63.1131 198.869C64.2021 201.834 65.508 204.646 67.684 207.084C70.367 210.091 72.1541 213.813 72.3511 217.793C72.6531 223.896 76.1881 228.43 78.8771 233.414C79.9111 235.33 81.1811 237.165 81.8981 239.195C82.7861 241.709 83.0041 244.327 80.0051 245.878Z" fill="#E7A41B"/>
<path d="M60.8641 143.022C60.8401 144.344 61.0621 145.748 59.6741 146.619C59.7081 145.3 59.4981 143.9 60.8641 143.022Z" fill="#E7A41B"/>
<path d="M65.652 149.008C65.629 149.993 65.408 150.879 64.459 151.403C64.484 150.419 64.708 149.534 65.652 149.008Z" fill="#E8A216"/>
<path d="M162.497 70.0805C163.691 70.0825 164.886 70.0835 166.08 70.0855C169.872 71.5295 173.336 70.0335 176.84 68.8875C177.238 68.8845 177.636 68.8825 178.034 68.8815C181.622 67.4035 184.552 69.4065 187.383 70.9635C189.401 72.0735 191.743 74.0305 191.098 76.4695C190.503 78.7185 187.564 78.0885 185.56 78.4205C180.117 77.6005 174.637 75.7085 169.352 79.1685C168.743 79.5675 167.87 79.0085 167.276 78.4575C161.361 79.8495 158.855 74.7165 154.743 72.3075C157.009 69.4415 159.885 70.2535 162.497 70.0805Z" fill="#EFB442"/>
<path d="M167.277 78.4575C168.043 78.2715 168.977 78.3045 169.549 77.8665C174.652 73.9525 179.928 75.7485 185.21 77.2595C186.149 78.4275 187.845 77.3245 188.797 78.4555C185.723 80.6365 182.44 79.7315 179.218 79.0135C177.1 78.5415 175.043 77.8525 172.846 79.7565C173.694 81.7495 177.099 79.9445 177.192 82.9655C176.136 85.5935 172.52 84.8245 170.25 87.2115C172.388 88.4075 174.35 89.3035 176.696 89.2105C178.773 89.1285 180.652 89.4285 181.625 91.6065C178.3 91.3825 174.971 91.9605 171.632 90.9235C169.163 90.1565 166.671 89.7455 164.97 87.5365C163.79 86.0035 162.041 85.6835 160.243 85.4275C159.219 85.2815 158.363 84.6055 158.205 83.5525C157.993 82.1345 159.041 81.5275 160.168 80.9845C162.451 79.8845 165.26 80.2855 167.277 78.4575Z" fill="#F1BF53"/>
<path d="M188.797 78.4545C187.481 78.4165 186.078 78.6395 185.21 77.2585C186.868 76.9955 188.678 77.8425 190.439 76.4885C187.442 71.9625 183.664 68.9595 178.034 68.8825C179.672 67.0835 181.673 67.6035 183.584 68.1335C187.706 69.2765 191.811 69.1715 195.952 68.2965C200.643 67.3055 203.272 68.3535 205.672 72.4875C206.594 74.0755 207.751 74.6085 209.441 74.8985C213.337 75.5665 217.193 76.4615 221.066 77.2645C221.464 77.6645 221.862 78.0645 222.26 78.4655C222.065 84.7305 219.887 86.3365 214.982 82.7255C209.245 78.5015 202.322 80.3475 196.39 77.7945C196.016 77.6335 195.32 78.2195 194.775 78.4585C193.977 79.1465 193.18 79.1475 192.384 78.4555C191.188 78.4545 189.992 78.4545 188.797 78.4545Z" fill="#F0BA4C"/>
<path d="M176.84 68.8876C173.551 71.9586 169.939 72.1366 166.08 70.0856C169.747 70.4026 173.142 68.2846 176.84 68.8876Z" fill="#F0BB4D"/>
<path d="M272.485 196.849C272.485 196.449 272.485 196.05 272.485 195.65C273.41 194.129 274.13 192.422 275.304 191.128C277.583 188.617 278.445 185.822 278.527 182.45C278.692 175.666 281.463 169.32 282.348 162.675C283.311 155.447 286.155 148.561 285.755 141.061C285.573 137.657 284.005 134.505 284.441 131.074C289.155 138.18 288.696 146.286 287.782 154.002C286.491 164.908 284.114 175.69 281.441 186.388C280.371 190.672 279.177 194.28 274.459 195.568C273.738 195.764 273.14 196.411 272.485 196.849Z" fill="#F3C760"/>
<path d="M192.383 78.4546C193.18 78.4556 193.977 78.4566 194.774 78.4576C193.976 79.6566 193.179 79.6546 192.383 78.4546Z" fill="#F1BF53"/>
<path d="M194.772 236.309C194.374 236.708 193.977 237.107 193.579 237.506C192.93 238.201 191.809 237.952 191.188 238.702C188.398 239.898 185.609 241.094 182.819 242.29C182.657 242.119 182.494 241.948 182.331 241.777C182.088 241.046 182.188 240.403 182.819 239.899C185.33 237.817 188.008 236.027 191.188 235.115C192.782 233.441 192.034 230.829 193.579 229.136C193.58 228.738 193.581 228.34 193.582 227.942C193.546 224.371 195.814 221.812 197.512 219.004C198.868 216.762 199.142 214.198 199.727 211.716C200.62 207.927 196.617 209.075 195.379 207.328C193.809 205.112 191.521 203.393 191.184 200.433C191.89 199.204 192.57 197.869 194.36 198.577C195.085 198.863 196.043 199.867 196.363 199.672C200.673 197.041 200.536 200.889 201.139 203.12C203.304 203.079 203.884 200.178 206.433 201.313C206.391 204.368 205.015 207.265 204.557 210.307C204.134 213.117 201.684 215.5 203.594 219.021C204.352 220.418 203.686 224.532 200.928 225.684C197.866 226.962 197.082 229.067 196.735 231.997C196.559 233.49 195.456 234.875 194.772 236.309Z" fill="#E69F0D"/>
<path d="M181.623 243.485C181.224 243.483 180.826 243.481 180.427 243.479C180.421 241.489 181.418 241.493 182.809 242.28L182.818 242.289C182.42 242.688 182.022 243.087 181.623 243.485Z" fill="#E69F0D"/>
<path d="M191.188 238.702C191.713 237.758 192.596 237.533 193.579 237.506C193.057 238.455 192.171 238.676 191.188 238.702Z" fill="#E7A41C"/>
<path d="M182.81 242.28C181.832 242.316 180.949 242.538 180.428 243.479C180.03 243.482 179.632 243.485 179.234 243.486C178.867 243.916 178.387 244.232 178.036 244.677C177.639 244.679 177.241 244.681 176.844 244.683C176.444 245.08 176.071 245.505 175.647 245.878C177.21 247.95 179.657 248.136 181.89 248.601C181.573 255.227 181.591 255.33 175.777 256.36C172.883 256.873 169.911 257.043 167.036 255.937C165.203 255.232 163.948 255.689 163.686 257.832C156.59 259.593 149.282 257.562 142.17 259.034C140.607 258.872 138.965 258.328 137.498 258.631C134.876 259.173 133.286 258.6 132.547 255.914C131.784 253.142 129.946 252.758 127.466 253.747C126.572 254.103 125.53 254.073 124.565 254.264C120.95 254.977 120.771 255.309 122.119 258.787C122.26 259.151 122.565 259.455 122.692 259.822C123.128 261.081 122.815 262.199 121.782 263.002C120.879 263.704 120.001 263.346 119.07 262.8C115.194 260.526 111.286 258.306 107.357 256.124C106.689 255.753 105.867 255.66 105.116 255.439C104.317 253.847 103.135 252.641 101.525 251.866C102.354 248.998 102.952 246.108 102.731 243.084C102.54 240.469 102.753 238.004 104.623 235.811C106.072 234.111 106.407 231.896 106.322 229.624C106.181 225.853 107.837 222.835 110.602 219.719C113.594 224.28 113.867 229.365 115.824 233.788C116.378 235.039 116.803 236.438 116.877 237.792C117.032 240.639 118.447 242.013 121.154 242.665C123.646 243.265 125.864 244.422 127.812 246.334C130.38 248.854 131.205 248.513 132.683 244.897C133.798 242.169 135.067 239.566 135.154 236.408C135.237 233.38 137.897 232.911 140.971 235.114C138.942 237.866 138.711 241.031 139.168 244.222C140.507 253.586 149.582 257.782 157.328 252.392C160.118 250.451 163.75 249.665 165.519 246.004C166.715 243.529 169.866 245.272 172.059 244.684C175.869 243.593 178.474 239.789 182.819 239.9C182.816 240.692 182.813 241.486 182.81 242.28Z" fill="#E79E08"/>
<path d="M191.185 200.431C193.592 201.421 194.02 204.129 195.788 205.73C197.558 207.333 199.032 209.112 202.111 206.783C200.953 213.505 200.526 219.473 195.871 223.899C194.68 225.031 195.101 227.026 193.581 227.94C193.292 227.201 192.567 226.286 192.783 225.749C194.727 220.914 191.55 218.219 188.808 215.138C187.685 213.876 187.006 213.937 185.922 214.752C183.869 216.297 181.823 217.852 179.569 219.559C178.538 218.034 175.857 216.479 175.511 213.189C175.358 211.735 174.251 211.303 172.95 211.238C169.748 211.077 166.513 210.912 163.816 213.073C162.342 214.254 160.796 214.953 158.897 214.777C158.065 212.784 156.666 210.79 158.903 208.801C159.934 205.967 160.083 202.27 164.092 201.922C168.162 201.569 170.365 204.358 172.062 207.607C174.799 209.042 177.659 206.978 180.447 207.866C180.74 207.959 181.639 207.209 181.714 206.759C182.638 201.252 187.561 201.825 191.185 200.431Z" fill="#E69D05"/>
<path d="M172.059 244.681C170.951 246.276 169.182 245.675 167.691 246.005C166.196 246.336 164.908 247.135 165.35 248.822C166.265 252.318 164.142 251.988 162.063 251.556C160.684 251.269 159.663 251.483 159.176 252.816C157.473 257.475 152.963 255.098 149.905 256.29C147.637 257.174 143.616 256.344 142.28 254.321C139.986 250.847 137.037 247.394 137.299 242.557C137.471 239.379 137.741 236.615 140.972 235.111C140.973 236.297 141.004 237.483 140.97 238.668C140.881 241.726 141.045 245.033 144.029 246.47C147.381 248.084 150.873 247.554 153.222 244.119C154.872 245.471 155.52 247.498 157.363 247.894C160.06 248.473 161.771 246.989 163.059 244.724C165.338 240.716 167.324 240.486 170.611 243.678C171.026 244.082 171.573 244.35 172.059 244.681Z" fill="#E59C00"/>
<path d="M193.579 229.135C193.566 231.442 193.957 233.91 191.188 235.114C191.201 232.807 190.81 230.339 193.579 229.135Z" fill="#E69D05"/>
<path d="M100.334 253.056C100.308 254.041 100.081 254.925 99.1281 255.441C99.1571 254.457 99.379 253.571 100.334 253.056Z" fill="#E79E08"/>
<path d="M83.585 202.823C83.458 204.283 83.9341 205.997 81.6091 206.935C81.6381 205.029 82.344 203.813 83.59 202.826L83.585 202.823Z" fill="#E8A216"/>
<path d="M80.0101 259.032C80.0091 258.234 80.008 257.436 80.007 256.638C81.202 257.435 81.2021 258.233 80.0101 259.032Z" fill="#E7A41B"/>
<path d="M172.062 207.609C170.672 206.529 169.35 205.344 167.879 204.388C164.372 202.11 163.129 202.461 161.23 206.286C160.675 207.403 160.023 208.28 158.903 208.802C158.355 207.549 157.586 206.34 158.479 204.907C159.888 202.645 160.288 200.152 160.127 197.523C160.024 195.838 160.507 194.333 162.103 193.523C165.81 191.64 167.032 188.034 168.374 184.544C168.872 183.248 169.221 181.898 170.207 180.887C170.962 180.113 171.98 180.036 172.961 180.377C174.239 180.821 173.94 181.788 173.715 182.794C171.884 190.977 171.385 199.255 172.062 207.609Z" fill="#E79F0C"/>
</svg>
