<svg width="94" height="57" viewBox="0 0 94 57" fill="none" xmlns="http://www.w3.org/2000/svg">
<path d="M14.5 41.5C4.10005 37.1 4.50004 33 6.00004 31.5L66 20.5L72 9L81 4L90 10.5V18L81 24L63 39.5L64.5 50L56 53.5L48 46.5H26.5L20.5 54C6.90004 53.2 10.8333 45.3333 14.5 41.5Z" fill="#FFEEAC"/>
<path d="M35 4.5C23 2.9 13.3333 20.5 10 29.5C31.6 46.7 56 34 65.5 25.5C66 25 66.5 24 65 20.5C58.619 5.61099 42.5 4.66666 35 4.5Z" fill="#379C30"/>
<path fill-rule="evenodd" clip-rule="evenodd" d="M7.40909 27.6424C4.49889 27.9588 1.89739 29.0721 1.89739 29.0721C0.373993 29.7205 -0.376007 31.4471 0.186493 33.0018C1.26069 35.9862 3.88179 38.6073 6.76069 40.5721C8.54189 41.7909 10.3935 42.7596 11.8623 43.451C11.624 43.8416 11.3467 44.2088 11.0732 44.5487C9.76073 46.1698 8.26073 47.2128 8.26073 47.2128C7.14743 47.9784 6.65133 49.369 7.03413 50.6659C7.03413 50.6659 7.51851 54.2948 14.5888 55.7206C18.0185 56.4159 20.581 55.826 22.5029 54.787C24.9482 53.4628 26.3701 51.287 27.1631 49.5526C37.6941 49.994 43.6011 49.7049 46.8471 49.3221C48.4916 53.3533 52.2026 54.8455 55.8744 55.1815C59.6322 55.5252 63.2455 54.5174 63.2455 54.5174C63.976 54.3143 64.6088 53.8495 65.0228 53.2088C66.5111 50.9158 66.7455 47.744 66.2689 44.7361C66.0306 43.2205 65.6322 41.7673 65.2416 40.5642C73.8705 36.6619 77.9996 31.8767 81.9876 26.2632C87.6634 25.5054 90.7845 23.1812 92.3156 20.5288C94.0812 17.4663 93.9015 13.6304 92.3156 9.97783C89.4054 3.27473 81.3586 1.35673 80.0036 1.21223C74.9684 0.673173 71.0856 3.69274 68.2336 8.16144C66.593 10.7356 65.2844 13.7786 64.1828 16.47C59.5578 8.24343 50.7058 -0.736967 35.7648 0.0480334C27.6632 0.473813 21.5418 4.51683 17.0418 9.66523C11.7645 15.7004 8.79579 23.2674 7.40909 27.6424ZM15.0263 49.4044C16.7099 47.5567 18.499 44.9864 18.8779 42.1388C19.0693 40.6818 18.2216 39.2833 16.8349 38.7872C16.8349 38.7872 13.4287 37.5684 10.2802 35.4161C9.57316 34.9317 8.86219 34.4083 8.22549 33.8341C9.07315 33.7481 9.98719 33.6778 10.6357 34.1583C14.0771 36.6856 43.9407 51.7793 66.4837 25.9395C67.0462 25.291 67.6634 24.2403 68.2767 22.8848C69.3236 20.5645 70.5228 17.1153 72.14 13.9278C73.1283 11.9708 74.265 10.0997 75.6947 8.79887C76.7142 7.87309 77.89 7.26367 79.3353 7.41997C80.1283 7.50591 84.89 8.54887 86.5931 12.4669C87.3353 14.1817 87.7376 15.9747 86.9095 17.4122C85.972 19.0333 83.7415 19.9044 79.9993 20.1974C79.0696 20.2716 78.2181 20.7599 77.6829 21.5294C73.6517 27.3185 69.8509 32.1814 60.1279 35.9394C59.3232 36.248 58.6826 36.8808 58.3584 37.6816C58.0342 38.4824 58.0576 39.3769 58.4209 40.1621C58.4209 40.1621 59.6436 42.8027 60.1045 45.7129C60.2686 46.752 60.4014 47.8496 60.1943 48.791C59.2256 48.9511 57.8505 49.0957 56.4443 48.9668C54.5927 48.7949 52.5576 48.0878 52.2685 45.4199C52.2685 45.4199 52.2646 45.3964 52.2529 45.3495C52.0615 44.4316 51.4912 43.6386 50.6826 43.1659C49.874 42.6933 48.9014 42.58 48.0068 42.8612C48.0068 42.8612 43.1201 44.0918 25.1438 43.2128C23.5735 43.1386 22.1907 44.244 21.9172 45.7948C21.9172 45.7948 21.5344 48.2128 19.5344 49.2987C18.636 49.7831 17.4289 49.9276 15.8274 49.6034C15.5423 49.5448 15.2724 49.4786 15.0263 49.4044ZM43.1433 19.3534C40.5808 19.8807 36.2566 20.6542 32.5063 20.7284L28.6743 34.1544C34.8579 35.1075 42.3423 34.8458 49.7683 31.2364C47.9792 27.3731 44.8347 22.1114 43.1433 19.3534ZM20.8703 14.8143C20.2961 15.5369 19.757 16.2752 19.2531 17.0213C16.4445 21.1697 14.6593 25.5916 13.632 28.6733C13.8742 28.81 14.1086 28.9623 14.3312 29.1264C15.2336 29.7865 18.2609 31.435 22.5812 32.7553L26.5656 18.7983C24.9914 17.685 22.6789 16.0565 20.8703 14.8143ZM50.5503 10.2127C50.0151 11.9315 49.2691 13.9471 48.2769 15.8025C49.8902 18.447 53.0699 23.7791 55.1167 28.0015C56.9565 26.6577 58.7651 25.0679 60.5347 23.2046C58.7964 18.9976 55.648 13.7477 50.5503 10.2127ZM44.9058 7.38845C42.3238 6.53689 39.3941 6.10725 36.0933 6.28295C31.8121 6.50561 28.2769 8.08375 25.3593 10.3338C27.5468 11.8494 30.0663 13.6307 31.2734 14.4822C35.1406 14.6657 40.3359 13.615 42.6564 13.0877C43.7306 11.1971 44.4605 9.02125 44.9058 7.38845Z" fill="black"/>
<path d="M77.535 14.2646C77.5861 13.5585 78.1012 12.0318 79.753 11.5732C80.4413 11.3821 81.9248 11.3854 82.3528 12.9271" stroke="black"/>
<path d="M87.3321 17.1881C86.9424 17.7791 85.7467 18.8593 84.0815 18.4519C83.3877 18.2822 82.0951 17.5542 82.4753 16" stroke="black"/>
<ellipse cx="76" cy="15.5" rx="2" ry="0.5" fill="#FF9191" fill-opacity="0.53"/>
</svg>
