<svg width="101" height="57" viewBox="0 0 101 57" fill="none" xmlns="http://www.w3.org/2000/svg">
<path d="M17.2169 37.5L11.7169 34.5L72.0009 19.5L86.0009 3.5L99.0009 14C98.2009 16 76.2169 31.8333 74.2169 33C69.4169 36.6 71.2169 38.1667 72.7169 38.5C91.9169 42.9 91.0503 48 88.2169 50C83.0169 55.2 68.7169 50.1667 62.2169 47C60.7169 45 52.2169 44.5 51.7169 45C51.3169 45.4 41.2169 45.1667 36.2169 45C33.8169 44.2 32.5503 46 32.2169 47C22.6169 57.8 11.8836 53.5 7.71693 50C1.71693 45.2 12.8836 44 19.2169 44C22.8169 41.2 19.3836 38.5 17.2169 37.5Z" fill="#FFEEAC" stroke="black" stroke-width="2"/>
<path d="M42.0009 4.5C30.0009 2.9 20.3342 20.5 17.0009 29.5C38.6009 46.7 63.0009 34 72.5009 25.5C73.0009 25 73.5009 24 72.0009 20.5C65.6199 5.61099 49.5009 4.66666 42.0009 4.5Z" fill="#379C30"/>
<mask id="path-3-inside-1_7_123" fill="white">
<path fill-rule="evenodd" clip-rule="evenodd" d="M12.0009 39L20.151 37.7468C19.9904 37.4917 19.7778 37.2446 19.5009 37C19.5009 37 18.5009 36.2518 17.2811 35.4161C16.5741 34.9317 15.8631 34.4083 15.2264 33.8341C16.0741 33.7481 16.9881 33.6778 17.6366 34.1583C21.078 36.6856 50.9416 51.7793 73.4846 25.9395C74.0471 25.291 74.6643 24.2403 75.2776 22.8848C76.3245 20.5645 77.5237 17.1153 79.1409 13.9278C80.1292 11.9708 81.2659 10.0997 82.6956 8.79887C83.7151 7.87309 84.8909 7.26367 86.3362 7.41997C87.1292 7.50591 91.8909 8.54887 93.594 12.4669C94.3362 14.1817 94.7385 15.9747 93.9104 17.4122C92.9729 19.0333 90.7424 19.9044 87.0002 20.1974C86.0705 20.2716 85.219 20.7599 84.6838 21.5294C82.8625 24.145 81.0881 26.5715 78.7934 28.7925L85.5009 30.5C87.7006 28.3439 87.2226 28.7489 88.9885 26.2632C94.6643 25.5054 97.7854 23.1812 99.3165 20.5288C101.082 17.4663 100.902 13.6304 99.3165 9.97783C96.4063 3.27473 88.3595 1.35673 87.0045 1.21223C81.9693 0.673173 78.0865 3.69274 75.2345 8.16144C73.5939 10.7356 72.2853 13.7786 71.1837 16.47C66.5587 8.24343 57.7067 -0.736967 42.7657 0.0480334C34.6641 0.473813 28.5427 4.51683 24.0427 9.66523C18.7654 15.7004 15.7967 23.2674 14.41 27.6424C11.4998 27.9588 8.89831 29.0721 8.89831 29.0721C7.37491 29.7205 6.62491 31.4471 7.18741 33.0018C7.98145 35.2078 10.0371 37.3093 12.0009 39ZM50.1442 19.3534C47.5817 19.8807 43.2575 20.6542 39.5072 20.7284L35.6752 34.1544C41.8588 35.1075 49.3432 34.8458 56.7692 31.2364C54.9801 27.3731 51.8356 22.1114 50.1442 19.3534ZM27.8712 14.8143C27.297 15.5369 26.7579 16.2752 26.254 17.0213C23.4454 21.1697 21.6602 25.5916 20.6329 28.6733C20.8751 28.81 21.1095 28.9623 21.3321 29.1264C22.2345 29.7865 25.2618 31.435 29.5821 32.7553L33.5665 18.7983C31.9923 17.685 29.6798 16.0565 27.8712 14.8143ZM57.5512 10.2127C57.016 11.9315 56.27 13.9471 55.2778 15.8025C56.8911 18.447 60.0708 23.7791 62.1176 28.0015C63.9574 26.6577 65.766 25.0679 67.5356 23.2046C65.7973 18.9976 62.6489 13.7477 57.5512 10.2127ZM51.9067 7.38845C49.3247 6.53689 46.395 6.10725 43.0942 6.28295C38.813 6.50561 35.2778 8.08375 32.3602 10.3338C34.5477 11.8494 37.0672 13.6307 38.2743 14.4822C42.1415 14.6657 47.3368 13.615 49.6573 13.0877C50.7315 11.1971 51.4614 9.02125 51.9067 7.38845Z"/>
</mask>
<path fill-rule="evenodd" clip-rule="evenodd" d="M12.0009 39L20.151 37.7468C19.9904 37.4917 19.7778 37.2446 19.5009 37C19.5009 37 18.5009 36.2518 17.2811 35.4161C16.5741 34.9317 15.8631 34.4083 15.2264 33.8341C16.0741 33.7481 16.9881 33.6778 17.6366 34.1583C21.078 36.6856 50.9416 51.7793 73.4846 25.9395C74.0471 25.291 74.6643 24.2403 75.2776 22.8848C76.3245 20.5645 77.5237 17.1153 79.1409 13.9278C80.1292 11.9708 81.2659 10.0997 82.6956 8.79887C83.7151 7.87309 84.8909 7.26367 86.3362 7.41997C87.1292 7.50591 91.8909 8.54887 93.594 12.4669C94.3362 14.1817 94.7385 15.9747 93.9104 17.4122C92.9729 19.0333 90.7424 19.9044 87.0002 20.1974C86.0705 20.2716 85.219 20.7599 84.6838 21.5294C82.8625 24.145 81.0881 26.5715 78.7934 28.7925L85.5009 30.5C87.7006 28.3439 87.2226 28.7489 88.9885 26.2632C94.6643 25.5054 97.7854 23.1812 99.3165 20.5288C101.082 17.4663 100.902 13.6304 99.3165 9.97783C96.4063 3.27473 88.3595 1.35673 87.0045 1.21223C81.9693 0.673173 78.0865 3.69274 75.2345 8.16144C73.5939 10.7356 72.2853 13.7786 71.1837 16.47C66.5587 8.24343 57.7067 -0.736967 42.7657 0.0480334C34.6641 0.473813 28.5427 4.51683 24.0427 9.66523C18.7654 15.7004 15.7967 23.2674 14.41 27.6424C11.4998 27.9588 8.89831 29.0721 8.89831 29.0721C7.37491 29.7205 6.62491 31.4471 7.18741 33.0018C7.98145 35.2078 10.0371 37.3093 12.0009 39ZM50.1442 19.3534C47.5817 19.8807 43.2575 20.6542 39.5072 20.7284L35.6752 34.1544C41.8588 35.1075 49.3432 34.8458 56.7692 31.2364C54.9801 27.3731 51.8356 22.1114 50.1442 19.3534ZM27.8712 14.8143C27.297 15.5369 26.7579 16.2752 26.254 17.0213C23.4454 21.1697 21.6602 25.5916 20.6329 28.6733C20.8751 28.81 21.1095 28.9623 21.3321 29.1264C22.2345 29.7865 25.2618 31.435 29.5821 32.7553L33.5665 18.7983C31.9923 17.685 29.6798 16.0565 27.8712 14.8143ZM57.5512 10.2127C57.016 11.9315 56.27 13.9471 55.2778 15.8025C56.8911 18.447 60.0708 23.7791 62.1176 28.0015C63.9574 26.6577 65.766 25.0679 67.5356 23.2046C65.7973 18.9976 62.6489 13.7477 57.5512 10.2127ZM51.9067 7.38845C49.3247 6.53689 46.395 6.10725 43.0942 6.28295C38.813 6.50561 35.2778 8.08375 32.3602 10.3338C34.5477 11.8494 37.0672 13.6307 38.2743 14.4822C42.1415 14.6657 47.3368 13.615 49.6573 13.0877C50.7315 11.1971 51.4614 9.02125 51.9067 7.38845Z" fill="black"/>
<path d="M20.6329 40L20.8594 45.4953L40.1705 44.6995L23.3337 35.2088L20.6329 40ZM10.5009 48L5.18662 49.4171L5.57435 50.8711L6.64826 51.9252L10.5009 48ZM32.3602 46.5V41H31.5292L30.7352 41.2455L32.3602 46.5ZM54.5009 46.5L56.5168 41.3828L55.5452 41H54.5009V46.5ZM76.5009 46.5L80.6995 50.0527L81.1818 49.4827L81.4947 48.8048L76.5009 46.5ZM69.5009 40L65.8109 35.9215L55.2241 45.5H69.5009V40ZM12.5009 35.4161L9.80016 40.2073L17.9322 44.7912L20.6329 40L23.3337 35.2088L15.2017 30.6249L12.5009 35.4161ZM20.6329 40L20.4064 34.5047C17.9301 34.6067 14.0514 35.1991 10.7932 36.997C9.11791 37.9214 7.24234 39.367 6.01899 41.5956C4.71559 43.97 4.45737 46.6824 5.18662 49.4171L10.5009 48L15.8152 46.5829C15.7445 46.3176 15.8472 46.5508 15.6617 46.8888C15.5562 47.0809 15.5554 46.9327 16.1077 46.628C16.6409 46.3337 17.4096 46.052 18.3445 45.8382C19.2611 45.6287 20.1643 45.524 20.8594 45.4953L20.6329 40ZM10.5009 48L6.64826 51.9252C7.95933 53.212 9.65397 53.8852 11.0788 54.2631C12.6373 54.6764 14.4794 54.895 16.5917 54.9C20.8172 54.91 26.511 54.066 33.9852 51.7545L32.3602 46.5L30.7352 41.2455C23.9822 43.334 19.4256 43.9067 16.6178 43.9C15.2135 43.8967 14.3433 43.7486 13.8988 43.6307C13.3207 43.4773 13.7217 43.4546 14.3536 44.0748L10.5009 48ZM32.3602 46.5V52H54.5009V46.5V41H32.3602V46.5ZM54.5009 46.5L52.485 51.6172C55.5813 52.837 60.5054 54.3032 65.4261 54.7409C67.8914 54.9602 70.6025 54.9449 73.1858 54.3648C75.7796 53.7822 78.5905 52.5452 80.6995 50.0527L76.5009 46.5L72.3023 42.9473C72.2113 43.0548 71.8597 43.3886 70.7754 43.6321C69.6806 43.878 68.1979 43.944 66.4007 43.7841C62.7965 43.4635 58.9205 42.3297 56.5168 41.3828L54.5009 46.5ZM76.5009 46.5L81.4947 48.8048C82.4327 46.7725 83.2778 42.9848 80.9955 39.4526C78.6215 35.7786 74.2489 34.5 69.5009 34.5V40V45.5C71.0437 45.5 71.8072 45.7142 72.0821 45.8233C72.3 45.9098 72.0339 45.852 71.7564 45.4224C71.4932 45.0152 71.4514 44.6308 71.4554 44.4495C71.4585 44.3056 71.4854 44.2423 71.5071 44.1952L76.5009 46.5ZM69.5009 40L73.1909 44.0785L88.3738 30.3417L84.6838 26.2632L80.9938 22.1847L65.8109 35.9215L69.5009 40ZM15.2264 33.8341L14.1161 22.8903L-10.5577 25.3936L7.8595 42.0029L15.2264 33.8341ZM17.6366 34.1583L11.088 42.9966L11.1068 43.0105L11.1256 43.0243L17.6366 34.1583ZM78.7934 28.7925L71.1433 20.8883L56.9849 34.5916L76.0797 39.4525L78.7934 28.7925ZM85.5009 30.5L82.7872 41.16L88.7827 42.6863L93.2009 38.3556L85.5009 30.5ZM73.4846 25.9395L81.7736 33.1709L81.7839 33.159L81.7942 33.1472L73.4846 25.9395ZM75.2776 22.8848L85.2995 27.4192L85.3043 27.4087L75.2776 22.8848ZM71.1837 16.47L61.5952 21.8607L72.7453 41.6937L81.364 20.6368L71.1837 16.47ZM42.7657 0.0480334L42.1886 -10.9368L42.1884 -10.9368L42.7657 0.0480334ZM93.9104 17.4122L103.433 22.9191L103.437 22.9111L103.442 22.903L93.9104 17.4122ZM87.0002 20.1974L86.1416 9.23096L86.1333 9.23161L86.1251 9.23227L87.0002 20.1974ZM24.0427 9.66523L32.3234 16.9061L32.3249 16.9044L24.0427 9.66523ZM14.41 27.6424L15.5989 38.578L22.7289 37.8028L24.8959 30.966L14.41 27.6424ZM17.2811 35.4161L23.4982 26.3415L17.2811 35.4161ZM84.6838 21.5294L93.7108 27.8153L93.7143 27.8103L84.6838 21.5294ZM75.2345 8.16144L65.962 2.24358L65.9583 2.2494L75.2345 8.16144ZM8.89831 29.0721L13.2062 39.1935L13.2162 39.1892L13.2261 39.185L8.89831 29.0721ZM7.18741 33.0018L17.5374 29.2765L17.5343 29.2679L17.5312 29.2594L7.18741 33.0018ZM86.3362 7.41997L87.5214 -3.516L87.5189 -3.51627L86.3362 7.41997ZM93.594 12.4669L103.689 8.09758L103.686 8.08967L103.682 8.08176L93.594 12.4669ZM88.9885 26.2632L87.5328 15.36L82.7915 15.993L80.0211 19.8925L88.9885 26.2632ZM79.1409 13.9278L88.9506 18.9048L88.9552 18.8956L88.9599 18.8864L79.1409 13.9278ZM82.6956 8.79887L75.3008 0.655399L75.2928 0.662654L82.6956 8.79887ZM20.151 37.7468L21.8228 48.619L38.3873 46.072L29.4608 31.8879L20.151 37.7468ZM19.5009 37L26.7836 28.756L26.4486 28.4601L26.0908 28.1924L19.5009 37ZM12.0009 39L4.82414 47.3363L8.66431 50.6423L13.6727 49.8722L12.0009 39ZM39.5072 20.7284L39.2896 9.73055L31.161 9.89138L28.9296 17.7094L39.5072 20.7284ZM35.6752 34.1544L25.0976 31.1354L21.6752 43.1264L33.9995 45.026L35.6752 34.1544ZM56.7692 31.2364L61.5778 41.1297L71.2875 36.4103L66.7508 26.6139L56.7692 31.2364ZM50.1442 19.3534L59.5213 13.6027L55.4865 7.02361L47.9271 8.57914L50.1442 19.3534ZM87.0045 1.21223L85.8336 12.1497L85.8381 12.1502L87.0045 1.21223ZM27.8712 14.8143L34.0989 5.747L25.6419 -0.0615003L19.2591 7.97089L27.8712 14.8143ZM26.254 17.0213L35.3628 23.1882L35.3697 23.1779L26.254 17.0213ZM33.5665 18.7983L44.1439 21.8179L46.2845 14.3198L39.918 9.8173L33.5665 18.7983ZM99.3165 9.97783L89.2264 14.3585L89.2265 14.3588L99.3165 9.97783ZM20.6329 28.6733L10.1975 25.1946L7.33008 33.7962L15.2262 38.2528L20.6329 28.6733ZM29.5821 32.7553L26.3672 43.275L37.0835 46.55L40.1595 35.7749L29.5821 32.7553ZM21.3321 29.1264L14.8049 37.9805L14.8213 37.9926L14.8377 38.0046L21.3321 29.1264ZM57.5512 10.2127L63.8195 1.17342L51.5041 -7.36666L47.0486 6.94239L57.5512 10.2127ZM55.2778 15.8025L45.5777 10.6152L42.6116 16.1618L45.8873 21.5313L55.2778 15.8025ZM67.5356 23.2046L75.5117 30.7796L80.4285 25.6026L77.702 19.0039L67.5356 23.2046ZM62.1176 28.0015L52.2193 32.7997L57.9663 44.6554L68.6057 36.8843L62.1176 28.0015ZM43.0942 6.28295L43.6655 17.2681L43.6789 17.2674L43.0942 6.28295ZM32.3602 10.3338L25.6426 1.62323L13.7314 10.8091L26.0956 19.3756L32.3602 10.3338ZM38.2743 14.4822L31.9336 23.4708L34.5521 25.318L37.7529 25.4698L38.2743 14.4822ZM49.6573 13.0877L52.0948 23.8142L56.825 22.7394L59.2213 18.5218L49.6573 13.0877ZM51.9067 7.38845L62.5191 10.2827L65.2658 0.211538L55.352 -3.05807L51.9067 7.38845ZM99.3165 20.5288L108.843 26.0281L108.846 26.0229L99.3165 20.5288ZM15.2264 33.8341L16.3367 44.7779C16.82 44.7289 16.3526 44.8041 15.6685 44.7518C14.8984 44.693 13.0189 44.4273 11.088 42.9966L17.6366 34.1583L24.1852 25.32C21.6058 23.4088 18.945 22.938 17.3439 22.8157C15.8287 22.7 14.4804 22.8533 14.1161 22.8903L15.2264 33.8341ZM78.7934 28.7925L76.0797 39.4525L82.7872 41.16L85.5009 30.5L88.2146 19.84L81.5071 18.1325L78.7934 28.7925ZM73.4846 25.9395L81.7942 33.1472C83.3806 31.3183 84.5165 29.1499 85.2995 27.4192L75.2776 22.8848L65.2557 18.3504C65.1674 18.5455 65.089 18.7075 65.0223 18.838C64.9552 18.9693 64.9056 19.0578 64.876 19.1082C64.8453 19.1604 64.8464 19.1543 64.8828 19.1019C64.9166 19.0533 65.012 18.9197 65.175 18.7319L73.4846 25.9395ZM71.1837 16.47L80.7723 11.0793C74.9634 0.746981 62.8188 -12.0207 42.1886 -10.9368L42.7657 0.0480334L43.3429 11.0329C52.5947 10.5468 58.154 15.7399 61.5952 21.8607L71.1837 16.47ZM93.9104 17.4122L84.3881 11.9053C85.493 9.99479 86.9978 9.25919 87.4218 9.0896C87.6195 9.01049 87.6398 9.02675 87.3945 9.07522C87.1555 9.12246 86.7521 9.18316 86.1416 9.23096L87.0002 20.1974L87.8588 31.1638C91.707 30.8625 99.4422 29.8194 103.433 22.9191L93.9104 17.4122ZM24.0427 9.66523L15.762 2.42438C9.02122 10.1332 5.48997 19.3786 3.92413 24.3188L14.41 27.6424L24.8959 30.966C26.1034 27.1562 28.5096 21.2676 32.3234 16.9061L24.0427 9.66523ZM17.2811 35.4161L23.4982 26.3415C22.9681 25.9784 22.7088 25.7695 22.5933 25.6653L15.2264 33.8341L7.8595 42.0029C9.0174 43.0471 10.18 43.885 11.064 44.4907L17.2811 35.4161ZM42.7657 0.0480334L42.1884 -10.9368C30.3672 -10.3155 21.6599 -4.32333 15.7605 2.4261L24.0427 9.66523L32.3249 16.9044C35.4255 13.357 38.9611 11.2632 43.343 11.0329L42.7657 0.0480334ZM87.0002 20.1974L86.1251 9.23227C81.91 9.56868 78.0671 11.7779 75.6533 15.2485L84.6838 21.5294L93.7143 27.8103C92.3709 29.7419 90.2311 30.9745 87.8754 31.1625L87.0002 20.1974ZM75.2345 8.16144L65.9583 2.2494C63.7332 5.74073 62.1059 9.60961 61.0035 12.3032L71.1837 16.47L81.364 20.6368C82.4647 17.9476 83.4547 15.7305 84.5107 14.0735L75.2345 8.16144ZM8.89831 29.0721L4.59038 18.9507C-2.31038 21.8879 -5.70377 29.7035 -3.15639 36.7442L7.18741 33.0018L17.5312 29.2594C18.9536 33.1907 17.0602 37.5531 13.2062 39.1935L8.89831 29.0721ZM86.3362 7.41997L85.151 18.3559C84.764 18.314 84.5388 18.2647 84.5247 18.2617C84.4638 18.2488 84.4518 18.244 84.4754 18.251C84.5371 18.269 84.6108 18.2978 84.6522 18.3188C84.6992 18.3426 84.5723 18.2884 84.3577 18.0886C84.1206 17.8678 83.7701 17.4599 83.5059 16.852L93.594 12.4669L103.682 8.08176C101.441 2.92578 97.3954 0.112643 94.5954 -1.30599C91.8599 -2.69202 89.1816 -3.33607 87.5214 -3.516L86.3362 7.41997ZM85.5009 30.5L93.2009 38.3556C94.1781 37.3977 95.1573 36.4465 96.0581 35.2997C96.486 34.7549 96.8403 34.2393 97.0661 33.9117C97.3179 33.5461 97.5699 33.1772 97.9559 32.6339L88.9885 26.2632L80.0211 19.8925C79.5241 20.592 79.1737 21.1047 78.9498 21.4297C78.6998 21.7925 78.705 21.7765 78.7567 21.7107C78.854 21.5868 78.9096 21.5358 78.7929 21.6573C78.6314 21.8254 78.3617 22.0948 77.8009 22.6444L85.5009 30.5ZM79.1409 13.9278L88.9599 18.8864C89.3372 18.1394 89.6424 17.6113 89.8904 17.2413C90.1442 16.8625 90.2264 16.8187 90.0985 16.9351L82.6956 8.79887L75.2928 0.662654C72.3193 3.36812 70.4494 6.73661 69.322 8.96915L79.1409 13.9278ZM84.6838 21.5294L75.6568 15.2435C73.8846 17.7884 72.6192 19.4599 71.1433 20.8883L78.7934 28.7925L86.4435 36.6967C89.5571 33.6831 91.8403 30.5016 93.7108 27.8153L84.6838 21.5294ZM82.6956 8.79887L90.0905 16.9423C89.9611 17.0598 89.4518 17.5005 88.5537 17.8713C87.563 18.2803 86.3732 18.4881 85.1535 18.3562L86.3362 7.41997L87.5189 -3.51627C81.8255 -4.13197 77.658 -1.48514 75.3008 0.655403L82.6956 8.79887ZM93.594 12.4669L83.499 16.8362C83.6469 17.178 83.4777 16.9096 83.4031 16.2102C83.317 15.403 83.3388 13.7268 84.3789 11.9214L93.9104 17.4122L103.442 22.903C107.121 16.5167 104.579 10.1549 103.689 8.09758L93.594 12.4669ZM75.2776 22.8848L85.3043 27.4087C85.9375 26.0053 86.6551 24.1739 87.1801 22.8875C87.7841 21.4072 88.3517 20.0851 88.9506 18.9048L79.1409 13.9278L69.3313 8.9508C68.3129 10.958 67.4723 12.9543 66.8107 14.5755C66.07 16.3906 65.6647 17.444 65.251 18.3609L75.2776 22.8848ZM17.6366 34.1583L11.1256 43.0243C14.4575 45.4712 24.7259 50.6253 37.518 51.6513C51.034 52.7355 67.7999 49.1882 81.7736 33.1709L73.4846 25.9395L65.1957 18.7081C56.6264 28.5306 47.1889 30.3564 39.277 29.7218C35.1531 29.391 31.4092 28.3653 28.515 27.2774C25.4145 26.112 23.9095 25.1173 24.1477 25.2923L17.6366 34.1583ZM20.151 37.7468L29.4608 31.8879C28.6626 30.6195 27.7267 29.5892 26.7836 28.756L19.5009 37L12.2183 45.244C11.8288 44.8999 11.3183 44.3639 10.8412 43.6057L20.151 37.7468ZM20.151 37.7468L18.4792 26.8746L10.3292 28.1278L12.0009 39L13.6727 49.8722L21.8228 48.619L20.151 37.7468ZM7.18741 33.0018L-3.16256 36.7271C-1.30888 41.8771 2.7982 45.5922 4.82414 47.3363L12.0009 39L19.1777 30.6637C18.4295 30.0195 17.8921 29.489 17.5448 29.0794C17.466 28.9865 17.4086 28.9133 17.3689 28.86C17.3291 28.8064 17.313 28.7806 17.3143 28.7828C17.3155 28.7847 17.3404 28.8244 17.379 28.9016C17.4177 28.9787 17.4754 29.1041 17.5374 29.2765L7.18741 33.0018ZM39.5072 20.7284L28.9296 17.7094L25.0976 31.1354L35.6752 34.1544L46.2528 37.1734L50.0848 23.7474L39.5072 20.7284ZM56.7692 31.2364L66.7508 26.6139C64.6575 22.0936 61.1914 16.326 59.5213 13.6027L50.1442 19.3534L40.7671 25.1041C42.4798 27.8968 45.3027 32.6526 46.7876 35.8589L56.7692 31.2364ZM87.0045 1.21223L88.1755 -9.72527C77.1471 -10.9059 69.852 -3.85144 65.962 2.24358L75.2345 8.16144L84.507 14.0793C85.37 12.7271 86.0081 12.2155 86.2098 12.0871C86.2798 12.0425 86.235 12.0828 86.0916 12.1184C85.9382 12.1565 85.8312 12.1495 85.8336 12.1497L87.0045 1.21223ZM35.6752 34.1544L33.9995 45.026C41.7657 46.223 51.6357 45.9621 61.5778 41.1297L56.7692 31.2364L51.9606 21.3431C47.0507 23.7295 41.9519 23.992 37.3509 23.2828L35.6752 34.1544ZM27.8712 14.8143L19.2591 7.97089C18.5012 8.92469 17.7947 9.89281 17.1383 10.8647L26.254 17.0213L35.3697 23.1779C35.7211 22.6576 36.0928 22.1491 36.4833 21.6577L27.8712 14.8143ZM14.41 27.6424L13.2211 16.7068C10.8126 16.9687 8.69371 17.5341 7.27282 17.9794C6.5353 18.2106 5.91825 18.431 5.46283 18.603C5.23382 18.6895 5.04207 18.7652 4.89248 18.8257C4.81758 18.856 4.75294 18.8826 4.69917 18.905C4.67227 18.9162 4.64806 18.9263 4.6266 18.9354C4.61588 18.9399 4.60584 18.9442 4.59649 18.9481C4.59182 18.9501 4.58732 18.952 4.58299 18.9539C4.58083 18.9548 4.57871 18.9557 4.57664 18.9566C4.5756 18.9571 4.57408 18.9577 4.57356 18.9579C4.57205 18.9586 4.57054 18.9592 8.89831 29.0721C13.2261 39.185 13.2246 39.1856 13.2231 39.1863C13.2226 39.1865 13.2212 39.1871 13.2202 39.1875C13.2183 39.1883 13.2164 39.1891 13.2146 39.1899C13.2109 39.1915 13.2073 39.193 13.2039 39.1944C13.1971 39.1973 13.1908 39.2 13.1851 39.2024C13.1737 39.2072 13.1644 39.2111 13.1573 39.2141C13.143 39.22 13.1371 39.2224 13.1391 39.2216C13.1431 39.22 13.1773 39.2062 13.2377 39.1834C13.361 39.1368 13.5762 39.0591 13.8528 38.9724C14.4603 38.782 15.0972 38.6325 15.5989 38.578L14.41 27.6424ZM33.5665 18.7983L39.918 9.8173C38.3402 8.70142 35.9746 7.0353 34.0989 5.747L27.8712 14.8143L21.6435 23.8816C23.385 25.0777 25.6445 26.6686 27.215 27.7793L33.5665 18.7983ZM99.3165 9.97783L109.407 5.59715C106.598 -0.872742 101.514 -4.59744 97.6887 -6.60476C93.9677 -8.5574 90.284 -9.50041 88.171 -9.72575L87.0045 1.21223L85.8381 12.1502C85.4437 12.1081 85.2765 12.0621 85.4057 12.091C85.4744 12.1063 85.6315 12.1448 85.8545 12.2134C86.3131 12.3545 86.8919 12.5746 87.4659 12.8759C88.7305 13.5395 89.1252 14.1253 89.2264 14.3585L99.3165 9.97783ZM26.254 17.0213L17.1453 10.8544C13.5739 16.1295 11.4052 21.5716 10.1975 25.1946L20.6329 28.6733L31.0684 32.152C31.9152 29.6116 33.317 26.2099 35.3628 23.1882L26.254 17.0213ZM29.5821 32.7553L40.1595 35.7749L44.1439 21.8179L33.5665 18.7983L22.9891 15.7787L19.0047 29.7357L29.5821 32.7553ZM20.6329 28.6733L15.2262 38.2528C15.0711 38.1653 14.9319 38.0742 14.8049 37.9805L21.3321 29.1264L27.8593 20.2723C27.2871 19.8504 26.6792 19.4547 26.0397 19.0938L20.6329 28.6733ZM57.5512 10.2127L47.0486 6.94239C46.6306 8.28462 46.1263 9.58942 45.5777 10.6152L55.2778 15.8025L64.9779 20.9898C66.4138 18.3048 67.4014 15.5784 68.0538 13.483L57.5512 10.2127ZM67.5356 23.2046L77.702 19.0039C75.5016 13.6786 71.2723 6.34155 63.8195 1.17342L57.5512 10.2127L51.2829 19.252C54.0256 21.1539 56.0931 24.3166 57.3693 27.4053L67.5356 23.2046ZM62.1176 28.0015L68.6057 36.8843C71.0122 35.1266 73.315 33.0928 75.5117 30.7796L67.5356 23.2046L59.5595 15.6296C58.2171 17.043 56.9026 18.1888 55.6295 19.1187L62.1176 28.0015ZM43.0942 6.28295L42.5229 -4.7022C35.6938 -4.34703 30.0624 -1.78526 25.6426 1.62323L32.3602 10.3338L39.0778 19.0444C40.4933 17.9528 41.9322 17.3583 43.6655 17.2681L43.0942 6.28295ZM21.3321 29.1264L14.8377 38.0046C17.0257 39.6051 21.2741 41.7185 26.3672 43.275L29.5821 32.7553L32.797 22.2356C31.1626 21.7361 29.8087 21.1846 28.8378 20.7302C28.3532 20.5034 27.9956 20.3156 27.7721 20.1904C27.4922 20.0335 27.555 20.0496 27.8265 20.2482L21.3321 29.1264ZM32.3602 10.3338L26.0956 19.3756C28.2356 20.8583 30.7095 22.6074 31.9336 23.4708L38.2743 14.4822L44.615 5.49355C43.4249 4.65405 40.8598 2.84046 38.6248 1.29196L32.3602 10.3338ZM38.2743 14.4822L37.7529 25.4698C43.2919 25.7327 49.8279 24.3294 52.0948 23.8142L49.6573 13.0877L47.2199 2.36115C46.2261 2.58698 44.6416 2.91837 42.9408 3.16923C41.1391 3.43497 39.6852 3.53677 38.7957 3.49456L38.2743 14.4822ZM49.6573 13.0877L59.2213 18.5218C60.9416 15.4942 61.9615 12.3275 62.5191 10.2827L51.9067 7.38845L41.2943 4.49421C41.1435 5.0473 40.9535 5.65698 40.7295 6.24912C40.5004 6.85458 40.2788 7.32707 40.0933 7.65361L49.6573 13.0877ZM19.5009 37C26.0908 28.1924 26.0906 28.1922 26.0903 28.1921C26.0903 28.192 26.09 28.1919 26.0899 28.1917C26.0896 28.1915 26.0892 28.1913 26.0889 28.191C26.0882 28.1905 26.0875 28.1899 26.0866 28.1893C26.085 28.1881 26.0831 28.1867 26.081 28.1851C26.0767 28.1819 26.0715 28.178 26.0653 28.1734C26.0529 28.1641 26.0367 28.1521 26.0168 28.1373C25.977 28.1077 25.9225 28.0673 25.8548 28.0174C25.7197 27.9177 25.5309 27.7793 25.301 27.6128C24.8453 27.2827 24.2089 26.8284 23.4982 26.3415L17.2811 35.4161L11.064 44.4907C11.5732 44.8395 12.0466 45.1772 12.3959 45.4301C12.5685 45.5551 12.7059 45.6559 12.7964 45.7227C12.8415 45.756 12.8747 45.7806 12.8944 45.7952C12.9042 45.8025 12.9106 45.8073 12.9135 45.8094C12.9149 45.8105 12.9154 45.8109 12.915 45.8106C12.9148 45.8104 12.9144 45.8101 12.9137 45.8096C12.9134 45.8094 12.913 45.8091 12.9126 45.8087C12.9123 45.8086 12.9121 45.8084 12.9119 45.8082C12.9117 45.8081 12.9115 45.8079 12.9115 45.8079C12.9113 45.8077 12.911 45.8076 19.5009 37ZM99.3165 20.5288L108.846 26.0229C112.879 19.0275 111.896 11.3318 109.406 5.59689L99.3165 9.97783L89.2265 14.3588C89.5332 15.065 89.5727 15.4966 89.5742 15.612C89.5748 15.659 89.5689 15.6133 89.5976 15.4955C89.6276 15.3724 89.6864 15.2088 89.7868 15.0347L99.3165 20.5288ZM55.2778 15.8025L45.8873 21.5313C47.4973 24.1703 50.4269 29.1022 52.2193 32.7997L62.1176 28.0015L72.016 23.2033C69.7147 18.456 66.285 12.7237 64.6683 10.0737L55.2778 15.8025ZM88.9885 26.2632L90.4443 37.1665C98.649 36.071 105.217 32.3102 108.843 26.0281L99.3165 20.5288L89.7898 15.0295C89.9824 14.6959 90.1691 14.6011 90.0529 14.6707C89.8907 14.7679 89.1827 15.1397 87.5328 15.36L88.9885 26.2632ZM50.1442 19.3534L47.9271 8.57914C45.4951 9.07959 41.986 9.6772 39.2896 9.73055L39.5072 20.7284L39.7248 31.7262C44.529 31.6312 49.6683 30.6818 52.3613 30.1277L50.1442 19.3534ZM51.9067 7.38845L55.352 -3.05807C51.4338 -4.35031 47.1349 -4.94771 42.5095 -4.7015L43.0942 6.28295L43.6789 17.2674C45.6551 17.1622 47.2156 17.4241 48.4614 17.835L51.9067 7.38845Z" fill="black" mask="url(#path-3-inside-1_7_123)"/>
<path d="M10.5009 33L12.5009 35.25L14.5009 37.5C16.8552 38.5047 21.2734 41.2669 17.3616 44.0801C10.4797 44.0801 -1.65413 45.2857 4.86556 50.1084C9.39311 53.6248 21.0561 57.9451 31.4876 47.0942C31.8498 46.0895 33.2262 44.281 35.8341 45.0848C41.2671 45.2522 52.2419 45.4867 52.6766 45.0848C53.2199 44.5824 62.4561 45.0848 64.086 47.0942C71.149 50.2758 86.6876 55.3329 92.338 50.1084C95.4167 48.0989 96.3585 42.9749 75.4955 38.5542C73.8656 38.2193 71.9097 36.6452 77.1254 33.0283C79.2986 31.8561 83.8624 29.0094 84.7317 27" stroke="black" stroke-width="6"/>
<path d="M84.5359 14.2646C84.587 13.5585 85.1021 12.0318 86.7539 11.5732C87.4422 11.3821 88.9257 11.3854 89.3537 12.9271" stroke="black"/>
<path d="M94.333 17.1881C93.9433 17.7791 92.7476 18.8593 91.0824 18.4519C90.3886 18.2822 89.096 17.5542 89.4762 16" stroke="black"/>
<ellipse cx="83.0009" cy="15.5" rx="2" ry="0.5" fill="#FF9191" fill-opacity="0.53"/>
</svg>
